<svg id="Group_13483" data-name="Group 13483" xmlns="http://www.w3.org/2000/svg" xmlns:xlink="http://www.w3.org/1999/xlink" width="17.99" height="17.99" viewBox="0 0 17.99 17.99">
  <defs>
    <clipPath id="clip-path">
      <rect id="Rectangle_5218" data-name="Rectangle 5218" width="17.99" height="17.99" fill="none"/>
    </clipPath>
  </defs>
  <g id="Group_13482" data-name="Group 13482" clip-path="url(#clip-path)">
    <path id="Path_45542" data-name="Path 45542" d="M.671.033A.7.7,0,0,1,1.194.25L8.98,8.03l.076-.035,7.8-7.8a.667.667,0,1,1,.943.943L9.96,8.981,10,9.057l7.8,7.8a.667.667,0,1,1-.943.943L9.009,9.961,8.933,10l-7.8,7.8a.667.667,0,1,1-.943-.943L8.029,9.01l-.035-.076L.211,1.153A.661.661,0,0,1,.671.033" transform="translate(0 0)"/>
  </g>
</svg>
