<svg xmlns="http://www.w3.org/2000/svg" width="36" height="36" viewBox="0 0 36 36">
  <g id="Group_13960" data-name="Group 13960" transform="translate(-1744 -306)">
    <g id="Group_11966" data-name="Group 11966" transform="translate(1744 306)">
      <g id="Ellipse_420" data-name="Ellipse 420" transform="translate(0 0)" fill="#fff" stroke="#111" stroke-width="0.5">
        <circle cx="18" cy="18" r="18" stroke="none"/>
        <circle cx="18" cy="18" r="17.75" fill="none"/>
      </g>
    </g>
    <path id="delete_24dp_5F6368_FILL1_wght400_GRAD0_opsz24" d="M162.938-822.373a1.885,1.885,0,0,1-1.383-.575,1.885,1.885,0,0,1-.575-1.383v-12.731a.947.947,0,0,1-.7-.281.947.947,0,0,1-.282-.7.947.947,0,0,1,.282-.7.947.947,0,0,1,.7-.281H164.9a.947.947,0,0,1,.282-.7.946.946,0,0,1,.7-.282h3.917a.947.947,0,0,1,.7.282.947.947,0,0,1,.282.7h3.917a.947.947,0,0,1,.7.281.947.947,0,0,1,.282.7.947.947,0,0,1-.282.7.947.947,0,0,1-.7.281v12.731a1.885,1.885,0,0,1-.575,1.383,1.885,1.885,0,0,1-1.383.575Zm2.938-3.917a.948.948,0,0,0,.7-.282.947.947,0,0,0,.282-.7v-6.855a.948.948,0,0,0-.282-.7.948.948,0,0,0-.7-.281.948.948,0,0,0-.7.281.948.948,0,0,0-.282.7v6.855a.947.947,0,0,0,.282.7A.948.948,0,0,0,165.876-826.29Zm3.917,0a.948.948,0,0,0,.7-.282.947.947,0,0,0,.282-.7v-6.855a.948.948,0,0,0-.282-.7.948.948,0,0,0-.7-.281.948.948,0,0,0-.7.281.948.948,0,0,0-.282.7v6.855a.947.947,0,0,0,.282.7A.948.948,0,0,0,169.793-826.29Z" transform="translate(1594.121 1155.143)" fill="#111"/>
  </g>
</svg>
