<svg xmlns="http://www.w3.org/2000/svg" xmlns:xlink="http://www.w3.org/1999/xlink" width="33" height="33" viewBox="0 0 33 33">
  <defs>
    <clipPath id="clip-path">
      <rect id="Rectangle_4854" data-name="Rectangle 4854" width="21.564" height="15.778" fill="#fff"/>
    </clipPath>
  </defs>
  <g id="Group_13303" data-name="Group 13303" transform="translate(-850 -994)">
    <g id="Ellipse_569" data-name="Ellipse 569" transform="translate(850 994)" fill="#014fe0" stroke="#fff" stroke-width="0.5">
      <circle cx="16.5" cy="16.5" r="16.5" stroke="none"/>
      <circle cx="16.5" cy="16.5" r="16.25" fill="none"/>
    </g>
    <g id="Group_13219" data-name="Group 13219" transform="translate(855.718 1002.11)">
      <g id="Group_12189" data-name="Group 12189" clip-path="url(#clip-path)">
        <path id="Path_45243" data-name="Path 45243" d="M5.069,12.614c-.551-.386-1.067-.729-1.562-1.1A19.243,19.243,0,0,1,.213,8.389.7.7,0,0,1,.2,7.4a18.16,18.16,0,0,1,6.364-5,9.821,9.821,0,0,1,4.409-.957,10.107,10.107,0,0,1,4.006.956.265.265,0,0,0,.361-.067c.692-.7,1.394-1.4,2.093-2.094a.7.7,0,0,1,.738-.2.679.679,0,0,1,.493.531.745.745,0,0,1-.254.724Q16.986,2.7,15.569,4.123,9.885,9.793,4.2,15.46a1.171,1.171,0,0,1-.505.3.665.665,0,0,1-.743-.375.7.7,0,0,1,.149-.842q.877-.883,1.762-1.758c.058-.058.127-.1.209-.17M7.785,9.791l4.9-4.894a3.538,3.538,0,0,0-4.9,4.894" transform="translate(-0.001 0)" fill="#fff"/>
        <path id="Path_45244" data-name="Path 45244" d="M131.478,76.688c.05-.057.085-.1.125-.143.724-.724,1.448-1.449,2.177-2.168a.344.344,0,0,1,.246-.1,3.551,3.551,0,0,0,3.707-2.248,3.223,3.223,0,0,0,.221-1.667.288.288,0,0,1,.069-.215q1.6-1.606,3.2-3.2c.032-.031.064-.061.113-.108.144.105.289.206.429.314a20.055,20.055,0,0,1,3.2,3.069.7.7,0,0,1,.034.96,17.731,17.731,0,0,1-6.928,5.258,9.372,9.372,0,0,1-6.5.289c-.026-.008-.051-.02-.1-.038" transform="translate(-123.61 -62.835)" fill="#fff"/>
      </g>
    </g>
  </g>
</svg>
