<svg xmlns="http://www.w3.org/2000/svg" width="52" height="52" viewBox="0 0 52 52">
  <g id="Group_13282" data-name="Group 13282" transform="translate(-1728 -159)">
    <g id="Group_11966" data-name="Group 11966" transform="translate(1727.999 159)">
      <circle id="Ellipse_420" data-name="Ellipse 420" cx="26" cy="26" r="26" transform="translate(0.001)" fill="#014fe0"/>
    </g>
    <g id="Group_12180" data-name="Group 12180" transform="translate(1750.765 168.863)">
      <path id="Path_45233" data-name="Path 45233" d="M3.23,6.46A3.262,3.262,0,0,1,0,3.224,3.263,3.263,0,0,1,3.243,0,3.261,3.261,0,0,1,6.469,3.237,3.259,3.259,0,0,1,3.23,6.46" transform="translate(-0.003 -0.001)" fill="#fff"/>
      <path id="Path_45234" data-name="Path 45234" d="M3.213,104.609a3.226,3.226,0,1,1,.047-6.453,3.226,3.226,0,1,1-.047,6.453" transform="translate(-0.002 -85.242)" fill="#fff"/>
      <path id="Path_45235" data-name="Path 45235" d="M3.24,202.773a3.222,3.222,0,1,1,3.226-3.23,3.25,3.25,0,0,1-3.226,3.23" transform="translate(0 -170.498)" fill="#fff"/>
    </g>
  </g>
</svg>
