<svg xmlns="http://www.w3.org/2000/svg" xmlns:xlink="http://www.w3.org/1999/xlink" width="36" height="36" viewBox="0 0 36 36">
  <defs>
    <clipPath id="clip-path">
      <rect id="Rectangle_5217" data-name="Rectangle 5217" width="20.254" height="17.434" fill="#111"/>
    </clipPath>
  </defs>
  <g id="Group_13961" data-name="Group 13961" transform="translate(-1688 -306)">
    <g id="Group_11966" data-name="Group 11966" transform="translate(1688 306)">
      <g id="Ellipse_420" data-name="Ellipse 420" transform="translate(0 0)" fill="#fff" stroke="#111" stroke-width="0.5">
        <circle cx="18" cy="18" r="18" stroke="none"/>
        <circle cx="18" cy="18" r="17.75" fill="none"/>
      </g>
    </g>
    <g id="Group_13481" data-name="Group 13481" transform="translate(1695.432 315.346)">
      <g id="Group_13480" data-name="Group 13480" clip-path="url(#clip-path)">
        <path id="Path_45541" data-name="Path 45541" d="M2.4.05C3.976-.1,5.72.135,7.31.035A2.877,2.877,0,0,1,9.042.761c.556.531,1.124,1.948,1.875,2.075,2.214.142,4.6-.154,6.793.011a2.654,2.654,0,0,1,2.482,2.565c-.152,3.093.2,6.369,0,9.441a2.65,2.65,0,0,1-2.062,2.5c-5.333.111-10.7.094-16.035.009A2.662,2.662,0,0,1,0,14.939V2.518A2.642,2.642,0,0,1,2.4.05m8.349,9.38H7.7a2.179,2.179,0,0,0-.288.107.681.681,0,0,0,0,1.191,2.171,2.171,0,0,0,.288.107h3.051c-.241.366-.881.686-.881,1.163a.7.7,0,0,0,1.146.528,19.389,19.389,0,0,0,1.909-1.91.672.672,0,0,0,0-.967,19.389,19.389,0,0,0-1.909-1.91.7.7,0,0,0-1.146.528c0,.477.64.8.881,1.163" transform="translate(0 0)" fill="#111"/>
      </g>
    </g>
  </g>
</svg>
