<svg xmlns="http://www.w3.org/2000/svg" xmlns:xlink="http://www.w3.org/1999/xlink" width="36" height="36" viewBox="0 0 36 36">
  <defs>
    <clipPath id="clip-path">
      <rect id="Rectangle_4852" data-name="Rectangle 4852" width="12.556" height="21.531" fill="#111"/>
    </clipPath>
  </defs>
  <g id="Group_13963" data-name="Group 13963" transform="translate(-1576 -306)">
    <g id="Group_11966" data-name="Group 11966" transform="translate(1576 306)">
      <g id="Ellipse_420" data-name="Ellipse 420" transform="translate(0 0)" fill="#fff" stroke="#111" stroke-width="0.5">
        <circle cx="18" cy="18" r="18" stroke="none"/>
        <circle cx="18" cy="18" r="17.75" fill="none"/>
      </g>
    </g>
    <g id="Group_13221" data-name="Group 13221" transform="matrix(0.966, 0.259, -0.259, 0.966, 1591.016, 311.526)">
      <g id="Group_12160" data-name="Group 12160" clip-path="url(#clip-path)">
        <path id="Path_45224" data-name="Path 45224" d="M6.953,0a7.481,7.481,0,0,1,3.192.824,1.309,1.309,0,0,1,.592,1.509A4.619,4.619,0,0,1,9.023,5.324l.409,2.857c1.559.987,4.205,3.569,2.65,5.506a3.384,3.384,0,0,1-1.649.959,12.681,12.681,0,0,1-3.355.577l-.34,5.863a.459.459,0,0,1-.918,0l-.34-5.863a12.887,12.887,0,0,1-3.261-.545A2.784,2.784,0,0,1,.11,13a2.867,2.867,0,0,1,.711-2.672A8.285,8.285,0,0,1,3.128,8.181l.409-2.857A4.636,4.636,0,0,1,1.928,2.86a2.789,2.789,0,0,1-.042-1.472C2.3.4,4.671.051,5.607,0Z" transform="translate(0)" fill="#111"/>
      </g>
    </g>
  </g>
</svg>
