<svg xmlns="http://www.w3.org/2000/svg" width="40" height="40" viewBox="0 0 40 40">
  <g id="Group_13338" data-name="Group 13338" transform="translate(-52 -800)">
    <g id="Ellipse_659" data-name="Ellipse 659" transform="translate(52 800)" fill="#fff" stroke="rgba(17,17,17,0.3)" stroke-width="1">
      <circle cx="20" cy="20" r="20" stroke="none"/>
      <circle cx="20" cy="20" r="19.5" fill="none"/>
    </g>
    <g id="Layer_1" transform="translate(58 804.002)">
      <g id="Group_13269" data-name="Group 13269" transform="translate(0 -0.002)">
        <path id="Path_45511" data-name="Path 45511" d="M47.141,199.845a2.662,2.662,0,0,1,1.317.384q4.3,2.506,8.606,5.007c.838.488.829.943-.022,1.436q-5.847,3.379-11.7,6.756c-.517.3-1.032.6-1.553.894a2.9,2.9,0,0,1-3.059-.008q-4.264-2.471-8.524-4.95c-.862-.5-.864-.959-.008-1.455l10-5.775,3.219-1.857a2.859,2.859,0,0,1,1.717-.433Zm-.15,6.365a3.848,3.848,0,0,0-.587.22q-2.133,1.217-4.257,2.453c-.453.263-.449.454.011.722.889.518,1.781,1.031,2.668,1.552a1.1,1.1,0,0,0,1.193.01q2.141-1.238,4.283-2.473c.4-.232.406-.44.014-.671q-1.387-.816-2.784-1.618a3.419,3.419,0,0,0-.542-.2Zm-3.328-3.683c.425.247.763.449,1.108.639a.279.279,0,0,0,.223.019c.364-.189.72-.393,1.162-.638-.446-.255-.793-.462-1.151-.651a.311.311,0,0,0-.251.013c-.339.181-.669.377-1.091.618Zm4.182,1.162c-.439-.249-.79-.451-1.145-.645a.235.235,0,0,0-.19-.014c-.364.193-.723.4-1.163.643.442.251.789.457,1.147.645a.318.318,0,0,0,.256-.007c.338-.18.668-.376,1.1-.621Zm-3.733.038c-.435-.249-.783-.455-1.138-.647a.278.278,0,0,0-.224-.007c-.355.189-.7.392-1.133.635.442.252.8.461,1.167.659a.235.235,0,0,0,.192,0c.355-.191.7-.393,1.137-.637Zm-6.136,3.542c-.439-.251-.79-.456-1.144-.651a.235.235,0,0,0-.191-.012c-.364.195-.722.4-1.154.643.425.247.762.452,1.11.637a.353.353,0,0,0,.286,0c.34-.177.668-.376,1.094-.621Zm-4.539,1.164c.44.251.79.456,1.145.651a.238.238,0,0,0,.192.011c.364-.194.722-.4,1.162-.644-.438-.251-.786-.459-1.144-.648a.314.314,0,0,0-.254.007C34.2,207.99,33.867,208.187,33.436,208.433Zm16.453-5.922c-.429-.248-.759-.445-1.1-.63a.282.282,0,0,0-.223-.028c-.373.19-.738.395-1.182.636.442.253.781.455,1.13.64a.313.313,0,0,0,.251.005C49.119,202.953,49.459,202.754,49.889,202.511Zm-10.668,4.706c.434.247.785.451,1.14.645a.234.234,0,0,0,.19.013c.365-.192.725-.4,1.167-.64-.444-.252-.791-.46-1.151-.645a.358.358,0,0,0-.285.019c-.33.175-.648.369-1.06.608Zm.446,1.2c-.438-.248-.788-.452-1.143-.645a.238.238,0,0,0-.19-.014c-.365.192-.724.394-1.167.638.444.253.792.458,1.149.646a.315.315,0,0,0,.255-.006c.338-.18.668-.376,1.1-.62ZM37.622,209.6c-.444-.253-.8-.461-1.164-.658a.232.232,0,0,0-.19,0c-.354.19-.7.39-1.143.638.45.253.807.46,1.17.655a.238.238,0,0,0,.193,0c.353-.19.7-.391,1.134-.635Zm5.683-4.741c.439.251.787.454,1.139.648a.235.235,0,0,0,.192.011c.363-.191.721-.394,1.168-.641-.455-.258-.813-.466-1.177-.66a.278.278,0,0,0-.22.017c-.337.182-.668.377-1.1.624Zm-1.238.054c-.435-.248-.783-.451-1.136-.645a.238.238,0,0,0-.192-.012c-.365.19-.724.391-1.172.638.453.256.811.465,1.177.656a.316.316,0,0,0,.25-.026c.328-.176.649-.367,1.072-.609Zm-2.045,1.182c-.437-.251-.776-.45-1.12-.64a.238.238,0,0,0-.19-.024c-.373.193-.74.4-1.186.642.436.252.774.454,1.12.64a.319.319,0,0,0,.255.008c.348-.181.686-.379,1.121-.624Zm3.733-.034c-.44-.255-.78-.456-1.124-.647a.236.236,0,0,0-.192-.017c-.371.193-.737.4-1.182.642.441.253.78.454,1.127.64a.314.314,0,0,0,.251.011c.347-.182.686-.382,1.119-.628Zm4.446-4.69c-.444-.252-.793-.454-1.147-.647a.235.235,0,0,0-.19-.014c-.363.192-.721.395-1.162.64.439.251.785.457,1.142.646a.318.318,0,0,0,.255-.006c.337-.178.667-.373,1.1-.62Z" transform="translate(-29.295 -185.497)" fill="#ef7b13"/>
        <path id="Path_45512" data-name="Path 45512" d="M20.074,26.507c0-1.651-.008-3.3,0-4.951a2.879,2.879,0,0,1,1.506-2.631q6.622-3.832,13.252-7.654c.88-.508,1.266-.286,1.271.732.013,3.29.031,6.579.032,9.868a2.847,2.847,0,0,1-1.49,2.607Q28,28.331,21.34,32.165c-.038.022-.077.045-.116.065-.683.37-1.1.134-1.108-.64-.009-1.694,0-3.39,0-5.084h-.04ZM33.46,19.47h-.029q0-1.412,0-2.823a1.109,1.109,0,0,0-.619-1.055c-.312-.167-.625-.337-.918-.533a1.168,1.168,0,0,0-1.34,0c-2.135,1.234-4.279,2.455-6.4,3.706a2.573,2.573,0,0,0-1.342,2.175c-.055,1.947-.015,3.9,0,5.845a1.115,1.115,0,0,0,.667,1.063,4.9,4.9,0,0,1,.745.433,1.327,1.327,0,0,0,1.6.009c2.043-1.2,4.1-2.366,6.146-3.557a2.86,2.86,0,0,0,1.493-2.6C33.466,21.242,33.46,20.356,33.46,19.47Z" transform="translate(-18.63 -10.218)" fill="#ef7b13"/>
        <path id="Path_45513" data-name="Path 45513" d="M57.759,298.39c.194.887.071,1.188-.656,1.607q-6.581,3.8-13.165,7.6a2.9,2.9,0,0,1-3.089-.006q-4.161-2.417-8.323-4.834c-.9-.52-.871-.518-.8-1.689.1.058.2.108.289.162q4.291,2.493,8.581,4.986a3.362,3.362,0,0,0,3.565.014q6.717-3.866,13.424-7.75c.055-.031.112-.059.172-.091Z" transform="translate(-29.421 -276.966)" fill="#ef7b13"/>
        <path id="Path_45514" data-name="Path 45514" d="M16.325.4l-6.02,3.474Q6.511,6.067,2.719,8.261a3.358,3.358,0,0,0-1.766,3.1q.009,5.05.021,10.1c0,.043-.006.087-.009.132-.856-.337-.936-.5-.936-1.231q-.008-4.9-.029-9.8A2.939,2.939,0,0,1,1.563,7.825C5.924,5.31,10.29,2.8,14.635.263A1.242,1.242,0,0,1,16.325.4Z" transform="translate(0 0.002)" fill="#ef7b13"/>
        <path id="Path_45515" data-name="Path 45515" d="M90.5,84.959c0,.886.012,1.771,0,2.657a2.3,2.3,0,0,1-1.16,2.042c-2.1,1.236-4.211,2.44-6.32,3.654a1.34,1.34,0,0,1-.332.145.411.411,0,0,1-.561-.355,2.717,2.717,0,0,1-.039-.5c-.009-1.727-.022-3.454-.019-5.181a2.392,2.392,0,0,1,1.261-2.188q3.042-1.765,6.092-3.517c.774-.446,1.063-.279,1.066.614,0,.875,0,1.749,0,2.623H90.5Zm-4.114,3.686c.129.276.24.515.35.754.092.2.227.194.368.065a.5.5,0,0,0,.1-.657c-.465-.966-.915-1.939-1.373-2.909-.174-.37-.4-.4-.658-.071a1.092,1.092,0,0,0-.181.35q-.742,2.443-1.467,4.89a1.065,1.065,0,0,0,.044.389,1.919,1.919,0,0,0,.355-.243.788.788,0,0,0,.123-.3c.091-.3.169-.6.271-.887a.551.551,0,0,1,.195-.284c.605-.365,1.22-.714,1.874-1.093ZM88.565,86.9h-.008c0-.475.006-.951-.006-1.426,0-.083-.062-.219-.121-.234a.277.277,0,0,0-.246.108,1.266,1.266,0,0,0-.16.52c-.013.862-.006,1.725.008,2.587a1.268,1.268,0,0,0,.125.363,1.6,1.6,0,0,0,.337-.274.655.655,0,0,0,.067-.35C88.569,87.765,88.565,87.334,88.565,86.9Zm.025-2.852.132-.131a1.594,1.594,0,0,0-.3-.1c-.2-.025-.47.3-.447.562a.3.3,0,0,0,.161.227c.189.043.452-.3.452-.559Z" transform="translate(-76.174 -75.632)" fill="#ef7b13"/>
        <path id="Path_45516" data-name="Path 45516" d="M71.537,76.316l-.757-.439a6.478,6.478,0,0,1,.767-.622c2.083-1.216,4.174-2.417,6.264-3.621.482-.278.668-.25,1.172.175-.485.281-.959.557-1.435.831-1.591.918-3.188,1.824-4.769,2.758A14.988,14.988,0,0,0,71.537,76.316Z" transform="translate(-65.698 -66.321)" fill="#ef7b13"/>
        <path id="Path_45517" data-name="Path 45517" d="M65.1,139l.872.506a3.833,3.833,0,0,0-.281,1.929q.01,2.29.015,4.579v.329c-.63-.225-.731-.359-.734-.96-.009-1.758-.022-3.517-.016-5.275A9.116,9.116,0,0,1,65.1,139Z" transform="translate(-60.293 -129.02)" fill="#ef7b13"/>
        <path id="Path_45518" data-name="Path 45518" d="M118.746,152.428l-1.6.921.788-2.669Z" transform="translate(-108.739 -139.862)" fill="#ef7b13"/>
      </g>
    </g>
  </g>
</svg>
