<svg xmlns="http://www.w3.org/2000/svg" width="370.876" height="53.536" viewBox="0 0 370.876 53.536">
  <g id="Group_5968" data-name="Group 5968" transform="translate(17012 361)">
    <g id="Group_8831" data-name="Group 8831" transform="translate(-17012 -361)">
      <path id="Path_25" data-name="Path 25" d="M972.639,189.023l-.619-.877a16.489,16.489,0,0,0,7.223-6.011,18.146,18.146,0,0,0,2.481-5.788,9.653,9.653,0,0,0,.188-3.477,14.157,14.157,0,0,0-1.009-3.321,16.957,16.957,0,0,0-7.552-8.6,23.316,23.316,0,0,0-8.185-2.69,32.449,32.449,0,0,0-4.658-.323H948.372v52.318h6.717V190.694h5.42a33.235,33.235,0,0,0,5.1-.39l.379.539,13.627,19.408h7.989l-14.968-21.227m-11.671-4.062h-5.881l0-20.6h5.879a19.7,19.7,0,0,1,8.845,1.766,10.9,10.9,0,0,1,5.088,5.234,7.727,7.727,0,0,1,.75,3.687,8.091,8.091,0,0,1-.75,2.917,10.892,10.892,0,0,1-5.088,5.234,19.68,19.68,0,0,1-8.845,1.766" transform="translate(-892.99 -157.331)" fill="#fff"/>
      <path id="Path_26" data-name="Path 26" d="M1024.373,196.533c-3.735,5.411-9.36,8.27-16.267,8.27-11.531,0-19.9-8.652-19.9-20.576s8.367-20.576,19.9-20.576c6.674,0,12.209,2.749,15.588,7.74l.382.563,5.185-3.773-.348-.523c-4.447-6.67-11.643-10.2-20.807-10.2-15.3,0-26.842,11.509-26.842,26.768S992.8,211,1008.106,211c9.154,0,16.807-3.832,21.552-10.792l.367-.537-5.276-3.676Z" transform="translate(-884.093 -157.459)" fill="#fff"/>
      <path id="Path_27" data-name="Path 27" d="M1059.152,186.668h-26V157.932h-6.716v52.334h6.716V192.935h26v17.331h6.717V157.932h-6.717Z" transform="translate(-871.873 -157.331)" fill="#fff"/>
      <rect id="Rectangle_20" data-name="Rectangle 20" width="6.792" height="52.334" transform="translate(206.858 0.601)" fill="#fff"/>
      <path id="Path_28" data-name="Path 28" d="M1117.584,193.139c0,1.016.079,2.321.165,3.439-.677-.922-1.485-2-2.157-2.813l-30.658-36.246h-1.862v52.86h6.416v-35.1c0-1-.09-2.269-.191-3.373.666.91,1.45,1.95,2.1,2.742l30.468,36.02.2.234h1.861V158.045h-6.341Z" transform="translate(-856.554 -157.443)" fill="#fff"/>
      <path id="Path_29" data-name="Path 29" d="M1160.115,159.763l.1-.16v-1.671h-34.178v6.116h23.928l-27.879,44.385-.1.16v1.672h38.379v-6.116H1132.31Z" transform="translate(-846.028 -157.639)" fill="#fff"/>
      <path id="Path_30" data-name="Path 30" d="M1199.565,210.216h7.42q-6-12.978-11.969-25.922-6.049-13.112-12.113-26.234c-.747,1.724-1.589,3.463-2.409,5.153-.543,1.121-1.084,2.237-1.6,3.346l-20.236,43.657h7.5l2.852-6.176h27.7Zm-27.4-13.007,10.693-23.147,10.695,23.147Z" transform="translate(-836.108 -157.296)" fill="#fff"/>
      <path id="Path_31" data-name="Path 31" d="M945.758,210.208,929.022,173.99l-11.139,24.28a18.788,18.788,0,0,0,5.316,3.216,16.9,16.9,0,0,0,5.532.747l-2.939-6.335,3.668-8,5.129,11.154,3.321,7.242a23.548,23.548,0,0,1-7.739,1.7l-.175.009c-.321.015-.643.032-.968.032a25.241,25.241,0,0,1-12.222-3.225l-1.629-.921-2.885,6.311h-7.51s23.536-50.521,24.283-52.249c4.055,8.768,20.117,43.582,24.125,52.249Z" transform="translate(-904.781 -157.324)" fill="#fff"/>
    </g>
  </g>
</svg>
