<svg xmlns="http://www.w3.org/2000/svg" xmlns:xlink="http://www.w3.org/1999/xlink" width="40" height="40" viewBox="0 0 40 40">
  <defs>
    <clipPath id="clip-path">
      <rect id="Rectangle_4859" data-name="Rectangle 4859" width="23.856" height="23.833" fill="#ef7b13"/>
    </clipPath>
  </defs>
  <g id="Group_13334" data-name="Group 13334" transform="translate(-52 -560)">
    <g id="Ellipse_655" data-name="Ellipse 655" transform="translate(52 560)" fill="#fff" stroke="rgba(17,17,17,0.3)" stroke-width="1">
      <circle cx="20" cy="20" r="20" stroke="none"/>
      <circle cx="20" cy="20" r="19.5" fill="none"/>
    </g>
    <g id="Group_11147" data-name="Group 11147" transform="translate(60 568)">
      <g id="Group_11146" data-name="Group 11146" clip-path="url(#clip-path)">
        <path id="Path_44618" data-name="Path 44618" d="M.376,129.466l2.549.374c.069.422-.2,1.34.331,1.5.312.095,1.374.122,1.374-.363v-.929l3.215.214c2.333.011,4.662.031,6.994-.161v.876c0,.481,1.018.449,1.333.375.571-.134.306-.978.374-1.4l3.4-.483v3.449c-.333-.054-.655-.162-.99-.206a5.562,5.562,0,0,0-6.181,6.169c.044.335.152.657.206.988H1.732a1.912,1.912,0,0,1-1.356-1.353Z" transform="translate(-0.349 -120.287)" fill="#ef7b13"/>
        <path id="Path_44619" data-name="Path 44619" d="M195.708,192.145a4.255,4.255,0,0,1,4.168,6.54c.617.737,1.523,1.388,2.119,2.121.739.91-.149,1.939-1.136,1.346l-2.241-2.211a4.266,4.266,0,0,1-6.382-4.892,4.325,4.325,0,0,1,3.472-2.9m3.126,4.23A2.529,2.529,0,1,0,196.3,198.9a2.527,2.527,0,0,0,2.529-2.524" transform="translate(-178.412 -178.493)" fill="#ef7b13"/>
        <path id="Path_44620" data-name="Path 44620" d="M2.579,75.731.027,75.359c-.087-1.218-.046-2.482,1.369-2.8l16.631-.016c1.545.156,1.682,1.535,1.566,2.814l-3.4.425V74.644c0-.492-1.116-.465-1.413-.349a.535.535,0,0,0-.289.349V76c-.88.048-1.751.077-2.631.107-.1,0-.2.052-.317.055a58.725,58.725,0,0,1-7.26-.267V74.644c0-.492-1.116-.465-1.413-.349a.535.535,0,0,0-.289.349Z" transform="translate(0 -67.402)" fill="#ef7b13"/>
        <path id="Path_44621" data-name="Path 44621" d="M81.734,3.871h-1.7V1.749H74.078V3.871h-1.7V1.4c0-.675.937-1.309,1.566-1.356,2.054-.153,4.3.114,6.377.008A1.824,1.824,0,0,1,81.734,1.4Z" transform="translate(-67.245 0)" fill="#ef7b13"/>
      </g>
    </g>
  </g>
</svg>
