<svg xmlns="http://www.w3.org/2000/svg" xmlns:xlink="http://www.w3.org/1999/xlink" width="40" height="40" viewBox="0 0 40 40">
  <defs>
    <clipPath id="clip-path">
      <rect id="Rectangle_5151" data-name="Rectangle 5151" width="24.448" height="24.452" fill="#ef7b13"/>
    </clipPath>
  </defs>
  <g id="Group_13335" data-name="Group 13335" transform="translate(-52 -620)">
    <g id="Ellipse_656" data-name="Ellipse 656" transform="translate(52 620)" fill="#fff" stroke="rgba(17,17,17,0.3)" stroke-width="1">
      <circle cx="20" cy="20" r="20" stroke="none"/>
      <circle cx="20" cy="20" r="19.5" fill="none"/>
    </g>
    <g id="Group_13274" data-name="Group 13274" transform="translate(60 628)">
      <g id="Group_13273" data-name="Group 13273" clip-path="url(#clip-path)">
        <path id="Path_45519" data-name="Path 45519" d="M24.447,10.6V13.85a1.242,1.242,0,0,1-.679.589c-.349.151-.69.323-1.027.5a.406.406,0,0,0-.189.215,11.532,11.532,0,0,1-.944,2.285.478.478,0,0,0-.023.33c.122.411.259.818.4,1.221a.8.8,0,0,1-.218.911q-.942.931-1.872,1.873a.8.8,0,0,1-.91.218c-.4-.141-.794-.279-1.2-.4a.548.548,0,0,0-.373.029,11.992,11.992,0,0,1-2.241.926.472.472,0,0,0-.249.216c-.176.329-.343.664-.49,1.006a1.239,1.239,0,0,1-.589.679H10.6a1.242,1.242,0,0,1-.589-.679c-.151-.35-.323-.691-.5-1.028a.406.406,0,0,0-.215-.188,11.54,11.54,0,0,1-2.285-.945.479.479,0,0,0-.33-.021c-.4.119-.8.25-1.2.395a.808.808,0,0,1-.933-.213q-.93-.943-1.873-1.874a.8.8,0,0,1-.213-.912c.145-.4.28-.811.4-1.222a.478.478,0,0,0-.027-.33A11.709,11.709,0,0,1,1.9,15.171a.468.468,0,0,0-.22-.246c-.387-.2-.782-.39-1.178-.573a.8.8,0,0,1-.5-.79q.008-1.337,0-2.673a.783.783,0,0,1,.485-.776c.4-.189.805-.379,1.2-.585A.468.468,0,0,0,1.9,9.278a11.7,11.7,0,0,1,.938-2.263.478.478,0,0,0,.024-.33c-.122-.411-.258-.818-.4-1.222a.8.8,0,0,1,.217-.911q.942-.931,1.873-1.873a.8.8,0,0,1,.911-.217c.4.144.811.281,1.222.4a.478.478,0,0,0,.33-.024A11.7,11.7,0,0,1,9.276,1.9a.468.468,0,0,0,.248-.218c.206-.394.4-.8.585-1.2A.783.783,0,0,1,10.886,0q1.336.006,2.673,0a.8.8,0,0,1,.79.5c.188.4.381.8.584,1.2a.4.4,0,0,0,.212.193,11.428,11.428,0,0,1,2.307.956.41.41,0,0,0,.286.022q.627-.19,1.244-.409a.8.8,0,0,1,.912.213q.931.942,1.873,1.873a.808.808,0,0,1,.213.933c-.145.4-.275.8-.395,1.2a.479.479,0,0,0,.021.33A11.542,11.542,0,0,1,22.552,9.3a.406.406,0,0,0,.188.215c.337.178.678.35,1.028.5a1.242,1.242,0,0,1,.679.589M12.227,4.348A7.879,7.879,0,1,0,20.1,12.239a7.9,7.9,0,0,0-7.875-7.891" transform="translate(0 0)" fill="#ef7b13"/>
        <path id="Path_45520" data-name="Path 45520" d="M105.968,108.834v-.264c0-1.249.006-2.5-.006-3.748a1.5,1.5,0,0,0-.131-.618c-.678-1.411-1.372-2.814-2.063-4.218a.746.746,0,0,0-1.326-.006c-.693,1.4-1.387,2.807-2.064,4.217a1.558,1.558,0,0,0-.133.642c-.012,1.241-.006,2.483-.006,3.724v.265a6.337,6.337,0,0,1-3.529-6.5,6.444,6.444,0,0,1,12.727-.408,6.366,6.366,0,0,1-3.468,6.909" transform="translate(-90.878 -90.894)" fill="#ef7b13"/>
        <path id="Path_45521" data-name="Path 45521" d="M180.466,247.4a4.483,4.483,0,0,0,2.828-.006c.006.088.016.155.016.221,0,1.089,0,2.177,0,3.266,0,.162-.032.227-.21.262a6.239,6.239,0,0,1-2.483-.007c-.12-.024-.178-.055-.178-.192.005-1.152,0-2.3,0-3.457a.521.521,0,0,1,.018-.088" transform="translate(-169.653 -232.604)" fill="#ef7b13"/>
        <path id="Path_45522" data-name="Path 45522" d="M185.88,183.371l1.18,2.36a3.07,3.07,0,0,1-2.36,0l1.18-2.364" transform="translate(-173.656 -172.406)" fill="#ef7b13"/>
      </g>
    </g>
  </g>
</svg>
