<svg xmlns="http://www.w3.org/2000/svg" xmlns:xlink="http://www.w3.org/1999/xlink" width="40" height="40" viewBox="0 0 40 40">
  <defs>
    <clipPath id="clip-path">
      <rect id="Rectangle_5155" data-name="Rectangle 5155" width="21.524" height="21.443" fill="#ef7b13"/>
    </clipPath>
  </defs>
  <g id="Group_13336" data-name="Group 13336" transform="translate(-52 -680)">
    <g id="Ellipse_657" data-name="Ellipse 657" transform="translate(52 680)" fill="#fff" stroke="rgba(17,17,17,0.3)" stroke-width="1">
      <circle cx="20" cy="20" r="20" stroke="none"/>
      <circle cx="20" cy="20" r="19.5" fill="none"/>
    </g>
    <g id="Group_13280" data-name="Group 13280" transform="translate(61 689)">
      <g id="Group_13279" data-name="Group 13279" clip-path="url(#clip-path)">
        <path id="Path_45529" data-name="Path 45529" d="M63.544,53.092H78.718v.267q0,3.467,0,6.935a.438.438,0,0,1-.175.385q-3.338,2.715-6.668,5.44a1.025,1.025,0,0,1-1.484,0q-3.325-2.712-6.65-5.424a.483.483,0,0,1-.2-.419q.01-3.456,0-6.911Zm7.577,1.088H65.145c-.391,0-.5.108-.5.492q0,.777,0,1.554c0,.368.123.489.487.489h12c.368,0,.491-.12.492-.485,0-.51,0-1.02,0-1.53,0-.418-.1-.52-.524-.52H71.121m.022,3.633H65.215c-.08,0-.16,0-.239,0a.353.353,0,0,0-.059.695,1,1,0,0,0,.26.018H77.083a1.011,1.011,0,0,0,.261-.018.353.353,0,0,0-.056-.7c-.079-.007-.159,0-.239,0h-5.9m-.025,1.815H65.668a2.335,2.335,0,0,0-.239,0,.353.353,0,0,0-.058.694,1,1,0,0,0,.26.02h11a1.011,1.011,0,0,0,.26-.02.353.353,0,0,0-.057-.694,2.334,2.334,0,0,0-.239,0H71.119m.033,1.818c-1.13,0-2.261,0-3.391,0a.357.357,0,0,0-.394.355.373.373,0,0,0,.375.358c.071.006.143,0,.215,0h4.7c.589,0,1.178.01,1.767-.007a.608.608,0,0,0,.39-.167.351.351,0,0,0,.022-.343.54.54,0,0,0-.369-.192c-1.106-.015-2.213-.008-3.319-.008" transform="translate(-60.369 -50.442)" fill="#ef7b13"/>
        <path id="Path_45530" data-name="Path 45530" d="M18.965,319.426l2.591-1.876q2.546-1.842,5.09-3.687c.135-.1.218-.107.345.007.231.207.476.4.721.59a1.706,1.706,0,0,0,2.126.011,7.907,7.907,0,0,0,.666-.545.312.312,0,0,1,.48-.022q3.543,2.583,7.1,5.147a3.224,3.224,0,0,1,.516.436,4.34,4.34,0,0,1-.546.075c-.637.009-1.275,0-1.913,0q-8.248,0-16.5,0c-.227,0-.453-.04-.68-.061q0-.039,0-.077" transform="translate(-18.018 -298.125)" fill="#ef7b13"/>
        <path id="Path_45531" data-name="Path 45531" d="M8.229,175.535.313,181.264A1.454,1.454,0,0,1,0,180.3q0-3.264,0-6.529v-4.956l8.228,6.716" transform="translate(0 -160.393)" fill="#ef7b13"/>
        <path id="Path_45532" data-name="Path 45532" d="M274.386,181.615l-7.916-5.73,8.2-6.7c.009.1.02.162.02.226q0,5.643,0,11.287a1.461,1.461,0,0,1-.308.915" transform="translate(-253.17 -160.743)" fill="#ef7b13"/>
        <path id="Path_45533" data-name="Path 45533" d="M168.5,1.911h-5.233L165.88,0l2.619,1.91" transform="translate(-155.117 -0.001)" fill="#ef7b13"/>
        <path id="Path_45534" data-name="Path 45534" d="M384.577,123.174l-2.205,1.8v-3.423l2.205,1.625" transform="translate(-363.288 -115.482)" fill="#ef7b13"/>
        <path id="Path_45535" data-name="Path 45535" d="M4.835,123.207l2.195-1.626V125l-2.195-1.79" transform="translate(-4.594 -115.513)" fill="#ef7b13"/>
        <rect id="Rectangle_5154" data-name="Rectangle 5154" width="11.514" height="1.069" transform="translate(5.005 4.472)" fill="#ef7b13"/>
      </g>
    </g>
  </g>
</svg>
