<svg xmlns="http://www.w3.org/2000/svg" width="31.061" height="31.003" viewBox="0 0 31.061 31.003">
  <g id="Group_13320" data-name="Group 13320" transform="translate(-91 -1127)">
    <path id="Path_45481" data-name="Path 45481" d="M290.495,342.118V348.9a2.455,2.455,0,0,1-1.855,1.751l-10.371.007a2.268,2.268,0,0,1-2.033-2.149c-.147-2.01.11-4.2.009-6.233a2.36,2.36,0,0,1,2.084-1.977l10.188.009a2.371,2.371,0,0,1,1.978,1.81" transform="translate(-168.434 807.346)" fill="#fff"/>
    <path id="Path_45482" data-name="Path 45482" d="M289.463,0a2.576,2.576,0,0,1,1.759,1.756V16.287A2.367,2.367,0,0,1,289.19,18.1H279a2.355,2.355,0,0,1-2.035-2.086l0-13.988A2.366,2.366,0,0,1,278.786,0Z" transform="translate(-169.162 1127)" fill="#fff"/>
    <path id="Path_45483" data-name="Path 45483" d="M0,228.9V214.367a2.376,2.376,0,0,1,2.033-1.816l10.133,0a2.358,2.358,0,0,1,2.09,2.031l0,13.928a2.268,2.268,0,0,1-2.033,2.149l-10.371-.007A2.456,2.456,0,0,1,0,228.9" transform="translate(91 927.346)" fill="#fff"/>
    <path id="Path_45484" data-name="Path 45484" d="M12.437,0a2.366,2.366,0,0,1,1.819,2.029c.2,2-.143,4.319-.006,6.35a2.36,2.36,0,0,1-2.084,1.976l-10.133,0A2.376,2.376,0,0,1,0,8.537V1.756A2.576,2.576,0,0,1,1.759,0Z" transform="translate(91 1127)" fill="#fff"/>
  </g>
</svg>
