<svg xmlns="http://www.w3.org/2000/svg" xmlns:xlink="http://www.w3.org/1999/xlink" width="40" height="40" viewBox="0 0 40 40">
  <defs>
    <clipPath id="clip-path">
      <rect id="Rectangle_5156" data-name="Rectangle 5156" width="24.466" height="18.107" fill="#ef7b13"/>
    </clipPath>
  </defs>
  <g id="Group_13337" data-name="Group 13337" transform="translate(-52 -740)">
    <g id="Ellipse_658" data-name="Ellipse 658" transform="translate(52 740)" fill="#fff" stroke="rgba(17,17,17,0.3)" stroke-width="1">
      <circle cx="20" cy="20" r="20" stroke="none"/>
      <circle cx="20" cy="20" r="19.5" fill="none"/>
    </g>
    <g id="Group_13282" data-name="Group 13282" transform="translate(60 751)">
      <g id="Group_13281" data-name="Group 13281" clip-path="url(#clip-path)">
        <path id="Path_45536" data-name="Path 45536" d="M2.074,102.893v-.329q0-2.362,0-4.724c0-.449.053-.5.49-.5H5.637c.36,0,.447.087.447.45q0,2.387,0,4.775v.315h1.43v-.311q0-4.267,0-8.534c0-.428.068-.495.5-.495h3.048c.369,0,.46.093.46.469q0,4.279,0,8.559v.313h1.429v-.288q0-3.086,0-6.172c0-.406.08-.485.492-.485H16.47c.417,0,.5.083.5.51q0,3.06,0,6.121v.314h1.427v-.31q0-5.219,0-10.438c0-.44.069-.507.521-.507h2.972c.449,0,.519.069.519.51q0,5.219,0,10.438v.323c.549,0,1.072,0,1.594,0,.084,0,.192-.02.247.023.1.076.229.2.217.291-.014.106-.153.208-.259.284-.051.037-.148.011-.224.011H.486c-.059,0-.119,0-.178,0A.282.282,0,0,1,0,103.2c0-.21.136-.3.329-.308.406-.007.813,0,1.219,0h.526" transform="translate(0 -85.405)" fill="#ef7b13"/>
        <path id="Path_45537" data-name="Path 45537" d="M41.793,4.819,38.777,7.552a1.691,1.691,0,0,1,.162,1.358,1.651,1.651,0,1,1-3.078-1.179,1.632,1.632,0,0,1,2.271-.762.319.319,0,0,0,.449-.058q1.329-1.219,2.672-2.423c.09-.081.131-.142.071-.276a1.648,1.648,0,0,1,2.351-2.125,1.655,1.655,0,0,1,.713,1.877c-.006.024-.011.048-.025.106L47,5.657a1.711,1.711,0,0,1,2.234-.24L52.276,2.56A1.7,1.7,0,0,1,52.818.25,1.652,1.652,0,0,1,54.968,2.7a1.67,1.67,0,0,1-2.263.3L49.648,5.864a1.766,1.766,0,0,1,.212,1.247A1.649,1.649,0,1,1,46.64,6.4a.257.257,0,0,0-.141-.341c-.767-.449-1.524-.914-2.289-1.364a.287.287,0,0,0-.256-.01,1.694,1.694,0,0,1-2.161.132" transform="translate(-33.286 0)" fill="#ef7b13"/>
      </g>
    </g>
  </g>
</svg>
