<svg id="Group_13241" data-name="Group 13241" xmlns="http://www.w3.org/2000/svg" xmlns:xlink="http://www.w3.org/1999/xlink" width="31.019" height="31.003" viewBox="0 0 31.019 31.003">
  <defs>
    <clipPath id="clip-path">
      <rect id="Rectangle_5142" data-name="Rectangle 5142" width="31.019" height="31.003" fill="#fff"/>
    </clipPath>
  </defs>
  <g id="Group_13240" data-name="Group 13240" clip-path="url(#clip-path)">
    <path id="Path_45465" data-name="Path 45465" d="M16.673,31H14.311l-2.01-.322A16.005,16.005,0,0,1,7,28.474L1.045,30.336l1.876-5.721A17.663,17.663,0,0,1,.457,19.263L.015,16.646c.034-.756-.046-1.551,0-2.3C.83,1.147,17.391-4.888,26.67,4.681c9.124,9.409,2.986,25.52-10,26.322M18.53,19.715c-.519.446-.994.2-1.534-.029a12.229,12.229,0,0,1-5.122-4.268,4.753,4.753,0,0,1-.711-1.232c-.053-.543.921-1.267,1.235-1.723a1.108,1.108,0,0,0,.219-1.12,26.274,26.274,0,0,0-1.4-3.381c-.18-.368-.3-.75-.754-.821-2.874-.448-4.14,2.479-3.895,4.924.293,2.917,4.087,7.226,6.359,8.966a17.139,17.139,0,0,0,6.221,2.926c2.577.58,5.531-.5,5.706-3.466.022-.372.065-.722-.26-.95a24.552,24.552,0,0,0-3.212-1.574,2.76,2.76,0,0,0-.92-.3c-.735,0-1.382,1.575-1.928,2.044" transform="translate(0 0)" fill="#fff"/>
  </g>
</svg>
