<svg xmlns="http://www.w3.org/2000/svg" width="878.211" height="947.881" viewBox="0 0 878.211 947.881">
  <path id="Path_5188" data-name="Path 5188" d="M3005.188,2055.82l-303.613-657.058-202.068,440.5s42.605,38.328,96.429,58.319c42.792,15.894,100.35,13.553,100.35,13.553l-53.3-114.907,66.537-145.057,93.049,202.333,60.238,131.39a427.072,427.072,0,0,1-140.386,30.915l-3.175.153c-5.827.283-11.659.588-17.572.588-76.228,0-154.972-20.783-221.721-58.5l-29.551-16.705-52.342,114.481H2261.821s426.975-916.54,440.541-947.881c73.565,159.064,364.951,790.638,437.669,947.881Z" transform="translate(-2261.82 -1107.939)" fill="#383838" opacity="0.2"/>
</svg>
