<svg xmlns="http://www.w3.org/2000/svg" width="427.006" height="42.138" viewBox="0 0 427.006 42.138">
  <g id="Group_13207" data-name="Group 13207" transform="translate(-141.001 -2181)">
    <g id="Group_13191" data-name="Group 13191" transform="translate(17153 2535)">
      <g id="Group_8831" data-name="Group 8831" transform="translate(0 16)">
        <path id="Path_25" data-name="Path 25" d="M967.472,182.4l-.487-.69a12.979,12.979,0,0,0,5.685-4.731,14.282,14.282,0,0,0,1.953-4.556,7.6,7.6,0,0,0,.148-2.737,11.142,11.142,0,0,0-.794-2.614,13.348,13.348,0,0,0-5.944-6.772,18.352,18.352,0,0,0-6.442-2.117,25.541,25.541,0,0,0-3.666-.254h-9.553v41.179h5.287V183.719h4.266a26.16,26.16,0,0,0,4.016-.307l.3.424,10.726,15.276h6.288L967.472,182.4m-9.186-3.2h-4.629l0-16.218h4.627a15.5,15.5,0,0,1,6.962,1.39,8.578,8.578,0,0,1,4.005,4.12,6.083,6.083,0,0,1,.59,2.9,6.368,6.368,0,0,1-.59,2.3,8.574,8.574,0,0,1-4.005,4.12,15.49,15.49,0,0,1-6.962,1.39" transform="translate(-17916.781 -527.459)" fill="#111"/>
        <path id="Path_26" data-name="Path 26" d="M1015.2,188.214a14.876,14.876,0,0,1-12.8,6.509c-9.076,0-15.662-6.81-15.662-16.2s6.586-16.2,15.662-16.2c5.253,0,9.61,2.164,12.269,6.092l.3.443,4.081-2.97-.274-.412c-3.5-5.25-9.164-8.027-16.377-8.027a21.069,21.069,0,1,0,0,42.138c7.205,0,13.229-3.016,16.963-8.494l.289-.423-4.153-2.893Z" transform="translate(-17916.781 -527.459)" fill="#111"/>
        <path id="Path_27" data-name="Path 27" d="M1052.187,180.55h-20.461V157.932h-5.286v41.192h5.286V185.483h20.461v13.641h5.287V157.932h-5.287Z" transform="translate(-17916.781 -527.459)" fill="#111"/>
        <rect id="Rectangle_20" data-name="Rectangle 20" width="5.346" height="41.192" transform="translate(-16849.184 -369.527)" fill="#111"/>
        <path id="Path_28" data-name="Path 28" d="M1110.236,185.555c0,.8.062,1.827.13,2.707-.533-.726-1.169-1.574-1.7-2.214l-24.131-28.529h-1.466v41.606h5.05V171.5c0-.785-.071-1.786-.15-2.655.524.716,1.141,1.535,1.655,2.158l23.981,28.351.155.184h1.465v-41.6h-4.991Z" transform="translate(-17916.781 -527.459)" fill="#111"/>
        <path id="Path_29" data-name="Path 29" d="M1152,159.374l.079-.126v-1.315h-26.9v4.814h18.834l-21.943,34.935-.08.126v1.316h30.208V194.31h-22.082Z" transform="translate(-17916.781 -527.702)" fill="#111"/>
        <path id="Path_30" data-name="Path 30" d="M1190.856,199.112h5.84q-4.725-10.215-9.421-20.4-4.761-10.32-9.534-20.649c-.588,1.357-1.251,2.726-1.9,4.056-.427.882-.853,1.761-1.256,2.634l-15.928,34.362h5.9l2.245-4.861h21.8Zm-21.565-10.238,8.416-18.219,8.418,18.219Z" transform="translate(-17916.781 -527.459)" fill="#111"/>
        <path id="Path_31" data-name="Path 31" d="M937.034,199.084l-13.173-28.507-8.767,19.111a14.788,14.788,0,0,0,4.184,2.531,13.3,13.3,0,0,0,4.354.588l-2.313-4.986,2.887-6.293,4.037,8.779,2.614,5.7a18.535,18.535,0,0,1-6.091,1.341l-.138.007c-.253.012-.506.025-.762.025a19.867,19.867,0,0,1-9.62-2.538l-1.282-.725-2.271,4.967h-5.911s18.525-39.765,19.113-41.125c3.192,6.9,15.834,34.3,18.989,41.125Z" transform="translate(-17916.781 -527.459)" fill="#111"/>
      </g>
    </g>
    <path id="Path_45485" data-name="Path 45485" d="M11.928-10.052a4.123,4.123,0,0,1,1.946.868,5.093,5.093,0,0,1,1.4,1.736,4.879,4.879,0,0,1,.518,2.212,4.882,4.882,0,0,1-.756,2.674,5.136,5.136,0,0,1-2.2,1.876A7.847,7.847,0,0,1,9.436,0H2.156V-19.516h7a7.919,7.919,0,0,1,3.388.658,4.8,4.8,0,0,1,2.1,1.778,4.656,4.656,0,0,1,.7,2.52,4.352,4.352,0,0,1-.938,2.87A5.249,5.249,0,0,1,11.928-10.052ZM4.7-11.088H8.988a4.134,4.134,0,0,0,2.772-.84,2.9,2.9,0,0,0,.98-2.324,2.9,2.9,0,0,0-.98-2.324,4.227,4.227,0,0,0-2.828-.84H4.7ZM9.212-2.1A4.473,4.473,0,0,0,12.18-3a3.081,3.081,0,0,0,1.064-2.492,3.165,3.165,0,0,0-1.12-2.562,4.516,4.516,0,0,0-3-.938H4.7V-2.1Zm13.16-17.416V-7.168A5.225,5.225,0,0,0,23.646-3.3a4.818,4.818,0,0,0,3.542,1.26A4.779,4.779,0,0,0,30.7-3.3a5.225,5.225,0,0,0,1.274-3.864V-19.516h2.548V-7.2a7.968,7.968,0,0,1-.98,4.1A6.152,6.152,0,0,1,30.9-.616,8.42,8.42,0,0,1,27.16.2a8.42,8.42,0,0,1-3.738-.812A6.068,6.068,0,0,1,20.79-3.094a8.061,8.061,0,0,1-.966-4.1v-12.32ZM45.528.2A8.347,8.347,0,0,1,42.07-.49a5.762,5.762,0,0,1-2.394-1.9,4.878,4.878,0,0,1-.9-2.814H41.5A3.576,3.576,0,0,0,42.63-2.9a4.07,4.07,0,0,0,2.9.938,4.235,4.235,0,0,0,2.87-.91,2.953,2.953,0,0,0,1.05-2.338,2.654,2.654,0,0,0-.616-1.82,3.935,3.935,0,0,0-1.54-1.064A24.063,24.063,0,0,0,44.8-8.876a21.947,21.947,0,0,1-3.094-1.008,4.983,4.983,0,0,1-1.988-1.582,4.647,4.647,0,0,1-.826-2.9,5.022,5.022,0,0,1,.812-2.828,5.29,5.29,0,0,1,2.282-1.9,8.035,8.035,0,0,1,3.374-.672A7.067,7.067,0,0,1,49.854-18.4a5.068,5.068,0,0,1,1.974,3.64h-2.8a3.021,3.021,0,0,0-1.176-1.974,4.177,4.177,0,0,0-2.744-.854,3.975,3.975,0,0,0-2.6.826,2.82,2.82,0,0,0-1.008,2.31,2.5,2.5,0,0,0,.6,1.736,3.881,3.881,0,0,0,1.484,1.022q.882.35,2.478.8a23.274,23.274,0,0,1,3.108,1.05,5.184,5.184,0,0,1,2.016,1.6,4.641,4.641,0,0,1,.84,2.926,5.138,5.138,0,0,1-.756,2.688,5.557,5.557,0,0,1-2.24,2.044A7.392,7.392,0,0,1,45.528.2ZM58.884-19.516V0H56.336V-19.516ZM79.128,0H76.58L66.332-15.54V0H63.784V-19.544h2.548L76.58-4.032V-19.544h2.548Zm7.448-17.444v6.524h7.112v2.1H86.576V-2.1h7.952V0h-10.5V-19.544h10.5v2.1ZM105.14.2a8.347,8.347,0,0,1-3.458-.686,5.762,5.762,0,0,1-2.394-1.9,4.878,4.878,0,0,1-.9-2.814h2.716a3.576,3.576,0,0,0,1.134,2.31,4.07,4.07,0,0,0,2.9.938,4.235,4.235,0,0,0,2.87-.91,2.953,2.953,0,0,0,1.05-2.338,2.654,2.654,0,0,0-.616-1.82,3.935,3.935,0,0,0-1.54-1.064,24.063,24.063,0,0,0-2.492-.784,21.946,21.946,0,0,1-3.094-1.008,4.983,4.983,0,0,1-1.988-1.582,4.647,4.647,0,0,1-.826-2.9,5.022,5.022,0,0,1,.812-2.828,5.29,5.29,0,0,1,2.282-1.9,8.035,8.035,0,0,1,3.374-.672,7.067,7.067,0,0,1,4.494,1.372,5.068,5.068,0,0,1,1.974,3.64h-2.8a3.021,3.021,0,0,0-1.176-1.974,4.177,4.177,0,0,0-2.744-.854,3.975,3.975,0,0,0-2.6.826,2.82,2.82,0,0,0-1.008,2.31,2.5,2.5,0,0,0,.6,1.736,3.881,3.881,0,0,0,1.484,1.022q.882.35,2.478.8a23.274,23.274,0,0,1,3.108,1.05,5.184,5.184,0,0,1,2.016,1.6,4.641,4.641,0,0,1,.84,2.926,5.138,5.138,0,0,1-.756,2.688,5.557,5.557,0,0,1-2.24,2.044A7.392,7.392,0,0,1,105.14.2Zm17,0a8.347,8.347,0,0,1-3.458-.686,5.762,5.762,0,0,1-2.394-1.9,4.878,4.878,0,0,1-.9-2.814H118.1a3.576,3.576,0,0,0,1.134,2.31,4.07,4.07,0,0,0,2.9.938,4.235,4.235,0,0,0,2.87-.91,2.953,2.953,0,0,0,1.05-2.338,2.654,2.654,0,0,0-.616-1.82,3.935,3.935,0,0,0-1.54-1.064,24.063,24.063,0,0,0-2.492-.784,21.946,21.946,0,0,1-3.094-1.008,4.983,4.983,0,0,1-1.988-1.582,4.647,4.647,0,0,1-.826-2.9,5.022,5.022,0,0,1,.812-2.828,5.29,5.29,0,0,1,2.282-1.9,8.035,8.035,0,0,1,3.374-.672,7.067,7.067,0,0,1,4.494,1.372,5.068,5.068,0,0,1,1.974,3.64h-2.8a3.021,3.021,0,0,0-1.176-1.974,4.177,4.177,0,0,0-2.744-.854,3.975,3.975,0,0,0-2.6.826,2.82,2.82,0,0,0-1.008,2.31,2.5,2.5,0,0,0,.6,1.736,3.881,3.881,0,0,0,1.484,1.022q.882.35,2.478.8a23.274,23.274,0,0,1,3.108,1.05,5.184,5.184,0,0,1,2.016,1.6,4.641,4.641,0,0,1,.84,2.926,5.138,5.138,0,0,1-.756,2.688,5.557,5.557,0,0,1-2.24,2.044A7.392,7.392,0,0,1,122.136.2Z" transform="translate(439 2222)" fill="none" stroke="#111" stroke-width="0.75"/>
  </g>
</svg>
