<svg xmlns="http://www.w3.org/2000/svg" width="212.095" height="21" viewBox="0 0 212.095 21">
  <g id="Group_13208" data-name="Group 13208" transform="translate(-82 -953)">
    <g id="Group_10475" data-name="Group 10475" transform="translate(82 953)">
      <g id="Group_8831" data-name="Group 8831" transform="translate(0 0)">
        <path id="Path_25" data-name="Path 25" d="M957.891,170.128l-.243-.344a6.468,6.468,0,0,0,2.833-2.358,7.117,7.117,0,0,0,.973-2.271,3.784,3.784,0,0,0,.074-1.364,5.552,5.552,0,0,0-.4-1.3,6.651,6.651,0,0,0-2.962-3.375,9.146,9.146,0,0,0-3.21-1.055,12.729,12.729,0,0,0-1.827-.127h-4.761v20.522h2.635v-7.671h2.126a13.037,13.037,0,0,0,2-.153l.148.211,5.345,7.613h3.134l-5.871-8.327m-4.578-1.593h-2.307v-8.082h2.306a7.726,7.726,0,0,1,3.47.693,4.275,4.275,0,0,1,2,2.053,3.033,3.033,0,0,1,.294,1.446,3.175,3.175,0,0,1-.294,1.144,4.273,4.273,0,0,1-2,2.053,7.72,7.72,0,0,1-3.47.693" transform="translate(-926.648 -157.697)" fill="#111"/>
        <path id="Path_26" data-name="Path 26" d="M998.174,172.786a7.413,7.413,0,0,1-6.381,3.244c-4.523,0-7.805-3.394-7.805-8.071s3.282-8.071,7.805-8.071a7.1,7.1,0,0,1,6.114,3.036l.15.221,2.034-1.48-.137-.205a9.284,9.284,0,0,0-8.162-4,10.5,10.5,0,1,0,0,21,9.863,9.863,0,0,0,8.454-4.233l.144-.211-2.07-1.442Z" transform="translate(-943.148 -157.459)" fill="#111"/>
        <path id="Path_27" data-name="Path 27" d="M1039.272,169.2h-10.2V157.932h-2.634v20.529h2.634v-6.8h10.2v6.8h2.635V157.932h-2.635Z" transform="translate(-965.81 -157.696)" fill="#111"/>
        <rect id="Rectangle_20" data-name="Rectangle 20" width="2.664" height="20.529" transform="translate(81.142 0.236)" fill="#111"/>
        <path id="Path_28" data-name="Path 28" d="M1096.609,171.491c0,.4.031.911.065,1.349-.266-.362-.583-.784-.846-1.1L1083.8,157.519h-.73v20.735h2.517V164.487c0-.391-.035-.89-.075-1.323.261.357.569.765.825,1.075l11.951,14.129.077.092h.73V157.725h-2.487Z" transform="translate(-994.218 -157.489)" fill="#111"/>
        <path id="Path_29" data-name="Path 29" d="M1136.942,158.651l.039-.063v-.655h-13.406v2.4h9.386l-10.936,17.41-.04.063v.656h15.055v-2.4h-11Z" transform="translate(-1013.739 -157.818)" fill="#111"/>
        <path id="Path_30" data-name="Path 30" d="M1174.706,178.519h2.91q-2.355-5.091-4.7-10.168-2.373-5.143-4.751-10.291c-.293.676-.623,1.359-.945,2.021-.213.44-.425.878-.626,1.313l-7.938,17.125h2.941l1.119-2.423h10.866Zm-10.747-5.1,4.194-9.08,4.2,9.08Z" transform="translate(-1032.137 -157.76)" fill="#111"/>
        <path id="Path_31" data-name="Path 31" d="M920.855,178.454l-6.565-14.207-4.369,9.524a7.37,7.37,0,0,0,2.085,1.261,6.631,6.631,0,0,0,2.17.293l-1.153-2.485,1.439-3.136,2.012,4.375,1.3,2.841a9.238,9.238,0,0,1-3.036.668l-.069,0c-.126.006-.252.012-.38.012a9.9,9.9,0,0,1-4.794-1.265l-.639-.361-1.132,2.475h-2.946s9.232-19.817,9.525-20.5c1.591,3.439,7.891,17.1,9.463,20.5Z" transform="translate(-904.782 -157.71)" fill="#111"/>
      </g>
    </g>
    <path id="Path_45486" data-name="Path 45486" d="M6.959-14.992a2.027,2.027,0,0,1,.956.427,2.5,2.5,0,0,1,.688.853,2.4,2.4,0,0,1,.255,1.087,2.4,2.4,0,0,1-.372,1.314,2.525,2.525,0,0,1-1.08.922,3.857,3.857,0,0,1-1.672.337H2.156v-9.592H5.6a3.892,3.892,0,0,1,1.665.323,2.357,2.357,0,0,1,1.032.874,2.289,2.289,0,0,1,.344,1.239A2.139,2.139,0,0,1,8.177-15.8,2.58,2.58,0,0,1,6.959-14.992ZM3.408-15.5H5.514a2.032,2.032,0,0,0,1.362-.413,1.424,1.424,0,0,0,.482-1.142A1.424,1.424,0,0,0,6.877-18.2a2.078,2.078,0,0,0-1.39-.413H3.408Zm2.216,4.418a2.2,2.2,0,0,0,1.459-.44,1.514,1.514,0,0,0,.523-1.225,1.555,1.555,0,0,0-.551-1.259,2.22,2.22,0,0,0-1.473-.461H3.408v3.386Zm6.468-8.56v6.069a2.568,2.568,0,0,0,.626,1.9,2.368,2.368,0,0,0,1.741.619,2.349,2.349,0,0,0,1.727-.619,2.568,2.568,0,0,0,.626-1.9v-6.069h1.252v6.056a3.917,3.917,0,0,1-.482,2.016,3.024,3.024,0,0,1-1.3,1.218,4.138,4.138,0,0,1-1.837.4,4.138,4.138,0,0,1-1.837-.4,2.983,2.983,0,0,1-1.294-1.218,3.962,3.962,0,0,1-.475-2.016v-6.056ZM23.474-9.955a4.1,4.1,0,0,1-1.7-.337,2.832,2.832,0,0,1-1.177-.936,2.4,2.4,0,0,1-.44-1.383h1.335a1.758,1.758,0,0,0,.557,1.135,2,2,0,0,0,1.424.461,2.082,2.082,0,0,0,1.411-.447,1.452,1.452,0,0,0,.516-1.149,1.3,1.3,0,0,0-.3-.895,1.934,1.934,0,0,0-.757-.523,11.827,11.827,0,0,0-1.225-.385,10.787,10.787,0,0,1-1.521-.5,2.449,2.449,0,0,1-.977-.778,2.284,2.284,0,0,1-.406-1.424,2.468,2.468,0,0,1,.4-1.39,2.6,2.6,0,0,1,1.122-.936,3.949,3.949,0,0,1,1.658-.33,3.474,3.474,0,0,1,2.209.674,2.491,2.491,0,0,1,.97,1.789H25.194a1.485,1.485,0,0,0-.578-.97,2.053,2.053,0,0,0-1.349-.42,1.954,1.954,0,0,0-1.28.406,1.386,1.386,0,0,0-.5,1.135,1.23,1.23,0,0,0,.3.853,1.908,1.908,0,0,0,.729.5q.434.172,1.218.392a11.44,11.44,0,0,1,1.528.516,2.548,2.548,0,0,1,.991.784,2.281,2.281,0,0,1,.413,1.438,2.525,2.525,0,0,1-.372,1.321,2.731,2.731,0,0,1-1.1,1A3.633,3.633,0,0,1,23.474-9.955Zm6.565-9.689v9.592H28.786v-9.592Zm9.95,9.592H38.737L33.7-17.69v7.638H32.447v-9.606H33.7l5.037,7.624v-7.624h1.252Zm3.661-8.574v3.207h3.5v1.032h-3.5v3.3h3.909v1.032H42.4v-9.606h5.161v1.032Zm9.125,8.67a4.1,4.1,0,0,1-1.7-.337,2.832,2.832,0,0,1-1.177-.936,2.4,2.4,0,0,1-.44-1.383h1.335a1.758,1.758,0,0,0,.557,1.135,2,2,0,0,0,1.424.461,2.082,2.082,0,0,0,1.411-.447,1.451,1.451,0,0,0,.516-1.149,1.3,1.3,0,0,0-.3-.895,1.934,1.934,0,0,0-.757-.523,11.827,11.827,0,0,0-1.225-.385,10.787,10.787,0,0,1-1.521-.5,2.449,2.449,0,0,1-.977-.778,2.284,2.284,0,0,1-.406-1.424,2.468,2.468,0,0,1,.4-1.39,2.6,2.6,0,0,1,1.122-.936,3.949,3.949,0,0,1,1.658-.33,3.474,3.474,0,0,1,2.209.674,2.491,2.491,0,0,1,.97,1.789H54.495a1.485,1.485,0,0,0-.578-.97,2.053,2.053,0,0,0-1.349-.42,1.954,1.954,0,0,0-1.28.406,1.386,1.386,0,0,0-.5,1.135,1.23,1.23,0,0,0,.3.853,1.908,1.908,0,0,0,.729.5q.434.172,1.218.392a11.439,11.439,0,0,1,1.528.516,2.548,2.548,0,0,1,.991.784,2.281,2.281,0,0,1,.413,1.438,2.525,2.525,0,0,1-.372,1.321,2.731,2.731,0,0,1-1.1,1A3.633,3.633,0,0,1,52.775-9.955Zm8.354,0a4.1,4.1,0,0,1-1.7-.337,2.832,2.832,0,0,1-1.177-.936,2.4,2.4,0,0,1-.44-1.383h1.335a1.758,1.758,0,0,0,.557,1.135,2,2,0,0,0,1.424.461,2.082,2.082,0,0,0,1.411-.447,1.452,1.452,0,0,0,.516-1.149,1.3,1.3,0,0,0-.3-.895A1.934,1.934,0,0,0,62-14.029a11.827,11.827,0,0,0-1.225-.385,10.787,10.787,0,0,1-1.521-.5,2.449,2.449,0,0,1-.977-.778,2.284,2.284,0,0,1-.406-1.424,2.468,2.468,0,0,1,.4-1.39,2.6,2.6,0,0,1,1.122-.936,3.949,3.949,0,0,1,1.658-.33,3.474,3.474,0,0,1,2.209.674,2.491,2.491,0,0,1,.97,1.789H62.849a1.485,1.485,0,0,0-.578-.97,2.053,2.053,0,0,0-1.349-.42,1.954,1.954,0,0,0-1.28.406,1.386,1.386,0,0,0-.5,1.135,1.23,1.23,0,0,0,.3.853,1.908,1.908,0,0,0,.729.5q.434.172,1.218.392a11.44,11.44,0,0,1,1.528.516,2.548,2.548,0,0,1,.991.784,2.281,2.281,0,0,1,.413,1.438,2.525,2.525,0,0,1-.372,1.321,2.731,2.731,0,0,1-1.1,1A3.633,3.633,0,0,1,61.128-9.955Z" transform="translate(229.524 983.483)" fill="none" stroke="#111" stroke-width="0.5"/>
  </g>
</svg>
