<svg xmlns="http://www.w3.org/2000/svg" width="145.479" height="37.232" viewBox="0 0 145.479 37.232">
  <g id="Group_13797" data-name="Group 13797" transform="translate(-115 -28)">
    <g id="Group_10475" data-name="Group 10475" transform="translate(115 28)">
      <g id="Group_8831" data-name="Group 8831" transform="translate(0 0)">
        <path id="Path_25" data-name="Path 25" d="M957.891,170.128l-.243-.344a6.468,6.468,0,0,0,2.833-2.358,7.117,7.117,0,0,0,.973-2.271,3.784,3.784,0,0,0,.074-1.364,5.552,5.552,0,0,0-.4-1.3,6.651,6.651,0,0,0-2.962-3.375,9.146,9.146,0,0,0-3.21-1.055,12.729,12.729,0,0,0-1.827-.127h-4.761v20.522h2.635v-7.671h2.126a13.037,13.037,0,0,0,2-.153l.148.211,5.345,7.613h3.134l-5.871-8.327m-4.578-1.593h-2.307v-8.082h2.306a7.726,7.726,0,0,1,3.47.693,4.275,4.275,0,0,1,2,2.053,3.033,3.033,0,0,1,.294,1.446,3.175,3.175,0,0,1-.294,1.144,4.273,4.273,0,0,1-2,2.053,7.72,7.72,0,0,1-3.47.693" transform="translate(-926.648 -157.697)" fill="#fff"/>
        <path id="Path_26" data-name="Path 26" d="M998.174,172.786a7.413,7.413,0,0,1-6.381,3.244c-4.523,0-7.805-3.394-7.805-8.071s3.282-8.071,7.805-8.071a7.1,7.1,0,0,1,6.114,3.036l.15.221,2.034-1.48-.137-.205a9.284,9.284,0,0,0-8.162-4,10.5,10.5,0,1,0,0,21,9.863,9.863,0,0,0,8.454-4.233l.144-.211-2.07-1.442Z" transform="translate(-943.148 -157.459)" fill="#fff"/>
        <path id="Path_27" data-name="Path 27" d="M1039.272,169.2h-10.2V157.932h-2.634v20.529h2.634v-6.8h10.2v6.8h2.635V157.932h-2.635Z" transform="translate(-965.81 -157.696)" fill="#fff"/>
        <rect id="Rectangle_20" data-name="Rectangle 20" width="2.664" height="20.529" transform="translate(81.142 0.236)" fill="#fff"/>
        <path id="Path_28" data-name="Path 28" d="M1096.609,171.491c0,.4.031.911.065,1.349-.266-.362-.583-.784-.846-1.1L1083.8,157.519h-.73v20.735h2.517V164.487c0-.391-.035-.89-.075-1.323.261.357.569.765.825,1.075l11.951,14.129.077.092h.73V157.725h-2.487Z" transform="translate(-994.218 -157.489)" fill="#fff"/>
        <path id="Path_29" data-name="Path 29" d="M1136.942,158.651l.039-.063v-.655h-13.406v2.4h9.386l-10.936,17.41-.04.063v.656h15.055v-2.4h-11Z" transform="translate(-1013.739 -157.818)" fill="#fff"/>
        <path id="Path_30" data-name="Path 30" d="M1174.706,178.519h2.91q-2.355-5.091-4.7-10.168-2.373-5.143-4.751-10.291c-.293.676-.623,1.359-.945,2.021-.213.44-.425.878-.626,1.313l-7.938,17.125h2.941l1.119-2.423h10.866Zm-10.747-5.1,4.194-9.08,4.2,9.08Z" transform="translate(-1032.137 -157.76)" fill="#fff"/>
        <path id="Path_31" data-name="Path 31" d="M920.855,178.454l-6.565-14.207-4.369,9.524a7.37,7.37,0,0,0,2.085,1.261,6.631,6.631,0,0,0,2.17.293l-1.153-2.485,1.439-3.136,2.012,4.375,1.3,2.841a9.238,9.238,0,0,1-3.036.668l-.069,0c-.126.006-.252.012-.38.012a9.9,9.9,0,0,1-4.794-1.265l-.639-.361-1.132,2.475h-2.946s9.232-19.817,9.525-20.5c1.591,3.439,7.891,17.1,9.463,20.5Z" transform="translate(-904.782 -157.71)" fill="#fff"/>
      </g>
    </g>
    <path id="Path_45493" data-name="Path 45493" d="M5.964-5.026a2.062,2.062,0,0,1,.973.434,2.546,2.546,0,0,1,.7.868A2.44,2.44,0,0,1,7.9-2.618a2.441,2.441,0,0,1-.378,1.337,2.568,2.568,0,0,1-1.1.938A3.923,3.923,0,0,1,4.718,0H1.078V-9.758h3.5a3.959,3.959,0,0,1,1.694.329,2.4,2.4,0,0,1,1.05.889,2.328,2.328,0,0,1,.35,1.26A2.176,2.176,0,0,1,7.2-5.845,2.624,2.624,0,0,1,5.964-5.026ZM2.352-5.544H4.494a2.067,2.067,0,0,0,1.386-.42,1.449,1.449,0,0,0,.49-1.162,1.449,1.449,0,0,0-.49-1.162,2.114,2.114,0,0,0-1.414-.42H2.352ZM4.606-1.05A2.236,2.236,0,0,0,6.09-1.5a1.54,1.54,0,0,0,.532-1.246,1.582,1.582,0,0,0-.56-1.281,2.258,2.258,0,0,0-1.5-.469H2.352V-1.05Zm12.18-8.708v6.174a2.612,2.612,0,0,0,.637,1.932,2.409,2.409,0,0,0,1.771.63,2.39,2.39,0,0,0,1.757-.63,2.612,2.612,0,0,0,.637-1.932V-9.758h1.274V-3.6a3.984,3.984,0,0,1-.49,2.051A3.076,3.076,0,0,1,21.049-.308,4.21,4.21,0,0,1,19.18.1a4.21,4.21,0,0,1-1.869-.406A3.034,3.034,0,0,1,16-1.547,4.03,4.03,0,0,1,15.512-3.6v-6.16ZM33.964.1a4.174,4.174,0,0,1-1.729-.343,2.881,2.881,0,0,1-1.2-.952A2.439,2.439,0,0,1,30.59-2.6h1.358a1.788,1.788,0,0,0,.567,1.155,2.035,2.035,0,0,0,1.449.469A2.117,2.117,0,0,0,35.4-1.435,1.477,1.477,0,0,0,35.924-2.6a1.327,1.327,0,0,0-.308-.91,1.968,1.968,0,0,0-.77-.532A12.031,12.031,0,0,0,33.6-4.438a10.973,10.973,0,0,1-1.547-.5,2.491,2.491,0,0,1-.994-.791,2.324,2.324,0,0,1-.413-1.449A2.511,2.511,0,0,1,31.052-8.6a2.645,2.645,0,0,1,1.141-.952,4.017,4.017,0,0,1,1.687-.336,3.534,3.534,0,0,1,2.247.686,2.534,2.534,0,0,1,.987,1.82h-1.4a1.51,1.51,0,0,0-.588-.987,2.089,2.089,0,0,0-1.372-.427,1.988,1.988,0,0,0-1.3.413,1.41,1.41,0,0,0-.5,1.155,1.252,1.252,0,0,0,.3.868,1.941,1.941,0,0,0,.742.511q.441.175,1.239.4a11.637,11.637,0,0,1,1.554.525,2.592,2.592,0,0,1,1.008.8,2.32,2.32,0,0,1,.42,1.463,2.569,2.569,0,0,1-.378,1.344,2.779,2.779,0,0,1-1.12,1.022A3.7,3.7,0,0,1,33.964.1ZM46.242-9.758V0H44.968V-9.758ZM61.964,0H60.69L55.566-7.77V0H54.292V-9.772h1.274L60.69-2.016V-9.772h1.274Zm9.324-8.722V-5.46h3.556v1.05H71.288v3.36h3.976V0h-5.25V-9.772h5.25v1.05ZM86.17.1a4.174,4.174,0,0,1-1.729-.343,2.881,2.881,0,0,1-1.2-.952A2.439,2.439,0,0,1,82.8-2.6h1.358a1.788,1.788,0,0,0,.567,1.155A2.035,2.035,0,0,0,86.17-.98a2.117,2.117,0,0,0,1.435-.455A1.477,1.477,0,0,0,88.13-2.6a1.327,1.327,0,0,0-.308-.91,1.968,1.968,0,0,0-.77-.532,12.032,12.032,0,0,0-1.246-.392,10.973,10.973,0,0,1-1.547-.5,2.491,2.491,0,0,1-.994-.791,2.324,2.324,0,0,1-.413-1.449A2.511,2.511,0,0,1,83.258-8.6,2.645,2.645,0,0,1,84.4-9.548a4.017,4.017,0,0,1,1.687-.336,3.534,3.534,0,0,1,2.247.686,2.534,2.534,0,0,1,.987,1.82h-1.4a1.51,1.51,0,0,0-.588-.987,2.089,2.089,0,0,0-1.372-.427,1.988,1.988,0,0,0-1.3.413,1.41,1.41,0,0,0-.5,1.155,1.252,1.252,0,0,0,.3.868,1.94,1.94,0,0,0,.742.511q.441.175,1.239.4a11.637,11.637,0,0,1,1.554.525,2.592,2.592,0,0,1,1.008.8,2.32,2.32,0,0,1,.42,1.463,2.569,2.569,0,0,1-.378,1.344A2.779,2.779,0,0,1,87.92-.294,3.7,3.7,0,0,1,86.17.1Zm14.1,0a4.174,4.174,0,0,1-1.729-.343,2.881,2.881,0,0,1-1.2-.952A2.439,2.439,0,0,1,96.894-2.6h1.358a1.788,1.788,0,0,0,.567,1.155,2.035,2.035,0,0,0,1.449.469,2.117,2.117,0,0,0,1.435-.455,1.477,1.477,0,0,0,.525-1.169,1.327,1.327,0,0,0-.308-.91,1.968,1.968,0,0,0-.77-.532A12.031,12.031,0,0,0,99.9-4.438a10.973,10.973,0,0,1-1.547-.5,2.491,2.491,0,0,1-.994-.791,2.324,2.324,0,0,1-.413-1.449A2.511,2.511,0,0,1,97.356-8.6,2.645,2.645,0,0,1,98.5-9.548a4.017,4.017,0,0,1,1.687-.336,3.534,3.534,0,0,1,2.247.686,2.534,2.534,0,0,1,.987,1.82h-1.4a1.51,1.51,0,0,0-.588-.987,2.089,2.089,0,0,0-1.372-.427,1.988,1.988,0,0,0-1.3.413,1.41,1.41,0,0,0-.5,1.155,1.252,1.252,0,0,0,.3.868,1.94,1.94,0,0,0,.742.511q.441.175,1.239.4a11.637,11.637,0,0,1,1.554.525,2.592,2.592,0,0,1,1.008.8,2.32,2.32,0,0,1,.42,1.463,2.569,2.569,0,0,1-.378,1.344,2.779,2.779,0,0,1-1.12,1.022A3.7,3.7,0,0,1,100.268.1Z" transform="translate(135.422 64.884)" fill="none" stroke="#fff" stroke-width="0.5"/>
  </g>
</svg>
