<svg xmlns="http://www.w3.org/2000/svg" width="19.4" height="21.837" viewBox="0 0 19.4 21.837">
  <path id="delete_FILL0_wght300_GRAD0_opsz24" d="M183.632-793.546a2.252,2.252,0,0,1-1.653-.685,2.252,2.252,0,0,1-.685-1.653V-812.3H180v-1.94h5.82v-1.144h7.76v1.144h5.82v1.94h-1.293v16.415a2.257,2.257,0,0,1-.679,1.659,2.257,2.257,0,0,1-1.659.679ZM196.168-812.3H183.234v16.415a.387.387,0,0,0,.112.286.387.387,0,0,0,.286.112H195.77a.38.38,0,0,0,.274-.124.381.381,0,0,0,.124-.274V-812.3Zm-9.824,14.227h1.94v-11.64h-1.94Zm4.775,0h1.94v-11.64h-1.94ZM183.234-812.3v0Z" transform="translate(-180.001 815.383)" fill="#111111"/>
</svg>
