<svg id="Group_13081" data-name="Group 13081" xmlns="http://www.w3.org/2000/svg" xmlns:xlink="http://www.w3.org/1999/xlink" width="16.604" height="22" viewBox="0 0 16.604 22">
  <defs>
    <clipPath id="clip-path">
      <rect id="Rectangle_5014" data-name="Rectangle 5014" width="16.604" height="22" fill="#111"/>
    </clipPath>
  </defs>
  <g id="Group_12762" data-name="Group 12762" clip-path="url(#clip-path)">
    <path id="Path_45358" data-name="Path 45358" d="M1.64,0H15c.115.035.233.065.346.106A1.95,1.95,0,0,1,16.6,2.012q-.021,9.3-.007,18.6c0,.122,0,.244-.009.365a1,1,0,0,1-1.09,1.015,1.4,1.4,0,0,1-.778-.38q-2.8-2.387-5.611-4.771a1.32,1.32,0,0,0-.44-.253,1.212,1.212,0,0,0-1.213.342q-2.731,2.34-5.482,4.657a2.024,2.024,0,0,1-.526.324.958.958,0,0,1-1.33-.567,2.219,2.219,0,0,1-.113-.755Q0,12.62,0,4.652c0-.909,0-1.818,0-2.728A1.861,1.861,0,0,1,1.2.153,4.209,4.209,0,0,1,1.64,0" transform="translate(0)" fill="#111"/>
  </g>
</svg>
