<svg xmlns="http://www.w3.org/2000/svg" width="38.998" height="38.998" viewBox="0 0 38.998 38.998">
  <path id="check_circle_FILL0_wght300_GRAD0_opsz24" d="M116.587-831.769l13.8-13.8-2.163-2.163-11.636,11.636-5.85-5.85-2.163,2.163,8.013,8.013ZM119.5-821a19,19,0,0,1-7.6-1.535,19.7,19.7,0,0,1-6.193-4.167,19.687,19.687,0,0,1-4.169-6.19A18.976,18.976,0,0,1,100-840.5a19,19,0,0,1,1.535-7.6,19.7,19.7,0,0,1,4.167-6.193,19.689,19.689,0,0,1,6.19-4.169A18.977,18.977,0,0,1,119.5-860a19,19,0,0,1,7.6,1.535,19.7,19.7,0,0,1,6.193,4.167,19.687,19.687,0,0,1,4.169,6.19A18.977,18.977,0,0,1,139-840.5a19,19,0,0,1-1.535,7.6,19.7,19.7,0,0,1-4.167,6.193,19.688,19.688,0,0,1-6.19,4.169A18.976,18.976,0,0,1,119.5-821Zm0-3.079a15.848,15.848,0,0,0,11.648-4.772A15.848,15.848,0,0,0,135.92-840.5a15.848,15.848,0,0,0-4.772-11.648A15.848,15.848,0,0,0,119.5-856.92a15.848,15.848,0,0,0-11.648,4.772A15.848,15.848,0,0,0,103.08-840.5a15.847,15.847,0,0,0,4.772,11.648A15.847,15.847,0,0,0,119.5-824.08ZM119.5-840.5Z" transform="translate(-100.001 859.999)" fill="#545554"/>
</svg>
