<svg xmlns="http://www.w3.org/2000/svg" width="15" height="15" viewBox="0 0 15 15">
  <g id="Group_13258" data-name="Group 13258" transform="translate(-103 -497)">
    <g id="Ellipse_569" data-name="Ellipse 569" transform="translate(103 497)" fill="#fff" stroke="#111" stroke-width="0.5">
      <circle cx="7.5" cy="7.5" r="7.5" stroke="none"/>
      <circle cx="7.5" cy="7.5" r="7.25" fill="none"/>
    </g>
    <path id="Path_45330" data-name="Path 45330" d="M676.807,675.5c.045-.043.084-.078.121-.115l2.155-2.154a.539.539,0,0,1,.934.271.554.554,0,0,1-.193.51q-1.069,1.065-2.134,2.133c-.037.037-.072.077-.114.121.043.045.078.084.115.122q1.067,1.067,2.134,2.133a.554.554,0,0,1,.192.511.522.522,0,0,1-.362.423.5.5,0,0,1-.541-.125c-.266-.258-.526-.523-.789-.786l-1.513-1.514c-.042.039-.081.072-.117.109q-1.078,1.077-2.155,2.153a.538.538,0,1,1-.788-.731c.227-.235.462-.464.693-.695l1.481-1.481c.037-.037.072-.076.115-.121-.043-.045-.079-.084-.116-.121q-1.067-1.067-2.134-2.133a.545.545,0,0,1-.187-.538.532.532,0,0,1,.884-.282c.146.13.279.273.417.411l1.782,1.781c.037.037.076.073.121.116" transform="translate(-566.311 -171.768)" fill="#ef7b13"/>
  </g>
</svg>
