<svg xmlns="http://www.w3.org/2000/svg" width="56.2" height="39.34" viewBox="0 0 56.2 39.34">
  <path id="cloud_upload_FILL0_wght200_GRAD0_opsz24" d="M92.645-720.66a12.252,12.252,0,0,1-8.951-3.657A12.1,12.1,0,0,1,80-733.256a12.233,12.233,0,0,1,3.437-8.657,11.74,11.74,0,0,1,8.073-3.939A16.14,16.14,0,0,1,97.157-756a16.363,16.363,0,0,1,10.943-4,16.266,16.266,0,0,1,11.953,4.907,16.266,16.266,0,0,1,4.907,11.953v2.81h1.729a9.49,9.49,0,0,1,6.774,2.964,9.528,9.528,0,0,1,2.737,6.871,9.593,9.593,0,0,1-2.8,6.984,9.321,9.321,0,0,1-6.931,2.851H111.234a4.4,4.4,0,0,1-3.24-1.3,4.4,4.4,0,0,1-1.3-3.24v-16.309l-5.9,5.869-1.989-1.935,9.295-9.295,9.295,9.295-1.989,1.935-5.9-5.869V-725.2a1.653,1.653,0,0,0,.54,1.189,1.652,1.652,0,0,0,1.189.54h15.131a6.783,6.783,0,0,0,4.988-2.037,6.783,6.783,0,0,0,2.037-4.988,6.783,6.783,0,0,0-2.037-4.988,6.783,6.783,0,0,0-4.988-2.037H122.15v-5.62a13.541,13.541,0,0,0-4.11-9.94,13.541,13.541,0,0,0-9.94-4.11,13.541,13.541,0,0,0-9.94,4.11,13.541,13.541,0,0,0-4.11,9.94H92.537a9.38,9.38,0,0,0-6.82,2.88A9.432,9.432,0,0,0,82.81-733.3a9.476,9.476,0,0,0,2.88,6.955,9.476,9.476,0,0,0,6.955,2.88H99.67v2.81ZM108.1-738.925Z" transform="translate(-80 760)" fill="#ef7b13"/>
</svg>
