<svg id="Group_10457" data-name="Group 10457" xmlns="http://www.w3.org/2000/svg" width="78.887" height="78.871" viewBox="0 0 78.887 78.871">
  <path id="Path_44421" data-name="Path 44421" d="M0,39.451A39.443,39.443,0,1,1,39.462,78.871,39.39,39.39,0,0,1,0,39.451M45.612,34.8c-.345-.379-.6-.684-.879-.959A10.777,10.777,0,0,0,29.676,33.8c-3.633,3.494-7.187,7.074-10.7,10.693a10.779,10.779,0,0,0-2.089,11.9,10.892,10.892,0,0,0,17.464,3.536c2.5-2.34,4.858-4.82,7.279-7.239.079-.078.132-.182.094-.129-1.828-.429-3.694-.8-5.512-1.331a1.168,1.168,0,0,0-1.4.333c-1.38,1.428-2.773,2.845-4.212,4.214A5.305,5.305,0,1,1,23.278,48.1c3.244-3.281,6.575-6.478,9.766-9.809a5.45,5.45,0,0,1,7.847-.436,1.078,1.078,0,0,0,1.633-.011c1.014-.97,2-1.966,3.087-3.036M37.19,26.292c1.874.454,3.735.859,5.563,1.376a1.054,1.054,0,0,0,1.255-.289q2.1-2.174,4.278-4.279a5.071,5.071,0,0,1,5.155-1.326A5.277,5.277,0,0,1,55.674,30.7c-3.249,3.319-6.556,6.583-9.847,9.861-2.47,2.46-5.086,2.606-7.825.446a1.088,1.088,0,0,0-1.567-.035c-1.057,1.006-2.075,2.054-3.25,3.226.527.461.981.866,1.444,1.262A10.785,10.785,0,0,0,49.287,45q5.327-5.173,10.5-10.5a10.405,10.405,0,0,0,2.849-9.947,10.3,10.3,0,0,0-7.592-8.135A10.533,10.533,0,0,0,44.255,19.2c-2.288,2.205-4.5,4.485-6.75,6.734-.147.147-.277.313-.315.357" transform="translate(0 0)" fill="#c65e00"/>
  <g id="Group_10426" data-name="Group 10426" transform="translate(15.953 15.941)">
    <path id="Path_44422" data-name="Path 44422" d="M94.77,129.584c-1.084,1.069-2.074,2.065-3.087,3.036a1.078,1.078,0,0,1-1.633.011,5.45,5.45,0,0,0-7.847.436c-3.191,3.331-6.522,6.528-9.766,9.809a5.305,5.305,0,1,0,7.322,7.677c1.439-1.368,2.832-2.786,4.212-4.213a1.167,1.167,0,0,1,1.4-.333c1.817.534,3.683.9,5.512,1.331.038-.054-.015.05-.094.129-2.421,2.419-4.784,4.9-7.279,7.238a10.891,10.891,0,0,1-17.464-3.535,10.779,10.779,0,0,1,2.089-11.9c3.51-3.618,7.063-7.2,10.7-10.693a10.776,10.776,0,0,1,15.056.046c.282.275.533.58.879.959" transform="translate(-65.111 -110.72)"/>
    <path id="Path_44423" data-name="Path 44423" d="M139.452,75.415c.039-.044.168-.209.315-.357,2.246-2.249,4.462-4.529,6.75-6.734a10.533,10.533,0,0,1,10.794-2.778,10.3,10.3,0,0,1,7.592,8.135,10.406,10.406,0,0,1-2.849,9.947q-5.17,5.329-10.5,10.5a10.785,10.785,0,0,1-14.657.457c-.463-.4-.917-.8-1.444-1.262,1.175-1.172,2.193-2.22,3.25-3.226a1.088,1.088,0,0,1,1.567.035c2.739,2.16,5.356,2.014,7.825-.446,3.291-3.278,6.6-6.542,9.847-9.861A5.277,5.277,0,0,0,155.7,70.9a5.071,5.071,0,0,0-5.155,1.326q-2.17,2.108-4.278,4.279a1.054,1.054,0,0,1-1.255.289c-1.829-.518-3.689-.922-5.563-1.376" transform="translate(-118.215 -65.064)"/>
  </g>
</svg>
