<svg xmlns="http://www.w3.org/2000/svg" width="8.62" height="8.618" viewBox="0 0 8.62 8.618">
  <path id="Path_45617" data-name="Path 45617" d="M.9,0,.98.011,4.3,3.3,7.621.02A.144.144,0,0,1,7.7,0c.095.01.748.762.891.863a.122.122,0,0,1,0,.153L5.312,4.3,8.6,7.62c.04.074.011.121-.032.181a9.975,9.975,0,0,1-.777.775.154.154,0,0,1-.188.015L4.318,5.311,1,8.6a.13.13,0,0,1-.086.014C.809,8.6.178,7.857.026,7.752c-.052-.065-.011-.139.039-.19L3.306,4.317.015,1A.13.13,0,0,1,0,.916,11.735,11.735,0,0,1,.9,0" transform="translate(0.001 0)" fill="red"/>
</svg>
