<svg xmlns="http://www.w3.org/2000/svg" width="33" height="33" viewBox="0 0 33 33">
  <g id="Group_13270" data-name="Group 13270" transform="translate(-839 -994)">
    <g id="Ellipse_569" data-name="Ellipse 569" transform="translate(839 994)" fill="#014fe0" stroke="#fff" stroke-width="0.5">
      <circle cx="16.5" cy="16.5" r="16.5" stroke="none"/>
      <circle cx="16.5" cy="16.5" r="16.25" fill="none"/>
    </g>
    <path id="delete_24dp_5F6368_FILL1_wght400_GRAD0_opsz24" d="M162.711-823.736a1.74,1.74,0,0,1-1.276-.531,1.741,1.741,0,0,1-.531-1.276v-11.746a.873.873,0,0,1-.644-.26.873.873,0,0,1-.26-.644.873.873,0,0,1,.26-.643.874.874,0,0,1,.644-.26h3.614a.874.874,0,0,1,.26-.644.874.874,0,0,1,.644-.26h3.614a.874.874,0,0,1,.644.26.874.874,0,0,1,.26.644h3.614a.874.874,0,0,1,.644.26.873.873,0,0,1,.26.643.873.873,0,0,1-.26.644.873.873,0,0,1-.644.26v11.746a1.741,1.741,0,0,1-.531,1.276,1.74,1.74,0,0,1-1.276.531Zm2.711-3.614a.874.874,0,0,0,.644-.26.874.874,0,0,0,.26-.644v-6.325a.874.874,0,0,0-.26-.644.875.875,0,0,0-.644-.26.875.875,0,0,0-.644.26.874.874,0,0,0-.26.644v6.325a.874.874,0,0,0,.26.644A.874.874,0,0,0,165.421-827.35Zm3.614,0a.874.874,0,0,0,.644-.26.874.874,0,0,0,.26-.644v-6.325a.875.875,0,0,0-.26-.644.875.875,0,0,0-.644-.26.875.875,0,0,0-.644.26.875.875,0,0,0-.26.644v6.325a.874.874,0,0,0,.26.644A.874.874,0,0,0,169.035-827.35Z" transform="translate(688 1842)" fill="#fff"/>
  </g>
</svg>
