<svg xmlns="http://www.w3.org/2000/svg" width="24" height="24" viewBox="0 0 24 24">
  <g id="Group_12184" data-name="Group 12184" transform="translate(10041 -1110)">
    <g id="Group_11966" data-name="Group 11966" transform="translate(-10041 1110)">
      <g id="Ellipse_420" data-name="Ellipse 420" transform="translate(0 0)" fill="#fff" stroke="#111" stroke-width="0.25">
        <circle cx="12" cy="12" r="12" stroke="none"/>
        <circle cx="12" cy="12" r="11.875" fill="none"/>
      </g>
    </g>
    <path id="delete_24dp_5F6368_FILL1_wght400_GRAD0_opsz24" d="M161.979-828.125a1.27,1.27,0,0,1-.932-.388,1.27,1.27,0,0,1-.388-.932v-8.577a.638.638,0,0,1-.47-.19.638.638,0,0,1-.19-.47.638.638,0,0,1,.19-.47.638.638,0,0,1,.47-.19H163.3a.638.638,0,0,1,.19-.47.638.638,0,0,1,.47-.19H166.6a.638.638,0,0,1,.47.19.638.638,0,0,1,.19.47H169.9a.638.638,0,0,1,.47.19.638.638,0,0,1,.19.47.638.638,0,0,1-.19.47.638.638,0,0,1-.47.19v8.577a1.27,1.27,0,0,1-.388.932,1.271,1.271,0,0,1-.932.388Zm1.979-2.639a.639.639,0,0,0,.47-.19.638.638,0,0,0,.19-.47v-4.618a.638.638,0,0,0-.19-.47.639.639,0,0,0-.47-.19.639.639,0,0,0-.47.19.638.638,0,0,0-.19.47v4.618a.638.638,0,0,0,.19.47A.639.639,0,0,0,163.959-830.763Zm2.639,0a.639.639,0,0,0,.47-.19.639.639,0,0,0,.19-.47v-4.618a.639.639,0,0,0-.19-.47.639.639,0,0,0-.47-.19.639.639,0,0,0-.47.19.638.638,0,0,0-.19.47v4.618a.638.638,0,0,0,.19.47A.639.639,0,0,0,166.6-830.763Z" transform="translate(-10194.181 1956.16)" fill="#ef7b13"/>
  </g>
</svg>
