<svg id="Group_13860" data-name="Group 13860" xmlns="http://www.w3.org/2000/svg" width="6.468" height="32.275" viewBox="0 0 6.468 32.275">
  <path id="Path_45594" data-name="Path 45594" d="M3.23,6.46A3.262,3.262,0,0,1,0,3.224,3.263,3.263,0,0,1,3.243,0,3.261,3.261,0,0,1,6.469,3.237,3.259,3.259,0,0,1,3.23,6.46" transform="translate(-0.003 -0.001)" fill="#111"/>
  <path id="Path_45595" data-name="Path 45595" d="M3.213,104.609a3.226,3.226,0,1,1,.047-6.453,3.226,3.226,0,1,1-.047,6.453" transform="translate(-0.002 -85.242)" fill="#111"/>
  <path id="Path_45596" data-name="Path 45596" d="M3.24,202.773a3.222,3.222,0,1,1,3.226-3.23,3.25,3.25,0,0,1-3.226,3.23" transform="translate(0 -170.498)" fill="#111"/>
</svg>
