<svg xmlns="http://www.w3.org/2000/svg" width="16" height="16" viewBox="0 0 16 16">
  <g id="Group_14030" data-name="Group 14030" transform="translate(-2925.165 -3231)">
    <g id="Group_13694" data-name="Group 13694" transform="translate(2925 3231)">
      <g id="Group_11046" data-name="Group 11046" transform="translate(0 0)">
        <circle id="Ellipse_420" data-name="Ellipse 420" cx="8" cy="8" r="8" transform="translate(0.165)" fill="#fff"/>
      </g>
    </g>
    <path id="edit_FILL0_wght300_GRAD0_opsz24_1_" data-name="edit_FILL0_wght300_GRAD0_opsz24 (1)" d="M146.922-809.424h.631l4.729-4.729-.631-.631-4.729,4.729Zm7-5.282-1.723-1.708.666-.666a.745.745,0,0,1,.547-.225.745.745,0,0,1,.547.225l.622.622a.764.764,0,0,1,.233.539.709.709,0,0,1-.217.539Zm-.554.562-5.487,5.487h-1.723v-1.724l5.487-5.487Zm-1.4-.326-.313-.313.631.631Z" transform="translate(2782.856 4052.318)" fill="#024fe0"/>
  </g>
</svg>
