<svg xmlns="http://www.w3.org/2000/svg" width="17.573" height="17.557" viewBox="0 0 17.573 17.557">
  <path id="edit_FILL0_wght300_GRAD0_opsz24_1_" data-name="edit_FILL0_wght300_GRAD0_opsz24 (1)" d="M147.711-801.3h1.282l9.6-9.6-1.282-1.282-9.6,9.6Zm14.209-10.725-3.5-3.468,1.352-1.352a1.512,1.512,0,0,1,1.111-.457,1.512,1.512,0,0,1,1.111.457l1.262,1.262a1.552,1.552,0,0,1,.473,1.095,1.439,1.439,0,0,1-.441,1.095Zm-1.125,1.141-11.14,11.14h-3.5v-3.5l11.14-11.14Zm-2.847-.662-.636-.636,1.282,1.282Z" transform="translate(-146.156 817.305)" fill="#014fe0"/>
</svg>
