<svg id="Group_12183" data-name="Group 12183" xmlns="http://www.w3.org/2000/svg" xmlns:xlink="http://www.w3.org/1999/xlink" width="15.219" height="12.672" viewBox="0 0 15.219 12.672">
  <defs>
    <clipPath id="clip-path">
      <rect id="Rectangle_4503" data-name="Rectangle 4503" width="15.219" height="12.672" fill="#ef7b13"/>
    </clipPath>
  </defs>
  <g id="Group_10995" data-name="Group 10995" clip-path="url(#clip-path)">
    <path id="Path_44557" data-name="Path 44557" d="M0,168.017c.294-.414.5-.087.81.035a2.279,2.279,0,0,0,.243.084H6.318v.964a.344.344,0,0,0,.34.313c.607.059,1.31-.045,1.928,0a.352.352,0,0,0,.284-.31v-.964h5.265a2.28,2.28,0,0,0,.243-.084c.286-.113.552-.461.791-.03l.016,4.724a1.271,1.271,0,0,1-1.138,1.087l-12.964,0A1.319,1.319,0,0,1,0,172.793Z" transform="translate(0 -161.161)" fill="#ef7b13"/>
    <path id="Path_44558" data-name="Path 44558" d="M0,2.97A1.4,1.4,0,0,1,.6,2.1a1.859,1.859,0,0,1,.421-.172h3.4V1.146A1.32,1.32,0,0,1,5.56.032C6.907-.066,8.377.1,9.736.041a1.355,1.355,0,0,1,1.031,1.1v.786h3.4c.491,0,.985.681,1.024,1.141a13.2,13.2,0,0,1-.045,2.36,1.343,1.343,0,0,1-1.039.919H8.869c0-.263.024-.594-.31-.624-.636-.058-1.366.041-2.012.008-.253.092-.233.392-.229.617H1.083a1.384,1.384,0,0,1-.969-.721L0,5.284ZM9.492,1.279H5.7v.653h3.8Z" transform="translate(0 0)" fill="#ef7b13"/>
  </g>
</svg>
