<svg id="Group_13119" data-name="Group 13119" xmlns="http://www.w3.org/2000/svg" xmlns:xlink="http://www.w3.org/1999/xlink" width="23.799" height="16.722" viewBox="0 0 23.799 16.722">
  <defs>
    <clipPath id="clip-path">
      <rect id="Rectangle_5012" data-name="Rectangle 5012" width="23.799" height="16.722" fill="#ef7b13"/>
    </clipPath>
  </defs>
  <g id="Group_12745" data-name="Group 12745" clip-path="url(#clip-path)">
    <path id="Path_45354" data-name="Path 45354" d="M11.907,0A12.616,12.616,0,0,1,23.659,7.73a1.5,1.5,0,0,1,0,1.263,12.244,12.244,0,0,1-9.471,7.517A12.614,12.614,0,0,1,.136,9,1.545,1.545,0,0,1,.157,7.687,12.479,12.479,0,0,1,9.438.228a6.126,6.126,0,0,1,.772-.115c.565-.046,1.131-.076,1.7-.112m-.021,13.119A4.754,4.754,0,1,0,7.143,8.36a4.737,4.737,0,0,0,4.742,4.759" transform="translate(0 0)" fill="#ef7b13"/>
    <path id="Path_45355" data-name="Path 45355" d="M129.863,80.1a2.392,2.392,0,1,1-2.4,2.365,2.413,2.413,0,0,1,2.4-2.365" transform="translate(-117.953 -74.129)" fill="#ef7b13"/>
  </g>
</svg>
