<svg id="Group_13360" data-name="Group 13360" xmlns="http://www.w3.org/2000/svg" xmlns:xlink="http://www.w3.org/1999/xlink" width="26.088" height="18.33" viewBox="0 0 26.088 18.33">
  <defs>
    <clipPath id="clip-path">
      <rect id="Rectangle_5012" data-name="Rectangle 5012" width="26.088" height="18.33" fill="#ef7b13"/>
    </clipPath>
  </defs>
  <g id="Group_12745" data-name="Group 12745" clip-path="url(#clip-path)">
    <path id="Path_45354" data-name="Path 45354" d="M13.051,0A13.829,13.829,0,0,1,25.934,8.473a1.646,1.646,0,0,1,0,1.385A13.421,13.421,0,0,1,15.554,18.1,13.827,13.827,0,0,1,.149,9.866a1.693,1.693,0,0,1,.023-1.44A13.679,13.679,0,0,1,10.345.249a6.716,6.716,0,0,1,.846-.126C11.81.073,12.431.04,13.051,0m-.023,14.381a5.211,5.211,0,1,0-5.2-5.216,5.193,5.193,0,0,0,5.2,5.216" transform="translate(0 0)" fill="#ef7b13"/>
    <path id="Path_45355" data-name="Path 45355" d="M130.095,80.1a2.622,2.622,0,1,1-2.636,2.592,2.645,2.645,0,0,1,2.636-2.592" transform="translate(-117.039 -73.554)" fill="#ef7b13"/>
  </g>
</svg>
