<svg xmlns="http://www.w3.org/2000/svg" width="34.87" height="34.87" viewBox="0 0 34.87 34.87">
  <g id="Group_9587" data-name="Group 9587" transform="translate(-1549.326 -3147.071)">
    <path id="Path_3595" data-name="Path 3595" d="M1547.721,5405.663a17.435,17.435,0,1,0-20.159,17.223V5410.7h-4.427v-5.04h4.427v-3.841c0-4.37,2.6-6.783,6.585-6.783a26.86,26.86,0,0,1,3.9.34v4.291h-2.2a2.52,2.52,0,0,0-2.841,2.723v3.27h4.835l-.773,5.04h-4.062v12.183A17.44,17.44,0,0,0,1547.721,5405.663Z" transform="translate(36.475 -2241.157)"/>
    <path id="Path_3596" data-name="Path 3596" d="M1537.073,5410.7l.773-5.04h-4.835v-3.27a2.52,2.52,0,0,1,2.841-2.723h2.2v-4.291a26.86,26.86,0,0,0-3.9-.34c-3.982,0-6.585,2.413-6.585,6.783v3.841h-4.427v5.04h4.427v12.183a17.62,17.62,0,0,0,5.449,0V5410.7Z" transform="translate(36.475 -2241.157)" fill="#fff"/>
  </g>
</svg>
