<svg xmlns="http://www.w3.org/2000/svg" width="30.22" height="30.218" viewBox="0 0 30.22 30.218">
  <g id="Group_192" data-name="Group 192" transform="translate(-1450.863 -64.49)">
    <path id="Path_18" data-name="Path 18" d="M2231.083,178.289a15.11,15.11,0,1,0-17.471,14.926V182.657h-3.837v-4.368h3.837V174.96c0-3.787,2.255-5.878,5.707-5.878a23.24,23.24,0,0,1,3.382.295V173.1H2220.8a2.184,2.184,0,0,0-2.463,2.36v2.834h4.191l-.67,4.368h-3.521v10.558a15.114,15.114,0,0,0,12.75-14.926" transform="translate(-750 -98.69)" fill="#fff"/>
    <path id="Path_19" data-name="Path 19" d="M2221.854,182.656l.67-4.367h-4.191v-2.834a2.184,2.184,0,0,1,2.463-2.36h1.905v-3.719a23.316,23.316,0,0,0-3.382-.294c-3.452,0-5.707,2.091-5.707,5.878v3.329h-3.837v4.367h3.837v10.558a15.234,15.234,0,0,0,4.721,0V182.656Z" transform="translate(-750 -98.69)"/>
  </g>
</svg>
