<svg xmlns="http://www.w3.org/2000/svg" width="112.358" height="112.697" viewBox="0 0 112.358 112.697">
  <g id="yEq5Zc" transform="translate(-1654.086 -920.018)">
    <g id="Group_2197" data-name="Group 2197">
      <path id="Path_3586" data-name="Path 3586" d="M1710.121,920.018c96.492,8.862,56.631,143.577-26.714,105.671-6.488-1.223-35.13,14.38-28.266,2.6,9.4-18.436,1.806-31.98-.957-50.976C1653.489,944.874,1679.753,920.329,1710.121,920.018Z" fill="#fff"/>
      <path id="Path_3587" data-name="Path 3587" d="M1709.794,1022.943c-8.592.958-17.777-5.112-26.708-7.081-22.766,6.877-14.226,4.218-11.5-12.992-5.577-10.56-9.786-21.46-7.385-34.568,7.493-41.238,56.6-50.136,80.484-24C1773.469,975.027,1749.585,1023.591,1709.794,1022.943Z" fill="#4eb85f"/>
    </g>
  </g>
</svg>
