<svg xmlns="http://www.w3.org/2000/svg" xmlns:xlink="http://www.w3.org/1999/xlink" width="53.671" height="42.615" viewBox="0 0 53.671 42.615">
  <defs>
    <clipPath id="clip-path">
      <rect id="Rectangle_5146" data-name="Rectangle 5146" width="53.671" height="42.615" fill="none"/>
    </clipPath>
  </defs>
  <g id="Group_13251" data-name="Group 13251" clip-path="url(#clip-path)">
    <path id="Path_45474" data-name="Path 45474" d="M69.155,99.4v1.569l-6.344,21.446c-.484,1.55-2.778,3.454-4.4,3.454H18l1.7-.443c2.089-.831,2.84-2.37,3.484-4.369,2.333-7.24,3.971-14.761,6.573-21.9a5.1,5.1,0,0,1,3.8-2.379l32.6,0A3.533,3.533,0,0,1,69.155,99.4" transform="translate(-15.484 -83.252)"/>
    <path id="Path_45475" data-name="Path 45475" d="M0,3.7A4.711,4.711,0,0,1,3.855.169C8.322.444,13.47-.3,17.86.152a6.256,6.256,0,0,1,3.262,1.557C22.28,2.8,23.594,5.545,25.206,5.689l17.6.008c1.655-.066,4.153,2.08,4.153,3.7v1.936l-28.36,0a7.4,7.4,0,0,0-6.732,4.58C9.564,22.957,7.916,30.238,5.608,37.28a5.293,5.293,0,0,1-.837,1.885C3.429,40.832.837,40.925,0,38.745Z" transform="translate(0 -0.001)"/>
  </g>
</svg>
