<svg xmlns="http://www.w3.org/2000/svg" width="33" height="33" viewBox="0 0 33 33">
  <g id="Group_8225" data-name="Group 8225" transform="translate(-866 -710)">
    <path id="Path_43833" data-name="Path 43833" d="M7.176,5.5A1.676,1.676,0,0,0,5.5,7.176V34.824A1.676,1.676,0,0,0,7.176,36.5H34.824A1.676,1.676,0,0,0,36.5,34.824V7.176A1.676,1.676,0,0,0,34.824,5.5Z" transform="translate(861.5 705.5)" fill="none" stroke="#ef7b13" stroke-linecap="round" stroke-linejoin="round" stroke-width="2"/>
    <path id="Path_43834" data-name="Path 43834" d="M32.859,28.337a3.165,3.165,0,0,1-2.751,1.6h0a3.166,3.166,0,0,1-3.166-3.166V24.71a3.166,3.166,0,0,1,3.166-3.166h0a3.166,3.166,0,0,1,3.166,3.166v1.029H26.941" transform="translate(858.023 702.898)" fill="none" stroke="#ef7b13" stroke-linecap="round" stroke-linejoin="round" stroke-width="2"/>
    <path id="Path_43835" data-name="Path 43835" d="M18.725,22.774a3.166,3.166,0,1,1,0,6.333H13.5V16.441h5.225a3.166,3.166,0,1,1,0,6.333Z" transform="translate(860.203 703.726)" fill="none" stroke="#ef7b13" stroke-linecap="round" stroke-linejoin="round" stroke-width="2"/>
    <line id="Line_162" data-name="Line 162" x1="5.225" transform="translate(873.703 726.5)" fill="none" stroke="#ef7b13" stroke-linecap="round" stroke-linejoin="round" stroke-width="2"/>
    <line id="Line_163" data-name="Line 163" x2="6.333" transform="translate(884.965 720.167)" fill="none" stroke="#ef7b13" stroke-linecap="round" stroke-linejoin="round" stroke-width="2"/>
  </g>
</svg>
