<svg xmlns="http://www.w3.org/2000/svg" width="41.546" height="37.523" viewBox="0 0 41.546 37.523">
  <path id="Path_44585" data-name="Path 44585" d="M9.908,0a10.172,10.172,0,0,1,7.909,3.762,10.194,10.194,0,0,0,1.126,1.512.965.965,0,0,0,.807-.089c.185-.147.731-1.117.975-1.424A9.741,9.741,0,0,1,35.753,3.4c5.485,6.165,1.914,14.675-2.7,20.156A51.572,51.572,0,0,1,19.37,34.478l-.255-.028C10.948,29.729.475,21.379.01,11.233-.243,5.691,4.034.086,9.908,0" transform="translate(1.502 1.501)" fill="none" stroke="#111" stroke-width="3"/>
</svg>
