<svg xmlns="http://www.w3.org/2000/svg" width="34.87" height="34.87" viewBox="0 0 34.87 34.87">
  <g id="Group_9589" data-name="Group 9589" transform="translate(-1665.357 -3147.07)">
    <circle id="Ellipse_36" data-name="Ellipse 36" cx="17.435" cy="17.435" r="17.435" transform="translate(1665.357 3147.07)"/>
    <g id="Group_2218" data-name="Group 2218" transform="translate(36.475 -2241.157)">
      <g id="Group_2217" data-name="Group 2217">
        <path id="Path_3592" data-name="Path 3592" d="M1647.667,5403.284c.286-.321.522-.648.816-.925a4.484,4.484,0,0,1,3.222-1.272,7.48,7.48,0,0,1,2.027.247,3.961,3.961,0,0,1,2.812,2.958,12.394,12.394,0,0,1,.374,3.388c0,2.409-.007,4.817,0,7.225,0,.226-.062.285-.284.283q-1.861-.015-3.723,0c-.218,0-.265-.066-.264-.272q.01-3.438,0-6.875a6.185,6.185,0,0,0-.2-1.707,1.919,1.919,0,0,0-2.11-1.5,2.306,2.306,0,0,0-2.424,2.3,8.559,8.559,0,0,0-.066,1.075c0,2.228,0,4.457.006,6.686,0,.222-.055.288-.282.286q-1.875-.016-3.749,0c-.2,0-.259-.053-.258-.255q.008-6.62,0-13.238c0-.219.072-.269.278-.268q1.781.014,3.561,0c.218,0,.274.068.27.275C1647.659,5402.229,1647.667,5402.757,1647.667,5403.284Z" fill="#fff"/>
        <path id="Path_3593" data-name="Path 3593" d="M1640.868,5408.327c0,2.183,0,4.366.005,6.549,0,.243-.059.316-.31.314-1.24-.014-2.481-.011-3.721,0-.2,0-.259-.049-.258-.254q.009-6.63,0-13.26c0-.183.044-.248.238-.247,1.258.008,2.517.011,3.775,0,.242,0,.275.091.274.3Q1640.863,5405.025,1640.868,5408.327Z" fill="#fff"/>
        <path id="Path_3594" data-name="Path 3594" d="M1641.21,5397.047a2.477,2.477,0,1,1-2.473-2.465A2.485,2.485,0,0,1,1641.21,5397.047Z" fill="#fff"/>
      </g>
    </g>
  </g>
</svg>
