<svg id="Group_10456" data-name="Group 10456" xmlns="http://www.w3.org/2000/svg" width="78.92" height="78.872" viewBox="0 0 78.92 78.872">
  <path id="Path_44410" data-name="Path 44410" d="M36.515,0h6.009c.078.188.252.14.395.152A39.438,39.438,0,0,1,78.384,45.784,38.579,38.579,0,0,1,66.142,68.429,38.445,38.445,0,0,1,34.128,78.508a37.953,37.953,0,0,1-22.261-10.9A38.826,38.826,0,0,1,.429,45.285,10.515,10.515,0,0,0,0,42.678V36.207c.187-.076.144-.248.159-.393.142-1.352.335-2.7.589-4.033A39.535,39.535,0,0,1,33.589.43,15.931,15.931,0,0,0,36.515,0m5.011,35.675c0-.485.012-.97,0-1.454-.03-1.06-.454-1.49-1.517-1.5q-2.7-.02-5.39,0c-1.01.009-1.47.467-1.471,1.466q-.01,11.744,0,23.488c0,1.041.463,1.48,1.518,1.484,1.72.006,3.44,0,5.16,0,1.275,0,1.646-.369,1.647-1.647,0-3.953-.01-7.906.007-11.86a7.963,7.963,0,0,1,1.044-4.048,4.072,4.072,0,0,1,4.39-2.015,3.673,3.673,0,0,1,3.18,2.839,12.593,12.593,0,0,1,.431,3.883q-.012,5.7,0,11.4c0,1.022.433,1.444,1.455,1.449,1.8.008,3.594,0,5.391,0,1.283,0,1.661-.369,1.66-1.633q0-6.469-.008-12.937a22.812,22.812,0,0,0-.479-4.816c-.733-3.4-2.4-6.057-5.973-7.031a12.621,12.621,0,0,0-6.616.024,8.921,8.921,0,0,0-4.42,2.905M21.083,45.957q0,5.775,0,11.551c0,1.22.447,1.653,1.679,1.656q2.464.005,4.928,0c1.26,0,1.724-.458,1.725-1.71q0-11.512,0-23.025c0-1.236-.476-1.7-1.739-1.706q-2.426-.011-4.851,0c-1.323.006-1.742.43-1.743,1.762q0,5.737,0,11.474m-1.223-20.9a5.387,5.387,0,1,0,5.4-5.335,5.375,5.375,0,0,0-5.4,5.335" transform="translate(0 0)" fill="#0058a6"/>
  <g id="Group_10392" data-name="Group 10392" transform="translate(19.862 19.722)">
    <path id="Path_44411" data-name="Path 44411" d="M169.333,160.3a8.918,8.918,0,0,1,4.42-2.905,12.622,12.622,0,0,1,6.616-.024c3.574.974,5.239,3.627,5.973,7.031a22.81,22.81,0,0,1,.479,4.816q0,6.468.008,12.937c0,1.264-.378,1.632-1.661,1.633-1.8,0-3.594.006-5.39,0-1.022,0-1.454-.426-1.455-1.449q-.009-5.7,0-11.4a12.593,12.593,0,0,0-.431-3.883,3.673,3.673,0,0,0-3.18-2.839,4.072,4.072,0,0,0-4.39,2.015,7.962,7.962,0,0,0-1.043,4.048c-.018,3.953,0,7.906-.007,11.859,0,1.278-.372,1.646-1.647,1.647q-2.58,0-5.159,0c-1.055,0-1.518-.443-1.519-1.484q-.009-11.744,0-23.488c0-1,.461-1.456,1.471-1.465q2.7-.025,5.39,0c1.063.008,1.487.438,1.517,1.5.014.484,0,.969,0,1.454" transform="translate(-147.668 -144.351)"/>
    <path id="Path_44412" data-name="Path 44412" d="M102.385,172.129q0-5.737,0-11.474c0-1.332.42-1.756,1.743-1.761q2.425-.01,4.851,0c1.263.006,1.738.47,1.739,1.706q0,11.512,0,23.025c0,1.253-.465,1.708-1.725,1.711q-2.464,0-4.928,0c-1.232,0-1.677-.435-1.679-1.656q-.007-5.775,0-11.551" transform="translate(-101.166 -145.894)"/>
    <path id="Path_44413" data-name="Path 44413" d="M96.451,101.114a5.359,5.359,0,0,1,5.4-5.335,5.389,5.389,0,1,1-5.4,5.335" transform="translate(-96.451 -95.779)"/>
  </g>
</svg>
