<svg xmlns="http://www.w3.org/2000/svg" width="29.6" height="29.6" viewBox="0 0 29.6 29.6">
  <path id="account_circle_FILL0_wght400_GRAD0_opsz48" d="M85.254-856.875a21.309,21.309,0,0,1,4.625-2.5,13.769,13.769,0,0,1,4.921-.87,13.919,13.919,0,0,1,4.939.87,21.14,21.14,0,0,1,4.643,2.5,12.989,12.989,0,0,0,2.313-4.033,13.372,13.372,0,0,0,.684-4.292,12.18,12.18,0,0,0-3.607-8.972A12.18,12.18,0,0,0,94.8-877.78a12.18,12.18,0,0,0-8.972,3.607A12.18,12.18,0,0,0,82.22-865.2a13.051,13.051,0,0,0,.7,4.292A13.315,13.315,0,0,0,85.254-856.875Zm9.539-7.215a4.881,4.881,0,0,1-3.6-1.468,4.916,4.916,0,0,1-1.462-3.608,4.881,4.881,0,0,1,1.468-3.6,4.916,4.916,0,0,1,3.607-1.461,4.881,4.881,0,0,1,3.6,1.468,4.916,4.916,0,0,1,1.461,3.607,4.881,4.881,0,0,1-1.468,3.6A4.916,4.916,0,0,1,94.793-864.09Zm.024,13.69a14.363,14.363,0,0,1-5.752-1.165,15.012,15.012,0,0,1-4.717-3.182,15.039,15.039,0,0,1-3.182-4.709A14.325,14.325,0,0,1,80-865.21a14.256,14.256,0,0,1,1.165-5.744,15.07,15.07,0,0,1,3.182-4.7,15.038,15.038,0,0,1,4.709-3.182A14.326,14.326,0,0,1,94.81-880a14.256,14.256,0,0,1,5.744,1.166,15.07,15.07,0,0,1,4.7,3.182,15.067,15.067,0,0,1,3.182,4.7,14.24,14.24,0,0,1,1.165,5.735,14.363,14.363,0,0,1-1.165,5.752,15.012,15.012,0,0,1-3.182,4.717,15.067,15.067,0,0,1-4.7,3.182A14.24,14.24,0,0,1,94.817-850.4Zm-.017-2.22a13.57,13.57,0,0,0,3.977-.592,11.82,11.82,0,0,0,3.829-2.072,16.1,16.1,0,0,0-3.848-2.035,11.656,11.656,0,0,0-3.959-.7,11.656,11.656,0,0,0-3.959.7,16.1,16.1,0,0,0-3.848,2.035,11.82,11.82,0,0,0,3.829,2.072A13.57,13.57,0,0,0,94.8-852.62Zm0-13.69a2.779,2.779,0,0,0,2.053-.8,2.779,2.779,0,0,0,.8-2.054,2.779,2.779,0,0,0-.8-2.053,2.779,2.779,0,0,0-2.053-.8,2.779,2.779,0,0,0-2.053.8,2.779,2.779,0,0,0-.8,2.053,2.779,2.779,0,0,0,.8,2.054A2.779,2.779,0,0,0,94.8-866.31ZM94.8-869.159ZM94.8-855.321Z" transform="translate(-80 880)" fill="#ef7b13"/>
</svg>
