<svg xmlns="http://www.w3.org/2000/svg" width="23.666" height="23.667" viewBox="0 0 23.666 23.667">
  <path id="logout_FILL0_wght300_GRAD0_opsz24" d="M142.518-796.332a2.429,2.429,0,0,1-1.786-.731,2.429,2.429,0,0,1-.731-1.786v-18.633a2.429,2.429,0,0,1,.731-1.786,2.429,2.429,0,0,1,1.786-.731h9.33v2.088h-9.33a.41.41,0,0,0-.295.134.41.41,0,0,0-.134.295v18.633a.41.41,0,0,0,.134.295.409.409,0,0,0,.295.134h9.33v2.088Zm15.207-5.89-1.446-1.51,3.389-3.389H147.792v-2.088h11.876l-3.389-3.389,1.446-1.51,5.943,5.943Z" transform="translate(-140.002 819.999)" fill="#ef7b13"/>
</svg>
