<svg xmlns="http://www.w3.org/2000/svg" xmlns:xlink="http://www.w3.org/1999/xlink" width="35.82" height="39.52" viewBox="0 0 35.82 39.52">
  <defs>
    <clipPath id="clip-path">
      <rect id="Rectangle_4087" data-name="Rectangle 4087" width="35.82" height="39.52" fill="#111"/>
    </clipPath>
  </defs>
  <g id="Group_11161" data-name="Group 11161" opacity="0.6">
    <g id="Group_9945" data-name="Group 9945" clip-path="url(#clip-path)">
      <path id="Path_44306" data-name="Path 44306" d="M28.94,0a11.826,11.826,0,0,1,1.306.974c1.637,1.6,3.24,3.234,4.869,4.843a2.22,2.22,0,0,1,.7,1.682q-.015,14.987.007,29.974a1.972,1.972,0,0,1-2.03,2.047c-9.388-.026-18.777-.014-28.166-.015a1.809,1.809,0,0,1-1.875-1.446,1.419,1.419,0,0,1-.038-.343.573.573,0,0,1,.53-.6.563.563,0,0,1,.621.5c.121.585.3.734.885.734H33.76c.656,0,.888-.229.888-.878q0-14.563,0-29.125c0-.113-.011-.225-.02-.384H34.2q-2.469,0-4.939,0c-.973,0-1.416-.441-1.417-1.406q0-2.469,0-4.938V1.156H5.825c-.753,0-.954.2-.954.966q0,9.567,0,19.134c0,.658-.181.948-.585.942s-.57-.291-.577-.917c0-.087,0-.175,0-.291A14.341,14.341,0,0,0,2.151,21a1.242,1.242,0,0,0-.99,1.255,1.267,1.267,0,0,0,1.05,1.208,4.259,4.259,0,0,0,.577.025q9.241,0,18.481.011a2.987,2.987,0,0,1,1.224.246,1.664,1.664,0,0,1,.947,1.6q.016,4.3,0,8.6a1.81,1.81,0,0,1-1.87,1.844Q12,35.8,2.435,35.8A2.413,2.413,0,0,1,0,33.337Q0,27.839,0,22.342A2.446,2.446,0,0,1,2.537,19.78c.372-.006.744,0,1.17,0v-.51c0-5.632.018-11.264-.015-16.9A2.188,2.188,0,0,1,5.093,0ZM1.159,24.476v.284q0,4.166,0,8.331c0,1.068.484,1.55,1.56,1.551H21.313c.754,0,.949-.2.95-.964q0-4.031,0-8.061c0-.779-.165-.939-.957-.939q-9.143,0-18.286-.009a18.334,18.334,0,0,1-1.861-.193M29.043,1.512v5.26H34.3l-5.262-5.26" transform="translate(0)" fill="#111"/>
      <path id="Path_44307" data-name="Path 44307" d="M129.359,70.479l2.09.286a.515.515,0,0,1,.075.019c.971.285,1.422.9,1.217,1.648a1.618,1.618,0,0,1-2.09,1.239,6.055,6.055,0,0,1-2.457-1.541.938.938,0,0,0-.914-.3c-1.519.309-3.046.577-4.565.885a.87.87,0,0,0-.456.346c-.594.82-1.146,1.671-1.76,2.474a3.174,3.174,0,0,1-.887.728,1.34,1.34,0,0,1-1.761-.175,1.464,1.464,0,0,1-.262-1.9,3.8,3.8,0,0,1,1.15-1.1c.81-.457,1.7-.777,2.541-1.175a.951.951,0,0,0,.463-.4q1-2.329,1.947-4.683a.835.835,0,0,0-.05-.6,9.073,9.073,0,0,1-.978-2.7,2.887,2.887,0,0,1,.031-.99,1.538,1.538,0,0,1,1.785-1.165,1.376,1.376,0,0,1,1.145,1.431,9.169,9.169,0,0,1-.433,3.111.916.916,0,0,0,.138.887q1.283,1.684,2.554,3.378a.819.819,0,0,0,.852.374,3.9,3.9,0,0,1,.616-.006l.009-.074m-4.752-2.555-1.413,3.41,3.513-.65-2.1-2.76m-3.941,5.628-.165-.182c-.59.4-1.192.778-1.763,1.2a.411.411,0,0,0-.073.668c.23.23.43.02.561-.113.5-.508.962-1.046,1.44-1.572m3.493-8.88.184-.01c.042-.581.1-1.162.114-1.745a.444.444,0,0,0-.231-.354.34.34,0,0,0-.424.331.841.841,0,0,0-.013.267c.117.5.246,1.007.37,1.51m7.479,7.314-2.016-.325-.059.177c.445.23.876.494,1.338.681.393.16.556.036.737-.534" transform="translate(-105.252 -55.041)" fill="#111"/>
      <path id="Path_44308" data-name="Path 44308" d="M98.2,261.652c0-.719,0-1.437,0-2.156,0-.607.2-.8.811-.8.385,0,.771-.01,1.155,0a2.346,2.346,0,0,1,2.305,1.7,3.643,3.643,0,0,1-.2,2.945,2.35,2.35,0,0,1-2.152,1.312c-.385.008-.77.006-1.155,0-.527,0-.754-.211-.762-.74-.011-.757,0-1.514,0-2.271m1.219-1.765v3.59c.677.037,1.348.1,1.749-.552a2.352,2.352,0,0,0,.023-2.487c-.394-.714-1.1-.566-1.772-.551" transform="translate(-88.081 -232.028)" fill="#111"/>
      <path id="Path_44309" data-name="Path 44309" d="M49.043,261.921c0,.526,0,1,0,1.472,0,.416-.223.677-.566.686s-.588-.261-.589-.7q0-2.369,0-4.739c0-.457.193-.666.647-.677.5-.012,1-.018,1.5.02a1.94,1.94,0,0,1,1.8,2.025,1.979,1.979,0,0,1-1.937,1.91c-.268.007-.536,0-.858,0m.019-1.147c.577-.047,1.176.138,1.519-.478a.708.708,0,0,0-.1-.856c-.4-.469-.93-.257-1.421-.3Z" transform="translate(-42.949 -231.37)" fill="#111"/>
      <path id="Path_44310" data-name="Path 44310" d="M154.671,261.8c0,.637,0,1.224,0,1.812,0,.441-.233.713-.586.705s-.57-.281-.57-.725q0-2.33,0-4.659c0-.482.2-.688.668-.692q.924-.008,1.849,0a.579.579,0,1,1,.012,1.153c-.436.009-.872,0-1.34,0v1.242c.358,0,.724,0,1.091,0,.443,0,.713.222.719.575s-.263.58-.7.584c-.358,0-.716,0-1.139,0" transform="translate(-137.691 -231.622)" fill="#111"/>
    </g>
  </g>
</svg>
