<svg xmlns="http://www.w3.org/2000/svg" xmlns:xlink="http://www.w3.org/1999/xlink" width="28" height="28" viewBox="0 0 28 28">
  <defs>
    <clipPath id="clip-path">
      <rect id="Rectangle_4852" data-name="Rectangle 4852" width="10.479" height="17.969" fill="#fff"/>
    </clipPath>
  </defs>
  <g id="Group_13298" data-name="Group 13298" transform="translate(-488 -551)">
    <g id="Group_12195" data-name="Group 12195" transform="translate(320.396 329.396)">
      <g id="Group_11966" data-name="Group 11966" transform="translate(167.859 221.859)">
        <circle id="Ellipse_420" data-name="Ellipse 420" cx="14" cy="14" r="14" transform="translate(-0.256 -0.256)" fill="#111"/>
      </g>
    </g>
    <g id="Group_13294" data-name="Group 13294" transform="matrix(0.966, 0.259, -0.259, 0.966, 499.232, 555.148)">
      <g id="Group_12160" data-name="Group 12160" clip-path="url(#clip-path)">
        <path id="Path_45224" data-name="Path 45224" d="M5.8,0A6.244,6.244,0,0,1,8.467.688a1.093,1.093,0,0,1,.494,1.26,3.855,3.855,0,0,1-1.431,2.5l.342,2.384c1.3.823,3.51,2.979,2.212,4.6a2.824,2.824,0,0,1-1.376.8,10.583,10.583,0,0,1-2.8.482L5.624,17.6a.383.383,0,0,1-.766,0L4.575,12.7a10.756,10.756,0,0,1-2.721-.455,2.323,2.323,0,0,1-1.762-1.4,2.392,2.392,0,0,1,.594-2.23A6.914,6.914,0,0,1,2.611,6.828l.342-2.384A3.869,3.869,0,0,1,1.609,2.387a2.327,2.327,0,0,1-.035-1.229C1.923.331,3.9.043,4.68,0Z" transform="translate(0)" fill="#fff"/>
      </g>
    </g>
  </g>
</svg>
