<svg xmlns="http://www.w3.org/2000/svg" width="26.8" height="26.8" viewBox="0 0 26.8 26.8">
  <path id="add_circle_FILL0_wght400_GRAD0_opsz24" d="M92.06-859.9h2.68v-5.36h5.36v-2.68H94.74v-5.36H92.06v5.36H86.7v2.68h5.36Zm1.34,6.7a13.048,13.048,0,0,1-5.226-1.055,13.532,13.532,0,0,1-4.254-2.864,13.532,13.532,0,0,1-2.864-4.255A13.048,13.048,0,0,1,80-866.6a13.048,13.048,0,0,1,1.055-5.226,13.532,13.532,0,0,1,2.864-4.254,13.532,13.532,0,0,1,4.254-2.864A13.048,13.048,0,0,1,93.4-880a13.048,13.048,0,0,1,5.226,1.055,13.532,13.532,0,0,1,4.254,2.864,13.532,13.532,0,0,1,2.864,4.254A13.048,13.048,0,0,1,106.8-866.6a13.048,13.048,0,0,1-1.055,5.226,13.532,13.532,0,0,1-2.864,4.255,13.532,13.532,0,0,1-4.254,2.864A13.048,13.048,0,0,1,93.4-853.2Zm0-2.68A10.346,10.346,0,0,0,101-859a10.346,10.346,0,0,0,3.115-7.6A10.346,10.346,0,0,0,101-874.2a10.346,10.346,0,0,0-7.6-3.115,10.346,10.346,0,0,0-7.6,3.115,10.346,10.346,0,0,0-3.115,7.6A10.346,10.346,0,0,0,85.8-859,10.346,10.346,0,0,0,93.4-855.88ZM93.4-866.6Z" transform="translate(-80 880)" fill="#ef7b13"/>
</svg>
