<svg id="Group_9252" data-name="Group 9252" xmlns="http://www.w3.org/2000/svg" xmlns:xlink="http://www.w3.org/1999/xlink" width="108.416" height="101.667" viewBox="0 0 108.416 101.667">
  <defs>
    <clipPath id="clip-path">
      <rect id="Rectangle_793" data-name="Rectangle 793" width="108.416" height="101.667" fill="#ef7b13"/>
    </clipPath>
  </defs>
  <g id="Group_3712" data-name="Group 3712" clip-path="url(#clip-path)">
    <path id="Path_32313" data-name="Path 32313" d="M0,46.6a16.807,16.807,0,0,0,.586-3.564C4.09,23.861,14.921,10.591,32.928,3.291A47.484,47.484,0,0,1,56.788.4a49.766,49.766,0,0,1,27.4,12.216A50.366,50.366,0,0,1,99.5,36.453c.091.3.186.6.281.9.007.022.037.037.138.131.665-1.658,1.288-3.291,1.975-4.9a3.392,3.392,0,0,1,5.925-.617,3.47,3.47,0,0,1,.245,3.508c-1.776,4.392-3.526,8.794-5.284,13.193-.391.978-.814,1.945-1.155,2.94A3.544,3.544,0,0,1,95.474,52.9c-4.273-4.359-8.627-8.639-12.934-12.966-1.587-1.595-1.667-3.637-.244-5.056s3.452-1.329,5.054.256c1.781,1.762,3.541,3.545,5.321,5.309.237.236.4.587.919.641a12.681,12.681,0,0,0-.753-3.233,43.8,43.8,0,0,0-20.1-25.132A42.47,42.47,0,0,0,56.066,7.181a42.778,42.778,0,0,0-26.009,4.891A43.713,43.713,0,0,0,11.541,31.061a42.245,42.245,0,0,0-4.7,21.185A43.137,43.137,0,0,0,21.507,83.567,41.84,41.84,0,0,0,44.543,94.383c13.9,1.828,26.1-2.05,36.464-11.546a7.372,7.372,0,0,1,2.068-1.619A3.4,3.4,0,0,1,86.7,86.829a50.078,50.078,0,0,1-7.758,6.359,49.491,49.491,0,0,1-20.891,7.98A50.918,50.918,0,0,1,1.569,63.491a43.863,43.863,0,0,1-1.356-8c-.012-.17.015-.36-.214-.42V53.165a1.618,1.618,0,0,0,0-1.27V49.777a1.618,1.618,0,0,0,0-1.27Z" transform="translate(0 0)" fill="#ef7b13"/>
    <path id="Path_32314" data-name="Path 32314" d="M155.57,100.3a3.307,3.307,0,0,0-3.3-3.283,25.23,25.23,0,0,0-2.538.009c-.716.054-.963-.124-.942-.9.057-2.15.011-4.3.016-6.453a11.285,11.285,0,0,0-.343-2.5,13.64,13.64,0,0,0-15.553-10.305c-6.039,1.009-11.106,6.65-11.189,12.771-.03,2.221-.023,4.444,0,6.666.006.524-.1.761-.685.719-.772-.054-1.551-.015-2.327-.013-2.454.008-3.773,1.322-3.773,3.776q0,13.173,0,26.345c0,2.443,1.327,3.753,3.795,3.755q8.253.006,16.506,0,8.411,0,16.823,0a3.31,3.31,0,0,0,3.516-3.287q.03-13.649,0-27.3M128.649,89.086a6.688,6.688,0,0,1,13.224.127c.337,2.419.064,4.855.161,7.28.027.669-.418.509-.77.511-2.008.007-4.016,0-6.024,0h-6.024c-.376,0-.774.108-.745-.537.107-2.46-.2-4.934.179-7.384m19.206,35.037c-4.233-.027-8.466-.014-12.7-.014-4.2,0-8.4-.015-12.593.016-.675.005-.878-.151-.874-.856q.045-9.313,0-18.626c0-.669.14-.88.852-.878q12.7.041,25.4,0c.671,0,.882.145.878.855q-.045,9.313,0,18.626c.005.817-.3.878-.969.874" transform="translate(-84.44 -56.334)" fill="#ef7b13"/>
  </g>
</svg>
