<svg xmlns="http://www.w3.org/2000/svg" xmlns:xlink="http://www.w3.org/1999/xlink" width="15" height="15" viewBox="0 0 15 15">
  <defs>
    <clipPath id="clip-path">
      <rect id="Rectangle_4929" data-name="Rectangle 4929" width="7.096" height="7.085" fill="#ef7b13"/>
    </clipPath>
  </defs>
  <g id="Group_13259" data-name="Group 13259" transform="translate(-72 -765)">
    <g id="Ellipse_625" data-name="Ellipse 625" transform="translate(72 765)" fill="#fff" stroke="#111" stroke-width="0.5">
      <circle cx="7.5" cy="7.5" r="7.5" stroke="none"/>
      <circle cx="7.5" cy="7.5" r="7.25" fill="none"/>
    </g>
    <g id="Group_12678" data-name="Group 12678" transform="translate(83.042 768.952) rotate(90)">
      <g id="Group_12675" data-name="Group 12675" clip-path="url(#clip-path)">
        <path id="Path_45331" data-name="Path 45331" d="M1.583,1.851c.234,0,.469,0,.7,0a.455.455,0,0,1,.484.49.441.441,0,0,1-.416.422q-.94.009-1.88,0a.494.494,0,0,1-.458-.412A.876.876,0,0,1,0,2.208C0,1.64,0,1.071,0,.5A.455.455,0,0,1,.521.008a.442.442,0,0,1,.4.427c.006.226,0,.453,0,.711.048-.042.08-.065.107-.093A3.544,3.544,0,1,1,4.232,7.017,3.459,3.459,0,0,1,.743,5.709a.46.46,0,1,1,.718-.571A2.624,2.624,0,0,0,6.154,3.827,2.607,2.607,0,0,0,3.824.94a2.587,2.587,0,0,0-2.249.867l.008.045" transform="translate(-0.001 0)" fill="#ef7b13"/>
      </g>
    </g>
  </g>
</svg>
