<svg id="Group_13922" data-name="Group 13922" xmlns="http://www.w3.org/2000/svg" xmlns:xlink="http://www.w3.org/1999/xlink" width="21.84" height="21.84" viewBox="0 0 21.84 21.84">
  <defs>
    <clipPath id="clip-path">
      <rect id="Rectangle_5129" data-name="Rectangle 5129" width="21.84" height="21.84" fill="#fff"/>
    </clipPath>
  </defs>
  <g id="Group_13246" data-name="Group 13246" clip-path="url(#clip-path)">
    <path id="Path_45503" data-name="Path 45503" d="M12.261,0c1.352.371,1.036,1.832,1.3,2.9l1.188.491c.953-.582,1.9-1.983,3.109-1.008a14.489,14.489,0,0,1,1.8,1.905c.5,1.164-.662,1.9-1.206,2.775l.487,1.213c1.071.269,2.527-.055,2.9,1.3v2.64c-.381,1.355-1.828,1.035-2.9,1.3l-.491,1.188c.577.941,1.962,1.892,1.029,3.088a16.3,16.3,0,0,1-1.663,1.658c-1.16.892-2.142-.46-3.039-1.044l-1.213.487c-.247,1.028.018,2.775-1.45,2.9a17.617,17.617,0,0,1-2.345,0c-1.441-.125-1.231-1.864-1.432-2.889l-1.182-.5c-.953.506-1.789,1.891-3.013,1.1a16.78,16.78,0,0,1-1.758-1.734c-.878-1.142.413-2.114,1.016-2.988l.027-.1-.5-1.182c-1-.2-2.746.007-2.887-1.391A16.5,16.5,0,0,1,.059,9.535,1.437,1.437,0,0,1,1.138,8.527c.24-.051,1.749-.177,1.8-.25l.487-1.213c-.583-.9-1.939-1.875-1.045-3.039A16.282,16.282,0,0,1,4.3,2.193c1.189-.542,1.928.676,2.831,1.2L8.318,2.9C8.587,1.829,8.263.373,9.621,0Zm-1.8,6.4a4.525,4.525,0,1,0,4.374,6.8,4.541,4.541,0,0,0-4.374-6.8" transform="translate(0)" fill="#fff"/>
  </g>
</svg>
