<svg xmlns="http://www.w3.org/2000/svg" width="32.504" height="38.413" viewBox="0 0 32.504 38.413">
  <path id="share-svgrepo-com" d="M29.351,2.25a6.407,6.407,0,0,0-6.3,7.533L13.73,16.306a1.49,1.49,0,0,0-.134.106,6.4,6.4,0,1,0,0,10.088,1.486,1.486,0,0,0,.134.106l9.319,6.523a6.4,6.4,0,1,0,1.215-2.756L15.44,24.2a6.418,6.418,0,0,0,0-5.481l8.824-6.177A6.4,6.4,0,1,0,29.351,2.25ZM25.9,8.652A3.447,3.447,0,1,1,29.351,12.1,3.447,3.447,0,0,1,25.9,8.652ZM9.652,18.009A3.447,3.447,0,1,0,13.1,21.457,3.447,3.447,0,0,0,9.652,18.009Zm19.7,12.8A3.447,3.447,0,1,0,32.8,34.261,3.447,3.447,0,0,0,29.351,30.814Z" transform="translate(-3.25 -2.25)" fill="#111" fill-rule="evenodd"/>
</svg>
