<svg xmlns="http://www.w3.org/2000/svg" width="23.087" height="22" viewBox="0 0 23.087 22">
  <path id="Path_45414" data-name="Path 45414" d="M11.448,0a.876.876,0,0,1,.9.539c.977,1.993,1.964,3.982,2.94,5.976a.421.421,0,0,0,.373.268c2.206.31,4.41.636,6.615.955a.837.837,0,0,1,.484,1.5q-2.412,2.342-4.815,4.693a.338.338,0,0,0-.122.346c.39,2.236.767,4.475,1.152,6.712a.822.822,0,0,1-1.226.887q-2.981-1.569-5.961-3.139a.432.432,0,0,0-.464-.006c-1.976,1.047-3.958,2.084-5.937,3.127a.827.827,0,0,1-.952-.026.794.794,0,0,1-.305-.877c.038-.164.052-.333.081-.5.357-2.079.717-4.158,1.064-6.239a.405.405,0,0,0-.132-.288q-2.4-2.355-4.806-4.7A1.145,1.145,0,0,1,.04,8.8.774.774,0,0,1,.652,7.781c.756-.135,1.518-.236,2.278-.346,1.537-.224,3.075-.441,4.61-.675a.441.441,0,0,0,.25-.234Q9.066,3.965,10.327,1.4c.153-.31.307-.62.458-.931A.753.753,0,0,1,11.448,0" transform="translate(0 -0.001)" fill="#111"/>
</svg>
