<svg xmlns="http://www.w3.org/2000/svg" xmlns:xlink="http://www.w3.org/1999/xlink" width="26.85" height="26.85" viewBox="0 0 26.85 26.85">
  <defs>
    <clipPath id="clip-path">
      <rect id="Rectangle_4095" data-name="Rectangle 4095" width="26.85" height="26.85" fill="#00bc4b"/>
    </clipPath>
  </defs>
  <g id="Group_10002" data-name="Group 10002" transform="translate(0 0)">
    <g id="Group_10001" data-name="Group 10001" transform="translate(0 0)" clip-path="url(#clip-path)">
      <path id="Path_44321" data-name="Path 44321" d="M0,13.4A13.425,13.425,0,1,1,13.388,26.85,13.464,13.464,0,0,1,0,13.4M13.415,25.261A11.837,11.837,0,1,0,1.588,13.415,11.875,11.875,0,0,0,13.415,25.261" transform="translate(0 0)" fill="#00bc4b"/>
      <path id="Path_44322" data-name="Path 44322" d="M21.132,28.265a2.186,2.186,0,0,1,.212-.3q3.281-3.288,6.565-6.573a.892.892,0,0,1,.834-.34.791.791,0,0,1,.482,1.249,2.256,2.256,0,0,1-.239.261l-7.2,7.2c-.524.523-.906.521-1.434-.007q-1.956-1.956-3.914-3.91a.818.818,0,0,1-.25-.859.753.753,0,0,1,.638-.546.847.847,0,0,1,.762.305q1.619,1.623,3.242,3.243c.075.075.153.146.3.283" transform="translate(-9.343 -12.164)" fill="#00bc4b" stroke="#00bc4b" stroke-width="0.5"/>
    </g>
  </g>
</svg>
