<svg id="Group_13078" data-name="Group 13078" xmlns="http://www.w3.org/2000/svg" xmlns:xlink="http://www.w3.org/1999/xlink" width="23.087" height="19.223" viewBox="0 0 23.087 19.223">
  <defs>
    <clipPath id="clip-path">
      <rect id="Rectangle_4503" data-name="Rectangle 4503" width="23.087" height="19.223" fill="#111"/>
    </clipPath>
  </defs>
  <g id="Group_10995" data-name="Group 10995" clip-path="url(#clip-path)">
    <path id="Path_44557" data-name="Path 44557" d="M0,168.123c.446-.628.761-.132,1.229.053a3.459,3.459,0,0,0,.368.127H9.585v1.463a.521.521,0,0,0,.515.475c.921.089,1.988-.069,2.924-.005a.533.533,0,0,0,.43-.47V168.3h7.987a3.459,3.459,0,0,0,.368-.127c.435-.172.838-.7,1.2-.046l.025,7.166a1.928,1.928,0,0,1-1.726,1.649l-19.666,0A2,2,0,0,1,0,175.369Z" transform="translate(0 -157.722)" fill="#111"/>
    <path id="Path_44558" data-name="Path 44558" d="M0,4.505A2.123,2.123,0,0,1,.914,3.192a2.82,2.82,0,0,1,.639-.261H6.7V1.738A2,2,0,0,1,8.435.048c2.043-.148,4.273.1,6.335.014a2.056,2.056,0,0,1,1.564,1.676V2.93h5.152c.746,0,1.494,1.034,1.554,1.731a20.03,20.03,0,0,1-.068,3.58A2.038,2.038,0,0,1,21.4,9.636H13.455c.007-.4.037-.9-.47-.947-.965-.088-2.073.062-3.053.012-.384.139-.353.594-.347.936H1.642A2.1,2.1,0,0,1,.172,8.541L0,8.016ZM14.4,1.94H8.64v.99H14.4Z" transform="translate(0 0)" fill="#111"/>
  </g>
</svg>
