<svg id="Group_13290" data-name="Group 13290" xmlns="http://www.w3.org/2000/svg" xmlns:xlink="http://www.w3.org/1999/xlink" width="10.855" height="17" viewBox="0 0 10.855 17">
  <defs>
    <clipPath id="clip-path">
      <rect id="Rectangle_5199" data-name="Rectangle 5199" width="10.855" height="17" fill="#00bc4b"/>
    </clipPath>
  </defs>
  <g id="Group_13289" data-name="Group 13289" clip-path="url(#clip-path)">
    <path id="Path_45504" data-name="Path 45504" d="M6.481,6.036a8.382,8.382,0,0,0-3.619,3,5.683,5.683,0,0,0,.926,7.147c.125.117.712.541.723.646s-.093.185-.207.169a5.179,5.179,0,0,1-.781-.588C1.086,14.324-.84,11.114.374,7.837A7.367,7.367,0,0,1,3.825,4.347C6.021,3.162,8.164,3.283,9.682.874c.09-.143.385-.8.42-.831a.183.183,0,0,1,.21-.019A3.919,3.919,0,0,1,10.6,1.135c.944,5.49-.653,10.707-6.8,11.495-.63.081-.83.223-.885-.507a5.86,5.86,0,0,1,.97-3.277A12.61,12.61,0,0,1,6.481,6.036" transform="translate(0 0)" fill="#00bc4b"/>
  </g>
</svg>
