<svg xmlns="http://www.w3.org/2000/svg" width="28.512" height="32.076" viewBox="0 0 28.512 32.076">
  <path id="delete_24dp_5F6368_FILL1_wght400_GRAD0_opsz24" d="M165.346-807.924a3.431,3.431,0,0,1-2.517-1.047,3.431,3.431,0,0,1-1.047-2.517v-23.167a1.723,1.723,0,0,1-1.27-.512,1.723,1.723,0,0,1-.512-1.27,1.724,1.724,0,0,1,.512-1.269,1.724,1.724,0,0,1,1.27-.512h7.128a1.724,1.724,0,0,1,.512-1.27,1.723,1.723,0,0,1,1.27-.512h7.128a1.723,1.723,0,0,1,1.27.512,1.724,1.724,0,0,1,.512,1.27h7.128a1.724,1.724,0,0,1,1.27.512,1.723,1.723,0,0,1,.512,1.269,1.723,1.723,0,0,1-.512,1.27,1.724,1.724,0,0,1-1.27.512v23.167a3.431,3.431,0,0,1-1.047,2.517,3.432,3.432,0,0,1-2.517,1.047Zm5.346-7.128a1.726,1.726,0,0,0,1.27-.512,1.725,1.725,0,0,0,.512-1.27v-12.474a1.725,1.725,0,0,0-.512-1.27,1.725,1.725,0,0,0-1.27-.512,1.725,1.725,0,0,0-1.27.512,1.725,1.725,0,0,0-.512,1.27v12.474a1.725,1.725,0,0,0,.512,1.27A1.726,1.726,0,0,0,170.692-815.052Zm7.128,0a1.726,1.726,0,0,0,1.27-.512,1.726,1.726,0,0,0,.512-1.27v-12.474a1.725,1.725,0,0,0-.512-1.27,1.725,1.725,0,0,0-1.27-.512,1.725,1.725,0,0,0-1.27.512,1.725,1.725,0,0,0-.512,1.27v12.474a1.725,1.725,0,0,0,.512,1.27A1.726,1.726,0,0,0,177.82-815.052Z" transform="translate(-160 840)" fill="#ef7b13"/>
</svg>
