<svg xmlns="http://www.w3.org/2000/svg" width="15" height="15" viewBox="0 0 15 15">
  <g id="Group_12688" data-name="Group 12688" transform="translate(-105 -200)">
    <g id="Group_11966" data-name="Group 11966" transform="translate(105.651 200.65)">
      <g id="Ellipse_420" data-name="Ellipse 420" transform="translate(-0.651 -0.65)" fill="#fff" stroke="#111" stroke-width="0.25">
        <circle cx="7.5" cy="7.5" r="7.5" stroke="none"/>
        <circle cx="7.5" cy="7.5" r="7.375" fill="none"/>
      </g>
    </g>
    <path id="delete_24dp_5F6368_FILL1_wght400_GRAD0_opsz24" d="M161.154-833.074a.741.741,0,0,1-.543-.226.741.741,0,0,1-.226-.543v-5a.372.372,0,0,1-.274-.111.372.372,0,0,1-.111-.274.372.372,0,0,1,.111-.274.372.372,0,0,1,.274-.111h1.539a.372.372,0,0,1,.111-.274.372.372,0,0,1,.274-.111h1.539a.372.372,0,0,1,.274.111.372.372,0,0,1,.111.274h1.539a.372.372,0,0,1,.274.111.372.372,0,0,1,.111.274.372.372,0,0,1-.111.274.372.372,0,0,1-.274.111v5a.741.741,0,0,1-.226.543.741.741,0,0,1-.543.226Zm1.154-1.539a.373.373,0,0,0,.274-.111.372.372,0,0,0,.111-.274v-2.693a.372.372,0,0,0-.111-.274.372.372,0,0,0-.274-.111.372.372,0,0,0-.274.111.372.372,0,0,0-.111.274V-835a.372.372,0,0,0,.111.274A.373.373,0,0,0,162.309-834.613Zm1.539,0a.373.373,0,0,0,.274-.111.372.372,0,0,0,.111-.274v-2.693a.372.372,0,0,0-.111-.274.372.372,0,0,0-.274-.111.372.372,0,0,0-.274.111.372.372,0,0,0-.111.274V-835a.373.373,0,0,0,.111.274A.373.373,0,0,0,163.848-834.613Z" transform="translate(-50.578 1044.037)" fill="#ef7b13"/>
  </g>
</svg>
