<svg xmlns="http://www.w3.org/2000/svg" width="76.184" height="53" viewBox="0 0 76.184 53">
  <path id="Path_45074" data-name="Path 45074" d="M0,19.5v-.744L7.29,8.907l.746-.488L38.168,0,68.56,8.608,75.8,18.18a1.28,1.28,0,0,1-.4,2.1l-6.334,2.3-.1,17.461A5.03,5.03,0,0,1,66.809,41.3C57.425,45.491,47.635,49.036,38.17,53l-.674-.087L7.665,40.485l-.445-.448-.1-17.461L.892,20.324ZM63.093,9.537l-25.068-7L13.094,9.609l25.052,6.869ZM35.862,18.465,8.868,11.047,3.277,18.389,28.791,27.1Zm4.465,0L47.4,27.1l25.514-8.708-5.591-7.342ZM36.9,21.439c-.351-.094-.252.092-.34.191-2.014,2.254-3.79,5.067-5.833,7.252-.39.417-.877,1.006-1.488,1.015L9.672,23.374V38.626L36.9,49.861Zm2.381,0V49.861L66.516,38.626V23.374L46.946,29.9c-.61-.009-1.1-.6-1.488-1.015-2.044-2.185-3.819-5-5.833-7.252-.088-.1.011-.285-.34-.191" fill="#ef7b13"/>
</svg>
