<svg xmlns="http://www.w3.org/2000/svg" width="50" height="50" viewBox="0 0 50 50">
  <g id="Group_13215" data-name="Group 13215" transform="translate(-178 -302)">
    <circle id="Ellipse_569" data-name="Ellipse 569" cx="25" cy="25" r="25" transform="translate(178 302)" fill="#111"/>
    <g id="Group_12686" data-name="Group 12686" transform="translate(190.477 314.477)">
      <path id="Path_44609" data-name="Path 44609" d="M12.462,175.985H3.306A3.125,3.125,0,0,1,0,172.694q0-1.932,0-3.864a1.05,1.05,0,0,1,1.042-1.157,1.055,1.055,0,0,1,1.035,1.165c0,1.3,0,2.6,0,3.9a1.055,1.055,0,0,0,1.159,1.172q9.237,0,18.474,0a1.046,1.046,0,0,0,1.145-1.152c0-1.342,0-2.684,0-4.026a1.034,1.034,0,0,1,2.038-.27,1.575,1.575,0,0,1,.036.385c0,1.31.005,2.619,0,3.929a3.11,3.11,0,0,1-3.22,3.211q-4.627.006-9.253,0" transform="translate(0 -153.126)" fill="#fff"/>
      <path id="Path_44610" data-name="Path 44610" d="M77.775,3.215v.456q0,6.9,0,13.794a1.832,1.832,0,0,0,.056.511,1.017,1.017,0,0,0,1.1.72,1.051,1.051,0,0,0,.917-.949c.01-.118,0-.238,0-.357q0-6.881,0-13.762v-.4c.114.078.192.125.263.182q1.623,1.3,3.244,2.593a1.038,1.038,0,1,0,1.318-1.6Q82.111,2.345,79.535.293A1.035,1.035,0,0,0,78.09.3q-2.511,2-5.017,4.013a1.034,1.034,0,1,0,1.3,1.609c1.035-.818,2.064-1.644,3.1-2.467.083-.066.168-.128.309-.236" transform="translate(-66.347 0)" fill="#fff"/>
    </g>
  </g>
</svg>
