<svg xmlns="http://www.w3.org/2000/svg" width="43" height="43" viewBox="0 0 43 43">
  <g id="Group_11957" data-name="Group 11957" transform="translate(-1665 -651)">
    <path id="Path_43926" data-name="Path 43926" d="M21.5,0A21.5,21.5,0,1,1,0,21.5,21.5,21.5,0,0,1,21.5,0Z" transform="translate(1665 651)" fill="#ef7b18"/>
    <g id="Group_11937" data-name="Group 11937" transform="translate(205.266 -906.83)">
      <path id="Path_44591" data-name="Path 44591" d="M71.508,80.885H63.39c-1.05,0-1.411-.356-1.409-1.4,0-2.2-.033-4.4.032-6.6a7.29,7.29,0,0,1,6.519-6.813,45.756,45.756,0,0,1,6,0,7.273,7.273,0,0,1,6.545,6.883c.066,2.246.031,4.494.026,6.742,0,.8-.434,1.191-1.291,1.192q-4.151,0-8.3,0" transform="translate(1409.418 1511.774)" fill="#151515"/>
      <path id="Path_44595" data-name="Path 44595" d="M89.318,10.643a5.321,5.321,0,1,1,5.3-5.352,5.314,5.314,0,0,1-5.3,5.352" transform="translate(1391.658 1564.999)" fill="#151515"/>
    </g>
  </g>
</svg>
