<svg xmlns="http://www.w3.org/2000/svg" width="30" height="30" viewBox="0 0 30 30">
  <g id="Group_13796" data-name="Group 13796" transform="translate(-317 -31)">
    <path id="Path_45457" data-name="Path 45457" d="M15,0A15,15,0,1,1,0,15,15,15,0,0,1,15,0Z" transform="translate(317 31)" fill="#ef7b18"/>
    <path id="Path_44591" data-name="Path 44591" d="M68.534,76.233H62.949c-.722,0-.971-.245-.97-.963,0-1.515-.023-3.03.022-4.544a5.016,5.016,0,0,1,4.486-4.688,31.484,31.484,0,0,1,4.127,0,5,5,0,0,1,4.5,4.736c.046,1.545.021,3.092.018,4.639,0,.553-.3.819-.888.82q-2.856,0-5.712,0" transform="translate(263.44 -20.669)" fill="#151515"/>
    <path id="Path_44595" data-name="Path 44595" d="M87.655,7.323A3.661,3.661,0,1,1,91.3,3.641a3.656,3.656,0,0,1-3.648,3.682" transform="translate(244.354 36.531)" fill="#151515"/>
  </g>
</svg>
