<svg xmlns="http://www.w3.org/2000/svg" width="35.294" height="35.29" viewBox="0 0 35.294 35.29">
  <path id="Group_13249" data-name="Group 13249" d="M29.986,9.15c0,.7-.019,1.406.012,2.107a.994.994,0,0,0,.248.6c1.439,1.464,2.9,2.909,4.347,4.361a1.794,1.794,0,0,1,0,2.847q-2.16,2.165-4.329,4.322a.869.869,0,0,0-.281.688c.013,1.322.009,2.645,0,3.967a1.758,1.758,0,0,1-1.95,1.936c-1.295,0-2.591.011-3.885-.007a.994.994,0,0,0-.8.322c-1.412,1.433-2.839,2.851-4.262,4.271a1.8,1.8,0,0,1-2.877.009c-1.442-1.441-2.878-2.889-4.334-4.316a1.024,1.024,0,0,0-.638-.267c-1.335-.024-2.673-.009-4.009-.013a1.75,1.75,0,0,1-1.924-1.919c0-1.337.011-2.672-.013-4.009a1.027,1.027,0,0,0-.264-.639c-1.438-1.466-2.9-2.91-4.346-4.362a1.786,1.786,0,0,1,0-2.816c1.45-1.452,2.909-2.9,4.346-4.364a1.022,1.022,0,0,0,.26-.64c.023-1.335.009-2.672.013-4.009A1.748,1.748,0,0,1,7.238,5.309c1.322,0,2.646-.011,3.968.007a.912.912,0,0,0,.72-.306c1.415-1.429,2.841-2.848,4.263-4.27A1.807,1.807,0,0,1,19.095.726c1.434,1.431,2.868,2.859,4.293,4.3a.868.868,0,0,0,.683.29c1.337-.014,2.673-.01,4.01-.006a1.746,1.746,0,0,1,1.905,1.9c0,.648,0,1.295,0,1.943Zm-14.967,10.4c-.111-.1-.213-.187-.307-.282-.653-.651-1.3-1.308-1.959-1.954a1.762,1.762,0,1,0-2.487,2.491q1.7,1.716,3.417,3.417a1.753,1.753,0,0,0,2.637,0q4.329-4.316,8.647-8.643a1.756,1.756,0,0,0,.072-2.577,1.775,1.775,0,0,0-2.576.1q-1.349,1.339-2.688,2.686l-4.753,4.759Z" fill="#767676"/>
</svg>
