<svg xmlns="http://www.w3.org/2000/svg" width="29.971" height="29.971" viewBox="0 0 29.971 29.971">
  <path id="language_FILL0_wght200_GRAD0_opsz24" d="M134.986-810.029a14.517,14.517,0,0,1-5.828-1.183,15.2,15.2,0,0,1-4.763-3.212,15.2,15.2,0,0,1-3.212-4.763A14.518,14.518,0,0,1,120-825.014a14.506,14.506,0,0,1,1.183-5.833,15.212,15.212,0,0,1,3.212-4.758,15.2,15.2,0,0,1,4.763-3.212A14.517,14.517,0,0,1,134.986-840a14.506,14.506,0,0,1,5.833,1.183,15.211,15.211,0,0,1,4.758,3.212,15.214,15.214,0,0,1,3.212,4.758,14.507,14.507,0,0,1,1.183,5.833,14.518,14.518,0,0,1-1.183,5.828,15.2,15.2,0,0,1-3.212,4.763,15.211,15.211,0,0,1-4.758,3.212A14.506,14.506,0,0,1,134.986-810.029Zm0-1.652a24.738,24.738,0,0,0,2.418-3.7,19.49,19.49,0,0,0,1.547-4.063h-7.928a22.788,22.788,0,0,0,1.579,4.192A18.894,18.894,0,0,0,134.986-811.681Zm-2.12-.25a15.562,15.562,0,0,1-2.128-3.4,19.528,19.528,0,0,1-1.433-4.116H122.92a13.2,13.2,0,0,0,4.059,5.094A12.244,12.244,0,0,0,132.866-811.931Zm4.24,0a12.244,12.244,0,0,0,5.887-2.418,13.2,13.2,0,0,0,4.059-5.094h-6.385a28.523,28.523,0,0,1-1.593,4.148A19.881,19.881,0,0,1,137.105-811.931Zm-14.864-9.177h6.718a19.785,19.785,0,0,1-.267-2q-.078-.972-.078-1.91t.078-1.91a19.79,19.79,0,0,1,.267-2h-6.718a12.34,12.34,0,0,0-.424,1.884,13.694,13.694,0,0,0-.152,2.022,13.692,13.692,0,0,0,.152,2.022A12.337,12.337,0,0,0,122.241-821.108Zm8.383,0h8.722q.189-1.024.267-1.964t.078-1.942q0-1-.078-1.942t-.267-1.964h-8.722q-.189,1.025-.267,1.964t-.078,1.942q0,1,.078,1.942T130.624-821.108Zm10.387,0h6.718a12.337,12.337,0,0,0,.424-1.884,13.693,13.693,0,0,0,.152-2.022,13.694,13.694,0,0,0-.152-2.022,12.34,12.34,0,0,0-.424-1.884h-6.718a19.8,19.8,0,0,1,.267,2q.078.972.078,1.91t-.078,1.91A19.8,19.8,0,0,1,141.012-821.108Zm-.346-9.478h6.385a13.152,13.152,0,0,0-4.011-5.094,12.966,12.966,0,0,0-5.935-2.45,19.544,19.544,0,0,1,2.1,3.508A23,23,0,0,1,140.666-830.586Zm-9.645,0h7.928a23.063,23.063,0,0,0-1.627-4.24,18.486,18.486,0,0,0-2.337-3.522,18.487,18.487,0,0,0-2.338,3.522A23.064,23.064,0,0,0,131.021-830.586Zm-8.1,0h6.385a23,23,0,0,1,1.465-4.036,19.545,19.545,0,0,1,2.1-3.508,12.79,12.79,0,0,0-5.951,2.466A13.4,13.4,0,0,0,122.92-830.586Z" transform="translate(-120 840)" fill="#ef7b13"/>
</svg>
