<svg width="362" height="362" viewBox="0 0 362 362" fill="none" xmlns="http://www.w3.org/2000/svg">
<rect width="361.197" height="362" rx="178.191" fill="#25D366"/>
<g clip-path="url(#clip0_4_4)">
<path fill-rule="evenodd" clip-rule="evenodd" d="M251.693 109.542C232.832 90.6726 207.748 80.2757 181.02 80.2661C125.946 80.2661 81.1237 125.047 81.1045 180.091C81.0949 197.687 85.6988 214.862 94.4419 229.998L80.2661 281.734L133.233 267.852C147.825 275.808 164.257 279.996 180.977 280.001H181.02C236.085 280.001 280.912 235.215 280.931 180.172C280.941 153.495 270.559 128.417 251.693 109.547V109.542ZM181.02 263.142H180.987C166.087 263.137 151.471 259.135 138.718 251.577L135.685 249.777L104.253 258.015L112.642 227.394L110.668 224.254C102.356 211.042 97.9631 195.772 97.9727 180.096C97.9919 134.348 135.245 97.1253 181.054 97.1253C203.235 97.1348 224.085 105.775 239.764 121.462C255.445 137.143 264.073 157.995 264.063 180.162C264.044 225.915 226.791 263.137 181.02 263.137V263.142ZM226.571 200.999C224.075 199.75 211.801 193.718 209.511 192.886C207.221 192.053 205.559 191.637 203.896 194.135C202.234 196.634 197.448 202.254 195.991 203.914C194.535 205.58 193.078 205.786 190.582 204.537C188.087 203.287 180.043 200.655 170.505 192.158C163.084 185.542 158.072 177.377 156.616 174.877C155.16 172.379 156.463 171.029 157.708 169.789C158.829 168.669 160.204 166.874 161.455 165.419C162.706 163.964 163.117 162.92 163.951 161.259C164.785 159.593 164.368 158.138 163.745 156.889C163.122 155.639 158.13 143.361 156.046 138.368C154.019 133.505 151.96 134.166 150.431 134.084C148.975 134.013 147.313 133.998 145.646 133.998C143.978 133.998 141.276 134.621 138.986 137.119C136.697 139.618 130.248 145.654 130.248 157.927C130.248 170.201 139.193 182.068 140.443 183.734C141.693 185.399 158.048 210.592 183.09 221.401C189.045 223.971 193.697 225.508 197.323 226.657C203.302 228.557 208.744 228.289 213.046 227.648C217.842 226.93 227.816 221.611 229.895 215.786C231.975 209.96 231.975 204.963 231.352 203.924C230.729 202.885 229.062 202.258 226.566 201.009L226.571 200.999Z" fill="white"/>
</g>
<defs>
<clipPath id="clip0_4_4">
<rect width="200.665" height="201.468" fill="white" transform="translate(80.2661 80.2661)"/>
</clipPath>
</defs>
</svg>
