<svg id="Group_10458" data-name="Group 10458" xmlns="http://www.w3.org/2000/svg" width="78.868" height="78.871" viewBox="0 0 78.868 78.871">
  <path id="Path_44406" data-name="Path 44406" d="M0,40.717V39.025c.162-.3.038-.616.077-.922C.038,37.8.162,37.476,0,37.179v-.923c.208-1.387.14-2.8.372-4.182a36.022,36.022,0,0,1,2.751-8.856,38.5,38.5,0,0,1,6.433-9.97A39.833,39.833,0,0,1,20.426,4.564,36.358,36.358,0,0,1,32.721.348a51.965,51.965,0,0,1,9.116-.27,37.824,37.824,0,0,1,4.437.285,38.606,38.606,0,0,1,12.4,4.378A39.418,39.418,0,0,1,69.159,13.19,38.939,38.939,0,0,1,76.5,25.274,31.848,31.848,0,0,1,78.539,32.9a55.152,55.152,0,0,1,.254,9.042,35,35,0,0,1-.3,4.512,38.753,38.753,0,0,1-8.85,18.738,39.75,39.75,0,0,1-18,12.111,28.42,28.42,0,0,1-8.815,1.49.479.479,0,0,0-.362.076H41.077a1.213,1.213,0,0,0-.923,0H37.846a.358.358,0,0,0-.462,0H36.154c-1.08-.213-2.183-.131-3.269-.26A33.1,33.1,0,0,1,23.97,76.1a36.965,36.965,0,0,1-5.647-2.946,1.5,1.5,0,0,0-1.31-.171c-1.607.442-3.173,1.012-4.76,1.512-2.809.885-5.612,1.791-8.418,2.688-.1.031-.2.064-.294.091-.321.088-.659.22-.946-.051s-.188-.623-.085-.938c.663-2.02,1.308-4.047,2.028-6.048C5.37,67.924,6.1,65.574,6.9,63.25a1.469,1.469,0,0,0-.339-1.418,38.1,38.1,0,0,1-4.139-7.784A31.772,31.772,0,0,1,.263,45.986C.14,44.9.2,43.8,0,42.717V41.487c.1-.1.069-.222.077-.339-.016-.145.045-.3-.077-.43" transform="translate(0 0)" fill="#4fa13a"/>
  <path id="Path_44409" data-name="Path 44409" d="M121.665,137.174a19.515,19.515,0,0,1-6-1.1,41.826,41.826,0,0,1-15.046-7.906A61.171,61.171,0,0,1,90.23,116.48a23.072,23.072,0,0,1-4.312-9.49c-.759-4.749.443-8.929,4.213-12.084,1.738-1.455,3.905-1.323,6.016-.889.549.113.824.571,1.05,1.047,1.336,2.821,2.335,5.79,3.688,8.6a3.442,3.442,0,0,1-.676,4.314c-.741.779-1.436,1.6-2.142,2.416a1.749,1.749,0,0,0-.209,2.253,31.3,31.3,0,0,0,15.149,13.393c1.756.715,2.62.5,3.8-1.012.773-.988,1.51-2,2.253-3.015,1.041-1.416,1.915-1.677,3.5-.982,2.954,1.291,5.813,2.781,8.716,4.18a1.65,1.65,0,0,1,1.022,1.709c-.16,5.156-2.06,7.818-7.606,9.756a8.2,8.2,0,0,1-3.03.5" transform="translate(-69.184 -75.658)"/>
</svg>
