<svg xmlns="http://www.w3.org/2000/svg" width="111.618" height="123.946" viewBox="0 0 111.618 123.946">
  <g id="qRfehu.tif" transform="translate(-1508.301 -1745.706)">
    <g id="Group_2233" data-name="Group 2233" transform="translate(1509.305 1746.716)">
      <path id="Path_3610" data-name="Path 3610" d="M1565.788,1868.538c-8.637,1.14-17.022-8.267-15.178-18.153-4.449-2.624-11.358-6.626-17.26-10.03-9.956,10.276-29.2.525-22.431-15.065,9.987-12.248,10.134-3.6,9.382-20.854-.131-4.761,1.509-7.349-4.637-9.265-16.847-11.011,3.535-34.881,17.661-20.516,4.707-4.71,18.769-6.284,17.3-13.662-.831-17.507,23.04-18.961,26.81-4.1-1.727,10.941,9.217,11.835,17.643,17.759,10.92-11.386,29.7,1.569,22.028,15.862-10.123,10.217-9.528,5.143-8.982,19.692.656,2.716-1.671,6,1.476,8.141,21.11,9.429,1.679,37.2-14.445,22.064C1564.637,1853.011,1586.663,1862.816,1565.788,1868.538Zm29.322-75.578c-24.6,12.275-23.694,16.864-.105,29.006C1605.066,1818.841,1606.432,1796.864,1595.111,1792.96Zm-28.025-19.506c.948,8.491-4.041,20.7,7.27,24.9C1613.826,1782.69,1575.817,1765.374,1567.086,1773.455Zm-13.025,43.2c-23.743,11.978-24.41,16.528-.408,28.855l7.678-4.43C1560.478,1832,1565.227,1821.179,1554.061,1816.652Zm20.285,0c-10.436,3.961-6.9,14.733-7.18,24.921,6.62,4.071,9.338,4.031,17.287-1.657C1603.958,1831.265,1584.013,1821.812,1574.346,1816.648Zm-41.03-23.7c-10.546,4.231-11.018,24.787.011,29.089C1559.609,1809.33,1555.043,1804.339,1533.316,1792.951Zm20.763,5.4c10.441-4.024,6.87-14.7,7.184-24.943l-.287.326-7.3-4.25C1527.5,1782.142,1532.787,1787.127,1554.079,1798.356Zm10.162-46.124c-9.8.211-10.543,14.935-.057,15.795C1573.928,1767.788,1574.782,1753.056,1564.242,1752.231Zm.026,110.544c9.764-.3,10.407-15.047-.116-15.795C1554.432,1847.318,1553.694,1862.045,1564.267,1862.775Zm-.071-63.169c-9.759.263-10.5,15,.024,15.792C1573.975,1815.131,1574.733,1800.4,1564.2,1799.607Zm41.043-23.689c-9.777.243-10.5,14.982,0,15.791C1614.985,1791.441,1615.784,1776.714,1605.24,1775.918Zm.014,63.167c9.762-.26,10.5-15-.027-15.79C1595.48,1823.561,1594.713,1838.3,1605.254,1839.085Zm-82.093,0c9.774-.229,10.546-14.963.031-15.79C1513.432,1823.533,1512.636,1838.27,1523.16,1839.085Zm.027-63.163c-9.733.219-10.567,14.961-.021,15.79C1532.876,1791.475,1533.76,1776.732,1523.187,1775.922Z" transform="translate(-1509.304 -1746.716)" fill="#ef7b13" stroke="#1d1d1d" stroke-width="2"/>
    </g>
  </g>
</svg>
