<svg xmlns="http://www.w3.org/2000/svg" xmlns:xlink="http://www.w3.org/1999/xlink" width="25" height="25" viewBox="0 0 25 25">
  <defs>
    <clipPath id="clip-path">
      <rect id="Rectangle_4056" data-name="Rectangle 4056" width="11.528" height="8.365" fill="#fff"/>
    </clipPath>
  </defs>
  <g id="Group_10269" data-name="Group 10269" transform="translate(-324.478 -1177.479)">
    <g id="Group_9577" data-name="Group 9577" transform="translate(324 1177)">
      <g id="Ellipse_241" data-name="Ellipse 241" transform="translate(0.479 0.479)" fill="#000000" stroke="#fff" stroke-width="0.5">
        <circle cx="12.5" cy="12.5" r="12.5" stroke="none"/>
        <circle cx="12.5" cy="12.5" r="12.25" fill="none"/>
      </g>
    </g>
    <g id="Group_9820" data-name="Group 9820" transform="translate(331.148 1185.766)">
      <g id="Group_9705" data-name="Group 9705" clip-path="url(#clip-path)">
        <path id="Path_33409" data-name="Path 33409" d="M9.7,4.7H.625a.967.967,0,0,1-.243-.02A.519.519,0,0,1,.5,3.657c.049,0,.1,0,.147,0H9.7L9.745,3.6a.435.435,0,0,1-.12-.06Q8.311,2.232,7,.922A.523.523,0,0,1,7.669.116a1.251,1.251,0,0,1,.1.093l3.542,3.536a.534.534,0,0,1,0,.861Q9.528,6.386,7.744,8.168a.54.54,0,0,1-.552.178.52.52,0,0,1-.26-.843c.029-.034.062-.065.094-.1q1.3-1.3,2.6-2.59a.708.708,0,0,1,.11-.075L9.7,4.7" transform="translate(0 0)" fill="#fff"/>
      </g>
    </g>
  </g>
</svg>
