<svg xmlns="http://www.w3.org/2000/svg" xmlns:xlink="http://www.w3.org/1999/xlink" width="25" height="25" viewBox="0 0 25 25">
  <defs>
    <clipPath id="clip-path">
      <rect id="Rectangle_4056" data-name="Rectangle 4056" width="11.528" height="8.365" fill="#fff"/>
    </clipPath>
  </defs>
  <g id="Group_10270" data-name="Group 10270" transform="translate(0 0)">
    <g id="Group_9577" data-name="Group 9577" transform="translate(0 0)">
      <g id="Ellipse_241" data-name="Ellipse 241" fill="#000000" stroke="#fff" stroke-width="0.5">
        <circle cx="12.5" cy="12.5" r="12.5" stroke="none"/>
        <circle cx="12.5" cy="12.5" r="12.25" fill="none"/>
      </g>
    </g>
    <g id="Group_9820" data-name="Group 9820" transform="translate(6.802 8.287)">
      <g id="Group_9705" data-name="Group 9705" clip-path="url(#clip-path)">
        <path id="Path_33409" data-name="Path 33409" d="M1.832,4.7H10.9a.967.967,0,0,0,.243-.02.519.519,0,0,0-.117-1.019c-.049,0-.1,0-.147,0H1.827L1.783,3.6a.435.435,0,0,0,.12-.06Q3.217,2.232,4.526.922A.523.523,0,0,0,3.859.116a1.251,1.251,0,0,0-.1.093L.219,3.745a.534.534,0,0,0,0,.861Q2,6.386,3.784,8.168a.54.54,0,0,0,.552.178A.52.52,0,0,0,4.6,7.5c-.029-.034-.062-.065-.094-.1q-1.3-1.3-2.6-2.59a.708.708,0,0,0-.11-.075L1.832,4.7" transform="translate(0 0)" fill="#fff"/>
      </g>
    </g>
  </g>
</svg>
