<svg xmlns="http://www.w3.org/2000/svg">
<defs>
<font id="GTSectraDisplay-LightItalic" horiz-adv-x="620" >
  <font-face 
    font-family="GT Sectra Display Light"
    font-weight="300"
    font-style="italic"
    font-stretch="normal"
    units-per-em="1000"
    panose-1="0 0 4 0 0 0 0 0 0 0"
    ascent="750"
    descent="-250"
    x-height="473"
    cap-height="700"
    bbox="-391 -245 1473 869"
    underline-thickness="50"
    underline-position="-150"
    slope="-9"
    unicode-range="U+000D-FEFF"
  />
<missing-glyph horiz-adv-x="685" 
d="M495 -14l-3 -15l-30 1l-24 18h-14l-8 8l7 76l-4 47l-61 1l-3 -52l-2 -56v-20l-15 -6l-8 6l-30 -10h-32l-1 11l11 11l50 21l-6 96l-98 -6l-147 140l-4 115l-13 10l-10 36v26l15 8l-3 78l92 -62l9 47l10 36l22 35l28 35l39 29l78 29h22l-68 22l4 17h7l79 -20l-4 51l16 12
h32l19 -5l29 -25l32 -8l32 -10l15 -13v-20l-20 -31l30 -28l28 -32l18 -34l15 -41l9 -54l-3 -41l-8 -35l-12 -31l-3 -156l-21 -7l-50 70l-27 -7l-19 -140l-32 4l-7 -4l-4 -94l30 -19zM221 543l17 -3h5l36 24h32l18 -12l8 3l4 14l7 5l10 -4v-18h8l10 22l11 8l-5 6l-3 8l1 21
l-30 -10l-10 -8l-8 5l4 21l14 10l11 11l38 -2l12 13l-4 8h-49l-45 -13l-53 -26l-29 -23l-25 -34l29 12l13 -15l-17 -20zM406 614l12 -6l3 17l-7 17l-8 -9v-19zM460 588l6 -24h13l6 6l-9 18l17 28l-15 9v5l-25 7v-20l-13 -5v-9l-9 -6l-3 -12l5 -6l19 11zM537 412l8 -6l18 12
h23l6 11l-18 6l-5 9l9 42h7l14 -20l17 -1l-8 37l-19 50l-20 36l-23 28l-34 21h-11l17 -19l25 -10l11 -11l3 -33l-25 13l-15 -29l12 -8v-19l15 3l-12 26l15 -5l10 -20l-5 -12l-8 -7h-23l-3 11l-12 2l1 -22h-14l14 -18l-7 -10l-21 5l-3 -27l41 6l8 17l22 -2l6 -28l-16 -13v-15
zM483 517l8 -3l2 7l-2 9l-8 -4v-9zM269 522l-55 -24l59 12zM347 508l49 -17l3 4l-48 25zM91 266l11 -12v180l57 -32l7 10l-68 38v18l59 -34l43 -28l28 -14l3 10l-103 64l-13 7l-41 33l2 -78l19 -17v-5h-21l19 -14l1 -11l-20 7l18 -18l-4 -7zM245 438l12 -6l11 5l16 12l6 12

<glyph glyph-name="f_f" unicode="ff" horiz-adv-x="484" 
d="M-125 -235l11 60h116q12 19 18.5 41.5t13.5 63.5l92 525h-64l1 5h64l9 45q21 106 79 145l97 65h125l-90 -60h-114q-13 -21 -21 -46t-14 -63l-15 -86h176l9 45q21 106 79 145l97 65h55l-10 -60h-124q-13 -21 -21 -46t-14 -63l-15 -86h100l-1 -5h-100l-86 -490
q-16 -98 -80 -138l-96 -62h-35l11 60h106q12 19 18.5 41.5t13.5 63.5l92 525h-176l-86 -490q-16 -98 -80 -138l-96 -62h-45z" />
    <glyph glyph-name="f_f_i" unicode="ffi" horiz-adv-x="695" 
d="M-125 -235l11 60h116q12 19 18.5 41.5t13.5 63.5l92 525h-64l1 5h64l9 45q21 106 79 145l97 65h125l-90 -60h-114q-13 -21 -21 -46t-14 -63l-15 -86h176l9 45q21 106 79 145l97 65h151l-12 -60h-218q-13 -21 -21 -46t-14 -63l-15 -86h176l51 15l4 -3l-81 -460l99 76l3 -3
l-117 -100l-42 25l79 445h-173l-86 -490q-16 -98 -80 -138l-96 -62h-35l11 60h106q12 19 18.5 41.5t13.5 63.5l92 525h-176l-86 -490q-16 -98 -80 -138l-96 -62h-45z" />
    <glyph glyph-name="f_f_l" unicode="ffl" horiz-adv-x="705" 
d="M-125 -235l11 60h116q12 19 18.5 41.5t13.5 63.5l92 525h-64l1 5h64l9 45q21 106 79 145l97 65h125l-90 -60h-114q-13 -21 -21 -46t-14 -63l-15 -86h176l9 45q21 106 79 145l97 65h156l-124 -701l99 74l3 -3l-117 -100l-42 25l78 445h-183l-86 -490q-16 -98 -80 -138
l-96 -62h-35l11 60h106q12 19 18.5 41.5t13.5 63.5l92 525h-176l-86 -490q-16 -98 -80 -138l-96 -62h-45zM415 460h183l35 195h-168q-13 -21 -21 -46t-14 -63z" />
    <glyph glyph-name="f_i" unicode="fi" horiz-adv-x="468" 
d="M-125 -235l11 60h116q12 19 18.5 41.5t13.5 63.5l92 525h-64l1 5h64l9 45q21 106 79 145l97 65h156l-12 -60h-223q-13 -21 -20.5 -45t-14.5 -64l-15 -86h181l51 15l4 -3l-81 -460l99 76l3 -3l-117 -100l-42 25l79 445h-178l-86 -490q-18 -97 -80 -138l-96 -62h-45z" />
    <glyph glyph-name="f_l" unicode="fl" horiz-adv-x="473" 
d="M-125 -235l11 60h116q12 19 18.5 41.5t13.5 63.5l92 525h-64l1 5h64l9 45q21 106 79 145l97 65h156l-124 -701l99 74l3 -3l-117 -100l-42 25l78 445h-183l-86 -490q-16 -98 -80 -138l-96 -62h-45zM183 460h183l34 195h-167q-13 -21 -21 -46t-14 -63z" />
    <glyph glyph-name="T_h.liga" unicode="Th" horiz-adv-x="905" 
d="M773 -15l-42 25l62 344q2 16 2 23q0 51 -50 51q-20 0 -42.5 -11t-62.5 -38l-41 -28l-62 -351h-56l122 690h-234l-101 -680l103 -5v-5h-259v5l90 5l101 680h-164l-69 -160h-5l27 170h516l48 17l7 -5l-63 -354l166 117q45 0 67 -19.5t22 -54.5q0 -6 -2 -22l-65 -365l99 74
l3 -3z" />
    <glyph glyph-name="f_b.liga" unicode="fb" horiz-adv-x="677" 
d="M-125 -235l11 60h116q12 19 18.5 41.5t13.5 63.5l92 525h-64l1 5h64l9 45q21 106 79 145l97 65h151l-64 -359l141 119q52 -11 84.5 -53t32.5 -118q0 -86 -45 -164t-125 -116l-83 -39q-34 4 -59.5 14t-58.5 32l109 624h-162q-13 -21 -21 -46t-14 -63l-15 -86h100l-1 -5
h-100l-86 -490q-16 -98 -80 -138l-96 -62h-45zM564.5 116.5q32.5 67.5 32.5 150.5q0 69 -23.5 107.5t-69.5 54.5l-106 -82l-50 -281q22 -23 53.5 -35.5t54.5 -12.5q76 31 108.5 98.5z" />
    <glyph glyph-name="f_f_b.liga" unicode="ffb" horiz-adv-x="909" 
d="M-125 -235l11 60h116q12 19 18.5 41.5t13.5 63.5l92 525h-64l1 5h64l9 45q21 106 79 145l97 65h125l-90 -60h-114q-13 -21 -21 -46t-14 -63l-15 -86h176l9 45q21 106 79 145l97 65h151l-64 -359l141 119q52 -11 84.5 -53t32.5 -118q0 -86 -45 -164t-125 -116l-83 -39
q-34 4 -59.5 14t-58.5 32l110 624h-163q-13 -21 -21 -46t-14 -63l-15 -86h100l-1 -5h-100l-86 -490q-16 -98 -80 -138l-96 -62h-35l11 60h106q12 19 18.5 41.5t13.5 63.5l92 525h-176l-86 -490q-16 -98 -80 -138l-96 -62h-45zM796.5 116.5q32.5 67.5 32.5 150.5
q0 69 -23.5 107.5t-69.5 54.5l-106 -82l-50 -281q23 -23 54.5 -35.5t53.5 -12.5q76 31 108.5 98.5z" />
    <glyph glyph-name="f_f_h.liga" unicode="ffh" horiz-adv-x="943" 
d="M-125 -235l11 60h116q12 19 18.5 41.5t13.5 63.5l92 525h-64l1 5h64l9 45q21 106 79 145l97 65h125l-90 -60h-114q-13 -21 -21 -46t-14 -63l-15 -86h176l9 45q21 106 79 145l97 65h158l-64 -357l166 117q45 0 67 -19.5t22 -54.5q0 -6 -2 -22l-65 -365l99 74l3 -3
l-117 -100l-42 25l62 344q2 16 2 23q0 51 -50 51q-20 0 -42.5 -11t-62.5 -38l-41 -28l-62 -351h-56l116 655h-170q-13 -21 -21 -46t-14 -63l-15 -86h100l-1 -5h-100l-86 -490q-16 -98 -80 -138l-96 -62h-35l11 60h106q12 19 18.5 41.5t13.5 63.5l92 525h-176l-86 -490
q-16 -98 -80 -138l-96 -62h-45z" />
    <glyph glyph-name="f_f_j.liga" unicode="ffj" horiz-adv-x="695" 
d="M-125 -235l11 60h116q12 19 18.5 41.5t13.5 63.5l92 525h-64l1 5h64l9 45q21 106 79 145l97 65h125l-90 -60h-114q-13 -21 -21 -46t-14 -63l-15 -86h176l9 45q21 106 79 145l97 65h171l-12 -60h-238q-13 -21 -21 -46t-14 -63l-15 -86h186l51 15l4 -3l-89 -507
q-18 -96 -79 -136l-97 -64h-35l12 60h108q10 20 16 42.5t13 62.5l92 525h-183l-86 -490q-16 -98 -80 -138l-96 -62h-35l11 60h106q12 19 18.5 41.5t13.5 63.5l92 525h-176l-86 -490q-16 -98 -80 -138l-96 -62h-45z" />
    <glyph glyph-name="f_f_k.liga" unicode="ffk" horiz-adv-x="896" 
d="M-125 -235l11 60h116q12 19 18.5 41.5t13.5 63.5l92 525h-64l1 5h64l9 45q21 106 79 145l97 65h125l-90 -60h-114q-13 -21 -21 -46t-14 -63l-15 -86h176l9 45q21 106 79 145l97 65h154l-78 -437l213 187h58l-12 -70h-107l-36 -30l-106 -90l62 -19l104 -238l86 68l3 -4
l-113 -97l-37 15l-115 274l-49 -274h-56l115 655h-165q-13 -21 -21 -46t-14 -63l-15 -86h100l-1 -5h-100l-86 -490q-16 -98 -80 -138l-96 -62h-35l11 60h106q12 19 18.5 41.5t13.5 63.5l92 525h-176l-86 -490q-16 -98 -80 -138l-96 -62h-45z" />
    <glyph glyph-name="f_h.liga" unicode="fh" horiz-adv-x="711" 
d="M-125 -235l11 60h116q12 19 18.5 41.5t13.5 63.5l92 525h-64l1 5h64l9 45q21 106 79 145l97 65h158l-64 -357l166 117q45 0 67 -19.5t22 -54.5q0 -6 -2 -22l-65 -365l99 74l3 -3l-117 -100l-42 25l62 344q2 16 2 23q0 51 -50 51q-20 0 -42.5 -11t-62.5 -38l-41 -28
l-62 -351h-56l116 655h-170q-13 -21 -21 -46t-14 -63l-15 -86h100l-1 -5h-100l-86 -490q-16 -98 -80 -138l-96 -62h-45z" />
    <glyph glyph-name="f_j.liga" unicode="fj" horiz-adv-x="459" 
d="M-125 -235l11 60h116q12 19 18.5 41.5t13.5 63.5l92 525h-64l1 5h64l9 45q21 106 79 145l97 65h157l-12 -60h-224q-13 -21 -21 -46t-14 -63l-15 -86h182l51 15l4 -3l-89 -507q-18 -96 -79 -136l-97 -64h-35l12 60h108q10 20 16 42.5t13 62.5l92 525h-179l-86 -490
q-16 -98 -80 -138l-96 -62h-45z" />
    <glyph glyph-name="f_k.liga" unicode="fk" horiz-adv-x="664" 
d="M-125 -235l11 60h116q12 19 18.5 41.5t13.5 63.5l92 525h-64l1 5h64l9 45q21 106 79 145l97 65h154l-78 -437l213 187h58l-12 -70h-107l-60 -50l-82 -70l62 -19l104 -238l86 68l3 -4l-113 -97l-37 15l-115 274l-49 -274h-56l116 655h-166q-13 -21 -21 -46t-14 -63
l-15 -86h100l-1 -5h-100l-86 -490q-16 -98 -80 -138l-96 -62h-45z" />
    <glyph glyph-name="f_lcaron.liga" unicode="f&#x13e;" horiz-adv-x="472" 
d="M586 715l2 -27l-103 -175l-2 1l46 201h57zM-125 -235l11 60h116q12 19 18.5 41.5t13.5 63.5l92 525h-64l1 5h64l9 45q21 106 79 145l97 65h156l-124 -701l99 74l3 -3l-117 -100l-42 25l78 445h-183l-86 -490q-16 -98 -80 -138l-96 -62h-45zM183 460h183l34 195h-167
q-13 -21 -21 -46t-14 -63z" />
    <glyph glyph-name="f_t.liga" unicode="ft" horiz-adv-x="510" 
d="M-125 -235l11 60h116q12 19 18.5 41.5t13.5 63.5l92 525h-64l1 5h64l9 45q21 106 79 145l97 65h55l-10 -60h-124q-13 -21 -21 -46t-14 -63l-15 -86h186l12 62l60 64h6l-22 -126h100l-1 -5h-100l-77 -441l119 75l3 -4l-137 -100l-42 25l78 445h-186l-86 -490
q-16 -98 -80 -138l-96 -62h-45z" />
    <glyph glyph-name="f_u.liga" unicode="fu" horiz-adv-x="712" 
d="M-125 -235l11 60h116q12 19 18.5 41.5t13.5 63.5l92 525h-64l1 5h64l9 45q21 106 79 145l97 65h55l-10 -60h-124q-13 -21 -21 -46t-14 -63l-15 -86h188l51 15l4 -3l-67 -377q-2 -16 -2 -21q0 -42 40 -42q23 0 45.5 10.5t67.5 41.5l40 28l61 348h57l-78 -446l104 69l3 -3
l-130 -95l-34 25l16 94l-163 -119q-44 0 -66 18.5t-22 51.5q0 7 2 23l67 377h-185l-86 -490q-16 -98 -80 -138l-96 -62h-45z" />
    <glyph glyph-name="f_y.liga" unicode="fy" horiz-adv-x="647" 
d="M-125 -235l11 60h116q12 19 18.5 41.5t13.5 63.5l92 525h-64l1 5h64l9 45q21 106 79 145l97 65h55l-10 -60h-124q-13 -21 -21 -46t-14 -63l-15 -86h151l51 15l4 -3l54 -447l181 341l-68 78l55 31l31 -34l-3 -80l-185 -344l-139 -252h-81l16 65h79l110 187l-54 -13
l-57 451h-146l-86 -490q-16 -98 -80 -138l-96 -62h-45z" />
    <glyph glyph-name="k_y.liga" unicode="ky" horiz-adv-x="782" 
d="M450 -235h-81l16 65h79l110 187l-54 -13l-55 437h-11l-71 -46h-86l-56 -48l-86 -72l62 -19l104 -238l86 68l3 -4l-113 -97l-37 15l-115 274l-49 -274h-56l121 686l-96 -28l-1 5l151 54l7 -5l-77 -434l213 187h167l53 -440l181 341l-68 78l55 31l31 -34l-3 -80l-183 -344z
" />
    <glyph glyph-name="t_t.liga" unicode="tt" horiz-adv-x="504" 
d="M224 85l-137 -100l-42 25l78 445h-64l1 5h64l12 62l60 64h6l-22 -126h183l12 62l60 64h6l-22 -126h100l-1 -5h-100l-77 -441l119 75l3 -4l-137 -100l-42 25l78 445h-183l-77 -441l119 75z" />
    <glyph glyph-name="t_y.liga" unicode="ty" horiz-adv-x="644" 
d="M312 -236l-81 1l16 65h79l110 187l-54 -13l-57 451h-146l-77 -441l119 75l3 -4l-137 -100l-42 25l78 445h-64l1 5h64l12 62l60 64h6l-22 -126h151l51 15l4 -3l54 -447l181 341l-68 78l55 31l31 -34l-3 -80l-184 -344z" />
    <glyph glyph-name=".notdef" horiz-adv-x="685" 
d="M495 -14l-3 -15l-30 1l-24 18h-14l-8 8l7 76l-4 47l-61 1l-3 -52l-2 -56v-20l-15 -6l-8 6l-30 -10h-32l-1 11l11 11l50 21l-6 96l-98 -6l-147 140l-4 115l-13 10l-10 36v26l15 8l-3 78l92 -62l9 47l10 36l22 35l28 35l39 29l78 29h22l-68 22l4 17h7l79 -20l-4 51l16 12
h32l19 -5l29 -25l32 -8l32 -10l15 -13v-20l-20 -31l30 -28l28 -32l18 -34l15 -41l9 -54l-3 -41l-8 -35l-12 -31l-3 -156l-21 -7l-50 70l-27 -7l-19 -140l-32 4l-7 -4l-4 -94l30 -19zM221 543l17 -3h5l36 24h32l18 -12l8 3l4 14l7 5l10 -4v-18h8l10 22l11 8l-5 6l-3 8l1 21
l-30 -10l-10 -8l-8 5l4 21l14 10l11 11l38 -2l12 13l-4 8h-49l-45 -13l-53 -26l-29 -23l-25 -34l29 12l13 -15l-17 -20zM406 614l12 -6l3 17l-7 17l-8 -9v-19zM460 588l6 -24h13l6 6l-9 18l17 28l-15 9v5l-25 7v-20l-13 -5v-9l-9 -6l-3 -12l5 -6l19 11zM537 412l8 -6l18 12
h23l6 11l-18 6l-5 9l9 42h7l14 -20l17 -1l-8 37l-19 50l-20 36l-23 28l-34 21h-11l17 -19l25 -10l11 -11l3 -33l-25 13l-15 -29l12 -8v-19l15 3l-12 26l15 -5l10 -20l-5 -12l-8 -7h-23l-3 11l-12 2l1 -22h-14l14 -18l-7 -10l-21 5l-3 -27l41 6l8 17l22 -2l6 -28l-16 -13v-15
zM483 517l8 -3l2 7l-2 9l-8 -4v-9zM269 522l-55 -24l59 12zM347 508l49 -17l3 4l-48 25zM91 266l11 -12v180l57 -32l7 10l-68 38v18l59 -34l43 -28l28 -14l3 10l-103 64l-13 7l-41 33l2 -78l19 -17v-5h-21l19 -14l1 -11l-20 7l18 -18l-4 -7zM245 438l12 -6l11 5l16 12l6 12
l2 13l-22 -4l6 -10l-12 -13l-14 -1l-6 8l1 4l14 2l-13 6l2 7l-20 -1l3 -19zM346 431l13 -1l18 10l6 9l5 20l-30 2l7 -5l1 -11l-7 -11h-12l-5 7l11 8l-15 2v6l-23 4l3 -17l8 -14zM231 221v-91l18 4l2 40l41 -3l3 9l-44 6v16l48 -6l1 9l-47 7l1 22l43 -3l3 6l-45 9l3 94h74
l11 10h-79l2 9h74l8 7h-82l2 22l117 4l140 -4v11l-4 7h-205l-66 -3l-7 -9l-6 -44l-48 20l-11 -4l57 -27l1 -45zM559 396v-10h5l5 7v7zM383 371l-3 -35h53l4 30zM139 275l64 -44l-1 60l4 40l-66 39v-7l-2 -13l1 -27v-48zM548 302l20 15l13 13l11 18l-7 5h-14l-10 3l-14 7
l-17 -3l-6 -48q1 1 16 -12zM467 359v-13l44 4l4 9h-48zM452 143l27 -1l12 79l4 36l-15 3l-1 8l20 1l5 3l-28 16l2 5l30 -6l-30 15l5 5l21 -5l4 10l3 19l-54 1l-1 -24v-6l-2 -31l19 -3l-8 -61l-48 3l-8 -6l51 -5l-2 -9h-49l-4 -5l53 -7zM321 312v-10h73v10h-73zM550 282
l39 -48v78l-6 -3zM316 275l78 -4v10l-72 7zM316 260v-10h68v6zM152 230l50 -41l4 14l-74 50zM316 167l64 -6v53l-64 4v-51z" />
    <glyph glyph-name=".null" horiz-adv-x="0" 
 />
    <glyph glyph-name="nonmarkingreturn" unicode="&#xd;" horiz-adv-x="360" 
 />
    <glyph glyph-name="space" unicode=" " horiz-adv-x="240" 
 />
    <glyph glyph-name="exclam" unicode="!" horiz-adv-x="297" 
d="M140 189h-15l11 203l51 318h75l-61 -317zM132 0l-50 -4l-17 4l2 39l12 31l49 3l19 -3l-4 -37z" />
    <glyph glyph-name="quotedbl" unicode="&#x22;" horiz-adv-x="364" 
d="M143 463h-3l-13 184l25 58h65l5 -58zM289 463h-3l-13 184l25 58h65l5 -58z" />
    <glyph glyph-name="numbersign" unicode="#" horiz-adv-x="589" 
d="M127 0h-20l61 207h-138l6 20h138l60 199h-140l6 20h140l62 209h20l-63 -209h181l62 209h20l-63 -209h135l-5 -20h-136l-59 -199h137l-6 -20h-137l-61 -207h-20l61 207h-180zM253 426l-59 -199h180l60 199h-181z" />
    <glyph glyph-name="dollar" unicode="$" horiz-adv-x="494" 
d="M344 715q49 -1 82.5 -11.5t62.5 -30.5l-24 -151h-5l-13 107q-37 41 -108 55l-50 -287l91 -74q35 -28 52 -58.5t17 -78.5q0 -56 -39 -107.5t-106 -71.5l-79 -25h-9l-11 -62h-10l11 62q-53 3 -97 19t-74 39l32 145l6 -1v-88q19 -23 57 -45t82 -35l55 315l-70 55
q-80 63 -80 140q0 52 31.5 94t95.5 65l83 30h7l12 66h10zM280 405l49 281q-29 4 -46 5q-62 -18 -87.5 -48.5t-25.5 -75.5q0 -35 11.5 -59.5t32 -45t63.5 -55.5zM276 324l-55 -310q27 -7 54 -9q59 18 87 57t28 92q0 48 -21 80.5t-77 76.5z" />
    <glyph glyph-name="percent" unicode="%" horiz-adv-x="780" 
d="M68 -5h-28l674 710h26zM215 350q-46 0 -76.5 36t-30.5 93q0 69 34.5 128t104.5 81l38 12q46 0 76.5 -36t30.5 -93q0 -69 -34.5 -128t-104.5 -81zM306 438q28 54 28 122q0 55 -18 87.5t-48 40.5q-46 -22 -74 -76t-28 -122q0 -55 18 -87.5t48 -40.5q46 22 74 76zM503 0
q-46 0 -76.5 36t-30.5 93q0 68 34.5 127.5t104.5 81.5l38 12q46 0 76.5 -36t30.5 -93q0 -68 -34.5 -127.5t-104.5 -81.5zM594 88q28 54 28 122q0 55 -18 87.5t-48 40.5q-46 -22 -74 -76t-28 -122q0 -55 18 -87.5t48 -40.5q46 22 74 76z" />
    <glyph glyph-name="ampersand" unicode="&#x26;" horiz-adv-x="539" 
d="M215 -18q-54 0 -96 22.5t-65.5 62t-23.5 89.5q0 74 44 129t125 84l41 14q-43 14 -75.5 52.5t-32.5 89.5q0 63 51 106t138 68l65 19q25 -3 57.5 -18.5t58.5 -34.5l-37 -54q-41 31 -80 52t-70 30q-61 -22 -92 -62t-31 -96q0 -39 17.5 -72t42.5 -53t47 -20v-5
q-50 0 -97.5 -28t-77 -75.5t-29.5 -101.5q0 -79 42 -129.5t121 -50.5q63 27 96.5 73t46.5 127l16 91h-73l-14 -22h-5l13 71h199l12 22h5l-13 -71h-67l-18 -101q-9 -52 -25.5 -85.5t-55.5 -60.5t-112 -48z" />
    <glyph glyph-name="quotesingle" unicode="'" horiz-adv-x="215" 
d="M140 463h-3l-13 184l25 58h65l5 -58z" />
    <glyph glyph-name="parenleft" unicode="(" horiz-adv-x="334" 
d="M218 -233q-69 93 -101 185.5t-32 190.5q0 104 21.5 191t87 182.5t191.5 201.5l4 -3q-80 -68 -136 -143.5t-89 -181.5t-33 -248q0 -106 22.5 -204.5t68.5 -167.5z" />
    <glyph glyph-name="parenright" unicode=")" horiz-adv-x="334" 
d="M120 718q69 -93 101 -185.5t32 -190.5q0 -104 -21.5 -191t-87 -182.5t-191.5 -201.5l-4 3q80 68 136 143.5t89 181.5t33 248q0 106 -22.5 204.5t-68.5 167.5z" />
    <glyph glyph-name="asterisk" unicode="*" horiz-adv-x="286" 
d="M207 568l-82 -129l-43 35l121 97l-138 16l28 58l112 -70l-2 140h60l-52 -140l136 70l9 -57l-145 -17l88 -96l-54 -36z" />
    <glyph glyph-name="plus" unicode="+" 
d="M320 0h-20v245h-248v20h248v250h20v-250h247v-20h-247v-245z" />
    <glyph glyph-name="comma" unicode="," horiz-adv-x="223" 
d="M8 -138l-3 1l83 135l-35 -2l-21 4l4 48l13 37l58 4l26 -4l-3 -44l-14 -41z" />
    <glyph glyph-name="hyphen" unicode="-" horiz-adv-x="375" 
d="M345 267h-305l5 20h305z" />
    <glyph glyph-name="period" unicode="." horiz-adv-x="220" 
d="M116 -1l-62 -4l-24 4l4 47l12 39l62 4l23 -4l-4 -46z" />
    <glyph glyph-name="slash" unicode="/" horiz-adv-x="450" 
d="M-117 -230h-23l619 948h21z" />
    <glyph glyph-name="zero" unicode="0" horiz-adv-x="508" 
d="M227 -15q-55 0 -97.5 26t-66 71.5t-23.5 102.5q0 88 44 154.5t143 108.5l64 27q55 0 97.5 -26t66 -71.5t23.5 -102.5q0 -186 -187 -263zM413 260q0 81 -33.5 131t-112.5 69q-75 -38 -118.5 -103.5t-43.5 -156.5q0 -79 35 -129t111 -71q162 91 162 260z" />
    <glyph glyph-name="one" unicode="1" horiz-adv-x="400" 
d="M4 0l1 5l153 5l74 425l-189 -70l-1 5l246 100h5l-80 -460l147 -5l-1 -5h-355z" />
    <glyph glyph-name="two" unicode="2" horiz-adv-x="465" 
d="M-5 0v6l215 148q95 65 127.5 113t32.5 98q0 38 -23.5 61.5t-67.5 27.5l-72 -22l-61 -137h-27l11 119l191 61q56 0 85 -28t29 -67q0 -53 -50.5 -105.5t-146.5 -115.5l-151 -99h358v-10l-19 -50h-431z" />
    <glyph glyph-name="three" unicode="3" horiz-adv-x="409" 
d="M-44 -230l12 65h213q54 35 77.5 76.5t23.5 93.5q0 50 -42 87t-136 37l-1 6l48 22q79 37 119 80t40 107q0 43 -26 74.5t-68 35.5l-79 -23l-57 -126h-27l7 109l191 61q55 0 89 -31.5t34 -78.5q0 -66 -53 -117t-145 -84q78 -5 124 -40t46 -96q0 -60 -33 -103t-81 -70
t-115 -52l-86 -33h-75z" />
    <glyph glyph-name="four" unicode="4" horiz-adv-x="513" 
d="M351 14h142v-10h-144l-41 -234h-57l41 234h-283l-4 9l382 457h73l-1 -5l-440 -451h275l35 199l58 33h5z" />
    <glyph glyph-name="five" unicode="5" horiz-adv-x="451" 
d="M-50 -230l16 65h204q61 42 92.5 91.5t31.5 113.5q0 67 -28 107.5t-82 40.5q-31 0 -56 -9t-61 -30l-36 -24l-10 4l105 341h315l-20 -60h-302l-86 -275l150 100q100 0 138 -48t38 -115q0 -90 -72 -161t-176 -108l-86 -33h-75z" />
    <glyph glyph-name="six" unicode="6" horiz-adv-x="503" 
d="M316 447q36 0 69.5 -26t54 -69t20.5 -92q0 -92 -40 -157t-123 -93l-72 -25q-80 0 -127.5 56.5t-47.5 158.5q0 121 59.5 230t163.5 186t234 105l1 -7q-83 -17 -159 -73t-132 -136t-82 -167zM361 96q34 63 34 134q0 59 -15 97.5t-38.5 56t-49.5 17.5q-22 0 -41 -7.5
t-60 -29.5l-58 -34q-18 -60 -18 -120q0 -84 39 -141t108 -64q65 28 99 91z" />
    <glyph glyph-name="seven" unicode="7" horiz-adv-x="447" 
d="M61 -230h-56l1 5l419 625h-385l10 60h408l4 -5z" />
    <glyph glyph-name="eight" unicode="8" horiz-adv-x="494" 
d="M387 329.5q26 -23.5 44.5 -55t18.5 -68.5q0 -141 -195 -207l-42 -14q-44 0 -84 19t-64.5 54.5t-24.5 83.5q0 139 204 218q-54 43 -83 80.5t-29 88.5q0 58 39 103.5t107 65.5l53 17q70 0 114 -33.5t44 -91.5q0 -51 -25.5 -88.5t-61 -61.5t-87.5 -50q46 -37 72 -60.5z
M197 554q0 -45 28.5 -81t83.5 -79q114 66 114 174q0 56 -30.5 92t-93.5 40q-102 -44 -102 -146zM375 185q0 35 -17 64.5t-41 51.5t-67 55q-140 -82 -140 -192q0 -48 19.5 -85.5t51 -58t66.5 -20.5q128 67 128 185z" />
    <glyph glyph-name="nine" unicode="9" horiz-adv-x="498" 
d="M288 475q80 0 127.5 -56.5t47.5 -158.5q0 -118 -59.5 -222.5t-163.5 -178t-234 -100.5l-1 7q82 16 156.5 68t130.5 127t84 158l-179 -106q-36 0 -69.5 26t-54 69t-20.5 92q0 92 40 157t123 93zM379 129q19 63 19 121q0 84 -39 141t-108 64q-65 -28 -99 -91t-34 -134
q0 -59 15 -97.5t38.5 -56t49.5 -17.5q22 0 41 7.5t60 29.5z" />
    <glyph glyph-name="colon" unicode=":" horiz-adv-x="221" 
d="M178 390l-62 -4l-24 4l4 47l12 39l62 4l23 -4l-4 -46zM117 -1l-62 -4l-24 4l4 47l12 39l62 4l23 -4l-4 -46z" />
    <glyph glyph-name="semicolon" unicode=";" horiz-adv-x="249" 
d="M194 390l-62 -4l-24 4l4 47l12 39l62 4l23 -4l-4 -46zM24 -138l-3 1l83 135l-35 -2l-21 4l4 48l13 37l58 4l26 -4l-3 -44l-14 -41z" />
    <glyph glyph-name="less" unicode="&#x3c;" 
d="M569 66v-21l-519 236v10l519 237v-21l-492 -221z" />
    <glyph glyph-name="equal" unicode="=" 
d="M567 330h-515v20h515v-20zM567 140h-515v20h515v-20z" />
    <glyph glyph-name="greater" unicode="&#x3e;" 
d="M569 281l-519 -236v21l492 220l-492 221v21l519 -237v-10z" />
    <glyph glyph-name="question" unicode="?" horiz-adv-x="376" 
d="M120 200l25 140l49 30q71 44 109 95.5t38 116.5q0 56 -25.5 87t-84.5 35l-49 -109h-53l18 100l85 15q97 0 135.5 -43t38.5 -103q0 -103 -140 -169l-81 -38l-50 -157h-15zM132 0l-50 -4l-17 4l2 39l12 31l49 3l19 -3l-4 -37z" />
    <glyph glyph-name="at" unicode="@" horiz-adv-x="898" 
d="M258 -66q-87 48 -135 132.5t-48 191.5q0 94 41 175t114.5 141.5t170.5 94.5l93 31q117 0 201.5 -37.5t128.5 -103.5t44 -149q0 -87 -41.5 -160.5t-110 -116.5t-143.5 -43l-47 67l22 104l-138 -173q-32 3 -61.5 23t-48 56t-18.5 81q0 78 45 140t121 99l107 51l95 -68
l-73 -374q52 0 106 38t89.5 106t35.5 155q0 80 -36.5 145t-103.5 102.5t-156 37.5q-96 0 -183 -50t-140.5 -140.5t-53.5 -206.5t50 -198t133.5 -123.5t182.5 -41.5q54 0 101 18.5t90 44.5l3 -4q-54 -33 -122 -59t-116 -34q-112 0 -199 48zM550 273l37 172l-87 60
q-84 -42 -120 -106t-36 -126q0 -54 23 -89t69 -45z" />
    <glyph glyph-name="A" unicode="A" horiz-adv-x="671" 
d="M490 706l54 -696l89 -5l-1 -5h-245l1 5l90 5l-18 243h-248l-135 -243l89 -5l-1 -5h-199l1 5l90 5l382 683zM430 645l-212 -382h241z" />
    <glyph glyph-name="B" unicode="B" horiz-adv-x="539" 
d="M-10 5l90 5l102 680l-84 5l1 5h238q90 0 138.5 -35.5t48.5 -99.5q0 -69 -46 -116.5t-128 -64.5l-43 -9q72 0 122 -22t75 -57.5t25 -78.5q0 -69 -45.5 -117t-123.5 -76l-66 -24h-305zM265 375q33 0 77 22t76 63t32 96q0 67 -33.5 100.5t-109.5 33.5h-59l-47 -315h64z
M318 15q136 68 136 194q0 67 -43 111.5t-123 44.5h-89l-52 -350h171z" />
    <glyph glyph-name="C" unicode="C" horiz-adv-x="577" 
d="M318 -18q-75 0 -136.5 38.5t-96.5 106t-35 153.5q0 83 28.5 162t88.5 143.5t149 100.5l72 29q64 0 115.5 -17.5t83.5 -41.5l-5 -154h-6l-39 121q-72 56 -183 68q-108 -38 -168.5 -139t-60.5 -232q0 -150 57 -228t157 -92q32 13 78 36t60 34l77 131h6l-34 -151z" />
    <glyph glyph-name="D" unicode="D" horiz-adv-x="629" 
d="M-10 5l90 5l102 680l-84 5l1 5h248q77 0 140 -37.5t100 -102.5t37 -145q0 -81 -27.5 -159t-86.5 -140t-149 -91l-78 -25h-294zM318 16q106 51 168.5 158.5t62.5 240.5q0 88 -26.5 150t-73.5 93.5t-109 31.5h-92l-101 -674h171z" />
    <glyph glyph-name="E" unicode="E" horiz-adv-x="548" 
d="M-11 0l1 5l90 5l102 680l-84 5l1 5h479l-28 -176h-5l-35 166h-262l-48 -319h142l58 114h5l-19 -118l-19 -119h-5l-22 113h-141l-53 -351h266l88 170h5l-29 -180h-487z" />
    <glyph glyph-name="F" unicode="F" horiz-adv-x="528" 
d="M-11 0l1 5l90 5l102 680l-84 5l1 5h479l-28 -176h-5l-35 166h-262l-49 -328h142l58 114h5l-20 -120l-18 -117h-5l-22 113h-141l-52 -342l123 -5l-1 -5h-279z" />
    <glyph glyph-name="G" unicode="G" horiz-adv-x="624" 
d="M317 -18q-77 0 -137.5 39t-95 108t-34.5 156q0 144 74.5 252.5t203.5 152.5l73 25q58 0 113.5 -20.5t95.5 -56.5l-16 -137h-5l-28 98q-37 40 -90.5 63.5t-118.5 28.5q-106 -44 -166.5 -141t-60.5 -225q0 -145 57 -229.5t162 -95.5q28 9 69.5 29t64.5 35l35 236l-83 5l1 5
h209l-1 -5l-60 -5l-38 -250z" />
    <glyph glyph-name="H" unicode="H" horiz-adv-x="660" 
d="M-11 0l1 5l90 5l102 680l-84 5l1 5h235l-1 -5l-85 -5l-48 -321h311l48 321l-84 5l1 5h235l-1 -5l-85 -5l-102 -680l89 -5l-1 -5h-245l1 5l90 5l52 349h-311l-52 -349l89 -5l-1 -5h-245z" />
    <glyph glyph-name="I" unicode="I" horiz-adv-x="283" 
d="M-11 0l1 5l90 5l102 680l-84 5l1 5h235l-1 -5l-85 -5l-102 -680l89 -5l-1 -5h-245z" />
    <glyph glyph-name="J" unicode="J" horiz-adv-x="276" 
d="M-70 -175l11 70h109q25 59 37 141l98 654l-84 5l1 5h235l-1 -5l-85 -5l-93 -624q-6 -41 -23 -73.5t-33 -51.5t-51 -54l-63 -62h-58z" />
    <glyph glyph-name="K" unicode="K" horiz-adv-x="650" 
d="M-11 0l1 5l90 5l102 680l-84 5l1 5h235l-1 -5l-85 -5l-47 -314l361 314l-89 5l1 5h192l-1 -5l-81 -5l-360 -311l51 -6l264 -363l69 -5l-1 -5h-149l-258 369l-54 -359l89 -5l-1 -5h-245z" />
    <glyph glyph-name="L" unicode="L" horiz-adv-x="515" 
d="M-11 0l1 5l90 5l102 680l-84 5l1 5h235l-1 -5l-85 -5l-102 -680h246l98 170h5l-39 -180h-467z" />
    <glyph glyph-name="M" unicode="M" horiz-adv-x="852" 
d="M-11 0l1 5l90 5l109 680l-84 5l1 5h160l139 -639l337 639h161l-1 -5l-85 -5l-102 -680l89 -5l-1 -5h-245l1 5l90 5l102 674l-359 -684h-40l-149 682l-106 -672l89 -5l-1 -5h-196z" />
    <glyph glyph-name="N" unicode="N" horiz-adv-x="667" 
d="M532 700h196l-1 -5l-90 -5l-111 -690h-31l-292 677l-106 -667l89 -5l-1 -5h-196l1 5l90 5l109 680l-84 5l1 5h161l259 -601l94 591l-89 5z" />
    <glyph glyph-name="O" unicode="O" horiz-adv-x="640" 
d="M302 -18q-69 0 -126.5 37.5t-91.5 104.5t-34 151q0 86 27.5 170t86.5 150.5t150 96.5l70 23q69 0 126.5 -37t91 -103t33.5 -150q0 -86 -27.5 -169t-86.5 -150t-149 -99zM448.5 79q52.5 61 82 147.5t29.5 178.5q0 136 -56 209t-147 83q-67 -15 -120 -75.5t-82.5 -147.5
t-29.5 -179q0 -136 56.5 -210t147.5 -84q67 17 119.5 78z" />
    <glyph glyph-name="P" unicode="P" horiz-adv-x="514" 
d="M-10 5l90 5l102 680l-84 5l1 5h288q84 0 130.5 -41.5t46.5 -106.5q0 -71 -44 -122t-141 -84l-73 -25h-113l-47 -311l123 -5l-1 -5h-279zM334 336q69 30 112 74.5t43 126.5q0 73 -36 113t-111 40h-94l-53 -354h139z" />
    <glyph glyph-name="Q" unicode="Q" horiz-adv-x="640" 
d="M607.5 256q-27.5 -84 -87 -150.5t-148.5 -98.5l-70 -25q-69 0 -126.5 37.5t-91.5 104.5t-34 151q0 86 27 170t86 150.5t150 96.5l70 23q69 0 127 -37t91.5 -103t33.5 -150q0 -85 -27.5 -169zM181.5 85q56.5 -74 147.5 -84q67 17 119.5 78t82 147.5t29.5 178.5
q0 135 -56 208.5t-148 83.5q-67 -15 -119.5 -75.5t-82 -147.5t-29.5 -179q0 -136 56.5 -210zM302 -18l102 -32l121 -120l49 -5l-1 -5h-130z" />
    <glyph glyph-name="R" unicode="R" horiz-adv-x="614" 
d="M-10 5l90 5l102 680l-84 5l1 5h288q84 0 130.5 -40t46.5 -103q0 -74 -48.5 -120.5t-135.5 -71.5l-76 -22h-108l-50 -333l103 -5l-1 -5h-259zM336 358q47 21 77.5 41t53 55.5t22.5 87.5q0 70 -36 109t-111 39h-94l-50 -332h138zM464 0l-160 343l88 -37l145 -296l42 -4
l-1 -6h-114z" />
    <glyph glyph-name="S" unicode="S" horiz-adv-x="449" 
d="M205 -18q-59 0 -108 16.5t-82 41.5l32 145l6 -1v-88q27 -32 86 -59.5t116 -31.5q59 18 87 57t28 92q0 48 -21 80.5t-77 76.5l-95 75q-80 63 -80 140q0 52 31.5 94t95.5 65l83 30q57 0 94 -10.5t68 -31.5l-24 -151h-5l-13 107q-29 32 -70 45t-94 17q-62 -18 -87.5 -48.5
t-25.5 -75.5q0 -35 11.5 -59.5t32 -45t63.5 -55.5l103 -84q35 -28 52 -58.5t17 -78.5q0 -56 -39 -107.5t-106 -71.5z" />
    <glyph glyph-name="T" unicode="T" horiz-adv-x="528" 
d="M116 0l1 5l90 5l101 680h-164l-69 -160h-5l27 170h496l-26 -170h-5l-26 160h-162l-101 -680l103 -5l-1 -5h-259z" />
    <glyph glyph-name="U" unicode="U" horiz-adv-x="605" 
d="M273 -16q-189 0 -189 169q0 29 4 56l72 481l-84 5l1 5h235l-1 -5l-85 -5l-70 -465q-4 -23 -4 -49q0 -77 43.5 -119.5t133.5 -42.5q48 19 79.5 44t53.5 67.5t33 110.5l74 454l-89 5l1 5h196l-1 -5l-90 -5l-73 -453q-16 -95 -54 -150t-125 -83z" />
    <glyph glyph-name="V" unicode="V" horiz-adv-x="637" 
d="M320 5l-53 -15l-104 700l-89 5l1 5h245l-1 -5l-90 -5l95 -637l277 637l-91 5l1 5h200l-1 -5l-90 -5z" />
    <glyph glyph-name="W" unicode="W" horiz-adv-x="931" 
d="M320 5l-53 -15l-104 700l-89 5l1 5h245l-1 -5l-90 -5l95 -637l182 447l-28 190l-69 5l1 5h235l-1 -5l-100 -5l96 -637l255 637l-89 5l1 5h198l-1 -5l-90 -5l-279 -685l-52 -15l-72 483z" />
    <glyph glyph-name="X" unicode="X" horiz-adv-x="651" 
d="M-21 0l1 5l70 5l269 330l-163 350l-64 5l1 5h224l-1 -5l-85 -5l136 -298l243 298l-84 5l1 5h170l-1 -5l-65 -5l-256 -314l171 -366l59 -5l-1 -5h-225l1 5l90 5l-144 314l-255 -314l89 -5l-1 -5h-180z" />
    <glyph glyph-name="Y" unicode="Y" horiz-adv-x="594" 
d="M160 0l1 5l90 5l42 279l-150 401l-69 5l1 5h234l-1 -5l-90 -5l136 -378l234 378l-91 5l1 5h170l-1 -5l-60 -5l-246 -392l-44 -288l89 -5l-1 -5h-245z" />
    <glyph glyph-name="Z" unicode="Z" horiz-adv-x="513" 
d="M462 0h-457l-10 10l478 680h-299l-92 -176h-5l29 186h432l10 -11l-472 -679h317l89 180h5z" />
    <glyph glyph-name="bracketleft" unicode="[" horiz-adv-x="298" 
d="M10 -230l95 535l72 410h181l-1 -5l-139 -5l-71 -405l-92 -520l138 -5l-1 -5h-182z" />
    <glyph glyph-name="backslash" unicode="\" horiz-adv-x="402" 
d="M397 -230h-23l-284 948h21z" />
    <glyph glyph-name="bracketright" unicode="]" horiz-adv-x="298" 
d="M292 715l-95 -535l-72 -410h-181l1 5l139 5l71 405l92 520l-138 5l1 5h182z" />
    <glyph glyph-name="asciicircum" unicode="^" horiz-adv-x="351" 
d="M100 460h-15l166 245h6l79 -245h-15l-70 224z" />
    <glyph glyph-name="underscore" unicode="_" horiz-adv-x="643" 
d="M530 -95h-555l3 20h555z" />
    <glyph glyph-name="grave" unicode="`" horiz-adv-x="600" 
d="M390 542h-5l-107 168h72z" />
    <glyph glyph-name="a" unicode="a" horiz-adv-x="439" 
d="M135 -15q-100 49 -100 170q0 91 52.5 170t142.5 121l62 29q20 0 56 -12t54 -24l-75 -425l99 74l3 -3l-117 -100l-42 25l23 126zM294 143l46 261q-26 15 -57 25.5t-55 10.5q-68 -38 -103 -101t-35 -142q0 -109 79 -163z" />
    <glyph glyph-name="b" unicode="b" horiz-adv-x="431" 
d="M158 -15q-34 4 -59.5 14t-58.5 32l115 655l-96 -28l-1 5l151 54l7 -5l-63 -356l141 119q52 -11 84.5 -53t32.5 -118q0 -86 -45 -164t-125 -116zM318.5 116.5q32.5 67.5 32.5 150.5q0 69 -23.5 107.5t-69.5 54.5l-106 -82l-50 -281q22 -23 53.5 -35.5t54.5 -12.5
q76 31 108.5 98.5z" />
    <glyph glyph-name="c" unicode="c" horiz-adv-x="391" 
d="M190 -15q-34 0 -69 22.5t-58 65.5t-23 101q0 91 50.5 159t153.5 116l55 26q17 -2 41.5 -13t45.5 -24l-34 -51q-40 28 -112 55q-75 -39 -107.5 -98t-32.5 -126q0 -83 33.5 -129.5t83.5 -60.5q24 12 69.5 38.5t67.5 41.5l4 -5q-31 -23 -103 -73q-6 -5 -11 -8t-9 -6z" />
    <glyph glyph-name="d" unicode="d" horiz-adv-x="466" 
d="M149 -15q-46 21 -77.5 69t-31.5 107q0 92 54.5 170t147.5 115l73 29q11 -1 46 -14l39 225l-96 -28l-1 5l151 54l7 -5l-124 -698l99 74l3 -3l-117 -100l-42 25l23 126zM304 143l46 262q-25 14 -57 24t-55 11q-68 -34 -103 -96t-35 -142q0 -106 88 -165z" />
    <glyph glyph-name="e" unicode="e" horiz-adv-x="402" 
d="M362 301l-264 -82q2 -151 123 -192q99 58 125 77l5 -6q-46 -34 -118 -83l-46 -30q-64 9 -105.5 62.5t-41.5 126.5q0 93 54.5 166.5t151.5 110.5l58 23q40 -9 59 -33.5t19 -65.5q0 -37 -20 -74zM300 296q16 31 16 67q0 70 -64 86q-75 -37 -114 -93.5t-40 -129.5z" />
    <glyph glyph-name="f" unicode="f" horiz-adv-x="252" 
d="M-125 -235l11 60h116q11 17 17.5 39t14.5 66l92 525h-64l1 5h64l9 45q21 105 79 145l97 65h55l-10 -60h-124q-13 -21 -21 -46t-14 -63l-15 -86h100l-1 -5h-100l-86 -490q-16 -97 -80 -138l-96 -62h-45z" />
    <glyph glyph-name="g" unicode="g" horiz-adv-x="433" 
d="M10 -235l10 55h173q25 22 50 71t33 95l27 149l-154 -150q-109 64 -109 174q0 92 54 170.5t147 116.5l71 29q21 -2 52 -12.5t49 -20.5l-85 -478q-6 -31 -37 -67t-80 -70l-87 -62h-114zM304 143l46 259q-25 15 -57.5 26t-54.5 12q-68 -37 -103 -96.5t-35 -136.5
q0 -51 22 -95t65 -74z" />
    <glyph glyph-name="h" unicode="h" horiz-adv-x="464" 
d="M332 -15l-42 25l62 344q2 16 2 23q0 51 -50 51q-20 0 -42.5 -11t-62.5 -38l-41 -28l-62 -351h-56l121 686l-96 -28l-1 5l151 54l7 -5l-63 -354l166 117q45 0 67 -19.5t22 -54.5q0 -6 -2 -22l-65 -365l99 74l3 -3z" />
    <glyph glyph-name="i" unicode="i" horiz-adv-x="243" 
d="M215 85l-117 -100l-42 25l76 429l-95 -36l-2 5l155 67l4 -3l-81 -460l99 76zM230 586l-24 -4l-54 4l3 43l16 37l26 4l48 -4v-43z" />
    <glyph glyph-name="j" unicode="j" horiz-adv-x="239" 
d="M-110 -235l12 60h118q10 20 16 42.5t13 62.5l89 509l-95 -36l-2 5l155 67l4 -3l-89 -507q-18 -96 -79 -136l-97 -64h-45zM229 586l-24 -4l-54 4l3 43l16 37l26 4l48 -4v-43z" />
    <glyph glyph-name="k" unicode="k" horiz-adv-x="421" 
d="M410 82l-113 -97l-37 15l-115 274l-49 -274h-56l121 686l-96 -28l-1 5l151 54l7 -5l-77 -434l213 187h58l-12 -70h-87h-20l-142 -120l62 -19l104 -238l86 68z" />
    <glyph glyph-name="l" unicode="l" horiz-adv-x="235" 
d="M209 85l-117 -100l-42 25l119 676l-96 -28l-1 5l151 54l7 -5l-123 -698l99 74z" />
    <glyph glyph-name="m" unicode="m" horiz-adv-x="709" 
d="M577 -15l-42 25l62 344q2 16 2 22q0 52 -45 52q-19 0 -40 -11t-60 -38l-41 -28l-62 -351h-56l62 354q2 18 2 24q0 50 -45 50q-19 0 -40 -11t-60 -38l-41 -28l-62 -351h-56l77 439l-95 -36l-2 5l155 67l4 -3l-20 -114l161 117q44 0 63 -19t19 -59q0 -18 -3 -39l161 117
q42 0 63 -19.5t21 -54.5q0 -6 -2 -22l-65 -365l99 74l3 -3z" />
    <glyph glyph-name="n" unicode="n" horiz-adv-x="479" 
d="M347 -15l-42 25l62 344q2 16 2 23q0 51 -50 51q-20 0 -42.5 -11t-62.5 -38l-41 -28l-62 -351h-56l77 439l-95 -36l-2 5l155 67l4 -3l-20 -114l166 117q45 0 67 -19.5t22 -54.5q0 -6 -2 -22l-65 -365l99 74l3 -3z" />
    <glyph glyph-name="o" unicode="o" horiz-adv-x="432" 
d="M178 -15q-36 0 -68 22t-51 65t-19 102q0 92 45.5 165t127.5 109l61 27q37 0 68.5 -20.5t50.5 -62t19 -100.5q0 -93 -45.5 -168.5t-127.5 -111.5zM320 111.5q32 77.5 32 161.5q0 90 -31 129t-88 47q-70 -23 -101.5 -97.5t-31.5 -158.5q0 -87 32.5 -131t84.5 -52
q71 24 103 101.5z" />
    <glyph glyph-name="p" unicode="p" horiz-adv-x="451" 
d="M15 -230l117 669l-95 -36l-2 5l155 67l4 -3l-20 -115l135 118q54 -6 88 -50t34 -121q0 -86 -43 -161.5t-121 -114.5l-87 -43q-17 2 -32 8.5t-35 17.5l-42 -241h-56zM341 117.5q30 64.5 30 149.5q0 69 -27.5 110t-73.5 51l-98 -81l-49 -282q22 -22 52.5 -34t54.5 -13
q81 35 111 99.5z" />
    <glyph glyph-name="q" unicode="q" horiz-adv-x="428" 
d="M238 -230l64 363l-152 -148q-110 52 -110 170q0 93 54 173.5t146 117.5l72 29q21 -2 52.5 -12t48.5 -20l-119 -673h-56zM304 143l46 260q-28 14 -59.5 25t-52.5 12q-68 -38 -103 -101t-35 -142q0 -48 22.5 -90t65.5 -67z" />
    <glyph glyph-name="r" unicode="r" horiz-adv-x="347" 
d="M111 0h-57l78 439l-95 -36l-2 5l155 67l4 -3l-37 -211l139 204h61l-15 -75h-83l-56 -79l-49 -68z" />
    <glyph glyph-name="s" unicode="s" horiz-adv-x="331" 
d="M93 -15q-18 9 -45.5 26.5t-42.5 29.5l46 44q26 -21 51 -37.5t63 -35.5q33 10 50.5 32t17.5 47q0 30 -11 50.5t-41 50.5l-68 68q-19 19 -28 39t-9 46q0 33 27.5 62.5t82.5 47.5l63 20q37 -5 77 -31l-37 -49q-48 33 -110 53q-25 -9 -39 -30t-14 -44q0 -24 9.5 -42.5
t26.5 -36.5l70 -70q32 -32 44 -55.5t12 -54.5q0 -71 -95 -100z" />
    <glyph glyph-name="t" unicode="t" horiz-adv-x="265" 
d="M224 85l-137 -100l-42 25l78 445h-64l1 5h64l12 62l60 64h6l-22 -126h100l-1 -5h-100l-77 -441l119 75z" />
    <glyph glyph-name="u" unicode="u" horiz-adv-x="474" 
d="M148 -15q-44 0 -66 18.5t-22 51.5q0 7 2 23l65 366l-95 -32l-2 5l154 58l4 -3l-67 -377q-2 -16 -2 -21q0 -42 40 -42q23 0 45.5 10.5t67.5 41.5l40 28l61 348h57l-78 -446l104 69l3 -3l-130 -95l-34 25l16 94z" />
    <glyph glyph-name="v" unicode="v" horiz-adv-x="393" 
d="M374 350l-222 -358l-51 14l-9 433l-95 -36l-2 5l153 67l4 -3l2 -456l214 349l-66 79l55 31l31 -34z" />
    <glyph glyph-name="w" unicode="w" horiz-adv-x="600" 
d="M303 236l-152 -244l-50 14l-9 433l-95 -36l-2 5l153 67l4 -3l2 -456l149 240l-4 183l60 26l2 -449l214 347l-66 81l55 31l31 -34l-14 -91l-223 -358l-50 14z" />
    <glyph glyph-name="x" unicode="x" horiz-adv-x="430" 
d="M425 85l-122 -98l-34 20l-64 201l-154 -213h-56l14 65h77l46 63l70 94l-67 222l-100 -34l-2 5l144 63l6 -3l62 -203l138 198h52l-13 -65h-74l-40 -57l-60 -85l75 -242l99 72z" />
    <glyph glyph-name="y" unicode="y" horiz-adv-x="412" 
d="M80 -236l-81 1l16 65h79l110 187l-54 -13l-55 435l-98 -38l-2 5l155 69l4 -3l54 -447l181 341l-68 78l55 31l31 -34l-3 -80l-186 -350z" />
    <glyph glyph-name="z" unicode="z" horiz-adv-x="377" 
d="M364 104l-51 -111l-277 34l-35 -32l-6 5l323 388l-215 31l-29 -57l-4 2l41 111l250 -33l29 26l7 -3l-319 -386l248 -28l33 55z" />
    <glyph glyph-name="braceleft" unicode="{" horiz-adv-x="299" 
d="M152 -230q-47 0 -74.5 28.5t-27.5 78.5q0 15 3 33l50 287l-58 42l1 5q32 11 50 31.5t25.5 45t14.5 62.5l34 192q11 63 50.5 101.5t90.5 38.5h48l-1 -5h-52q-30 0 -53.5 -26t-33.5 -84l-38 -216q-7 -40 -29.5 -73.5t-66.5 -53.5l66 -45l-58 -327q-4 -28 -4 -37
q0 -38 17 -55.5t43 -17.5h52l-1 -5h-48z" />
    <glyph glyph-name="bar" unicode="|" horiz-adv-x="370" 
d="M111 -245h-20l170 963h20z" />
    <glyph glyph-name="braceright" unicode="}" horiz-adv-x="300" 
d="M-56 -230l1 5h52q29 0 52.5 25.5t33.5 84.5l40 226q7 40 30 74.5t67 54.5l-67 43l56 317q4 19 4 38q0 38 -16.5 55t-42.5 17h-52l1 5h48q47 0 74.5 -28.5t27.5 -78.5q0 -15 -3 -33l-49 -277l59 -42l-1 -5q-46 -15 -63.5 -48.5t-27.5 -90.5l-35 -202q-11 -63 -50.5 -101.5
t-90.5 -38.5h-48z" />
    <glyph glyph-name="asciitilde" unicode="~" horiz-adv-x="653" 
d="M45 202h-5l53 80l95 12l378 -53l57 74h5l-52 -75l-96 -17l-376 57z" />
    <glyph glyph-name="uni00A0" unicode="&#xa0;" horiz-adv-x="240" 
 />
    <glyph glyph-name="exclamdown" unicode="&#xa1;" horiz-adv-x="227" 
d="M188 395l-49 -3l-19 3l4 37l11 33l50 4l17 -4l-2 -39zM80 -245h-75l61 317l61 204h15l-11 -203z" />
    <glyph glyph-name="cent" unicode="&#xa2;" horiz-adv-x="401" 
d="M286.5 66.5q45.5 26.5 67.5 41.5l4 -5q-31 -23 -103 -73q-6 -5 -11 -8t-9 -6l-36 -25l-12 -71h-10l12 65q-34 1 -68.5 23.5t-57.5 65t-23 100.5q0 91 50.5 159t153.5 116l29 14l14 77h10l-12 -72l14 7q17 -2 41.5 -13t45.5 -24l-34 -51q-40 28 -112 55
q-75 -39 -107.5 -98t-32.5 -126q0 -83 33.5 -129.5t83.5 -60.5q24 12 69.5 38.5z" />
    <glyph glyph-name="sterling" unicode="&#xa3;" horiz-adv-x="525" 
d="M407 10l82 145h5l-27 -155h-457l1 5l94 10l61 348h-92l1 5h92l20 112q11 64 33.5 105.5t65 70.5t116.5 51l26 8q46 -13 82 -42l-37 -49q-36 27 -58 39.5t-57 24.5q-39 -16 -64 -47.5t-37 -100.5l-30 -172h186l-1 -5h-186l-39 -220q-8 -46 -15 -69.5t-16 -36.5t-27 -27
h278z" />
    <glyph glyph-name="currency" unicode="&#xa4;" 
d="M96 138l-11 14l81 69q-13 20 -20 46.5t-7 53.5q0 98 68 162l-61 75l17 14l61 -75q31 24 67.5 37.5t73.5 13.5t72.5 -13.5t57.5 -35.5l86 73l11 -14l-85 -72q16 -20 25 -49t9 -59q0 -91 -71 -159l56 -67l-17 -14l-55 67q-67 -53 -144 -53q-40 0 -75 14.5t-58 40.5z
M412 198.5q48 28.5 78 76.5t30 103q0 67 -44.5 110t-115.5 43q-52 0 -98.5 -29t-74.5 -76.5t-28 -101.5q0 -68 42.5 -111t111.5 -43q51 0 99 28.5z" />
    <glyph glyph-name="yen" unicode="&#xa5;" horiz-adv-x="574" 
d="M479 700h170v-5l-60 -5l-236 -392l-4 -25h110l-1 -5h-110l-13 -89h107l-1 -5h-107l-25 -164l89 -5v-5h-245v5l90 5l25 164h-108l1 5h107l14 89h-105l1 5h105l2 16l-141 401l-69 5v5h234v-5l-90 -5l127 -378l224 378l-91 5v5z" />
    <glyph glyph-name="brokenbar" unicode="&#xa6;" horiz-adv-x="370" 
d="M205 288h-20l76 430h20zM111 -245h-20l76 430h20z" />
    <glyph glyph-name="section" unicode="&#xa7;" horiz-adv-x="551" 
d="M109 -245q-25 12 -64.5 37t-59.5 41l55 47q32 -26 62.5 -45.5t86.5 -48.5q65 22 97.5 56t32.5 71q0 31 -6.5 50.5t-23 39t-52.5 53.5q-66 66 -97.5 102.5t-42.5 61t-11 52.5q0 40 35 79t102 64q-26 26 -37.5 50.5t-11.5 56.5q0 31 17 65.5t52.5 63t85.5 41.5l88 23
q19 -3 46 -15t53 -29l-47 -53q-64 45 -141 69q-54 -17 -76.5 -44.5t-22.5 -69.5q0 -70 51 -121l189 -189v-45q0 -53 -40 -96.5t-108 -57.5q34 -37 48 -64t14 -62q0 -101 -133 -141zM384 116.5q21 34.5 21 69.5v44l-89 92l-89 89q-40 -13 -61.5 -39t-21.5 -60q0 -41 13.5 -66
t45.5 -59l116 -120q44 15 65 49.5z" />
    <glyph glyph-name="dieresis" unicode="&#xa8;" horiz-adv-x="600" 
d="M178 595l-19 -4l-45 4v39l15 32l20 4l43 -4v-38zM338 595l-18 -4l-46 4v39l16 32l20 4l42 -4v-38z" />
    <glyph glyph-name="copyright" unicode="&#xa9;" horiz-adv-x="832" 
d="M253.5 30.5q-83.5 44.5 -133.5 128.5t-50 197q0 153 97.5 243.5t267.5 115.5q100 -1 183.5 -45.5t133.5 -128.5t50 -197q0 -153 -97.5 -243.5t-267.5 -115.5q-100 1 -183.5 45.5zM594.5 41.5q73.5 41.5 117.5 119.5t44 183q0 114 -50.5 194.5t-124.5 121t-144 40.5
q-86 0 -159.5 -41.5t-117.5 -120t-44 -182.5q0 -114 50.5 -194.5t124.5 -121t144 -40.5q86 0 159.5 41.5zM339.5 163.5q-49.5 23.5 -79.5 69.5t-30 109q0 95 60.5 151.5t164.5 65.5q81 0 144 -30v-95h-6l-40 80q-20 18 -42 27.5t-55 9.5q-65 0 -107.5 -52t-42.5 -148
q0 -87 39.5 -144t116.5 -57q27 0 51 10t40 26l40 86h6v-96q-38 -15 -72 -23.5t-79 -12.5q-59 0 -108.5 23.5z" />
    <glyph glyph-name="ordfeminine" unicode="&#xaa;" horiz-adv-x="407" 
d="M131 313q-83 40 -83 137q0 73 43.5 135.5t116.5 96.5l53 24q18 0 47.5 -9t45.5 -20l-59 -338l80 58l3 -3l-97 -81l-39 21l18 99zM261 440l36 209q-20 12 -45 19.5t-44 7.5q-53 -29 -80.5 -78.5t-27.5 -110.5q0 -87 63 -130z" />
    <glyph glyph-name="guillemotleft" unicode="&#xab;" horiz-adv-x="436" 
d="M183 15h-6l-142 220l221 220h5l-171 -220zM353 15h-6l-142 220l221 220h5l-171 -220z" />
    <glyph glyph-name="logicalnot" unicode="&#xac;" 
d="M567 179h-20v156h-495v20h515v-176z" />
    <glyph glyph-name="uni00AD" unicode="&#xad;" horiz-adv-x="375" 
d="M345 267h-305l5 20h305z" />
    <glyph glyph-name="registered" unicode="&#xae;" horiz-adv-x="582" 
d="M451.5 654q57.5 -30 91.5 -87.5t34 -135.5q0 -105 -66.5 -167t-183.5 -79q-68 1 -126 31.5t-92 88t-34 134.5q0 105 66.5 167t183.5 79q69 -1 126.5 -31zM429 225.5q48 28.5 77 81.5t29 124q0 78 -33 132.5t-81.5 82t-93.5 27.5q-56 0 -104 -28.5t-77 -81.5t-29 -124
q0 -77 33 -132t81.5 -82.5t93.5 -27.5q56 0 104 28.5zM367 420l74 -112l21 -2v-4h-68l-83 129h-31v-123l32 -2v-4h-110v4l33 2v258l-33 2v4h135q37 0 62.5 -16t25.5 -50t-30.5 -52t-82.5 -23zM304 436q34 0 52.5 18t18.5 49q0 30 -16.5 47.5t-41.5 17.5l-37 -2v-130h24z" />
    <glyph glyph-name="macron" unicode="&#xaf;" horiz-adv-x="600" 
d="M474 606h-280l4 24h280z" />
    <glyph glyph-name="degree" unicode="&#xb0;" horiz-adv-x="372" 
d="M187.5 467q-35.5 21 -56.5 56.5t-21 76.5q0 60 38 94.5t116 58.5q41 0 76.5 -20.5t56 -56t20.5 -76.5q0 -63 -36 -99.5t-117 -54.5q-41 0 -76.5 21zM358 500.5q36 41.5 36 99.5q0 37 -18 69t-48 51.5t-64 19.5q-58 0 -94.5 -41t-36.5 -99q0 -37 18 -69.5t48.5 -52
t64.5 -19.5q58 0 94 41.5z" />
    <glyph glyph-name="plusminus" unicode="&#xb1;" 
d="M314 141h-20v243h-247v20h247v252h20v-252h248v-20h-248v-243zM572 0h-525v20h525v-20z" />
    <glyph glyph-name="uni00B2" unicode="&#xb2;" horiz-adv-x="348" 
d="M69 400l-2 6l125 103q64 53 92.5 96.5t28.5 90.5q0 35 -16 56.5t-46 26.5l-36 -9l-39 -82h-30l3 68l125 38q48 0 73.5 -24.5t25.5 -60.5q0 -50 -36 -91.5t-109 -94.5l-103 -74h229v-8l-19 -41h-266z" />
    <glyph glyph-name="uni00B3" unicode="&#xb3;" horiz-adv-x="316" 
d="M77 397l9 52h133q26 18 37.5 37t11.5 43q0 30 -24.5 51.5t-75.5 22.5l-2 6l37 19q41 21 61 44t20 52q0 21 -13.5 36.5t-35.5 17.5l-36 -9l-37 -78h-29l3 65l124 38q38 0 59.5 -17t21.5 -42q0 -35 -32.5 -61.5t-85.5 -40.5q50 -4 77 -25t27 -56q0 -31 -19 -53t-44.5 -36
t-67.5 -32l-79 -34h-40z" />
    <glyph glyph-name="acute" unicode="&#xb4;" horiz-adv-x="600" 
d="M248 542h-5l111 168h72z" />
    <glyph glyph-name="uni00B5" unicode="&#xb5;" 
d="M30 -230l124 690h56l-65 -365q-2 -16 -2 -21q0 -42 40 -42q23 0 45.5 10.5t67.5 41.5l40 28l61 348h57l-78 -446l104 69l3 -3l-130 -95l-34 25l16 94l-163 -119q-72 0 -86 47l-11 -62l40 -200h-85z" />
    <glyph glyph-name="paragraph" unicode="&#xb6;" horiz-adv-x="495" 
d="M227 410q-55 0 -90 29t-35 78q0 33 15.5 60t52 56t104.5 67h240l-1 -5l-51 -5l-135 -849h-20l135 849h-150l-135 -849h-20z" />
    <glyph glyph-name="periodcentered" unicode="&#xb7;" horiz-adv-x="410" 
d="M282 361l-61 -4l-21 4l4 47l14 38l60 4l22 -4l-4 -44z" />
    <glyph glyph-name="cedilla" unicode="&#xb8;" horiz-adv-x="600" 
d="M156 -240l26 30h74q23 12 35.5 28t12.5 41q0 56 -60 61l65 80h6l-41 -50q32 -3 50.5 -20t18.5 -46q0 -38 -27.5 -62t-63.5 -36l-73 -26h-23z" />
    <glyph glyph-name="uni00B9" unicode="&#xb9;" horiz-adv-x="324" 
d="M82 400l1 6l99 4l60 345l-105 -34l-1 6l158 61h8l-65 -378l91 -4l-1 -6h-245z" />
    <glyph glyph-name="ordmasculine" unicode="&#xba;" horiz-adv-x="399" 
d="M168 313q-31 0 -57.5 18t-43 52.5t-16.5 82.5q0 73 37 131t105 87l52 22q49 0 83 -38.5t34 -109.5q0 -73 -37 -133t-104 -89zM281.5 414q25.5 61 25.5 127q0 72 -25 104t-71 40q-55 -19 -79.5 -77.5t-24.5 -124.5q0 -70 26 -105.5t68 -43.5q55 19 80.5 80z" />
    <glyph glyph-name="guillemotright" unicode="&#xbb;" horiz-adv-x="436" 
d="M13 15h-6l171 220l-93 220h5l143 -220zM183 15h-6l171 220l-93 220h5l143 -220z" />
    <glyph glyph-name="onequarter" unicode="&#xbc;" horiz-adv-x="831" 
d="M69 315l1 6l99 4l60 345l-105 -34l-1 6l158 61h8l-65 -378l91 -4l-1 -6h-245zM171 -50h-26l520 760h24zM686 0h-55l21 121h-162l-4 9l221 255h71l-1 -6l-279 -248h156l16 92l55 32h6l-22 -124h79l-1 -10h-80z" />
    <glyph glyph-name="onehalf" unicode="&#xbd;" horiz-adv-x="816" 
d="M69 315l1 6l99 4l60 345l-105 -34l-1 6l158 61h8l-65 -378l91 -4l-1 -6h-245zM171 -50h-26l520 760h24zM474 0l-2 6l125 103q64 53 92.5 96.5t28.5 90.5q0 35 -16 56.5t-46 26.5l-36 -9l-39 -82h-30l3 68l125 38q48 0 73.5 -24.5t25.5 -60.5q0 -50 -36 -91.5t-109 -94.5
l-103 -74h229v-8l-19 -41h-266z" />
    <glyph glyph-name="threequarters" unicode="&#xbe;" horiz-adv-x="803" 
d="M64 312l9 52h133q26 18 37.5 37t11.5 43q0 30 -24.5 51.5t-75.5 22.5l-2 6l37 19q41 21 61 44t20 52q0 21 -13.5 36.5t-35.5 17.5l-36 -9l-37 -78h-29l3 65l124 38q38 0 59.5 -17t21.5 -42q0 -35 -32.5 -61.5t-85.5 -40.5q50 -4 77 -25t27 -56q0 -31 -19 -53t-44.5 -36
t-67.5 -32l-79 -34h-40zM143 -50h-26l520 760h24zM658 0h-55l21 121h-162l-4 9l221 255h71l-1 -6l-279 -248h156l16 92l55 32h6l-22 -124h79l-1 -10h-80z" />
    <glyph glyph-name="questiondown" unicode="&#xbf;" horiz-adv-x="356" 
d="M322 395l-49 -3l-19 3l4 37l11 33l50 4l17 -4l-2 -39zM169 -245q-97 0 -135.5 43t-38.5 103q0 103 140 169l81 38l50 157h15l-25 -140l-49 -30q-71 -44 -109 -95.5t-38 -116.5q0 -56 25.5 -87t84.5 -35l49 109h53l-18 -100z" />
    <glyph glyph-name="Agrave" unicode="&#xc0;" horiz-adv-x="671" 
d="M490 706l54 -696l89 -5l-1 -5h-245l1 5l90 5l-18 243h-248l-135 -243l89 -5l-1 -5h-199l1 5l90 5l382 683zM430 645l-212 -382h241zM498 741h-5l-100 109h65z" />
    <glyph glyph-name="Aacute" unicode="&#xc1;" horiz-adv-x="671" 
d="M490 706l54 -696l89 -5l-1 -5h-245l1 5l90 5l-18 243h-248l-135 -243l89 -5l-1 -5h-199l1 5l90 5l382 683zM430 645l-212 -382h241zM470 741h-5l85 109h68z" />
    <glyph glyph-name="Acircumflex" unicode="&#xc2;" horiz-adv-x="671" 
d="M490 706l54 -696l89 -5l-1 -5h-245l1 5l90 5l-18 243h-248l-135 -243l89 -5l-1 -5h-199l1 5l90 5l382 683zM430 645l-212 -382h241zM364 741h-5l152 119h4l85 -119h-5l-93 63h-2z" />
    <glyph glyph-name="Atilde" unicode="&#xc3;" horiz-adv-x="671" 
d="M490 706l54 -696l89 -5l-1 -5h-245l1 5l90 5l-18 243h-248l-135 -243l89 -5l-1 -5h-199l1 5l90 5l382 683zM430 645l-212 -382h241zM326 745h-5l45 85l65 20l151 -83l50 81h5l-47 -85l-65 -20l-151 84z" />
    <glyph glyph-name="Adieresis" unicode="&#xc4;" horiz-adv-x="671" 
d="M490 706l54 -696l89 -5l-1 -5h-245l1 5l90 5l-18 243h-248l-135 -243l89 -5l-1 -5h-199l1 5l90 5l382 683zM430 645l-212 -382h241zM426 775l-19 -4l-45 4v39l15 32l20 4l43 -4v-38zM586 775l-18 -4l-46 4v39l16 32l20 4l42 -4v-38z" />
    <glyph glyph-name="Aring" unicode="&#xc5;" horiz-adv-x="671" 
d="M490 706l54 -696l89 -5l-1 -5h-245l1 5l90 5l-18 243h-248l-135 -243l89 -5l-1 -5h-199l1 5l90 5l382 683zM430 645l-212 -382h241zM421.5 734.5q-22.5 16.5 -22.5 49.5q0 21 10 33.5t23 18t43 16.5q32 0 55 -16t23 -49q0 -21 -10 -33.5t-22.5 -18t-45.5 -17.5
q-31 0 -53.5 16.5zM512 748.5q15 14.5 15 36.5t-15 37t-37 15t-36.5 -15t-14.5 -37t14.5 -36.5t36.5 -14.5t37 14.5z" />
    <glyph glyph-name="AE" unicode="&#xc6;" horiz-adv-x="868" 
d="M-26 0l1 5l90 5l433 690h400l-28 -176h-5l-35 166h-262l-52 -347h142l58 114h5l-19 -118l-19 -119h-5l-22 113h-142l-48 -323h266l88 170h5l-29 -180h-487l1 5l90 5l48 323h-164l-199 -323l89 -5l-1 -5h-199zM501 685l-211 -342h160z" />
    <glyph glyph-name="Ccedilla" unicode="&#xc7;" horiz-adv-x="577" 
d="M388 715q64 0 115.5 -17.5t83.5 -41.5l-5 -154h-6l-39 121q-72 56 -183 68q-108 -38 -168.5 -139t-60.5 -232q0 -150 57 -228t157 -92q32 13 78 36t60 34l77 131h6l-34 -151l-208 -68l-26 -32q32 -3 50.5 -20t18.5 -46q0 -38 -27.5 -62t-63.5 -36l-73 -26h-23l26 30h74
q23 12 35.5 28t12.5 41q0 56 -60 61l50 62q-74 1 -133.5 40t-94 106t-34.5 152q0 83 28.5 162t88.5 143.5t149 100.5z" />
    <glyph glyph-name="Egrave" unicode="&#xc8;" horiz-adv-x="548" 
d="M-11 0l1 5l90 5l102 680l-84 5l1 5h479l-28 -176h-5l-35 166h-262l-48 -319h142l58 114h5l-19 -118l-19 -119h-5l-22 113h-141l-53 -351h266l88 170h5l-29 -180h-487zM414 741h-5l-100 109h65z" />
    <glyph glyph-name="Eacute" unicode="&#xc9;" horiz-adv-x="548" 
d="M-11 0l1 5l90 5l102 680l-84 5l1 5h479l-28 -176h-5l-35 166h-262l-48 -319h142l58 114h5l-19 -118l-19 -119h-5l-22 113h-141l-53 -351h266l88 170h5l-29 -180h-487zM386 741h-5l85 109h68z" />
    <glyph glyph-name="Ecircumflex" unicode="&#xca;" horiz-adv-x="548" 
d="M-11 0l1 5l90 5l102 680l-84 5l1 5h479l-28 -176h-5l-35 166h-262l-48 -319h142l58 114h5l-19 -118l-19 -119h-5l-22 113h-141l-53 -351h266l88 170h5l-29 -180h-487zM280 741h-5l152 119h4l85 -119h-5l-93 63h-2z" />
    <glyph glyph-name="Edieresis" unicode="&#xcb;" horiz-adv-x="548" 
d="M-11 0l1 5l90 5l102 680l-84 5l1 5h479l-28 -176h-5l-35 166h-262l-48 -319h142l58 114h5l-19 -118l-19 -119h-5l-22 113h-141l-53 -351h266l88 170h5l-29 -180h-487zM342 775l-19 -4l-45 4v39l15 32l20 4l43 -4v-38zM502 775l-18 -4l-46 4v39l16 32l20 4l42 -4v-38z" />
    <glyph glyph-name="Igrave" unicode="&#xcc;" horiz-adv-x="283" 
d="M-11 0l1 5l90 5l102 680l-84 5l1 5h235l-1 -5l-85 -5l-102 -680l89 -5l-1 -5h-245zM253 741h-5l-100 109h65z" />
    <glyph glyph-name="Iacute" unicode="&#xcd;" horiz-adv-x="283" 
d="M-11 0l1 5l90 5l102 680l-84 5l1 5h235l-1 -5l-85 -5l-102 -680l89 -5l-1 -5h-245zM225 741h-5l85 109h68z" />
    <glyph glyph-name="Icircumflex" unicode="&#xce;" horiz-adv-x="283" 
d="M-11 0l1 5l90 5l102 680l-84 5l1 5h235l-1 -5l-85 -5l-102 -680l89 -5l-1 -5h-245zM119 741h-5l152 119h4l85 -119h-5l-93 63h-2z" />
    <glyph glyph-name="Idieresis" unicode="&#xcf;" horiz-adv-x="283" 
d="M-11 0l1 5l90 5l102 680l-84 5l1 5h235l-1 -5l-85 -5l-102 -680l89 -5l-1 -5h-245zM186 786l-19 -4l-45 4v39l15 32l20 4l43 -4v-38zM326 786l-18 -4l-46 4v39l16 32l20 4l42 -4v-38z" />
    <glyph glyph-name="Eth" unicode="&#xd0;" horiz-adv-x="629" 
d="M487 662.5q63 -37.5 100 -102.5t37 -145q0 -81 -27.5 -159t-86.5 -140t-149 -91l-78 -25h-294l1 5l90 5l53 353h-95l1 5h95l48 322l-84 5l1 5h248q77 0 140 -37.5zM318 16q106 51 168.5 158.5t62.5 240.5q0 88 -26.5 150t-73.5 93.5t-109 31.5h-92l-48 -322h144l-1 -5
h-144l-52 -347h171z" />
    <glyph glyph-name="Ntilde" unicode="&#xd1;" horiz-adv-x="667" 
d="M532 700h196l-1 -5l-90 -5l-111 -690h-31l-292 677l-106 -667l89 -5l-1 -5h-196l1 5l90 5l109 680l-84 5l1 5h161l259 -601l94 591l-89 5zM302 745h-5l45 85l65 20l151 -83l50 81h5l-47 -85l-65 -20l-151 84z" />
    <glyph glyph-name="Ograve" unicode="&#xd2;" horiz-adv-x="640" 
d="M302 -18q-69 0 -126.5 37.5t-91.5 104.5t-34 151q0 86 27.5 170t86.5 150.5t150 96.5l70 23q69 0 126.5 -37t91 -103t33.5 -150q0 -86 -27.5 -169t-86.5 -150t-149 -99zM448.5 79q52.5 61 82 147.5t29.5 178.5q0 136 -56 209t-147 83q-67 -15 -120 -75.5t-82.5 -147.5
t-29.5 -179q0 -136 56.5 -210t147.5 -84q67 17 119.5 78zM430 741h-5l-100 109h65z" />
    <glyph glyph-name="Oacute" unicode="&#xd3;" horiz-adv-x="640" 
d="M302 -18q-69 0 -126.5 37.5t-91.5 104.5t-34 151q0 86 27.5 170t86.5 150.5t150 96.5l70 23q69 0 126.5 -37t91 -103t33.5 -150q0 -86 -27.5 -169t-86.5 -150t-149 -99zM448.5 79q52.5 61 82 147.5t29.5 178.5q0 136 -56 209t-147 83q-67 -15 -120 -75.5t-82.5 -147.5
t-29.5 -179q0 -136 56.5 -210t147.5 -84q67 17 119.5 78zM402 741h-5l85 109h68z" />
    <glyph glyph-name="Ocircumflex" unicode="&#xd4;" horiz-adv-x="640" 
d="M302 -18q-69 0 -126.5 37.5t-91.5 104.5t-34 151q0 86 27.5 170t86.5 150.5t150 96.5l70 23q69 0 126.5 -37t91 -103t33.5 -150q0 -86 -27.5 -169t-86.5 -150t-149 -99zM448.5 79q52.5 61 82 147.5t29.5 178.5q0 136 -56 209t-147 83q-67 -15 -120 -75.5t-82.5 -147.5
t-29.5 -179q0 -136 56.5 -210t147.5 -84q67 17 119.5 78zM296 741h-5l152 119h4l85 -119h-5l-93 63h-2z" />
    <glyph glyph-name="Otilde" unicode="&#xd5;" horiz-adv-x="640" 
d="M302 -18q-69 0 -126.5 37.5t-91.5 104.5t-34 151q0 86 27.5 170t86.5 150.5t150 96.5l70 23q69 0 126.5 -37t91 -103t33.5 -150q0 -86 -27.5 -169t-86.5 -150t-149 -99zM448.5 79q52.5 61 82 147.5t29.5 178.5q0 136 -56 209t-147 83q-67 -15 -120 -75.5t-82.5 -147.5
t-29.5 -179q0 -136 56.5 -210t147.5 -84q67 17 119.5 78zM258 745h-5l45 85l65 20l151 -83l50 81h5l-47 -85l-65 -20l-151 84z" />
    <glyph glyph-name="Odieresis" unicode="&#xd6;" horiz-adv-x="640" 
d="M302 -18q-69 0 -126.5 37.5t-91.5 104.5t-34 151q0 86 27.5 170t86.5 150.5t150 96.5l70 23q69 0 126.5 -37t91 -103t33.5 -150q0 -86 -27.5 -169t-86.5 -150t-149 -99zM448.5 79q52.5 61 82 147.5t29.5 178.5q0 136 -56 209t-147 83q-67 -15 -120 -75.5t-82.5 -147.5
t-29.5 -179q0 -136 56.5 -210t147.5 -84q67 17 119.5 78zM358 775l-19 -4l-45 4v39l15 32l20 4l43 -4v-38zM518 775l-18 -4l-46 4v39l16 32l20 4l42 -4v-38z" />
    <glyph glyph-name="multiply" unicode="&#xd7;" 
d="M310 215l-183 -183l-14 14l182 183l-182 183l14 14l183 -183l181 182l14 -14l-181 -182l183 -182l-14 -14z" />
    <glyph glyph-name="Oslash" unicode="&#xd8;" horiz-adv-x="640" 
d="M649 710l-77 -88q30 -38 46.5 -88.5t16.5 -108.5q0 -86 -27.5 -169t-86.5 -150t-149 -99l-70 -25q-60 0 -111 28t-86 79l-91 -104h-7l95 108q-52 77 -52 182q0 86 27.5 170t86.5 150.5t150 96.5l70 23q55 0 103 -23.5t82 -66.5l75 85h5zM149 146l378 430q-26 55 -70 85
t-100 36q-67 -15 -120 -75.5t-82.5 -147.5t-29.5 -179q0 -83 24 -149zM528 572l-377 -431q25 -63 71.5 -98.5t106.5 -41.5q67 17 119.5 78t82 147.5t29.5 178.5q0 101 -32 167z" />
    <glyph glyph-name="Ugrave" unicode="&#xd9;" horiz-adv-x="605" 
d="M273 -16q-189 0 -189 169q0 29 4 56l72 481l-84 5l1 5h235l-1 -5l-85 -5l-70 -465q-4 -23 -4 -49q0 -77 43.5 -119.5t133.5 -42.5q48 19 79.5 44t53.5 67.5t33 110.5l74 454l-89 5l1 5h196l-1 -5l-90 -5l-73 -453q-16 -95 -54 -150t-125 -83zM443 741h-5l-100 109h65z
" />
    <glyph glyph-name="Uacute" unicode="&#xda;" horiz-adv-x="605" 
d="M273 -16q-189 0 -189 169q0 29 4 56l72 481l-84 5l1 5h235l-1 -5l-85 -5l-70 -465q-4 -23 -4 -49q0 -77 43.5 -119.5t133.5 -42.5q48 19 79.5 44t53.5 67.5t33 110.5l74 454l-89 5l1 5h196l-1 -5l-90 -5l-73 -453q-16 -95 -54 -150t-125 -83zM415 741h-5l85 109h68z" />
    <glyph glyph-name="Ucircumflex" unicode="&#xdb;" horiz-adv-x="605" 
d="M273 -16q-189 0 -189 169q0 29 4 56l72 481l-84 5l1 5h235l-1 -5l-85 -5l-70 -465q-4 -23 -4 -49q0 -77 43.5 -119.5t133.5 -42.5q48 19 79.5 44t53.5 67.5t33 110.5l74 454l-89 5l1 5h196l-1 -5l-90 -5l-73 -453q-16 -95 -54 -150t-125 -83zM309 741h-5l152 119h4
l85 -119h-5l-93 63h-2z" />
    <glyph glyph-name="Udieresis" unicode="&#xdc;" horiz-adv-x="605" 
d="M273 -16q-189 0 -189 169q0 29 4 56l72 481l-84 5l1 5h235l-1 -5l-85 -5l-70 -465q-4 -23 -4 -49q0 -77 43.5 -119.5t133.5 -42.5q48 19 79.5 44t53.5 67.5t33 110.5l74 454l-89 5l1 5h196l-1 -5l-90 -5l-73 -453q-16 -95 -54 -150t-125 -83zM371 775l-19 -4l-45 4v39
l15 32l20 4l43 -4v-38zM531 775l-18 -4l-46 4v39l16 32l20 4l42 -4v-38z" />
    <glyph glyph-name="Yacute" unicode="&#xdd;" horiz-adv-x="594" 
d="M160 0l1 5l90 5l42 279l-150 401l-69 5l1 5h234l-1 -5l-90 -5l136 -378l234 378l-91 5l1 5h170l-1 -5l-60 -5l-246 -392l-44 -288l89 -5l-1 -5h-245zM407 741h-5l85 109h68z" />
    <glyph glyph-name="Thorn" unicode="&#xde;" horiz-adv-x="511" 
d="M-10 5l90 5l102 680l-84 5l1 5h235l-1 -5l-85 -5l-21 -141h137q84 0 130.5 -41.5t46.5 -106.5q0 -71 -44 -122t-141 -84l-73 -25h-113l-24 -160l123 -5l-1 -5h-279zM311 185q69 30 112 74.5t43 126.5q0 73 -36 113t-111 40h-94l-53 -354h139z" />
    <glyph glyph-name="germandbls" unicode="&#xdf;" horiz-adv-x="459" 
d="M-125 -235l12 60h118q10 21 16.5 44t12.5 61l90 525h-63l1 5h63l2 10q16 79 35 119.5t53 61.5l102 64q58 -2 92.5 -23.5t34.5 -83.5q0 -83 -108 -152l-54 -35q-10 -22 -10 -49q0 -26 13.5 -46.5t55.5 -60.5q41 -39 61.5 -64.5t27 -44t6.5 -41.5q0 -71 -95 -100l-100 -30
q-18 9 -45.5 26.5t-42.5 29.5l46 44q26 -21 51 -37.5t63 -35.5q33 10 50.5 32t17.5 47q0 32 -16.5 59.5t-61.5 67.5q-47 43 -63.5 70.5t-16.5 56.5q0 21 8 37l76 64q77 64 77 145q0 53 -27.5 76t-59.5 23q-52 -28 -71.5 -62.5t-28.5 -81.5l-101 -583q-16 -93 -79 -134
l-97 -64h-45z" />
    <glyph glyph-name="agrave" unicode="&#xe0;" horiz-adv-x="439" 
d="M135 -15q-100 49 -100 170q0 91 52.5 170t142.5 121l62 29q20 0 56 -12t54 -24l-75 -425l99 74l3 -3l-117 -100l-42 25l23 126zM294 143l46 261q-26 15 -57 25.5t-55 10.5q-68 -38 -103 -101t-35 -142q0 -109 79 -163zM299 542h-5l-107 168h72z" />
    <glyph glyph-name="aacute" unicode="&#xe1;" horiz-adv-x="439" 
d="M135 -15q-100 49 -100 170q0 91 52.5 170t142.5 121l62 29q20 0 56 -12t54 -24l-75 -425l99 74l3 -3l-117 -100l-42 25l23 126zM294 143l46 261q-26 15 -57 25.5t-55 10.5q-68 -38 -103 -101t-35 -142q0 -109 79 -163zM268 542h-5l111 168h72z" />
    <glyph glyph-name="acircumflex" unicode="&#xe2;" horiz-adv-x="439" 
d="M135 -15q-100 49 -100 170q0 91 52.5 170t142.5 121l62 29q20 0 56 -12t54 -24l-75 -425l99 74l3 -3l-117 -100l-42 25l23 126zM294 143l46 261q-26 15 -57 25.5t-55 10.5q-68 -38 -103 -101t-35 -142q0 -109 79 -163zM167 542h-5l153 168h4l85 -168h-5l-93 98h-2z" />
    <glyph glyph-name="atilde" unicode="&#xe3;" horiz-adv-x="439" 
d="M135 -15q-100 49 -100 170q0 91 52.5 170t142.5 121l62 29q20 0 56 -12t54 -24l-75 -425l99 74l3 -3l-117 -100l-42 25l23 126zM294 143l46 261q-26 15 -57 25.5t-55 10.5q-68 -38 -103 -101t-35 -142q0 -109 79 -163zM408 595l-63 -17l-132 88l-48 -91h-5l45 95l63 17
l132 -87l50 90h5z" />
    <glyph glyph-name="adieresis" unicode="&#xe4;" horiz-adv-x="439" 
d="M135 -15q-100 49 -100 170q0 91 52.5 170t142.5 121l62 29q20 0 56 -12t54 -24l-75 -425l99 74l3 -3l-117 -100l-42 25l23 126zM294 143l46 261q-26 15 -57 25.5t-55 10.5q-68 -38 -103 -101t-35 -142q0 -109 79 -163zM250 595l-19 -4l-45 4v39l15 32l20 4l43 -4v-38z
M410 595l-18 -4l-46 4v39l16 32l20 4l42 -4v-38z" />
    <glyph glyph-name="aring" unicode="&#xe5;" horiz-adv-x="439" 
d="M135 -15q-100 49 -100 170q0 91 52.5 170t142.5 121l62 29q20 0 56 -12t54 -24l-75 -425l99 74l3 -3l-117 -100l-42 25l23 126zM294 143l46 261q-26 15 -57 25.5t-55 10.5q-68 -38 -103 -101t-35 -142q0 -109 79 -163zM235.5 559q-28.5 23 -28.5 68q0 29 12.5 46t30 25.5
t56.5 23.5q41 0 69.5 -22.5t28.5 -68.5q0 -29 -12.5 -46t-30 -25.5t-56.5 -23.5q-41 0 -69.5 23zM358.5 571q20.5 23 20.5 68q0 30 -19.5 50.5t-51.5 20.5q-35 0 -55.5 -23t-20.5 -68q0 -30 19.5 -50.5t51.5 -20.5q35 0 55.5 23z" />
    <glyph glyph-name="ae" unicode="&#xe6;" horiz-adv-x="623" 
d="M583 301l-264 -80q1 -77 31 -124.5t92 -69.5q99 58 125 77l5 -6q-57 -43 -118 -83l-46 -30q-48 6 -88.5 42.5t-53.5 96.5l-131 -139q-100 49 -100 170q0 91 52.5 170t142.5 121l62 29q29 0 65.5 -13t60.5 -34l107 46q37 -8 57.5 -31t20.5 -68q0 -38 -20 -74zM521 292
q16 31 16 71q0 36 -16 56t-47 28q-72 -35 -113.5 -93.5t-41.5 -127.5zM265 129q-4 19 -4 45q0 62 25 117t72 96q-30 25 -64 39t-66 14q-68 -38 -103 -101t-35 -142q0 -109 79 -163z" />
    <glyph glyph-name="ccedilla" unicode="&#xe7;" horiz-adv-x="391" 
d="M286.5 66.5q45.5 26.5 67.5 41.5l4 -5q-31 -23 -103 -73q-6 -5 -11 -8t-9 -6l-41 -28l-31 -38q32 -3 50.5 -20t18.5 -46q0 -38 -27.5 -62t-63.5 -36l-73 -26h-23l26 30h74q23 12 35.5 28t12.5 41q0 56 -60 61l53 65q-34 2 -67.5 25t-56 65t-22.5 99q0 91 50.5 159
t153.5 116l55 26q17 -2 41.5 -13t45.5 -24l-34 -51q-40 28 -112 55q-75 -39 -107.5 -98t-32.5 -126q0 -83 33.5 -129.5t83.5 -60.5q24 12 69.5 38.5z" />
    <glyph glyph-name="egrave" unicode="&#xe8;" horiz-adv-x="402" 
d="M362 301l-264 -82q2 -151 123 -192q99 58 125 77l5 -6q-46 -34 -118 -83l-46 -30q-64 9 -105.5 62.5t-41.5 126.5q0 93 54.5 166.5t151.5 110.5l58 23q40 -9 59 -33.5t19 -65.5q0 -37 -20 -74zM300 296q16 31 16 67q0 70 -64 86q-75 -37 -114 -93.5t-40 -129.5zM312 542
h-5l-107 168h72z" />
    <glyph glyph-name="eacute" unicode="&#xe9;" horiz-adv-x="402" 
d="M362 301l-264 -82q2 -151 123 -192q99 58 125 77l5 -6q-46 -34 -118 -83l-46 -30q-64 9 -105.5 62.5t-41.5 126.5q0 93 54.5 166.5t151.5 110.5l58 23q40 -9 59 -33.5t19 -65.5q0 -37 -20 -74zM300 296q16 31 16 67q0 70 -64 86q-75 -37 -114 -93.5t-40 -129.5zM281 542
h-5l111 168h72z" />
    <glyph glyph-name="ecircumflex" unicode="&#xea;" horiz-adv-x="402" 
d="M362 301l-264 -82q2 -151 123 -192q99 58 125 77l5 -6q-46 -34 -118 -83l-46 -30q-64 9 -105.5 62.5t-41.5 126.5q0 93 54.5 166.5t151.5 110.5l58 23q40 -9 59 -33.5t19 -65.5q0 -37 -20 -74zM300 296q16 31 16 67q0 70 -64 86q-75 -37 -114 -93.5t-40 -129.5zM180 542
h-5l153 168h4l85 -168h-5l-93 98h-2z" />
    <glyph glyph-name="edieresis" unicode="&#xeb;" horiz-adv-x="402" 
d="M362 301l-264 -82q2 -151 123 -192q99 58 125 77l5 -6q-46 -34 -118 -83l-46 -30q-64 9 -105.5 62.5t-41.5 126.5q0 93 54.5 166.5t151.5 110.5l58 23q40 -9 59 -33.5t19 -65.5q0 -37 -20 -74zM300 296q16 31 16 67q0 70 -64 86q-75 -37 -114 -93.5t-40 -129.5zM263 595
l-19 -4l-45 4v39l15 32l20 4l43 -4v-38zM423 595l-18 -4l-46 4v39l16 32l20 4l42 -4v-38z" />
    <glyph glyph-name="igrave" unicode="&#xec;" horiz-adv-x="243" 
d="M215 85l-117 -100l-42 25l76 429l-95 -36l-2 5l155 67l4 -3l-81 -460l99 76zM190 542h-5l-107 168h72z" />
    <glyph glyph-name="iacute" unicode="&#xed;" horiz-adv-x="243" 
d="M215 85l-117 -100l-42 25l76 429l-95 -36l-2 5l155 67l4 -3l-81 -460l99 76zM159 542h-5l111 168h72z" />
    <glyph glyph-name="icircumflex" unicode="&#xee;" horiz-adv-x="243" 
d="M215 85l-117 -100l-42 25l76 429l-95 -36l-2 5l155 67l4 -3l-81 -460l99 76zM58 542h-5l153 168h4l85 -168h-5l-93 98h-2z" />
    <glyph glyph-name="idieresis" unicode="&#xef;" horiz-adv-x="243" 
d="M215 85l-117 -100l-42 25l76 429l-95 -36l-2 5l155 67l4 -3l-81 -460l99 76zM161 595l-19 -4l-45 4v39l15 32l20 4l43 -4v-38zM281 595l-18 -4l-46 4v39l16 32l20 4l42 -4v-38z" />
    <glyph glyph-name="eth" unicode="&#xf0;" horiz-adv-x="497" 
d="M356 638q58 -55 89 -132t31 -161q0 -91 -34.5 -174t-95 -134.5t-135.5 -51.5q-92 23 -134 81.5t-42 134.5q0 65 28 128.5t80 104.5t120 41l158 -102q1 9 1 28q0 69 -20 128t-59 103l-155 -69l-1 6l151 67q-51 56 -130 79l3 5q80 -22 141 -78l111 50l1 -6zM297 64
q52 52 84.5 133.5t39.5 167.5l-41 24q-35 21 -59.5 30.5t-51.5 9.5q-55 0 -96 -39t-62.5 -102.5t-21.5 -135.5q0 -73 23 -106.5t70 -33.5q63 0 115 52z" />
    <glyph glyph-name="ntilde" unicode="&#xf1;" horiz-adv-x="479" 
d="M347 -15l-42 25l62 344q2 16 2 23q0 51 -50 51q-20 0 -42.5 -11t-62.5 -38l-41 -28l-62 -351h-56l77 439l-95 -36l-2 5l155 67l4 -3l-20 -114l166 117q45 0 67 -19.5t22 -54.5q0 -6 -2 -22l-65 -365l99 74l3 -3zM428 595l-63 -17l-132 88l-48 -91h-5l45 95l63 17l132 -87
l50 90h5z" />
    <glyph glyph-name="ograve" unicode="&#xf2;" horiz-adv-x="432" 
d="M178 -15q-36 0 -68 22t-51 65t-19 102q0 92 45.5 165t127.5 109l61 27q37 0 68.5 -20.5t50.5 -62t19 -100.5q0 -93 -45.5 -168.5t-127.5 -111.5zM320 111.5q32 77.5 32 161.5q0 90 -31 129t-88 47q-70 -23 -101.5 -97.5t-31.5 -158.5q0 -87 32.5 -131t84.5 -52
q71 24 103 101.5zM295 542h-5l-107 168h72z" />
    <glyph glyph-name="oacute" unicode="&#xf3;" horiz-adv-x="432" 
d="M178 -15q-36 0 -68 22t-51 65t-19 102q0 92 45.5 165t127.5 109l61 27q37 0 68.5 -20.5t50.5 -62t19 -100.5q0 -93 -45.5 -168.5t-127.5 -111.5zM320 111.5q32 77.5 32 161.5q0 90 -31 129t-88 47q-70 -23 -101.5 -97.5t-31.5 -158.5q0 -87 32.5 -131t84.5 -52
q71 24 103 101.5zM264 542h-5l111 168h72z" />
    <glyph glyph-name="ocircumflex" unicode="&#xf4;" horiz-adv-x="432" 
d="M178 -15q-36 0 -68 22t-51 65t-19 102q0 92 45.5 165t127.5 109l61 27q37 0 68.5 -20.5t50.5 -62t19 -100.5q0 -93 -45.5 -168.5t-127.5 -111.5zM320 111.5q32 77.5 32 161.5q0 90 -31 129t-88 47q-70 -23 -101.5 -97.5t-31.5 -158.5q0 -87 32.5 -131t84.5 -52
q71 24 103 101.5zM163 542h-5l153 168h4l85 -168h-5l-93 98h-2z" />
    <glyph glyph-name="otilde" unicode="&#xf5;" horiz-adv-x="432" 
d="M178 -15q-36 0 -68 22t-51 65t-19 102q0 92 45.5 165t127.5 109l61 27q37 0 68.5 -20.5t50.5 -62t19 -100.5q0 -93 -45.5 -168.5t-127.5 -111.5zM320 111.5q32 77.5 32 161.5q0 90 -31 129t-88 47q-70 -23 -101.5 -97.5t-31.5 -158.5q0 -87 32.5 -131t84.5 -52
q71 24 103 101.5zM404 595l-63 -17l-132 88l-48 -91h-5l45 95l63 17l132 -87l50 90h5z" />
    <glyph glyph-name="odieresis" unicode="&#xf6;" horiz-adv-x="432" 
d="M178 -15q-36 0 -68 22t-51 65t-19 102q0 92 45.5 165t127.5 109l61 27q37 0 68.5 -20.5t50.5 -62t19 -100.5q0 -93 -45.5 -168.5t-127.5 -111.5zM320 111.5q32 77.5 32 161.5q0 90 -31 129t-88 47q-70 -23 -101.5 -97.5t-31.5 -158.5q0 -87 32.5 -131t84.5 -52
q71 24 103 101.5zM246 595l-19 -4l-45 4v39l15 32l20 4l43 -4v-38zM406 595l-18 -4l-46 4v39l16 32l20 4l42 -4v-38z" />
    <glyph glyph-name="divide" unicode="&#xf7;" 
d="M344 388l-49 -4l-18 4l-4 39l6 31l49 3l19 -3l3 -37zM572 235h-525v20h525v-20zM344 30l-49 -4l-18 4l-4 39l6 31l49 3l19 -3l3 -37z" />
    <glyph glyph-name="oslash" unicode="&#xf8;" horiz-adv-x="432" 
d="M464 480l-75 -80q23 -46 23 -108q0 -93 -45.5 -168.5t-127.5 -111.5l-61 -27q-33 0 -62.5 18.5t-48.5 53.5l-68 -72h-7l72 77q-24 46 -24 112q0 92 45.5 165t127.5 109l61 27q34 0 64 -18t49 -52l70 75h7zM110 111l232 246q-13 44 -40.5 65t-68.5 27
q-70 -23 -101.5 -97.5t-31.5 -158.5q0 -44 10 -82zM343 352l-231 -247q14 -43 41.5 -66t63.5 -29q71 24 103 101.5t32 161.5q0 46 -9 79z" />
    <glyph glyph-name="ugrave" unicode="&#xf9;" horiz-adv-x="474" 
d="M148 -15q-44 0 -66 18.5t-22 51.5q0 7 2 23l65 366l-95 -32l-2 5l154 58l4 -3l-67 -377q-2 -16 -2 -21q0 -42 40 -42q23 0 45.5 10.5t67.5 41.5l40 28l61 348h57l-78 -446l104 69l3 -3l-130 -95l-34 25l16 94zM316 542h-5l-107 168h72z" />
    <glyph glyph-name="uacute" unicode="&#xfa;" horiz-adv-x="474" 
d="M148 -15q-44 0 -66 18.5t-22 51.5q0 7 2 23l65 366l-95 -32l-2 5l154 58l4 -3l-67 -377q-2 -16 -2 -21q0 -42 40 -42q23 0 45.5 10.5t67.5 41.5l40 28l61 348h57l-78 -446l104 69l3 -3l-130 -95l-34 25l16 94zM285 542h-5l111 168h72z" />
    <glyph glyph-name="ucircumflex" unicode="&#xfb;" horiz-adv-x="474" 
d="M148 -15q-44 0 -66 18.5t-22 51.5q0 7 2 23l65 366l-95 -32l-2 5l154 58l4 -3l-67 -377q-2 -16 -2 -21q0 -42 40 -42q23 0 45.5 10.5t67.5 41.5l40 28l61 348h57l-78 -446l104 69l3 -3l-130 -95l-34 25l16 94zM184 542h-5l153 168h4l85 -168h-5l-93 98h-2z" />
    <glyph glyph-name="udieresis" unicode="&#xfc;" horiz-adv-x="474" 
d="M148 -15q-44 0 -66 18.5t-22 51.5q0 7 2 23l65 366l-95 -32l-2 5l154 58l4 -3l-67 -377q-2 -16 -2 -21q0 -42 40 -42q23 0 45.5 10.5t67.5 41.5l40 28l61 348h57l-78 -446l104 69l3 -3l-130 -95l-34 25l16 94zM267 595l-19 -4l-45 4v39l15 32l20 4l43 -4v-38zM427 595
l-18 -4l-46 4v39l16 32l20 4l42 -4v-38z" />
    <glyph glyph-name="yacute" unicode="&#xfd;" horiz-adv-x="412" 
d="M80 -236l-81 1l16 65h79l110 187l-54 -13l-55 435l-98 -38l-2 5l155 69l4 -3l54 -447l181 341l-68 78l55 31l31 -34l-3 -80l-186 -350zM254 542h-5l111 168h72z" />
    <glyph glyph-name="thorn" unicode="&#xfe;" horiz-adv-x="451" 
d="M15 -230l161 916l-96 -28l-1 5l151 54l7 -5l-63 -355l135 118q54 -6 88 -50t34 -121q0 -86 -43 -161.5t-121 -114.5l-87 -43q-17 2 -32 8.5t-35 17.5l-42 -241h-56zM341 117.5q30 64.5 30 149.5q0 69 -27.5 110t-73.5 51l-98 -81l-49 -282q22 -22 52.5 -34t54.5 -13
q81 35 111 99.5z" />
    <glyph glyph-name="ydieresis" unicode="&#xff;" horiz-adv-x="412" 
d="M80 -236l-81 1l16 65h79l110 187l-54 -13l-55 435l-98 -38l-2 5l155 69l4 -3l54 -447l181 341l-68 78l55 31l31 -34l-3 -80l-186 -350zM236 595l-19 -4l-45 4v39l15 32l20 4l43 -4v-38zM396 595l-18 -4l-46 4v39l16 32l20 4l42 -4v-38z" />
    <glyph glyph-name="Amacron" unicode="&#x100;" horiz-adv-x="671" 
d="M490 706l54 -696l89 -5l-1 -5h-245l1 5l90 5l-18 243h-248l-135 -243l89 -5l-1 -5h-199l1 5l90 5l382 683zM430 645l-212 -382h241zM616 785h-280l2 10h280z" />
    <glyph glyph-name="amacron" unicode="&#x101;" horiz-adv-x="439" 
d="M135 -15q-100 49 -100 170q0 91 52.5 170t142.5 121l62 29q20 0 56 -12t54 -24l-75 -425l99 74l3 -3l-117 -100l-42 25l23 126zM294 143l46 261q-26 15 -57 25.5t-55 10.5q-68 -38 -103 -101t-35 -142q0 -109 79 -163zM445 606h-280l4 24h280z" />
    <glyph glyph-name="Abreve" unicode="&#x102;" horiz-adv-x="671" 
d="M490 706l54 -696l89 -5l-1 -5h-245l1 5l90 5l-18 243h-248l-135 -243l89 -5l-1 -5h-199l1 5l90 5l382 683zM430 645l-212 -382h241zM408 771.5q-29 32.5 -47 82.5l5 3q16 -27 47 -49t75 -22q45 0 83 22.5t59 47.5l4 -3q-43 -71 -144 -114q-53 0 -82 32.5z" />
    <glyph glyph-name="abreve" unicode="&#x103;" horiz-adv-x="439" 
d="M135 -15q-100 49 -100 170q0 91 52.5 170t142.5 121l62 29q20 0 56 -12t54 -24l-75 -425l99 74l3 -3l-117 -100l-42 25l23 126zM294 143l46 261q-26 15 -57 25.5t-55 10.5q-68 -38 -103 -101t-35 -142q0 -109 79 -163zM219 598.5q-28 38.5 -45 96.5l5 3q15 -34 45 -62.5
t72 -28.5t78 30t54 65l4 -3q-38 -87 -134 -139q-51 0 -79 38.5z" />
    <glyph glyph-name="Aogonek" unicode="&#x104;" horiz-adv-x="671" 
d="M544 10l89 -5l-1 -5h-153l-83 -128l-8 -43q-1 -4 -1 -10q0 -54 110 -54l-1 -5q-76 0 -110 19.5t-34 59.5q0 6 2 22l6 34l118 115l-18 243h-248l-135 -243l89 -5l-1 -5h-199l1 5l90 5l382 683l51 13zM430 645l-212 -382h241z" />
    <glyph glyph-name="aogonek" unicode="&#x105;" horiz-adv-x="439" 
d="M237 -171q-1 -4 -1 -10q0 -54 110 -54l-1 -5q-76 0 -110 19.5t-34 59.5q0 6 2 22l6 34l96 94l-35 21l23 126l-158 -151q-100 49 -100 170q0 91 52.5 170t142.5 121l62 29q20 0 56 -12t54 -24l-75 -425l99 74l3 -3l-102 -87l-82 -126zM294 143l46 261q-26 15 -57 25.5
t-55 10.5q-68 -38 -103 -101t-35 -142q0 -109 79 -163z" />
    <glyph glyph-name="Cacute" unicode="&#x106;" horiz-adv-x="577" 
d="M318 -18q-75 0 -136.5 38.5t-96.5 106t-35 153.5q0 83 28.5 162t88.5 143.5t149 100.5l72 29q64 0 115.5 -17.5t83.5 -41.5l-5 -154h-6l-39 121q-72 56 -183 68q-108 -38 -168.5 -139t-60.5 -232q0 -150 57 -228t157 -92q32 13 78 36t60 34l77 131h6l-34 -151zM441 741
h-5l85 109h68z" />
    <glyph glyph-name="cacute" unicode="&#x107;" horiz-adv-x="391" 
d="M190 -15q-34 0 -69 22.5t-58 65.5t-23 101q0 91 50.5 159t153.5 116l55 26q17 -2 41.5 -13t45.5 -24l-34 -51q-40 28 -112 55q-75 -39 -107.5 -98t-32.5 -126q0 -83 33.5 -129.5t83.5 -60.5q24 12 69.5 38.5t67.5 41.5l4 -5q-31 -23 -103 -73q-6 -5 -11 -8t-9 -6z
M244 542h-5l111 168h72z" />
    <glyph glyph-name="Ccircumflex" unicode="&#x108;" horiz-adv-x="577" 
d="M318 -18q-75 0 -136.5 38.5t-96.5 106t-35 153.5q0 83 28.5 162t88.5 143.5t149 100.5l72 29q64 0 115.5 -17.5t83.5 -41.5l-5 -154h-6l-39 121q-72 56 -183 68q-108 -38 -168.5 -139t-60.5 -232q0 -150 57 -228t157 -92q32 13 78 36t60 34l77 131h6l-34 -151zM335 741
h-5l152 119h4l85 -119h-5l-93 63h-2z" />
    <glyph glyph-name="ccircumflex" unicode="&#x109;" horiz-adv-x="391" 
d="M190 -15q-34 0 -69 22.5t-58 65.5t-23 101q0 91 50.5 159t153.5 116l55 26q17 -2 41.5 -13t45.5 -24l-34 -51q-40 28 -112 55q-75 -39 -107.5 -98t-32.5 -126q0 -83 33.5 -129.5t83.5 -60.5q24 12 69.5 38.5t67.5 41.5l4 -5q-31 -23 -103 -73q-6 -5 -11 -8t-9 -6z
M143 542h-5l153 168h4l85 -168h-5l-93 98h-2z" />
    <glyph glyph-name="Cdotaccent" unicode="&#x10a;" horiz-adv-x="577" 
d="M318 -18q-75 0 -136.5 38.5t-96.5 106t-35 153.5q0 83 28.5 162t88.5 143.5t149 100.5l72 29q64 0 115.5 -17.5t83.5 -41.5l-5 -154h-6l-39 121q-72 56 -183 68q-108 -38 -168.5 -139t-60.5 -232q0 -150 57 -228t157 -92q32 13 78 36t60 34l77 131h6l-34 -151zM483 768
l-24 -4l-54 4l3 43l16 37l26 4l48 -4v-43z" />
    <glyph glyph-name="cdotaccent" unicode="&#x10b;" horiz-adv-x="391" 
d="M190 -15q-34 0 -69 22.5t-58 65.5t-23 101q0 91 50.5 159t153.5 116l55 26q17 -2 41.5 -13t45.5 -24l-34 -51q-40 28 -112 55q-75 -39 -107.5 -98t-32.5 -126q0 -83 33.5 -129.5t83.5 -60.5q24 12 69.5 38.5t67.5 41.5l4 -5q-31 -23 -103 -73q-6 -5 -11 -8t-9 -6z
M315 586l-24 -4l-54 4l3 43l16 37l26 4l48 -4v-43z" />
    <glyph glyph-name="Ccaron" unicode="&#x10c;" horiz-adv-x="577" 
d="M318 -18q-75 0 -136.5 38.5t-96.5 106t-35 153.5q0 83 28.5 162t88.5 143.5t149 100.5l72 29q64 0 115.5 -17.5t83.5 -41.5l-5 -154h-6l-39 121q-72 56 -183 68q-108 -38 -168.5 -139t-60.5 -232q0 -150 57 -228t157 -92q32 13 78 36t60 34l77 131h6l-34 -151zM419 741
h-4l-85 119h5l93 -63h2l136 63h5z" />
    <glyph glyph-name="ccaron" unicode="&#x10d;" horiz-adv-x="391" 
d="M190 -15q-34 0 -69 22.5t-58 65.5t-23 101q0 91 50.5 159t153.5 116l55 26q17 -2 41.5 -13t45.5 -24l-34 -51q-40 28 -112 55q-75 -39 -107.5 -98t-32.5 -126q0 -83 33.5 -129.5t83.5 -60.5q24 12 69.5 38.5t67.5 41.5l4 -5q-31 -23 -103 -73q-6 -5 -11 -8t-9 -6z
M252 544h-4l-88 166h5l95 -96h2l138 96h5z" />
    <glyph glyph-name="Dcaron" unicode="&#x10e;" horiz-adv-x="629" 
d="M-10 5l90 5l102 680l-84 5l1 5h248q77 0 140 -37.5t100 -102.5t37 -145q0 -81 -27.5 -159t-86.5 -140t-149 -91l-78 -25h-294zM318 16q106 51 168.5 158.5t62.5 240.5q0 88 -26.5 150t-73.5 93.5t-109 31.5h-92l-101 -674h171zM355 741h-4l-85 119h5l93 -63h2l136 63h5z
" />
    <glyph glyph-name="dcaron" unicode="&#x10f;" horiz-adv-x="466" 
d="M149 -15q-46 21 -77.5 69t-31.5 107q0 92 54.5 170t147.5 115l73 29q11 -1 46 -14l39 225l-96 -28l-1 5l151 54l7 -5l-124 -698l99 74l3 -3l-117 -100l-42 25l23 126zM304 143l46 262q-25 14 -57 24t-55 11q-68 -34 -103 -96t-35 -142q0 -106 88 -165zM620 715l2 -27
l-103 -175l-2 1l46 201h57z" />
    <glyph glyph-name="Dcroat" unicode="&#x110;" horiz-adv-x="629" 
d="M487 662.5q63 -37.5 100 -102.5t37 -145q0 -81 -27.5 -159t-86.5 -140t-149 -91l-78 -25h-294l1 5l90 5l53 353h-95l1 5h95l48 322l-84 5l1 5h248q77 0 140 -37.5zM318 16q106 51 168.5 158.5t62.5 240.5q0 88 -26.5 150t-73.5 93.5t-109 31.5h-92l-48 -322h144l-1 -5
h-144l-52 -347h171z" />
    <glyph glyph-name="dcroat" unicode="&#x111;" horiz-adv-x="466" 
d="M527 563h-92l-98 -549l99 74l3 -3l-117 -100l-42 25l23 126l-154 -151q-46 21 -77.5 69t-31.5 107q0 92 54.5 170t147.5 115l73 29q11 -1 46 -14l18 102h-157l1 5h157l20 118l-96 -28l-1 5l151 54l7 -5l-26 -144h93zM304 143l46 262q-25 14 -57 24t-55 11
q-68 -34 -103 -96t-35 -142q0 -106 88 -165z" />
    <glyph glyph-name="Emacron" unicode="&#x112;" horiz-adv-x="548" 
d="M-11 0l1 5l90 5l102 680l-84 5l1 5h479l-28 -176h-5l-35 166h-262l-48 -319h142l58 114h5l-19 -118l-19 -119h-5l-22 113h-141l-53 -351h266l88 170h5l-29 -180h-487zM532 785h-280l2 10h280z" />
    <glyph glyph-name="emacron" unicode="&#x113;" horiz-adv-x="402" 
d="M362 301l-264 -82q2 -151 123 -192q99 58 125 77l5 -6q-46 -34 -118 -83l-46 -30q-64 9 -105.5 62.5t-41.5 126.5q0 93 54.5 166.5t151.5 110.5l58 23q40 -9 59 -33.5t19 -65.5q0 -37 -20 -74zM300 296q16 31 16 67q0 70 -64 86q-75 -37 -114 -93.5t-40 -129.5zM458 606
h-280l4 24h280z" />
    <glyph glyph-name="Ebreve" unicode="&#x114;" horiz-adv-x="548" 
d="M-11 0l1 5l90 5l102 680l-84 5l1 5h479l-28 -176h-5l-35 166h-262l-48 -319h142l58 114h5l-19 -118l-19 -119h-5l-22 113h-141l-53 -351h266l88 170h5l-29 -180h-487zM324 771.5q-29 32.5 -47 82.5l5 3q16 -27 47 -49t75 -22q45 0 83 22.5t59 47.5l4 -3
q-43 -71 -144 -114q-53 0 -82 32.5z" />
    <glyph glyph-name="ebreve" unicode="&#x115;" horiz-adv-x="402" 
d="M362 301l-264 -82q2 -151 123 -192q99 58 125 77l5 -6q-46 -34 -118 -83l-46 -30q-64 9 -105.5 62.5t-41.5 126.5q0 93 54.5 166.5t151.5 110.5l58 23q40 -9 59 -33.5t19 -65.5q0 -37 -20 -74zM300 296q16 31 16 67q0 70 -64 86q-75 -37 -114 -93.5t-40 -129.5z
M232 598.5q-28 38.5 -45 96.5l5 3q15 -34 45 -62.5t72 -28.5t78 30t54 65l4 -3q-38 -87 -134 -139q-51 0 -79 38.5z" />
    <glyph glyph-name="Edotaccent" unicode="&#x116;" horiz-adv-x="548" 
d="M-11 0l1 5l90 5l102 680l-84 5l1 5h479l-28 -176h-5l-35 166h-262l-48 -319h142l58 114h5l-19 -118l-19 -119h-5l-22 113h-141l-53 -351h266l88 170h5l-29 -180h-487zM428 768l-24 -4l-54 4l3 43l16 37l26 4l48 -4v-43z" />
    <glyph glyph-name="edotaccent" unicode="&#x117;" horiz-adv-x="402" 
d="M362 301l-264 -82q2 -151 123 -192q99 58 125 77l5 -6q-46 -34 -118 -83l-46 -30q-64 9 -105.5 62.5t-41.5 126.5q0 93 54.5 166.5t151.5 110.5l58 23q40 -9 59 -33.5t19 -65.5q0 -37 -20 -74zM300 296q16 31 16 67q0 70 -64 86q-75 -37 -114 -93.5t-40 -129.5zM352 586
l-24 -4l-54 4l3 43l16 37l26 4l48 -4v-43z" />
    <glyph glyph-name="Eogonek" unicode="&#x118;" horiz-adv-x="548" 
d="M578 700l-28 -176h-5l-35 166h-262l-48 -319h142l58 114h5l-19 -118l-19 -119h-5l-22 113h-141l-53 -351h266l88 170h5l-29 -180h-50l-83 -128l-8 -43q-1 -4 -1 -10q0 -54 110 -54l-1 -5q-76 0 -110 19.5t-34 59.5q0 6 2 22l6 34l108 105h-426l1 5l90 5l102 680l-84 5
l1 5h479z" />
    <glyph glyph-name="eogonek" unicode="&#x119;" horiz-adv-x="402" 
d="M362 301l-264 -82q2 -151 123 -192q99 58 125 77l5 -6q-46 -34 -118 -83l-16 -10l-86 -133l-8 -43q-1 -4 -1 -10q0 -54 110 -54l-1 -5q-76 0 -110 19.5t-34 59.5q0 6 2 22l6 34l93 90h-1q-64 9 -105.5 62.5t-41.5 126.5q0 93 54.5 166.5t151.5 110.5l58 23
q40 -9 59 -33.5t19 -65.5q0 -37 -20 -74zM300 296q16 31 16 67q0 70 -64 86q-75 -37 -114 -93.5t-40 -129.5z" />
    <glyph glyph-name="Ecaron" unicode="&#x11a;" horiz-adv-x="548" 
d="M-11 0l1 5l90 5l102 680l-84 5l1 5h479l-28 -176h-5l-35 166h-262l-48 -319h142l58 114h5l-19 -118l-19 -119h-5l-22 113h-141l-53 -351h266l88 170h5l-29 -180h-487zM364 741h-4l-85 119h5l93 -63h2l136 63h5z" />
    <glyph glyph-name="ecaron" unicode="&#x11b;" horiz-adv-x="402" 
d="M362 301l-264 -82q2 -151 123 -192q99 58 125 77l5 -6q-46 -34 -118 -83l-46 -30q-64 9 -105.5 62.5t-41.5 126.5q0 93 54.5 166.5t151.5 110.5l58 23q40 -9 59 -33.5t19 -65.5q0 -37 -20 -74zM300 296q16 31 16 67q0 70 -64 86q-75 -37 -114 -93.5t-40 -129.5zM289 544
h-4l-88 166h5l95 -96h2l138 96h5z" />
    <glyph glyph-name="Gcircumflex" unicode="&#x11c;" horiz-adv-x="624" 
d="M317 -18q-77 0 -137.5 39t-95 108t-34.5 156q0 144 74.5 252.5t203.5 152.5l73 25q58 0 113.5 -20.5t95.5 -56.5l-16 -137h-5l-28 98q-37 40 -90.5 63.5t-118.5 28.5q-106 -44 -166.5 -141t-60.5 -225q0 -145 57 -229.5t162 -95.5q28 9 69.5 29t64.5 35l35 236l-83 5l1 5
h209l-1 -5l-60 -5l-38 -250zM318 741h-5l152 119h4l85 -119h-5l-93 63h-2z" />
    <glyph glyph-name="gcircumflex" unicode="&#x11d;" horiz-adv-x="433" 
d="M10 -235l10 55h173q25 22 50 71t33 95l27 149l-154 -150q-109 64 -109 174q0 92 54 170.5t147 116.5l71 29q21 -2 52 -12.5t49 -20.5l-85 -478q-6 -31 -37 -67t-80 -70l-87 -62h-114zM304 143l46 259q-25 15 -57.5 26t-54.5 12q-68 -37 -103 -96.5t-35 -136.5
q0 -51 22 -95t65 -74zM194 542h-5l153 168h4l85 -168h-5l-93 98h-2z" />
    <glyph glyph-name="Gbreve" unicode="&#x11e;" horiz-adv-x="624" 
d="M317 -18q-77 0 -137.5 39t-95 108t-34.5 156q0 144 74.5 252.5t203.5 152.5l73 25q58 0 113.5 -20.5t95.5 -56.5l-16 -137h-5l-28 98q-37 40 -90.5 63.5t-118.5 28.5q-106 -44 -166.5 -141t-60.5 -225q0 -145 57 -229.5t162 -95.5q28 9 69.5 29t64.5 35l35 236l-83 5l1 5
h209l-1 -5l-60 -5l-38 -250zM362 771.5q-29 32.5 -47 82.5l5 3q16 -27 47 -49t75 -22q45 0 83 22.5t59 47.5l4 -3q-43 -71 -144 -114q-53 0 -82 32.5z" />
    <glyph glyph-name="gbreve" unicode="&#x11f;" horiz-adv-x="433" 
d="M10 -235l10 55h173q25 22 50 71t33 95l27 149l-154 -150q-109 64 -109 174q0 92 54 170.5t147 116.5l71 29q21 -2 52 -12.5t49 -20.5l-85 -478q-6 -31 -37 -67t-80 -70l-87 -62h-114zM304 143l46 259q-25 15 -57.5 26t-54.5 12q-68 -37 -103 -96.5t-35 -136.5
q0 -51 22 -95t65 -74zM246 598.5q-28 38.5 -45 96.5l5 3q15 -34 45 -62.5t72 -28.5t78 30t54 65l4 -3q-38 -87 -134 -139q-51 0 -79 38.5z" />
    <glyph glyph-name="Gdotaccent" unicode="&#x120;" horiz-adv-x="624" 
d="M317 -18q-77 0 -137.5 39t-95 108t-34.5 156q0 144 74.5 252.5t203.5 152.5l73 25q58 0 113.5 -20.5t95.5 -56.5l-16 -137h-5l-28 98q-37 40 -90.5 63.5t-118.5 28.5q-106 -44 -166.5 -141t-60.5 -225q0 -145 57 -229.5t162 -95.5q28 9 69.5 29t64.5 35l35 236l-83 5l1 5
h209l-1 -5l-60 -5l-38 -250zM466 768l-24 -4l-54 4l3 43l16 37l26 4l48 -4v-43z" />
    <glyph glyph-name="gdotaccent" unicode="&#x121;" horiz-adv-x="433" 
d="M10 -235l10 55h173q25 22 50 71t33 95l27 149l-154 -150q-109 64 -109 174q0 92 54 170.5t147 116.5l71 29q21 -2 52 -12.5t49 -20.5l-85 -478q-6 -31 -37 -67t-80 -70l-87 -62h-114zM304 143l46 259q-25 15 -57.5 26t-54.5 12q-68 -37 -103 -96.5t-35 -136.5
q0 -51 22 -95t65 -74zM366 586l-24 -4l-54 4l3 43l16 37l26 4l48 -4v-43z" />
    <glyph glyph-name="uni0122" unicode="&#x122;" horiz-adv-x="624" 
d="M317 -18q-77 0 -137.5 39t-95 108t-34.5 156q0 144 74.5 252.5t203.5 152.5l73 25q58 0 113.5 -20.5t95.5 -56.5l-16 -137h-5l-28 98q-37 40 -90.5 63.5t-118.5 28.5q-106 -44 -166.5 -141t-60.5 -225q0 -145 57 -229.5t162 -95.5q28 9 69.5 29t64.5 35l35 236l-83 5l1 5
h209l-1 -5l-60 -5l-38 -250zM323 -127l-97 -106l-4 2l65 107l-29 22l7 45h70z" />
    <glyph glyph-name="uni0123" unicode="&#x123;" horiz-adv-x="433" 
d="M10 -235l10 55h173q25 22 50 71t33 95l27 149l-154 -150q-109 64 -109 174q0 92 54 170.5t147 116.5l71 29q21 -2 52 -12.5t49 -20.5l-85 -478q-6 -31 -37 -67t-80 -70l-87 -62h-114zM304 143l46 259q-25 15 -57.5 26t-54.5 12q-68 -37 -103 -96.5t-35 -136.5
q0 -51 22 -95t65 -74zM346 542h-70l13 70l96 101l5 -2l-65 -102l29 -22z" />
    <glyph glyph-name="Hcircumflex" unicode="&#x124;" horiz-adv-x="660" 
d="M-11 0l1 5l90 5l102 680l-84 5l1 5h235l-1 -5l-85 -5l-48 -321h311l48 321l-84 5l1 5h235l-1 -5l-85 -5l-102 -680l89 -5l-1 -5h-245l1 5l90 5l52 349h-311l-52 -349l89 -5l-1 -5h-245zM336 741h-5l152 119h4l85 -119h-5l-93 63h-2z" />
    <glyph glyph-name="hcircumflex" unicode="&#x125;" horiz-adv-x="464" 
d="M332 -15l-42 25l62 344q2 16 2 23q0 51 -50 51q-20 0 -42.5 -11t-62.5 -38l-41 -28l-62 -351h-56l121 686l-96 -28l-1 5l151 54l7 -5l-63 -354l166 117q45 0 67 -19.5t22 -54.5q0 -6 -2 -22l-65 -365l99 74l3 -3zM93 741h-5l152 119h4l85 -119h-5l-93 63h-2z" />
    <glyph glyph-name="Hbar" unicode="&#x126;" horiz-adv-x="660" 
d="M476 700h235l-1 -5l-85 -5l-102 -680l89 -5l-1 -5h-245l1 5l90 5l52 349h-311l-52 -349l89 -5l-1 -5h-245l1 5l90 5l102 680l-84 5l1 5h235l-1 -5l-85 -5l-24 -160h311l24 160l-84 5zM200 369h311l23 156h-311z" />
    <glyph glyph-name="hbar" unicode="&#x127;" horiz-adv-x="464" 
d="M446 88l3 -3l-117 -100l-42 25l62 344q2 16 2 23q0 51 -50 51q-20 0 -42.5 -11t-62.5 -38l-41 -28l-62 -351h-56l99 563h-88l1 5h88l21 118l-96 -28l-1 5l151 54l7 -5l-26 -144h161l-1 -5h-161l-36 -205l166 117q45 0 67 -19.5t22 -54.5q0 -6 -2 -22l-65 -365z" />
    <glyph glyph-name="Itilde" unicode="&#x128;" horiz-adv-x="283" 
d="M-11 0l1 5l90 5l102 680l-84 5l1 5h235l-1 -5l-85 -5l-102 -680l89 -5l-1 -5h-245zM81 745h-5l45 85l65 20l151 -83l50 81h5l-47 -85l-65 -20l-151 84z" />
    <glyph glyph-name="itilde" unicode="&#x129;" horiz-adv-x="243" 
d="M215 85l-117 -100l-42 25l76 429l-95 -36l-2 5l155 67l4 -3l-81 -460l99 76zM299 595l-63 -17l-132 88l-48 -91h-5l45 95l63 17l132 -87l50 90h5z" />
    <glyph glyph-name="Imacron" unicode="&#x12a;" horiz-adv-x="283" 
d="M-11 0l1 5l90 5l102 680l-84 5l1 5h235l-1 -5l-85 -5l-102 -680l89 -5l-1 -5h-245zM371 785h-280l2 10h280z" />
    <glyph glyph-name="imacron" unicode="&#x12b;" horiz-adv-x="243" 
d="M215 85l-117 -100l-42 25l76 429l-95 -36l-2 5l155 67l4 -3l-81 -460l99 76zM336 606h-280l4 24h280z" />
    <glyph glyph-name="Ibreve" unicode="&#x12c;" horiz-adv-x="283" 
d="M-11 0l1 5l90 5l102 680l-84 5l1 5h235l-1 -5l-85 -5l-102 -680l89 -5l-1 -5h-245zM163 771.5q-29 32.5 -47 82.5l5 3q16 -27 47 -49t75 -22q45 0 83 22.5t59 47.5l4 -3q-43 -71 -144 -114q-53 0 -82 32.5z" />
    <glyph glyph-name="ibreve" unicode="&#x12d;" horiz-adv-x="243" 
d="M215 85l-117 -100l-42 25l76 429l-95 -36l-2 5l155 67l4 -3l-81 -460l99 76zM110 598.5q-28 38.5 -45 96.5l5 3q15 -34 45 -62.5t72 -28.5t78 30t54 65l4 -3q-38 -87 -134 -139q-51 0 -79 38.5z" />
    <glyph glyph-name="Iogonek" unicode="&#x12e;" horiz-adv-x="283" 
d="M334 700l-1 -5l-85 -5l-102 -680l89 -5l-1 -5h-115l-83 -128l-8 -43q-1 -4 -1 -10q0 -54 110 -54l-1 -5q-76 0 -110 19.5t-34 59.5q0 6 2 22l6 34l108 105h-119l1 5l90 5l102 680l-84 5l1 5h235z" />
    <glyph glyph-name="iogonek" unicode="&#x12f;" horiz-adv-x="243" 
d="M171 666l26 4l48 -4v-43l-15 -37l-24 -4l-54 4l3 43zM31 -128l-8 -43q-1 -4 -1 -10q0 -54 110 -54l-1 -5q-76 0 -110 19.5t-34 59.5q0 6 2 22l6 34l96 94l-35 21l76 429l-95 -36l-2 5l155 67l4 -3l-81 -460l99 76l3 -3l-102 -87z" />
    <glyph glyph-name="Idotaccent" unicode="&#x130;" horiz-adv-x="283" 
d="M-11 0l1 5l90 5l102 680l-84 5l1 5h235l-1 -5l-85 -5l-102 -680l89 -5l-1 -5h-245zM267 768l-24 -4l-54 4l3 43l16 37l26 4l48 -4v-43z" />
    <glyph glyph-name="dotlessi" unicode="&#x131;" horiz-adv-x="243" 
d="M215 85l-117 -100l-42 25l76 429l-95 -36l-2 5l155 67l4 -3l-81 -460l99 76z" />
    <glyph glyph-name="IJ" unicode="&#x132;" horiz-adv-x="559" 
d="M-11 0l1 5l90 5l102 680l-84 5l1 5h235l-1 -5l-85 -5l-102 -680l89 -5l-1 -5h-245zM213 -175l11 70h109q25 59 37 141l98 654l-84 5l1 5h235l-1 -5l-85 -5l-93 -624q-6 -41 -23 -73.5t-33 -51.5t-51 -54l-63 -62h-58z" />
    <glyph glyph-name="ij" unicode="&#x133;" horiz-adv-x="482" 
d="M215 85l-117 -100l-42 25l76 429l-95 -36l-2 5l155 67l4 -3l-81 -460l99 76zM230 586l-24 -4l-54 4l3 43l16 37l26 4l48 -4v-43zM133 -235l12 60h118q10 20 16 42.5t13 62.5l89 509l-95 -36l-2 5l155 67l4 -3l-89 -507q-18 -96 -79 -136l-97 -64h-45zM472 586l-24 -4
l-54 4l3 43l16 37l26 4l48 -4v-43z" />
    <glyph glyph-name="Jcircumflex" unicode="&#x134;" horiz-adv-x="276" 
d="M-70 -175l11 70h109q25 59 37 141l98 654l-84 5l1 5h235l-1 -5l-85 -5l-93 -624q-6 -41 -23 -73.5t-33 -51.5t-51 -54l-63 -62h-58zM144 741h-5l152 119h4l85 -119h-5l-93 63h-2z" />
    <glyph glyph-name="jcircumflex" unicode="&#x135;" horiz-adv-x="239" 
d="M-110 -235l12 60h118q10 20 16 42.5t13 62.5l89 509l-95 -36l-2 5l155 67l4 -3l-89 -507q-18 -96 -79 -136l-97 -64h-45zM57 542h-5l153 168h4l85 -168h-5l-93 98h-2z" />
    <glyph glyph-name="uni0136" unicode="&#x136;" horiz-adv-x="650" 
d="M-11 0l1 5l90 5l102 680l-84 5l1 5h235l-1 -5l-85 -5l-47 -314l361 314l-89 5l1 5h192l-1 -5l-81 -5l-360 -311l51 -6l264 -363l69 -5l-1 -5h-149l-258 369l-54 -359l89 -5l-1 -5h-245zM330 -127l-97 -106l-4 2l65 107l-29 22l7 45h70z" />
    <glyph glyph-name="uni0137" unicode="&#x137;" horiz-adv-x="421" 
d="M410 82l-113 -97l-37 15l-115 274l-49 -274h-56l121 686l-96 -28l-1 5l151 54l7 -5l-77 -434l213 187h58l-12 -70h-87h-20l-142 -120l62 -19l104 -238l86 68zM182 -127l-97 -106l-4 2l65 107l-29 22l7 45h70z" />
    <glyph glyph-name="kgreenlandic" unicode="&#x138;" horiz-adv-x="401" 
d="M411 82l-113 -97l-37 15l-117 263l-47 -263h-56l77 444l-96 -28l-1 5l151 54l7 -5l-35 -203l215 198h58l-12 -70h-63h-44l-144 -131l62 -19l106 -227l86 68z" />
    <glyph glyph-name="Lacute" unicode="&#x139;" horiz-adv-x="515" 
d="M-11 0l1 5l90 5l102 680l-84 5l1 5h235l-1 -5l-85 -5l-102 -680h246l98 170h5l-39 -180h-467zM232 741h-5l85 109h68z" />
    <glyph glyph-name="lacute" unicode="&#x13a;" horiz-adv-x="235" 
d="M209 85l-117 -100l-42 25l119 676l-96 -28l-1 5l151 54l7 -5l-123 -698l99 74zM203 741h-5l85 109h68z" />
    <glyph glyph-name="uni013B" unicode="&#x13b;" horiz-adv-x="515" 
d="M-11 0l1 5l90 5l102 680l-84 5l1 5h235l-1 -5l-85 -5l-102 -680h246l98 170h5l-39 -180h-467zM269 -127l-97 -106l-4 2l65 107l-29 22l7 45h70z" />
    <glyph glyph-name="uni013C" unicode="&#x13c;" horiz-adv-x="235" 
d="M209 85l-117 -100l-42 25l119 676l-96 -28l-1 5l151 54l7 -5l-123 -698l99 74zM89 -127l-97 -106l-4 2l65 107l-29 22l7 45h70z" />
    <glyph glyph-name="Lcaron" unicode="&#x13d;" horiz-adv-x="515" 
d="M-11 0l1 5l90 5l102 680l-84 5l1 5h235l-1 -5l-85 -5l-102 -680h246l98 170h5l-39 -180h-467zM510 715l2 -27l-103 -175l-2 1l46 201h57z" />
    <glyph glyph-name="lcaron" unicode="&#x13e;" horiz-adv-x="235" 
d="M209 85l-117 -100l-42 25l119 676l-96 -28l-1 5l151 54l7 -5l-123 -698l99 74zM349 715l2 -27l-103 -175l-2 1l46 201h57z" />
    <glyph glyph-name="Ldot" unicode="&#x13f;" horiz-adv-x="515" 
d="M-11 0l1 5l90 5l102 680l-84 5l1 5h235l-1 -5l-85 -5l-102 -680h246l98 170h5l-39 -180h-467zM454 361l-61 -4l-21 4l4 47l14 38l60 4l22 -4l-4 -44z" />
    <glyph glyph-name="ldot" unicode="&#x140;" horiz-adv-x="250" 
d="M209 85l-117 -100l-42 25l119 676l-96 -28l-1 5l151 54l7 -5l-123 -698l99 74zM296 312l-61 -4l-21 4l4 47l14 38l60 4l22 -4l-4 -44z" />
    <glyph glyph-name="Lslash" unicode="&#x141;" horiz-adv-x="515" 
d="M392 10l98 170h5l-39 -180h-467l1 5l90 5l51 339l-94 -43l1 6l94 43l50 335l-84 5l1 5h235l-1 -5l-85 -5l-45 -303l142 65l-1 -6l-142 -65l-56 -371h246z" />
    <glyph glyph-name="lslash" unicode="&#x142;" horiz-adv-x="235" 
d="M286 437l-1 -6l-114 -52l-64 -365l99 74l3 -3l-117 -100l-42 25l60 341l-81 -37l1 6l81 37l58 329l-96 -28l-1 5l151 54l7 -5l-58 -327z" />
    <glyph glyph-name="Nacute" unicode="&#x143;" horiz-adv-x="667" 
d="M532 700h196l-1 -5l-90 -5l-111 -690h-31l-292 677l-106 -667l89 -5l-1 -5h-196l1 5l90 5l109 680l-84 5l1 5h161l259 -601l94 591l-89 5zM446 741h-5l85 109h68z" />
    <glyph glyph-name="nacute" unicode="&#x144;" horiz-adv-x="479" 
d="M347 -15l-42 25l62 344q2 16 2 23q0 51 -50 51q-20 0 -42.5 -11t-62.5 -38l-41 -28l-62 -351h-56l77 439l-95 -36l-2 5l155 67l4 -3l-20 -114l166 117q45 0 67 -19.5t22 -54.5q0 -6 -2 -22l-65 -365l99 74l3 -3zM288 542h-5l111 168h72z" />
    <glyph glyph-name="uni0145" unicode="&#x145;" horiz-adv-x="667" 
d="M532 700h196l-1 -5l-90 -5l-111 -690h-31l-292 677l-106 -667l89 -5l-1 -5h-196l1 5l90 5l109 680l-84 5l1 5h161l259 -601l94 591l-89 5zM324 -127l-97 -106l-4 2l65 107l-29 22l7 45h70z" />
    <glyph glyph-name="uni0146" unicode="&#x146;" horiz-adv-x="479" 
d="M347 -15l-42 25l62 344q2 16 2 23q0 51 -50 51q-20 0 -42.5 -11t-62.5 -38l-41 -28l-62 -351h-56l77 439l-95 -36l-2 5l155 67l4 -3l-20 -114l166 117q45 0 67 -19.5t22 -54.5q0 -6 -2 -22l-65 -365l99 74l3 -3zM224 -127l-97 -106l-4 2l65 107l-29 22l7 45h70z" />
    <glyph glyph-name="Ncaron" unicode="&#x147;" horiz-adv-x="667" 
d="M532 700h196l-1 -5l-90 -5l-111 -690h-31l-292 677l-106 -667l89 -5l-1 -5h-196l1 5l90 5l109 680l-84 5l1 5h161l259 -601l94 591l-89 5zM424 741h-4l-85 119h5l93 -63h2l136 63h5z" />
    <glyph glyph-name="ncaron" unicode="&#x148;" horiz-adv-x="479" 
d="M347 -15l-42 25l62 344q2 16 2 23q0 51 -50 51q-20 0 -42.5 -11t-62.5 -38l-41 -28l-62 -351h-56l77 439l-95 -36l-2 5l155 67l4 -3l-20 -114l166 117q45 0 67 -19.5t22 -54.5q0 -6 -2 -22l-65 -365l99 74l3 -3zM296 544h-4l-88 166h5l95 -96h2l138 96h5z" />
    <glyph glyph-name="napostrophe" unicode="&#x149;" horiz-adv-x="479" 
d="M199 626l-117 -130l-3 3l92 120l-55 54l7 37h91zM347 -15l-42 25l62 344q2 16 2 23q0 51 -50 51q-20 0 -42.5 -11t-62.5 -38l-41 -28l-62 -351h-56l77 439l-95 -36l-2 5l155 67l4 -3l-20 -114l166 117q45 0 67 -19.5t22 -54.5q0 -6 -2 -22l-65 -365l99 74l3 -3z" />
    <glyph glyph-name="Eng" unicode="&#x14a;" horiz-adv-x="667" 
d="M532 700h196l-1 -5l-90 -5l-111 -690l-105 -236l-105 1l12 65h83l110 170h-26l-292 677l-106 -667l89 -5l-1 -5h-196l1 5l90 5l109 680l-84 5l1 5h161l259 -601l94 591l-89 5z" />
    <glyph glyph-name="eng" unicode="&#x14b;" horiz-adv-x="479" 
d="M133 -235l12 60h118q10 20 16 42.5t13 62.5l77 437q1 5 1 15q0 22 -13 34t-38 12q-20 0 -42.5 -11t-62.5 -38l-41 -28l-62 -351h-56l77 439l-95 -36l-2 5l155 67l4 -3l-20 -114l166 117q45 0 67 -19.5t22 -54.5q0 -6 -2 -22l-73 -414q-16 -96 -79 -136l-97 -64h-45z" />
    <glyph glyph-name="Omacron" unicode="&#x14c;" horiz-adv-x="640" 
d="M302 -18q-69 0 -126.5 37.5t-91.5 104.5t-34 151q0 86 27.5 170t86.5 150.5t150 96.5l70 23q69 0 126.5 -37t91 -103t33.5 -150q0 -86 -27.5 -169t-86.5 -150t-149 -99zM448.5 79q52.5 61 82 147.5t29.5 178.5q0 136 -56 209t-147 83q-67 -15 -120 -75.5t-82.5 -147.5
t-29.5 -179q0 -136 56.5 -210t147.5 -84q67 17 119.5 78zM548 785h-280l2 10h280z" />
    <glyph glyph-name="omacron" unicode="&#x14d;" horiz-adv-x="432" 
d="M178 -15q-36 0 -68 22t-51 65t-19 102q0 92 45.5 165t127.5 109l61 27q37 0 68.5 -20.5t50.5 -62t19 -100.5q0 -93 -45.5 -168.5t-127.5 -111.5zM320 111.5q32 77.5 32 161.5q0 90 -31 129t-88 47q-70 -23 -101.5 -97.5t-31.5 -158.5q0 -87 32.5 -131t84.5 -52
q71 24 103 101.5zM441 606h-280l4 24h280z" />
    <glyph glyph-name="Obreve" unicode="&#x14e;" horiz-adv-x="640" 
d="M302 -18q-69 0 -126.5 37.5t-91.5 104.5t-34 151q0 86 27.5 170t86.5 150.5t150 96.5l70 23q69 0 126.5 -37t91 -103t33.5 -150q0 -86 -27.5 -169t-86.5 -150t-149 -99zM448.5 79q52.5 61 82 147.5t29.5 178.5q0 136 -56 209t-147 83q-67 -15 -120 -75.5t-82.5 -147.5
t-29.5 -179q0 -136 56.5 -210t147.5 -84q67 17 119.5 78zM340 771.5q-29 32.5 -47 82.5l5 3q16 -27 47 -49t75 -22q45 0 83 22.5t59 47.5l4 -3q-43 -71 -144 -114q-53 0 -82 32.5z" />
    <glyph glyph-name="obreve" unicode="&#x14f;" horiz-adv-x="432" 
d="M178 -15q-36 0 -68 22t-51 65t-19 102q0 92 45.5 165t127.5 109l61 27q37 0 68.5 -20.5t50.5 -62t19 -100.5q0 -93 -45.5 -168.5t-127.5 -111.5zM320 111.5q32 77.5 32 161.5q0 90 -31 129t-88 47q-70 -23 -101.5 -97.5t-31.5 -158.5q0 -87 32.5 -131t84.5 -52
q71 24 103 101.5zM215 598.5q-28 38.5 -45 96.5l5 3q15 -34 45 -62.5t72 -28.5t78 30t54 65l4 -3q-38 -87 -134 -139q-51 0 -79 38.5z" />
    <glyph glyph-name="Ohungarumlaut" unicode="&#x150;" horiz-adv-x="640" 
d="M302 -18q-69 0 -126.5 37.5t-91.5 104.5t-34 151q0 86 27.5 170t86.5 150.5t150 96.5l70 23q69 0 126.5 -37t91 -103t33.5 -150q0 -86 -27.5 -169t-86.5 -150t-149 -99zM448.5 79q52.5 61 82 147.5t29.5 178.5q0 136 -56 209t-147 83q-67 -15 -120 -75.5t-82.5 -147.5
t-29.5 -179q0 -136 56.5 -210t147.5 -84q67 17 119.5 78zM306 752h-5l46 98h84zM457 752h-5l46 98h84z" />
    <glyph glyph-name="ohungarumlaut" unicode="&#x151;" horiz-adv-x="432" 
d="M178 -15q-36 0 -68 22t-51 65t-19 102q0 92 45.5 165t127.5 109l61 27q37 0 68.5 -20.5t50.5 -62t19 -100.5q0 -93 -45.5 -168.5t-127.5 -111.5zM320 111.5q32 77.5 32 161.5q0 90 -31 129t-88 47q-70 -23 -101.5 -97.5t-31.5 -158.5q0 -87 32.5 -131t84.5 -52
q71 24 103 101.5zM137 542h-5l77 168h95zM303 542h-5l77 168h95z" />
    <glyph glyph-name="OE" unicode="&#x152;" horiz-adv-x="913" 
d="M317 -18q-71 0 -129.5 37.5t-93 104.5t-34.5 151q0 86 30 170.5t94.5 152t163.5 97.5l70 23l149 -18h376l-28 -176h-5l-35 166h-262l-48 -319h142l58 114h5l-19 -119l-19 -118h-5l-22 113h-141l-53 -351h266l88 170h5l-29 -180h-381zM445 10l100 664l-154 26
q-74 -15 -132.5 -76t-91 -149t-32.5 -180q0 -133 58 -206.5t151 -83.5z" />
    <glyph glyph-name="oe" unicode="&#x153;" horiz-adv-x="712" 
d="M672 301l-264 -81q1 -150 123 -193q99 58 125 77l5 -6q-58 -43 -118 -83l-46 -30q-45 6 -84 41t-54 91q-46 -72 -120 -105l-61 -27q-36 0 -68 22t-51 65t-19 102q0 92 45.5 163.5t127.5 110.5l57 27q49 0 86.5 -35.5t48.5 -102.5q55 77 151 114l58 23q37 -8 57.5 -31
t20.5 -68q0 -38 -20 -74zM320 111.5q32 77.5 32 161.5q0 90 -31 129t-88 47q-70 -23 -101.5 -97.5t-31.5 -158.5q0 -87 32.5 -131t84.5 -52q71 24 103 101.5zM610 296q16 31 16 67q0 70 -64 86q-74 -37 -113.5 -93.5t-40.5 -129.5z" />
    <glyph glyph-name="Racute" unicode="&#x154;" horiz-adv-x="614" 
d="M-10 5l90 5l102 680l-84 5l1 5h288q84 0 130.5 -40t46.5 -103q0 -74 -48.5 -120.5t-135.5 -71.5l-76 -22h-108l-50 -333l103 -5l-1 -5h-259zM336 358q47 21 77.5 41t53 55.5t22.5 87.5q0 70 -36 109t-111 39h-94l-50 -332h138zM464 0l-160 343l88 -37l145 -296l42 -4
l-1 -6h-114zM349 741h-5l85 109h68z" />
    <glyph glyph-name="racute" unicode="&#x155;" horiz-adv-x="347" 
d="M111 0h-57l78 439l-95 -36l-2 5l155 67l4 -3l-37 -211l139 204h61l-15 -75h-83l-56 -79l-49 -68zM222 542h-5l111 168h72z" />
    <glyph glyph-name="uni0156" unicode="&#x156;" horiz-adv-x="614" 
d="M-10 5l90 5l102 680l-84 5l1 5h288q84 0 130.5 -40t46.5 -103q0 -74 -48.5 -120.5t-135.5 -71.5l-76 -22h-108l-50 -333l103 -5l-1 -5h-259zM336 358q47 21 77.5 41t53 55.5t22.5 87.5q0 70 -36 109t-111 39h-94l-50 -332h138zM464 0l-160 343l88 -37l145 -296l42 -4
l-1 -6h-114zM318 -127l-97 -106l-4 2l65 107l-29 22l7 45h70z" />
    <glyph glyph-name="uni0157" unicode="&#x157;" horiz-adv-x="347" 
d="M111 0h-57l78 439l-95 -36l-2 5l155 67l4 -3l-37 -211l139 204h61l-15 -75h-83l-56 -79l-49 -68zM93 -127l-97 -106l-4 2l65 107l-29 22l7 45h70z" />
    <glyph glyph-name="Rcaron" unicode="&#x158;" horiz-adv-x="614" 
d="M-10 5l90 5l102 680l-84 5l1 5h288q84 0 130.5 -40t46.5 -103q0 -74 -48.5 -120.5t-135.5 -71.5l-76 -22h-108l-50 -333l103 -5l-1 -5h-259zM336 358q47 21 77.5 41t53 55.5t22.5 87.5q0 70 -36 109t-111 39h-94l-50 -332h138zM464 0l-160 343l88 -37l145 -296l42 -4
l-1 -6h-114zM327 741h-4l-85 119h5l93 -63h2l136 63h5z" />
    <glyph glyph-name="rcaron" unicode="&#x159;" horiz-adv-x="347" 
d="M111 0h-57l78 439l-95 -36l-2 5l155 67l4 -3l-37 -211l139 204h61l-15 -75h-83l-56 -79l-49 -68zM230 544h-4l-88 166h5l95 -96h2l138 96h5z" />
    <glyph glyph-name="Sacute" unicode="&#x15a;" horiz-adv-x="449" 
d="M205 -18q-59 0 -108 16.5t-82 41.5l32 145l6 -1v-88q27 -32 86 -59.5t116 -31.5q59 18 87 57t28 92q0 48 -21 80.5t-77 76.5l-95 75q-80 63 -80 140q0 52 31.5 94t95.5 65l83 30q57 0 94 -10.5t68 -31.5l-24 -151h-5l-13 107q-29 32 -70 45t-94 17q-62 -18 -87.5 -48.5
t-25.5 -75.5q0 -35 11.5 -59.5t32 -45t63.5 -55.5l103 -84q35 -28 52 -58.5t17 -78.5q0 -56 -39 -107.5t-106 -71.5zM337 741h-5l85 109h68z" />
    <glyph glyph-name="sacute" unicode="&#x15b;" horiz-adv-x="331" 
d="M93 -15q-18 9 -45.5 26.5t-42.5 29.5l46 44q26 -21 51 -37.5t63 -35.5q33 10 50.5 32t17.5 47q0 30 -11 50.5t-41 50.5l-68 68q-19 19 -28 39t-9 46q0 33 27.5 62.5t82.5 47.5l63 20q37 -5 77 -31l-37 -49q-48 33 -110 53q-25 -9 -39 -30t-14 -44q0 -24 9.5 -42.5
t26.5 -36.5l70 -70q32 -32 44 -55.5t12 -54.5q0 -71 -95 -100zM204 542h-5l111 168h72z" />
    <glyph glyph-name="Scircumflex" unicode="&#x15c;" horiz-adv-x="449" 
d="M205 -18q-59 0 -108 16.5t-82 41.5l32 145l6 -1v-88q27 -32 86 -59.5t116 -31.5q59 18 87 57t28 92q0 48 -21 80.5t-77 76.5l-95 75q-80 63 -80 140q0 52 31.5 94t95.5 65l83 30q57 0 94 -10.5t68 -31.5l-24 -151h-5l-13 107q-29 32 -70 45t-94 17q-62 -18 -87.5 -48.5
t-25.5 -75.5q0 -35 11.5 -59.5t32 -45t63.5 -55.5l103 -84q35 -28 52 -58.5t17 -78.5q0 -56 -39 -107.5t-106 -71.5zM231 741h-5l152 119h4l85 -119h-5l-93 63h-2z" />
    <glyph glyph-name="scircumflex" unicode="&#x15d;" horiz-adv-x="331" 
d="M93 -15q-18 9 -45.5 26.5t-42.5 29.5l46 44q26 -21 51 -37.5t63 -35.5q33 10 50.5 32t17.5 47q0 30 -11 50.5t-41 50.5l-68 68q-19 19 -28 39t-9 46q0 33 27.5 62.5t82.5 47.5l63 20q37 -5 77 -31l-37 -49q-48 33 -110 53q-25 -9 -39 -30t-14 -44q0 -24 9.5 -42.5
t26.5 -36.5l70 -70q32 -32 44 -55.5t12 -54.5q0 -71 -95 -100zM103 542h-5l153 168h4l85 -168h-5l-93 98h-2z" />
    <glyph glyph-name="Scedilla" unicode="&#x15e;" horiz-adv-x="449" 
d="M307 715q57 0 94 -10.5t68 -31.5l-24 -151h-5l-13 107q-29 32 -70 45t-94 17q-62 -18 -87.5 -48.5t-25.5 -75.5q0 -35 11.5 -59.5t32 -45t63.5 -55.5l103 -84q35 -28 52 -58.5t17 -78.5q0 -56 -39 -107.5t-106 -71.5l-75 -24l-27 -33q32 -3 50.5 -20t18.5 -46
q0 -38 -27.5 -62t-63.5 -36l-73 -26h-23l26 30h74q23 12 35.5 28t12.5 41q0 56 -60 61l50 62q-58 1 -106.5 17t-80.5 41l32 145l6 -1v-88q27 -32 86 -59.5t116 -31.5q59 18 87 57t28 92q0 48 -21 80.5t-77 76.5l-95 75q-80 63 -80 140q0 52 31.5 94t95.5 65z" />
    <glyph glyph-name="scedilla" unicode="&#x15f;" horiz-adv-x="331" 
d="M140 418q-14 -21 -14 -44q0 -24 9.5 -42.5t26.5 -36.5l70 -70q32 -32 44 -55.5t12 -54.5q0 -71 -95 -100l-96 -29l-30 -36q32 -3 50.5 -20t18.5 -46q0 -38 -27.5 -62t-63.5 -36l-73 -26h-23l26 30h74q23 12 35.5 28t12.5 41q0 56 -60 61l54 66q-19 10 -46 27t-40 28
l46 44q26 -21 51 -37.5t63 -35.5q33 10 50.5 32t17.5 47q0 30 -11 50.5t-41 50.5l-68 68q-19 19 -28 39t-9 46q0 33 27.5 62.5t82.5 47.5l63 20q37 -5 77 -31l-37 -49q-48 33 -110 53q-25 -9 -39 -30z" />
    <glyph glyph-name="Scaron" unicode="&#x160;" horiz-adv-x="449" 
d="M205 -18q-59 0 -108 16.5t-82 41.5l32 145l6 -1v-88q27 -32 86 -59.5t116 -31.5q59 18 87 57t28 92q0 48 -21 80.5t-77 76.5l-95 75q-80 63 -80 140q0 52 31.5 94t95.5 65l83 30q57 0 94 -10.5t68 -31.5l-24 -151h-5l-13 107q-29 32 -70 45t-94 17q-62 -18 -87.5 -48.5
t-25.5 -75.5q0 -35 11.5 -59.5t32 -45t63.5 -55.5l103 -84q35 -28 52 -58.5t17 -78.5q0 -56 -39 -107.5t-106 -71.5zM315 741h-4l-85 119h5l93 -63h2l136 63h5z" />
    <glyph glyph-name="scaron" unicode="&#x161;" horiz-adv-x="331" 
d="M93 -15q-18 9 -45.5 26.5t-42.5 29.5l46 44q26 -21 51 -37.5t63 -35.5q33 10 50.5 32t17.5 47q0 30 -11 50.5t-41 50.5l-68 68q-19 19 -28 39t-9 46q0 33 27.5 62.5t82.5 47.5l63 20q37 -5 77 -31l-37 -49q-48 33 -110 53q-25 -9 -39 -30t-14 -44q0 -24 9.5 -42.5
t26.5 -36.5l70 -70q32 -32 44 -55.5t12 -54.5q0 -71 -95 -100zM212 544h-4l-88 166h5l95 -96h2l138 96h5z" />
    <glyph glyph-name="uni0162" unicode="&#x162;" horiz-adv-x="528" 
d="M116 0l1 5l90 5l101 680h-164l-69 -160h-5l27 170h496l-26 -170h-5l-26 160h-162l-101 -680l103 -5l-1 -5h-259zM93 -240l26 30h74q23 12 35.5 28t12.5 41q0 56 -60 61l65 80h6l-41 -50q32 -3 50.5 -20t18.5 -46q0 -38 -27.5 -62t-63.5 -36l-73 -26h-23z" />
    <glyph glyph-name="uni0163" unicode="&#x163;" horiz-adv-x="265" 
d="M279 455h-100l-77 -441l119 75l3 -4l-135 -99l-30 -36q32 -3 50.5 -20t18.5 -46q0 -38 -27.5 -62t-63.5 -36l-73 -26h-23l26 30h74q23 12 35.5 28t12.5 41q0 56 -60 61l55 67l-39 23l78 445h-64l1 5h64l12 62l60 64h6l-22 -126h100z" />
    <glyph glyph-name="Tcaron" unicode="&#x164;" horiz-adv-x="528" 
d="M116 0l1 5l90 5l101 680h-164l-69 -160h-5l27 170h496l-26 -170h-5l-26 160h-162l-101 -680l103 -5l-1 -5h-259zM334 741h-4l-85 119h5l93 -63h2l136 63h5z" />
    <glyph glyph-name="tcaron" unicode="&#x165;" horiz-adv-x="265" 
d="M224 85l-137 -100l-42 25l78 445h-64l1 5h64l12 62l60 64h6l-22 -126h100l-1 -5h-100l-77 -441l119 75zM370 715l2 -27l-103 -175l-2 1l46 201h57z" />
    <glyph glyph-name="Tbar" unicode="&#x166;" horiz-adv-x="528" 
d="M97 700h496l-26 -170h-5l-26 160h-162l-39 -265h126l-1 -5h-126l-61 -410l103 -5l-1 -5h-259l1 5l90 5l61 410h-113l1 5h113l39 265h-164l-69 -160h-5z" />
    <glyph glyph-name="tbar" unicode="&#x167;" horiz-adv-x="265" 
d="M280 460l-1 -5h-100l-27 -154h121l-1 -5h-121l-49 -282l119 75l3 -4l-137 -100l-42 25l50 286h-58l1 5h58l27 154h-64l1 5h64l12 62l60 64h6l-22 -126h100z" />
    <glyph glyph-name="Utilde" unicode="&#x168;" horiz-adv-x="605" 
d="M273 -16q-189 0 -189 169q0 29 4 56l72 481l-84 5l1 5h235l-1 -5l-85 -5l-70 -465q-4 -23 -4 -49q0 -77 43.5 -119.5t133.5 -42.5q48 19 79.5 44t53.5 67.5t33 110.5l74 454l-89 5l1 5h196l-1 -5l-90 -5l-73 -453q-16 -95 -54 -150t-125 -83zM271 745h-5l45 85l65 20
l151 -83l50 81h5l-47 -85l-65 -20l-151 84z" />
    <glyph glyph-name="utilde" unicode="&#x169;" horiz-adv-x="474" 
d="M148 -15q-44 0 -66 18.5t-22 51.5q0 7 2 23l65 366l-95 -32l-2 5l154 58l4 -3l-67 -377q-2 -16 -2 -21q0 -42 40 -42q23 0 45.5 10.5t67.5 41.5l40 28l61 348h57l-78 -446l104 69l3 -3l-130 -95l-34 25l16 94zM425 595l-63 -17l-132 88l-48 -91h-5l45 95l63 17l132 -87
l50 90h5z" />
    <glyph glyph-name="Umacron" unicode="&#x16a;" horiz-adv-x="605" 
d="M273 -16q-189 0 -189 169q0 29 4 56l72 481l-84 5l1 5h235l-1 -5l-85 -5l-70 -465q-4 -23 -4 -49q0 -77 43.5 -119.5t133.5 -42.5q48 19 79.5 44t53.5 67.5t33 110.5l74 454l-89 5l1 5h196l-1 -5l-90 -5l-73 -453q-16 -95 -54 -150t-125 -83zM561 785h-280l2 10h280z" />
    <glyph glyph-name="umacron" unicode="&#x16b;" horiz-adv-x="474" 
d="M148 -15q-44 0 -66 18.5t-22 51.5q0 7 2 23l65 366l-95 -32l-2 5l154 58l4 -3l-67 -377q-2 -16 -2 -21q0 -42 40 -42q23 0 45.5 10.5t67.5 41.5l40 28l61 348h57l-78 -446l104 69l3 -3l-130 -95l-34 25l16 94zM462 606h-280l4 24h280z" />
    <glyph glyph-name="Ubreve" unicode="&#x16c;" horiz-adv-x="605" 
d="M273 -16q-189 0 -189 169q0 29 4 56l72 481l-84 5l1 5h235l-1 -5l-85 -5l-70 -465q-4 -23 -4 -49q0 -77 43.5 -119.5t133.5 -42.5q48 19 79.5 44t53.5 67.5t33 110.5l74 454l-89 5l1 5h196l-1 -5l-90 -5l-73 -453q-16 -95 -54 -150t-125 -83zM353 771.5
q-29 32.5 -47 82.5l5 3q16 -27 47 -49t75 -22q45 0 83 22.5t59 47.5l4 -3q-43 -71 -144 -114q-53 0 -82 32.5z" />
    <glyph glyph-name="ubreve" unicode="&#x16d;" horiz-adv-x="474" 
d="M148 -15q-44 0 -66 18.5t-22 51.5q0 7 2 23l65 366l-95 -32l-2 5l154 58l4 -3l-67 -377q-2 -16 -2 -21q0 -42 40 -42q23 0 45.5 10.5t67.5 41.5l40 28l61 348h57l-78 -446l104 69l3 -3l-130 -95l-34 25l16 94zM236 598.5q-28 38.5 -45 96.5l5 3q15 -34 45 -62.5t72 -28.5
t78 30t54 65l4 -3q-38 -87 -134 -139q-51 0 -79 38.5z" />
    <glyph glyph-name="Uring" unicode="&#x16e;" horiz-adv-x="605" 
d="M273 -16q-189 0 -189 169q0 29 4 56l72 481l-84 5l1 5h235l-1 -5l-85 -5l-70 -465q-4 -23 -4 -49q0 -77 43.5 -119.5t133.5 -42.5q48 19 79.5 44t53.5 67.5t33 110.5l74 454l-89 5l1 5h196l-1 -5l-90 -5l-73 -453q-16 -95 -54 -150t-125 -83zM366.5 734.5
q-22.5 16.5 -22.5 49.5q0 21 10 33.5t23 18t43 16.5q32 0 55 -16t23 -49q0 -21 -10 -33.5t-22.5 -18t-45.5 -17.5q-31 0 -53.5 16.5zM457 748.5q15 14.5 15 36.5t-15 37t-37 15t-36.5 -15t-14.5 -37t14.5 -36.5t36.5 -14.5t37 14.5z" />
    <glyph glyph-name="uring" unicode="&#x16f;" horiz-adv-x="474" 
d="M148 -15q-44 0 -66 18.5t-22 51.5q0 7 2 23l65 366l-95 -32l-2 5l154 58l4 -3l-67 -377q-2 -16 -2 -21q0 -42 40 -42q23 0 45.5 10.5t67.5 41.5l40 28l61 348h57l-78 -446l104 69l3 -3l-130 -95l-34 25l16 94zM252.5 559q-28.5 23 -28.5 68q0 29 12.5 46t30 25.5
t56.5 23.5q41 0 69.5 -22.5t28.5 -68.5q0 -29 -12.5 -46t-30 -25.5t-56.5 -23.5q-41 0 -69.5 23zM375.5 571q20.5 23 20.5 68q0 30 -19.5 50.5t-51.5 20.5q-35 0 -55.5 -23t-20.5 -68q0 -30 19.5 -50.5t51.5 -20.5q35 0 55.5 23z" />
    <glyph glyph-name="Uhungarumlaut" unicode="&#x170;" horiz-adv-x="605" 
d="M273 -16q-189 0 -189 169q0 29 4 56l72 481l-84 5l1 5h235l-1 -5l-85 -5l-70 -465q-4 -23 -4 -49q0 -77 43.5 -119.5t133.5 -42.5q48 19 79.5 44t53.5 67.5t33 110.5l74 454l-89 5l1 5h196l-1 -5l-90 -5l-73 -453q-16 -95 -54 -150t-125 -83zM319 752h-5l46 98h84z
M470 752h-5l46 98h84z" />
    <glyph glyph-name="uhungarumlaut" unicode="&#x171;" horiz-adv-x="474" 
d="M148 -15q-44 0 -66 18.5t-22 51.5q0 7 2 23l65 366l-95 -32l-2 5l154 58l4 -3l-67 -377q-2 -16 -2 -21q0 -42 40 -42q23 0 45.5 10.5t67.5 41.5l40 28l61 348h57l-78 -446l104 69l3 -3l-130 -95l-34 25l16 94zM158 542h-5l77 168h95zM324 542h-5l77 168h95z" />
    <glyph glyph-name="Uogonek" unicode="&#x172;" horiz-adv-x="605" 
d="M677 700l-1 -5l-90 -5l-73 -453q-15 -91 -51 -145.5t-117 -83.5l-88 -136l-8 -43q-1 -4 -1 -10q0 -54 110 -54l-1 -5q-76 0 -110 19.5t-34 59.5q0 6 2 22l6 34l111 108l-59 -19q-189 0 -189 169q0 29 4 56l72 481l-84 5l1 5h235l-1 -5l-85 -5l-70 -465q-4 -23 -4 -49
q0 -77 43.5 -119.5t133.5 -42.5q48 19 79.5 44t53.5 67.5t33 110.5l74 454l-89 5l1 5h196z" />
    <glyph glyph-name="uogonek" unicode="&#x173;" horiz-adv-x="474" 
d="M261 -171q-1 -4 -1 -10q0 -54 110 -54l-1 -5q-76 0 -110 19.5t-34 59.5q0 6 2 22l6 34l94 92l-32 23l16 94l-163 -119q-44 0 -66 18.5t-22 51.5q0 7 2 23l65 366l-95 -32l-2 5l154 58l4 -3l-67 -377q-2 -16 -2 -21q0 -42 40 -42q23 0 45.5 10.5t67.5 41.5l40 28l61 348
h57l-78 -446l104 69l3 -3l-104 -76l-86 -132z" />
    <glyph glyph-name="Wcircumflex" unicode="&#x174;" horiz-adv-x="931" 
d="M320 5l-53 -15l-104 700l-89 5l1 5h245l-1 -5l-90 -5l95 -637l182 447l-28 190l-69 5l1 5h235l-1 -5l-100 -5l96 -637l255 637l-89 5l1 5h198l-1 -5l-90 -5l-279 -685l-52 -15l-72 483zM424 741h-5l152 119h4l85 -119h-5l-93 63h-2z" />
    <glyph glyph-name="wcircumflex" unicode="&#x175;" horiz-adv-x="600" 
d="M303 236l-152 -244l-50 14l-9 433l-95 -36l-2 5l153 67l4 -3l2 -456l149 240l-4 183l60 26l2 -449l214 347l-66 81l55 31l31 -34l-14 -91l-223 -358l-50 14zM247 542h-5l153 168h4l85 -168h-5l-93 98h-2z" />
    <glyph glyph-name="Ycircumflex" unicode="&#x176;" horiz-adv-x="594" 
d="M160 0l1 5l90 5l42 279l-150 401l-69 5l1 5h234l-1 -5l-90 -5l136 -378l234 378l-91 5l1 5h170l-1 -5l-60 -5l-246 -392l-44 -288l89 -5l-1 -5h-245zM301 741h-5l152 119h4l85 -119h-5l-93 63h-2z" />
    <glyph glyph-name="ycircumflex" unicode="&#x177;" horiz-adv-x="412" 
d="M80 -236l-81 1l16 65h79l110 187l-54 -13l-55 435l-98 -38l-2 5l155 69l4 -3l54 -447l181 341l-68 78l55 31l31 -34l-3 -80l-186 -350zM153 542h-5l153 168h4l85 -168h-5l-93 98h-2z" />
    <glyph glyph-name="Ydieresis" unicode="&#x178;" horiz-adv-x="594" 
d="M160 0l1 5l90 5l42 279l-150 401l-69 5l1 5h234l-1 -5l-90 -5l136 -378l234 378l-91 5l1 5h170l-1 -5l-60 -5l-246 -392l-44 -288l89 -5l-1 -5h-245zM363 775l-19 -4l-45 4v39l15 32l20 4l43 -4v-38zM523 775l-18 -4l-46 4v39l16 32l20 4l42 -4v-38z" />
    <glyph glyph-name="Zacute" unicode="&#x179;" horiz-adv-x="513" 
d="M462 0h-457l-10 10l478 680h-299l-92 -176h-5l29 186h432l10 -11l-472 -679h317l89 180h5zM342 741h-5l85 109h68z" />
    <glyph glyph-name="zacute" unicode="&#x17a;" horiz-adv-x="377" 
d="M364 104l-51 -111l-277 34l-35 -32l-6 5l323 388l-215 31l-29 -57l-4 2l41 111l250 -33l29 26l7 -3l-319 -386l248 -28l33 55zM237 542h-5l111 168h72z" />
    <glyph glyph-name="Zdotaccent" unicode="&#x17b;" horiz-adv-x="513" 
d="M462 0h-457l-10 10l478 680h-299l-92 -176h-5l29 186h432l10 -11l-472 -679h317l89 180h5zM384 768l-24 -4l-54 4l3 43l16 37l26 4l48 -4v-43z" />
    <glyph glyph-name="zdotaccent" unicode="&#x17c;" horiz-adv-x="377" 
d="M364 104l-51 -111l-277 34l-35 -32l-6 5l323 388l-215 31l-29 -57l-4 2l41 111l250 -33l29 26l7 -3l-319 -386l248 -28l33 55zM308 586l-24 -4l-54 4l3 43l16 37l26 4l48 -4v-43z" />
    <glyph glyph-name="Zcaron" unicode="&#x17d;" horiz-adv-x="513" 
d="M462 0h-457l-10 10l478 680h-299l-92 -176h-5l29 186h432l10 -11l-472 -679h317l89 180h5zM320 741h-4l-85 119h5l93 -63h2l136 63h5z" />
    <glyph glyph-name="zcaron" unicode="&#x17e;" horiz-adv-x="377" 
d="M364 104l-51 -111l-277 34l-35 -32l-6 5l323 388l-215 31l-29 -57l-4 2l41 111l250 -33l29 26l7 -3l-319 -386l248 -28l33 55zM245 544h-4l-88 166h5l95 -96h2l138 96h5z" />
    <glyph glyph-name="longs" unicode="&#x17f;" horiz-adv-x="252" 
d="M-125 -235l11 60h116q12 19 18.5 41.5t13.5 63.5l92 525h-64l1 5h64l9 45q21 106 79 145l97 65h55l-10 -60h-124q-13 -21 -21 -46t-14 -63l-102 -581q-16 -98 -80 -138l-96 -62h-45z" />
    <glyph glyph-name="uni018F" unicode="&#x18f;" horiz-adv-x="541" 
d="M316 715q62 -9 112.5 -50t79.5 -104.5t29 -137.5q0 -94 -40 -177t-114 -146t-174 -98l-65 -23q-64 14 -94 50t-30 98q0 52 33 108l426 132q-1 121 -48 194.5t-144 106.5q-77 -41 -137.5 -76t-72.5 -45l-7 7q73 50 196 129zM407 153q69 88 72 201l-362 -114
q-28 -45 -28 -99q0 -57 29 -89.5t90 -45.5q130 59 199 147z" />
    <glyph glyph-name="florin" unicode="&#x192;" horiz-adv-x="302" 
d="M-105 -235l11 60h116q12 19 18.5 41.5t13.5 63.5l92 525h-64l1 5h64l9 45q21 106 79 145l97 65h55l-10 -60h-124q-13 -21 -21 -46t-14 -63l-15 -86h100l-1 -5h-100l-86 -490q-16 -98 -80 -138l-96 -62h-45z" />
    <glyph glyph-name="uni019D" unicode="&#x19d;" horiz-adv-x="667" 
d="M532 700h196l-1 -5l-90 -5l-111 -690h-31l-292 677l-108 -677l-106 -230h-65l12 65h43l99 165l111 690l-84 5l1 5h162l258 -601l94 591l-89 5z" />
    <glyph glyph-name="Gcaron" unicode="&#x1e6;" horiz-adv-x="624" 
d="M317 -18q-77 0 -137.5 39t-95 108t-34.5 156q0 144 74.5 252.5t203.5 152.5l73 25q58 0 113.5 -20.5t95.5 -56.5l-16 -137h-5l-28 98q-37 40 -90.5 63.5t-118.5 28.5q-106 -44 -166.5 -141t-60.5 -225q0 -145 57 -229.5t162 -95.5q28 9 69.5 29t64.5 35l35 236l-83 5l1 5
h209l-1 -5l-60 -5l-38 -250zM402 741h-4l-85 119h5l93 -63h2l136 63h5z" />
    <glyph glyph-name="gcaron" unicode="&#x1e7;" horiz-adv-x="433" 
d="M10 -235l10 55h173q25 22 50 71t33 95l27 149l-154 -150q-109 64 -109 174q0 92 54 170.5t147 116.5l71 29q21 -2 52 -12.5t49 -20.5l-85 -478q-6 -31 -37 -67t-80 -70l-87 -62h-114zM304 143l46 259q-25 15 -57.5 26t-54.5 12q-68 -37 -103 -96.5t-35 -136.5
q0 -51 22 -95t65 -74zM303 544h-4l-88 166h5l95 -96h2l138 96h5z" />
    <glyph glyph-name="uni01EA" unicode="&#x1ea;" horiz-adv-x="640" 
d="M296 -128l-8 -43q-1 -4 -1 -10q0 -54 110 -54l-1 -5q-76 0 -110 19.5t-34 59.5q0 6 2 22l6 34l116 114l-4 -2l-70 -25q-69 0 -126.5 37.5t-91.5 104.5t-34 151q0 86 27.5 170t86.5 150.5t150 96.5l70 23q69 0 126.5 -37t91 -103t33.5 -150q0 -83 -26 -164t-81.5 -147
t-139.5 -101zM448.5 79q52.5 61 82 147.5t29.5 178.5q0 136 -56 209t-147 83q-67 -15 -120 -75.5t-82.5 -147.5t-29.5 -179q0 -136 56.5 -210t147.5 -84q67 17 119.5 78z" />
    <glyph glyph-name="uni01EB" unicode="&#x1eb;" horiz-adv-x="432" 
d="M154 -128l-8 -43q-1 -4 -1 -10q0 -54 110 -54l-1 -5q-76 0 -110 19.5t-34 59.5q0 6 2 22l6 34l119 116l-59 -26q-36 0 -68 22t-51 65t-19 102q0 92 45.5 165t127.5 109l61 27q37 0 68.5 -20.5t50.5 -62t19 -100.5q0 -90 -43 -164t-121 -112zM132.5 62q32.5 -44 84.5 -52
q71 24 103 101.5t32 161.5q0 90 -31 129t-88 47q-70 -23 -101.5 -97.5t-31.5 -158.5q0 -87 32.5 -131z" />
    <glyph glyph-name="AEacute" unicode="&#x1fc;" horiz-adv-x="868" 
d="M-26 0l1 5l90 5l433 690h400l-28 -176h-5l-35 166h-262l-52 -347h142l58 114h5l-19 -118l-19 -119h-5l-22 113h-142l-48 -323h266l88 170h5l-29 -180h-487l1 5l90 5l48 323h-164l-199 -323l89 -5l-1 -5h-199zM501 685l-211 -342h160zM676 741h-5l85 109h68z" />
    <glyph glyph-name="aeacute" unicode="&#x1fd;" horiz-adv-x="623" 
d="M583 301l-264 -80q1 -77 31 -124.5t92 -69.5q99 58 125 77l5 -6q-57 -43 -118 -83l-46 -30q-48 6 -88.5 42.5t-53.5 96.5l-131 -139q-100 49 -100 170q0 91 52.5 170t142.5 121l62 29q29 0 65.5 -13t60.5 -34l107 46q37 -8 57.5 -31t20.5 -68q0 -38 -20 -74zM521 292
q16 31 16 71q0 36 -16 56t-47 28q-72 -35 -113.5 -93.5t-41.5 -127.5zM265 129q-4 19 -4 45q0 62 25 117t72 96q-30 25 -64 39t-66 14q-68 -38 -103 -101t-35 -142q0 -109 79 -163zM390 542h-5l111 168h72z" />
    <glyph glyph-name="Oslashacute" unicode="&#x1fe;" horiz-adv-x="640" 
d="M649 710l-77 -88q30 -38 46.5 -88.5t16.5 -108.5q0 -86 -27.5 -169t-86.5 -150t-149 -99l-70 -25q-60 0 -111 28t-86 79l-91 -104h-7l95 108q-52 77 -52 182q0 86 27.5 170t86.5 150.5t150 96.5l70 23q55 0 103 -23.5t82 -66.5l75 85h5zM149 146l378 430q-26 55 -70 85
t-100 36q-67 -15 -120 -75.5t-82.5 -147.5t-29.5 -179q0 -83 24 -149zM528 572l-377 -431q25 -63 71.5 -98.5t106.5 -41.5q67 17 119.5 78t82 147.5t29.5 178.5q0 101 -32 167zM402 741h-5l85 109h68z" />
    <glyph glyph-name="oslashacute" unicode="&#x1ff;" horiz-adv-x="432" 
d="M464 480l-75 -80q23 -46 23 -108q0 -93 -45.5 -168.5t-127.5 -111.5l-61 -27q-33 0 -62.5 18.5t-48.5 53.5l-68 -72h-7l72 77q-24 46 -24 112q0 92 45.5 165t127.5 109l61 27q34 0 64 -18t49 -52l70 75h7zM110 111l232 246q-13 44 -40.5 65t-68.5 27
q-70 -23 -101.5 -97.5t-31.5 -158.5q0 -44 10 -82zM343 352l-231 -247q14 -43 41.5 -66t63.5 -29q71 24 103 101.5t32 161.5q0 46 -9 79zM264 542h-5l111 168h72z" />
    <glyph glyph-name="uni0218" unicode="&#x218;" horiz-adv-x="449" 
d="M205 -18q-59 0 -108 16.5t-82 41.5l32 145l6 -1v-88q27 -32 86 -59.5t116 -31.5q59 18 87 57t28 92q0 48 -21 80.5t-77 76.5l-95 75q-80 63 -80 140q0 52 31.5 94t95.5 65l83 30q57 0 94 -10.5t68 -31.5l-24 -151h-5l-13 107q-29 32 -70 45t-94 17q-62 -18 -87.5 -48.5
t-25.5 -75.5q0 -35 11.5 -59.5t32 -45t63.5 -55.5l103 -84q35 -28 52 -58.5t17 -78.5q0 -56 -39 -107.5t-106 -71.5zM226 -127l-97 -106l-4 2l65 107l-29 22l7 45h70z" />
    <glyph glyph-name="uni0219" unicode="&#x219;" horiz-adv-x="331" 
d="M93 -15q-18 9 -45.5 26.5t-42.5 29.5l46 44q26 -21 51 -37.5t63 -35.5q33 10 50.5 32t17.5 47q0 30 -11 50.5t-41 50.5l-68 68q-19 19 -28 39t-9 46q0 33 27.5 62.5t82.5 47.5l63 20q37 -5 77 -31l-37 -49q-48 33 -110 53q-25 -9 -39 -30t-14 -44q0 -24 9.5 -42.5
t26.5 -36.5l70 -70q32 -32 44 -55.5t12 -54.5q0 -71 -95 -100zM111 -127l-97 -106l-4 2l65 107l-29 22l7 45h70z" />
    <glyph glyph-name="uni021A" unicode="&#x21a;" horiz-adv-x="528" 
d="M116 0l1 5l90 5l101 680h-164l-69 -160h-5l27 170h496l-26 -170h-5l-26 160h-162l-101 -680l103 -5l-1 -5h-259zM255 -127l-97 -106l-4 2l65 107l-29 22l7 45h70z" />
    <glyph glyph-name="uni021B" unicode="&#x21b;" horiz-adv-x="265" 
d="M224 85l-137 -100l-42 25l78 445h-64l1 5h64l12 62l60 64h6l-22 -126h100l-1 -5h-100l-77 -441l119 75zM103 -127l-97 -106l-4 2l65 107l-29 22l7 45h70z" />
    <glyph glyph-name="uni0232" unicode="&#x232;" horiz-adv-x="594" 
d="M160 0l1 5l90 5l42 279l-150 401l-69 5l1 5h234l-1 -5l-90 -5l136 -378l234 378l-91 5l1 5h170l-1 -5l-60 -5l-246 -392l-44 -288l89 -5l-1 -5h-245zM553 785h-280l2 10h280z" />
    <glyph glyph-name="uni0233" unicode="&#x233;" horiz-adv-x="412" 
d="M80 -236l-81 1l16 65h79l110 187l-54 -13l-55 435l-98 -38l-2 5l155 69l4 -3l54 -447l181 341l-68 78l55 31l31 -34l-3 -80l-186 -350zM431 606h-280l4 24h280z" />
    <glyph glyph-name="uni0259" unicode="&#x259;" horiz-adv-x="402" 
d="M215 475q64 -9 105.5 -62.5t41.5 -126.5q0 -93 -54.5 -166.5t-151.5 -110.5l-58 -23q-40 9 -59 33.5t-19 65.5q0 37 20 74l264 82q-2 151 -123 192q-99 -58 -125 -77l-5 6q46 34 118 83zM264 104.5q39 56.5 40 129.5l-202 -70q-16 -31 -16 -67q0 -70 64 -86
q75 37 114 93.5z" />
    <glyph glyph-name="uni0272" unicode="&#x272;" horiz-adv-x="479" 
d="M-86 -235l12 60h88q10 20 16 42.5t13 62.5l89 509l-95 -36l-2 5l155 67l4 -3l-20 -114l166 117q45 0 67 -19.5t22 -54.5q0 -6 -2 -22l-65 -365l99 74l3 -3l-117 -100l-42 25l62 344q2 16 2 23q0 51 -50 51q-20 0 -42.5 -11t-62.5 -38l-41 -28l-68 -386q-16 -96 -79 -136
l-97 -64h-15z" />
    <glyph glyph-name="uni02BC" unicode="&#x2bc;" horiz-adv-x="210" 
d="M103 463l-3 1l87 156l-37 -2l-22 4l4 47l14 37l60 4l24 -4l-4 -44l-15 -40z" />
    <glyph glyph-name="circumflex" unicode="&#x2c6;" horiz-adv-x="600" 
d="M200 542h-5l153 168h4l85 -168h-5l-93 98h-2z" />
    <glyph glyph-name="caron" unicode="&#x2c7;" horiz-adv-x="600" 
d="M325 544h-4l-88 166h5l95 -96h2l138 96h5z" />
    <glyph glyph-name="breve" unicode="&#x2d8;" horiz-adv-x="600" 
d="M263 598.5q-28 38.5 -45 96.5l5 3q15 -34 45 -62.5t72 -28.5t78 30t54 65l4 -3q-38 -87 -134 -139q-51 0 -79 38.5z" />
    <glyph glyph-name="dotaccent" unicode="&#x2d9;" horiz-adv-x="600" 
d="M367 586l-24 -4l-54 4l3 43l16 37l26 4l48 -4v-43z" />
    <glyph glyph-name="ring" unicode="&#x2da;" horiz-adv-x="600" 
d="M265.5 559q-28.5 23 -28.5 68q0 29 12.5 46t30 25.5t56.5 23.5q41 0 69.5 -22.5t28.5 -68.5q0 -29 -12.5 -46t-30 -25.5t-56.5 -23.5q-41 0 -69.5 23zM388.5 571q20.5 23 20.5 68q0 30 -19.5 50.5t-51.5 20.5q-35 0 -55.5 -23t-20.5 -68q0 -30 19.5 -50.5t51.5 -20.5
q35 0 55.5 23z" />
    <glyph glyph-name="ogonek" unicode="&#x2db;" horiz-adv-x="600" 
d="M115 -240q-76 0 -110 19.5t-34 59.5q0 6 2 22l6 34l126 123h5l-95 -146l-8 -43q-1 -4 -1 -10q0 -54 110 -54z" />
    <glyph glyph-name="tilde" unicode="&#x2dc;" horiz-adv-x="600" 
d="M438 595l-63 -17l-132 88l-48 -91h-5l45 95l63 17l132 -87l50 90h5z" />
    <glyph glyph-name="hungarumlaut" unicode="&#x2dd;" horiz-adv-x="600" 
d="M170 542h-5l77 168h95zM336 542h-5l77 168h95z" />
    <glyph glyph-name="gravecomb" unicode="&#x300;" horiz-adv-x="0" 
d="M-110 542h-5l-107 168h72z" />
    <glyph glyph-name="acutecomb" unicode="&#x301;" horiz-adv-x="0" 
d="M-252 542h-5l111 168h72z" />
    <glyph glyph-name="uni0302" unicode="&#x302;" horiz-adv-x="0" 
d="M-300 542h-5l153 168h4l85 -168h-5l-93 98h-2z" />
    <glyph glyph-name="tildecomb" unicode="&#x303;" horiz-adv-x="0" 
d="M-62 595l-63 -17l-132 88l-48 -91h-5l45 95l63 17l132 -87l50 90h5z" />
    <glyph glyph-name="uni0304" unicode="&#x304;" horiz-adv-x="0" 
d="M-26 606h-280l4 24h280z" />
    <glyph glyph-name="uni0306" unicode="&#x306;" horiz-adv-x="0" 
d="M-237 598.5q-28 38.5 -45 96.5l5 3q15 -34 45 -62.5t72 -28.5t78 30t54 65l4 -3q-38 -87 -134 -139q-51 0 -79 38.5z" />
    <glyph glyph-name="uni0307" unicode="&#x307;" horiz-adv-x="0" 
d="M-133 586l-24 -4l-54 4l3 43l16 37l26 4l48 -4v-43z" />
    <glyph glyph-name="uni0308" unicode="&#x308;" horiz-adv-x="0" 
d="M-161 595l-19 -4l-45 4v39l15 32l20 4l43 -4v-38zM-1 595l-18 -4l-46 4v39l16 32l20 4l42 -4v-38z" />
    <glyph glyph-name="uni030A" unicode="&#x30a;" horiz-adv-x="0" 
d="M-234.5 559q-28.5 23 -28.5 68q0 29 12.5 46t30 25.5t56.5 23.5q41 0 69.5 -22.5t28.5 -68.5q0 -29 -12.5 -46t-30 -25.5t-56.5 -23.5q-41 0 -69.5 23zM-111.5 571q20.5 23 20.5 68q0 30 -19.5 50.5t-51.5 20.5q-35 0 -55.5 -23t-20.5 -68q0 -30 19.5 -50.5t51.5 -20.5
q35 0 55.5 23z" />
    <glyph glyph-name="uni030B" unicode="&#x30b;" horiz-adv-x="0" 
d="M-330 542h-5l77 168h95zM-164 542h-5l77 168h95z" />
    <glyph glyph-name="uni030C" unicode="&#x30c;" horiz-adv-x="0" 
d="M-175 544h-4l-88 166h5l95 -96h2l138 96h5z" />
    <glyph glyph-name="dotbelowcomb" unicode="&#x323;" horiz-adv-x="0" 
d="M-319 -196l-51 -4l-21 4l4 47l11 28l50 4l22 -4l-1 -34z" />
    <glyph glyph-name="uni0326" unicode="&#x326;" horiz-adv-x="0" 
d="M-216 -127l-97 -106l-4 2l65 107l-29 22l7 45h70z" />
    <glyph glyph-name="uni0327" unicode="&#x327;" horiz-adv-x="0" 
d="M-344 -240l26 30h74q23 12 35.5 28t12.5 41q0 56 -60 61l65 80h6l-41 -50q32 -3 50.5 -20t18.5 -46q0 -38 -27.5 -62t-63.5 -36l-73 -26h-23z" />
    <glyph glyph-name="uni0328" unicode="&#x328;" horiz-adv-x="0" 
d="M-150 -240q-76 0 -110 19.5t-34 59.5q0 6 2 22l6 34l126 123h5l-95 -146l-8 -43q-1 -4 -1 -10q0 -54 110 -54z" />
    <glyph glyph-name="uni0394" unicode="&#x394;" horiz-adv-x="510" 
d="M472 0h-506l398 693l51 13zM355 645l-360 -629h409z" />
    <glyph glyph-name="uni03A9" unicode="&#x3a9;" horiz-adv-x="605" 
d="M9 0l27 170h5l21 -110h146l14 88q-66 26 -106.5 87t-40.5 140q0 65 24.5 127.5t77 113t132.5 76.5l70 23q61 0 111.5 -29.5t80 -82t29.5 -118.5q0 -69 -24 -135.5t-75 -120t-129 -81.5l-14 -88h142l55 110h5l-27 -170h-200l24 149q75 37 121.5 126t46.5 190
q0 108 -47.5 166t-125.5 66q-59 -11 -105 -53t-71.5 -106.5t-25.5 -142.5q0 -92 23.5 -158t63.5 -87l-24 -150h-204z" />
    <glyph glyph-name="uni03BC" unicode="&#x3bc;" horiz-adv-x="474" 
d="M456 83l3 -3l-130 -95l-34 25l16 94l-163 -119q-69 0 -85 45l-6 -56l29 -199v-5l-68 -4l-1 6q3 63 20 161l24 134q0 7 1 11l68 382h56l-65 -365q-2 -16 -2 -21q0 -42 40 -42q23 0 45.5 10.5t67.5 41.5l40 28l61 348h57l-78 -446z" />
    <glyph glyph-name="pi" unicode="&#x3c0;" horiz-adv-x="498" 
d="M524 460l-10 -50h-108l-76 -398l99 76l3 -3l-117 -100l-59 25l137 400h-168l-102 -410h-81v6l164 372l9 32h-114l-69 -85l-3 2l84 133h411z" />
    <glyph glyph-name="Wgrave" unicode="&#x1e80;" horiz-adv-x="931" 
d="M320 5l-53 -15l-104 700l-89 5l1 5h245l-1 -5l-90 -5l95 -637l182 447l-28 190l-69 5l1 5h235l-1 -5l-100 -5l96 -637l255 637l-89 5l1 5h198l-1 -5l-90 -5l-279 -685l-52 -15l-72 483zM558 741h-5l-100 109h65z" />
    <glyph glyph-name="wgrave" unicode="&#x1e81;" horiz-adv-x="600" 
d="M303 236l-152 -244l-50 14l-9 433l-95 -36l-2 5l153 67l4 -3l2 -456l149 240l-4 183l60 26l2 -449l214 347l-66 81l55 31l31 -34l-14 -91l-223 -358l-50 14zM379 542h-5l-107 168h72z" />
    <glyph glyph-name="Wacute" unicode="&#x1e82;" horiz-adv-x="931" 
d="M320 5l-53 -15l-104 700l-89 5l1 5h245l-1 -5l-90 -5l95 -637l182 447l-28 190l-69 5l1 5h235l-1 -5l-100 -5l96 -637l255 637l-89 5l1 5h198l-1 -5l-90 -5l-279 -685l-52 -15l-72 483zM530 741h-5l85 109h68z" />
    <glyph glyph-name="wacute" unicode="&#x1e83;" horiz-adv-x="600" 
d="M303 236l-152 -244l-50 14l-9 433l-95 -36l-2 5l153 67l4 -3l2 -456l149 240l-4 183l60 26l2 -449l214 347l-66 81l55 31l31 -34l-14 -91l-223 -358l-50 14zM348 542h-5l111 168h72z" />
    <glyph glyph-name="Wdieresis" unicode="&#x1e84;" horiz-adv-x="931" 
d="M320 5l-53 -15l-104 700l-89 5l1 5h245l-1 -5l-90 -5l95 -637l182 447l-28 190l-69 5l1 5h235l-1 -5l-100 -5l96 -637l255 637l-89 5l1 5h198l-1 -5l-90 -5l-279 -685l-52 -15l-72 483zM486 775l-19 -4l-45 4v39l15 32l20 4l43 -4v-38zM646 775l-18 -4l-46 4v39l16 32
l20 4l42 -4v-38z" />
    <glyph glyph-name="wdieresis" unicode="&#x1e85;" horiz-adv-x="600" 
d="M303 236l-152 -244l-50 14l-9 433l-95 -36l-2 5l153 67l4 -3l2 -456l149 240l-4 183l60 26l2 -449l214 347l-66 81l55 31l31 -34l-14 -91l-223 -358l-50 14zM330 595l-19 -4l-45 4v39l15 32l20 4l43 -4v-38zM490 595l-18 -4l-46 4v39l16 32l20 4l42 -4v-38z" />
    <glyph glyph-name="uni1E9E" unicode="&#x1e9e;" horiz-adv-x="623" 
d="M431 360q87 -15 132 -59t45 -108q0 -62 -31 -109.5t-85 -73t-119 -25.5t-135 38l23 145h5l27 -120q14 -22 46 -37t63 -15q36 0 65.5 24.5t47 70t17.5 104.5q0 72 -44.5 116t-127.5 43l1 5l212 250q-12 36 -57 59t-104 23q-42 0 -80.5 -22.5t-65 -61t-33.5 -86.5l-83 -521
h-162l1 5l93 5l74 467q11 71 57 125.5t116 78.5l100 34q70 0 123.5 -24t97.5 -75z" />
    <glyph glyph-name="uni1EA0" unicode="&#x1ea0;" horiz-adv-x="671" 
d="M490 706l54 -696l89 -5l-1 -5h-245l1 5l90 5l-18 243h-248l-135 -243l89 -5l-1 -5h-199l1 5l90 5l382 683zM430 645l-212 -382h241zM285 -196l-51 -4l-21 4l4 47l11 28l50 4l22 -4l-1 -34z" />
    <glyph glyph-name="uni1EA1" unicode="&#x1ea1;" horiz-adv-x="439" 
d="M135 -15q-100 49 -100 170q0 91 52.5 170t142.5 121l62 29q20 0 56 -12t54 -24l-75 -425l99 74l3 -3l-117 -100l-42 25l23 126zM294 143l46 261q-26 15 -57 25.5t-55 10.5q-68 -38 -103 -101t-35 -142q0 -109 79 -163zM177 -196l-51 -4l-21 4l4 47l11 28l50 4l22 -4
l-1 -34z" />
    <glyph glyph-name="uni1EB8" unicode="&#x1eb8;" horiz-adv-x="548" 
d="M-11 0l1 5l90 5l102 680l-84 5l1 5h479l-28 -176h-5l-35 166h-262l-48 -319h142l58 114h5l-19 -118l-19 -119h-5l-22 113h-141l-53 -351h266l88 170h5l-29 -180h-487zM231 -196l-51 -4l-21 4l4 47l11 28l50 4l22 -4l-1 -34z" />
    <glyph glyph-name="uni1EB9" unicode="&#x1eb9;" horiz-adv-x="402" 
d="M362 301l-264 -82q2 -151 123 -192q99 58 125 77l5 -6q-46 -34 -118 -83l-46 -30q-64 9 -105.5 62.5t-41.5 126.5q0 93 54.5 166.5t151.5 110.5l58 23q40 -9 59 -33.5t19 -65.5q0 -37 -20 -74zM300 296q16 31 16 67q0 70 -64 86q-75 -37 -114 -93.5t-40 -129.5zM158 -196
l-51 -4l-21 4l4 47l11 28l50 4l22 -4l-1 -34z" />
    <glyph glyph-name="uni1EBC" unicode="&#x1ebc;" horiz-adv-x="548" 
d="M-11 0l1 5l90 5l102 680l-84 5l1 5h479l-28 -176h-5l-35 166h-262l-48 -319h142l58 114h5l-19 -118l-19 -119h-5l-22 113h-141l-53 -351h266l88 170h5l-29 -180h-487zM242 745h-5l45 85l65 20l151 -83l50 81h5l-47 -85l-65 -20l-151 84z" />
    <glyph glyph-name="uni1EBD" unicode="&#x1ebd;" horiz-adv-x="402" 
d="M362 301l-264 -82q2 -151 123 -192q99 58 125 77l5 -6q-46 -34 -118 -83l-46 -30q-64 9 -105.5 62.5t-41.5 126.5q0 93 54.5 166.5t151.5 110.5l58 23q40 -9 59 -33.5t19 -65.5q0 -37 -20 -74zM300 296q16 31 16 67q0 70 -64 86q-75 -37 -114 -93.5t-40 -129.5zM421 595
l-63 -17l-132 88l-48 -91h-5l45 95l63 17l132 -87l50 90h5z" />
    <glyph glyph-name="uni1ECA" unicode="&#x1eca;" horiz-adv-x="283" 
d="M-11 0l1 5l90 5l102 680l-84 5l1 5h235l-1 -5l-85 -5l-102 -680l89 -5l-1 -5h-245zM99 -196l-51 -4l-21 4l4 47l11 28l50 4l22 -4l-1 -34z" />
    <glyph glyph-name="uni1ECB" unicode="&#x1ecb;" horiz-adv-x="243" 
d="M215 85l-117 -100l-42 25l76 429l-95 -36l-2 5l155 67l4 -3l-81 -460l99 76zM230 586l-24 -4l-54 4l3 43l16 37l26 4l48 -4v-43zM79 -196l-51 -4l-21 4l4 47l11 28l50 4l22 -4l-1 -34z" />
    <glyph glyph-name="uni1ECC" unicode="&#x1ecc;" horiz-adv-x="640" 
d="M302 -18q-69 0 -126.5 37.5t-91.5 104.5t-34 151q0 86 27.5 170t86.5 150.5t150 96.5l70 23q69 0 126.5 -37t91 -103t33.5 -150q0 -86 -27.5 -169t-86.5 -150t-149 -99zM448.5 79q52.5 61 82 147.5t29.5 178.5q0 136 -56 209t-147 83q-67 -15 -120 -75.5t-82.5 -147.5
t-29.5 -179q0 -136 56.5 -210t147.5 -84q67 17 119.5 78zM277 -196l-51 -4l-21 4l4 47l11 28l50 4l22 -4l-1 -34z" />
    <glyph glyph-name="uni1ECD" unicode="&#x1ecd;" horiz-adv-x="432" 
d="M178 -15q-36 0 -68 22t-51 65t-19 102q0 92 45.5 165t127.5 109l61 27q37 0 68.5 -20.5t50.5 -62t19 -100.5q0 -93 -45.5 -168.5t-127.5 -111.5zM320 111.5q32 77.5 32 161.5q0 90 -31 129t-88 47q-70 -23 -101.5 -97.5t-31.5 -158.5q0 -87 32.5 -131t84.5 -52
q71 24 103 101.5zM173 -196l-51 -4l-21 4l4 47l11 28l50 4l22 -4l-1 -34z" />
    <glyph glyph-name="uni1EE4" unicode="&#x1ee4;" horiz-adv-x="605" 
d="M273 -16q-189 0 -189 169q0 29 4 56l72 481l-84 5l1 5h235l-1 -5l-85 -5l-70 -465q-4 -23 -4 -49q0 -77 43.5 -119.5t133.5 -42.5q48 19 79.5 44t53.5 67.5t33 110.5l74 454l-89 5l1 5h196l-1 -5l-90 -5l-73 -453q-16 -95 -54 -150t-125 -83zM261 -196l-51 -4l-21 4l4 47
l11 28l50 4l22 -4l-1 -34z" />
    <glyph glyph-name="uni1EE5" unicode="&#x1ee5;" horiz-adv-x="474" 
d="M148 -15q-44 0 -66 18.5t-22 51.5q0 7 2 23l65 366l-95 -32l-2 5l154 58l4 -3l-67 -377q-2 -16 -2 -21q0 -42 40 -42q23 0 45.5 10.5t67.5 41.5l40 28l61 348h57l-78 -446l104 69l3 -3l-130 -95l-34 25l16 94zM194 -196l-51 -4l-21 4l4 47l11 28l50 4l22 -4l-1 -34z" />
    <glyph glyph-name="Ygrave" unicode="&#x1ef2;" horiz-adv-x="594" 
d="M160 0l1 5l90 5l42 279l-150 401l-69 5l1 5h234l-1 -5l-90 -5l136 -378l234 378l-91 5l1 5h170l-1 -5l-60 -5l-246 -392l-44 -288l89 -5l-1 -5h-245zM435 741h-5l-100 109h65z" />
    <glyph glyph-name="ygrave" unicode="&#x1ef3;" horiz-adv-x="412" 
d="M80 -236l-81 1l16 65h79l110 187l-54 -13l-55 435l-98 -38l-2 5l155 69l4 -3l54 -447l181 341l-68 78l55 31l31 -34l-3 -80l-186 -350zM285 542h-5l-107 168h72z" />
    <glyph glyph-name="uni1EF8" unicode="&#x1ef8;" horiz-adv-x="594" 
d="M160 0l1 5l90 5l42 279l-150 401l-69 5l1 5h234l-1 -5l-90 -5l136 -378l234 378l-91 5l1 5h170l-1 -5l-60 -5l-246 -392l-44 -288l89 -5l-1 -5h-245zM263 745h-5l45 85l65 20l151 -83l50 81h5l-47 -85l-65 -20l-151 84z" />
    <glyph glyph-name="uni1EF9" unicode="&#x1ef9;" horiz-adv-x="412" 
d="M80 -236l-81 1l16 65h79l110 187l-54 -13l-55 435l-98 -38l-2 5l155 69l4 -3l54 -447l181 341l-68 78l55 31l31 -34l-3 -80l-186 -350zM394 595l-63 -17l-132 88l-48 -91h-5l45 95l63 17l132 -87l50 90h5z" />
    <glyph glyph-name="uni2002" unicode="&#x2002;" horiz-adv-x="500" 
 />
    <glyph glyph-name="uni2003" unicode="&#x2003;" horiz-adv-x="1000" 
 />
    <glyph glyph-name="uni2004" unicode="&#x2004;" horiz-adv-x="333" 
 />
    <glyph glyph-name="uni2005" unicode="&#x2005;" horiz-adv-x="250" 
 />
    <glyph glyph-name="uni2007" unicode="&#x2007;" 
 />
    <glyph glyph-name="uni2008" unicode="&#x2008;" horiz-adv-x="220" 
 />
    <glyph glyph-name="uni2009" unicode="&#x2009;" horiz-adv-x="125" 
 />
    <glyph glyph-name="uni200A" unicode="&#x200a;" horiz-adv-x="42" 
 />
    <glyph glyph-name="uni200B" unicode="&#x200b;" horiz-adv-x="0" 
 />
    <glyph glyph-name="endash" unicode="&#x2013;" horiz-adv-x="470" 
d="M432 264h-400l6 29h400z" />
    <glyph glyph-name="emdash" unicode="&#x2014;" horiz-adv-x="870" 
d="M842 264h-800l6 29h800z" />
    <glyph glyph-name="quoteleft" unicode="&#x2018;" horiz-adv-x="205" 
d="M217 712l3 -1l-87 -156l37 2l22 -4l-4 -47l-14 -37l-60 -4l-24 4l4 44l15 40z" />
    <glyph glyph-name="quoteright" unicode="&#x2019;" horiz-adv-x="210" 
d="M103 463l-3 1l87 156l-37 -2l-22 4l4 47l14 37l60 4l24 -4l-4 -44l-15 -40z" />
    <glyph glyph-name="quotesinglbase" unicode="&#x201a;" horiz-adv-x="225" 
d="M18 -138l-3 1l87 156l-37 -2l-22 4l4 47l14 37l60 4l24 -4l-4 -44l-15 -40z" />
    <glyph glyph-name="quotedblleft" unicode="&#x201c;" horiz-adv-x="350" 
d="M217 711l3 -1l-87 -156l37 2l22 -4l-4 -47l-14 -37l-60 -4l-24 4l4 44l15 40zM361 711l3 -1l-87 -156l37 2l22 -4l-4 -47l-14 -37l-60 -4l-24 4l4 44l15 40z" />
    <glyph glyph-name="quotedblright" unicode="&#x201d;" horiz-adv-x="364" 
d="M247 464l-3 1l87 156l-37 -2l-22 4l4 47l14 37l60 4l24 -4l-4 -44l-15 -40zM103 464l-3 1l87 156l-37 -2l-22 4l4 47l14 37l60 4l24 -4l-4 -44l-15 -40z" />
    <glyph glyph-name="quotedblbase" unicode="&#x201e;" horiz-adv-x="370" 
d="M18 -138l-3 1l87 156l-37 -2l-22 4l4 47l14 37l60 4l24 -4l-4 -44l-15 -40zM163 -138l-3 1l87 156l-37 -2l-22 4l4 47l14 37l60 4l24 -4l-4 -44l-15 -40z" />
    <glyph glyph-name="dagger" unicode="&#x2020;" horiz-adv-x="437" 
d="M162 -60h-5l37 286l-18 103l39 41l39 126l-194 -39l16 89l181 -39l-6 203h89l-78 -203l195 39l-16 -89l-180 39l-5 -126l25 -41l-56 -103z" />
    <glyph glyph-name="daggerdbl" unicode="&#x2021;" horiz-adv-x="498" 
d="M236 -52h-89l78 203l-195 -39l16 89l180 -39l5 126l-24 41l39 41l39 126l-194 -39l16 89l181 -39l-6 203h89l-78 -203l195 39l-16 -89l-180 39l-5 -126l25 -41l-40 -41l-39 -126l194 39l-16 -89l-181 39z" />
    <glyph glyph-name="bullet" unicode="&#x2022;" horiz-adv-x="239" 
d="M153 257l-64 -4l-24 4l5 52l16 41l64 4l24 -4l-4 -49z" />
    <glyph glyph-name="ellipsis" unicode="&#x2026;" horiz-adv-x="694" 
d="M116 -1l-62 -4l-24 4l4 47l12 39l62 4l23 -4l-4 -46zM353 -1l-62 -4l-24 4l4 47l12 39l62 4l23 -4l-4 -46zM590 -1l-62 -4l-24 4l4 47l12 39l62 4l23 -4l-4 -46z" />
    <glyph glyph-name="perthousand" unicode="&#x2030;" horiz-adv-x="1061" 
d="M68 -5h-28l674 710h26zM215 350q-46 0 -76.5 36t-30.5 93q0 69 34.5 128t104.5 81l38 12q46 0 76.5 -36t30.5 -93q0 -69 -34.5 -128t-104.5 -81zM306 438q28 54 28 122q0 55 -18 87.5t-48 40.5q-46 -22 -74 -76t-28 -122q0 -55 18 -87.5t48 -40.5q46 22 74 76zM503 0
q-46 0 -76.5 36t-30.5 93q0 68 34.5 127.5t104.5 81.5l38 12q46 0 76.5 -36t30.5 -93q0 -68 -34.5 -127.5t-104.5 -81.5zM845 0q-46 0 -76.5 36t-30.5 93q0 68 34.5 127.5t104.5 81.5l38 12q46 0 76.5 -36t30.5 -93q0 -68 -34.5 -127.5t-104.5 -81.5zM594 88q28 54 28 122
q0 55 -18 87.5t-48 40.5q-46 -22 -74 -76t-28 -122q0 -55 18 -87.5t48 -40.5q46 22 74 76zM936 88q28 54 28 122q0 55 -18 87.5t-48 40.5q-46 -22 -74 -76t-28 -122q0 -55 18 -87.5t48 -40.5q46 22 74 76z" />
    <glyph glyph-name="guilsinglleft" unicode="&#x2039;" horiz-adv-x="266" 
d="M183 15h-6l-142 220l221 220h5l-171 -220z" />
    <glyph glyph-name="guilsinglright" unicode="&#x203a;" horiz-adv-x="266" 
d="M13 15h-6l171 220l-93 220h5l143 -220z" />
    <glyph glyph-name="fraction" unicode="&#x2044;" horiz-adv-x="144" 
d="M-153 -50h-26l520 760h24z" />
    <glyph glyph-name="uni2070" unicode="&#x2070;" horiz-adv-x="380" 
d="M215 391q-48 0 -80 42.5t-32 111.5q0 78 35 144.5t107 90.5l43 14q50 0 82.5 -42.5t32.5 -111.5q0 -77 -35.5 -144t-109.5 -91zM314.5 491q29.5 60 29.5 135q0 65 -21 105t-55 49q-48 -25 -76.5 -85.5t-28.5 -135.5q0 -65 20 -105t52 -49q50 26 79.5 86z" />
    <glyph glyph-name="uni2074" unicode="&#x2074;" horiz-adv-x="363" 
d="M281 400h-55l21 121h-162l-4 9l221 255h71l-1 -6l-279 -248h156l16 92l55 32h6l-22 -124h79l-1 -10h-80z" />
    <glyph glyph-name="uni2075" unicode="&#x2075;" horiz-adv-x="339" 
d="M89 397l11 52h127q59 41 59 96q0 33 -16.5 54.5t-48.5 21.5q-17 0 -31.5 -4.5t-33.5 -14.5l-22 -12l-6 3l60 192h197l-15 -49h-186l-45 -136l100 58q60 0 83.5 -25t23.5 -60q0 -82 -141 -143l-76 -33h-40z" />
    <glyph glyph-name="uni2076" unicode="&#x2076;" horiz-adv-x="348" 
d="M272 647q40 -2 63 -28.5t23 -67.5q0 -46 -24 -84t-73 -56l-53 -19q-48 0 -78.5 34t-30.5 92q0 64 35.5 120.5t98 97.5t142.5 58l1 -5q-88 -28 -141.5 -78.5t-67.5 -120.5zM280.5 455q16.5 33 16.5 70q0 41 -16.5 63t-39.5 22q-12 0 -25 -5t-51 -24q-3 -21 -3 -43
q0 -57 18.5 -89.5t53.5 -40.5q30 14 46.5 47z" />
    <glyph glyph-name="uni2077" unicode="&#x2077;" horiz-adv-x="319" 
d="M149 400h-45l1 5l245 330h-234l7 50h255l4 -5z" />
    <glyph glyph-name="uni2078" unicode="&#x2078;" horiz-adv-x="348" 
d="M337 564.5q20 -22.5 20 -51.5q0 -37 -29 -63t-85 -46l-36 -13q-45 0 -77.5 23.5t-32.5 63.5q0 41 32 67t85 47q-35 27 -52.5 48t-17.5 48q0 34 25.5 57.5t68.5 36.5l40 12q44 0 72.5 -18.5t28.5 -50.5q0 -38 -28 -61.5t-76 -44.5q42 -32 62 -54.5zM215.5 753
q-12.5 -18 -12.5 -40q0 -24 17 -44t49 -45q28 16 41 39t13 48q0 30 -17 49.5t-51 21.5q-27 -11 -39.5 -29zM277 441q16 22 16 49t-18 47.5t-55 49.5q-64 -39 -64 -88q0 -37 23 -64.5t53 -29.5q29 14 45 36z" />
    <glyph glyph-name="uni2079" unicode="&#x2079;" horiz-adv-x="340" 
d="M253 794q47 0 77 -34t30 -92q0 -64 -35.5 -120.5t-98 -97.5t-142.5 -58l-1 5q87 28 140.5 78.5t68.5 121.5l-103 -58q-41 2 -65.5 30.5t-24.5 68.5q0 46 25 83t75 54zM243.5 581q12.5 5 50.5 25q3 20 3 42q0 57 -18.5 89.5t-53.5 40.5q-31 -15 -47 -45t-16 -69
q0 -42 16 -65t39 -23q14 0 26.5 5z" />
    <glyph glyph-name="uni207A" unicode="&#x207a;" horiz-adv-x="392" 
d="M280 450h-14v134h-148v13h148v136h14v-136h147v-13h-147v-134z" />
    <glyph glyph-name="uni207B" unicode="&#x207b;" horiz-adv-x="398" 
d="M436 596h-315v13h315v-13z" />
    <glyph glyph-name="uni207C" unicode="&#x207c;" horiz-adv-x="416" 
d="M439 631h-311v13h311v-13zM439 526h-311v13h311v-13z" />
    <glyph glyph-name="uni207D" unicode="&#x207d;" horiz-adv-x="253" 
d="M240 321q-47 50 -68.5 100.5t-21.5 105.5q0 91 40.5 165t149.5 154l3 -3q-74 -59 -114 -136.5t-40 -187.5q0 -56 13.5 -107t40.5 -88z" />
    <glyph glyph-name="uni207E" unicode="&#x207e;" horiz-adv-x="253" 
d="M40 324q74 59 114.5 136t40.5 187q0 57 -13.5 108t-41.5 88l4 3q46 -51 67.5 -101t21.5 -105q0 -90 -40.5 -164t-149.5 -155z" />
    <glyph glyph-name="uni2080" unicode="&#x2080;" horiz-adv-x="380" 
d="M128 -159q-48 0 -80 42.5t-32 111.5q0 78 35 144.5t107 90.5l43 14q50 0 82.5 -42.5t32.5 -111.5q0 -77 -35.5 -144t-109.5 -91zM227.5 -59q29.5 60 29.5 135q0 65 -21 105t-55 49q-48 -25 -76.5 -85.5t-28.5 -135.5q0 -65 20 -105t52 -49q50 26 79.5 86z" />
    <glyph glyph-name="uni2081" unicode="&#x2081;" horiz-adv-x="324" 
d="M-5 -150l1 6l99 4l60 345l-105 -34l-1 6l158 61h8l-65 -378l91 -4l-1 -6h-245z" />
    <glyph glyph-name="uni2082" unicode="&#x2082;" horiz-adv-x="348" 
d="M-18 -150l-2 6l125 103q64 53 92.5 96.5t28.5 90.5q0 35 -16 56.5t-46 26.5l-36 -9l-39 -82h-30l3 68l125 38q48 0 73.5 -24.5t25.5 -60.5q0 -50 -36 -91.5t-109 -94.5l-103 -74h229v-8l-19 -41h-266z" />
    <glyph glyph-name="uni2083" unicode="&#x2083;" horiz-adv-x="316" 
d="M-10 -153l9 52h133q26 18 37.5 37t11.5 43q0 30 -24.5 51.5t-75.5 22.5l-2 6l37 19q41 21 61 44t20 52q0 21 -13.5 36.5t-35.5 17.5l-36 -9l-37 -78h-29l3 65l124 38q38 0 59.5 -17t21.5 -42q0 -35 -32.5 -61.5t-85.5 -40.5q50 -4 77 -25t27 -56q0 -31 -19 -53t-44.5 -36
t-67.5 -32l-79 -34h-40z" />
    <glyph glyph-name="uni2084" unicode="&#x2084;" horiz-adv-x="363" 
d="M194 -150h-55l21 121h-162l-4 9l221 255h71l-1 -6l-279 -248h156l16 92l55 32h6l-22 -124h79l-1 -10h-80z" />
    <glyph glyph-name="uni2085" unicode="&#x2085;" horiz-adv-x="339" 
d="M2 -153l11 52h127q59 41 59 96q0 33 -16.5 54.5t-48.5 21.5q-17 0 -31.5 -4.5t-33.5 -14.5l-22 -12l-6 3l60 192h197l-15 -49h-186l-45 -136l100 58q60 0 83.5 -25t23.5 -60q0 -82 -141 -143l-76 -33h-40z" />
    <glyph glyph-name="uni2086" unicode="&#x2086;" horiz-adv-x="348" 
d="M185 97q40 -2 63 -28.5t23 -67.5q0 -46 -24 -84t-73 -56l-53 -19q-48 0 -78.5 34t-30.5 92q0 64 35.5 120.5t98 97.5t142.5 58l1 -5q-88 -28 -141.5 -78.5t-67.5 -120.5zM193.5 -95q16.5 33 16.5 70q0 41 -16.5 63t-39.5 22q-12 0 -25 -5t-51 -24q-3 -21 -3 -43
q0 -57 18.5 -89.5t53.5 -40.5q30 14 46.5 47z" />
    <glyph glyph-name="uni2087" unicode="&#x2087;" horiz-adv-x="319" 
d="M62 -150h-45l1 5l245 330h-234l7 50h255l4 -5z" />
    <glyph glyph-name="uni2088" unicode="&#x2088;" horiz-adv-x="348" 
d="M250 14.5q20 -22.5 20 -51.5q0 -37 -29 -63t-85 -46l-36 -13q-45 0 -77.5 23.5t-32.5 63.5q0 41 32 67t85 47q-35 27 -52.5 48t-17.5 48q0 34 25.5 57.5t68.5 36.5l40 12q44 0 72.5 -18.5t28.5 -50.5q0 -38 -28 -61.5t-76 -44.5q42 -32 62 -54.5zM128.5 203
q-12.5 -18 -12.5 -40q0 -24 17 -44t49 -45q28 16 41 39t13 48q0 30 -17 49.5t-51 21.5q-27 -11 -39.5 -29zM190 -109q16 22 16 49t-18 47.5t-55 49.5q-64 -39 -64 -88q0 -37 23 -64.5t53 -29.5q29 14 45 36z" />
    <glyph glyph-name="uni2089" unicode="&#x2089;" horiz-adv-x="340" 
d="M166 244q47 0 77 -34t30 -92q0 -64 -35.5 -120.5t-98 -97.5t-142.5 -58l-1 5q87 28 140.5 78.5t68.5 121.5l-103 -58q-41 2 -65.5 30.5t-24.5 68.5q0 46 25 83t75 54zM156.5 31q12.5 5 50.5 25q3 20 3 42q0 57 -18.5 89.5t-53.5 40.5q-31 -15 -47 -45t-16 -69
q0 -42 16 -65t39 -23q14 0 26.5 5z" />
    <glyph glyph-name="uni208A" unicode="&#x208a;" horiz-adv-x="392" 
d="M163 -100h-14v134h-148v13h148v136h14v-136h147v-13h-147v-134z" />
    <glyph glyph-name="uni208B" unicode="&#x208b;" horiz-adv-x="398" 
d="M319 46h-315v13h315v-13z" />
    <glyph glyph-name="uni208C" unicode="&#x208c;" horiz-adv-x="416" 
d="M322 81h-311v13h311v-13zM322 -24h-311v13h311v-13z" />
    <glyph glyph-name="uni208D" unicode="&#x208d;" horiz-adv-x="253" 
d="M150 -229q-47 50 -68.5 100.5t-21.5 105.5q0 91 40.5 165t149.5 154l3 -3q-74 -59 -114 -136.5t-40 -187.5q0 -56 13.5 -107t40.5 -88z" />
    <glyph glyph-name="uni208E" unicode="&#x208e;" horiz-adv-x="253" 
d="M-50 -226q74 59 114.5 136t40.5 187q0 57 -13.5 108t-41.5 88l4 3q46 -51 67.5 -101t21.5 -105q0 -90 -40.5 -164t-149.5 -155z" />
    <glyph glyph-name="dong" unicode="&#x20ab;" horiz-adv-x="462" 
d="M509 573h-76l-99 -559l99 74l3 -3l-117 -100l-42 25l23 126l-154 -151q-46 21 -77.5 69t-31.5 107q0 85 53.5 156.5t144.5 108.5l73 29q11 -1 46 -14l23 132h-118l2 15h119l19 108l59 16l-22 -124h75zM301 143l42 242q-25 14 -57 24t-55 11q-66 -31 -100 -88t-34 -130
q0 -106 88 -165zM402 -102h-409l2 15h409z" />
    <glyph glyph-name="Euro" unicode="&#x20ac;" horiz-adv-x="575" 
d="M147 410h341l-3 -5h-340q-8 -40 -8 -78q0 -18 1 -27h266l-3 -5h-263q5 -116 56 -181.5t156 -95.5q61 27 171 90l2 -3q-90 -51 -219 -123q-53 3 -108 37t-91.5 97.5t-36.5 149.5q0 19 1 29h-59l2 5h57q4 51 22 105h-62l2 5h62q65 171 289 269l89 39q77 -21 129 -56
l-37 -56q-33 20 -78.5 41t-85.5 36q-213 -106 -252 -273z" />
    <glyph glyph-name="uni20AE" unicode="&#x20ae;" horiz-adv-x="528" 
d="M97 700h496l-26 -170h-5l-26 160h-162l-42 -286l184 96l-2 -10l-184 -96l-6 -39l184 95l-2 -10l-183 -95l-50 -335l103 -5l-1 -5h-259l1 5l90 5l44 297l-187 -97l1 10l188 97l6 40l-187 -97l1 10l187 97l48 323h-164l-69 -160h-5z" />
    <glyph glyph-name="uni20B4" unicode="&#x20b4;" horiz-adv-x="506" 
d="M372 393q-4 -2 -8.5 -4.5t-10.5 -5.5l-80 -39h228l-1 -10h-247l-23 -11q-51 -25 -100 -71.5t-49 -119.5q0 -57 37.5 -95.5t102.5 -38.5q44 0 79 18.5t66 50.5l75 104h5l-19 -120q-54 -27 -104.5 -42.5t-113.5 -23.5q-77 0 -130.5 40.5t-53.5 121.5q0 111 110 187h-104
l1 10h118q26 17 55 31l37 18h-202l2 10h221l47 23q68 34 106 71.5t38 95.5q0 51 -33.5 79.5t-90.5 28.5q-46 0 -80.5 -18t-64.5 -50l-70 -94h-5l18 110q55 27 104.5 42.5t110.5 23.5q80 0 121.5 -35.5t41.5 -99.5q0 -107 -116 -177h121l-2 -10h-137z" />
    <glyph glyph-name="uni20B8" unicode="&#x20b8;" horiz-adv-x="528" 
d="M591 690h-496l1 10h496zM115 0l1 5l90 5l95 640h-164l-69 -160h-5l27 170h496l-26 -170h-5l-26 160h-162l-95 -640l103 -5l-1 -5h-259z" />
    <glyph glyph-name="uni20BD" unicode="&#x20bd;" horiz-adv-x="522" 
d="M314 321h-113l-7 -49h234l-2 -10h-234l-38 -252l123 -5l-1 -5h-279l1 5l90 5l38 252h-97l2 10h96l63 418l-84 5l1 5h288q84 0 130.5 -41.5t46.5 -106.5q0 -71 -44 -122t-141 -84zM256 690l-53 -354h139q69 30 112 74.5t43 126.5q0 73 -36 113t-111 40h-94z" />
    <glyph glyph-name="uni20BF" unicode="&#x20bf;" horiz-adv-x="539" 
d="M312 375q65 0 110.5 -21.5t68.5 -57t23 -77.5q0 -69 -44 -117.5t-117 -77.5l-62 -24h-50l-14 -80h-10l14 80h-67l-14 -80h-10l14 80h-143v5l81 5l105 680l-75 5v5h157l15 81h9l-14 -81h56h11l14 81h10l-15 -82q73 -4 112 -38.5t39 -93.5q0 -69 -43.5 -117.5t-120.5 -65.5
zM263 690l-48 -315h57q31 0 71 22t69.5 63.5t29.5 97.5q0 67 -29.5 99.5t-96.5 32.5h-53zM312 15q126 69 126 197q0 66 -37.5 109.5t-108.5 43.5h-79l-54 -350h153z" />
    <glyph glyph-name="uni2113" unicode="&#x2113;" horiz-adv-x="423" 
d="M109 -15l-42 26l41 235l-103 -41l4 15l103 42l64 366l150 92q40 -1 58.5 -32.5t18.5 -74.5q0 -63 -31 -130t-84.5 -122.5t-117.5 -87.5l-46 -259l182 71l3 -5zM174 289q78 41 118 113t40 182q0 37 -10.5 64.5t-35.5 27.5l-47 -22z" />
    <glyph glyph-name="uni2116" unicode="&#x2116;" horiz-adv-x="946" 
d="M92 0h-102l1 5l93 5l120 680l-91 5v5h161l185 -676l119 676h102v-5l-93 -5l-122 -690h-70l-183 680zM713 125q-59 0 -93.5 39.5t-34.5 101.5q0 80 42 133t119 73l45 12q60 0 95 -39.5t35 -101.5q0 -81 -44 -136.5t-123 -72.5zM803 165q31 28 48 74t17 98q0 61 -26 97
t-69 36q-41 0 -71.5 -27.5t-47 -72t-16.5 -95.5q0 -59 25 -98.5t69 -39.5q40 0 71 28zM874 50h-326l2 10h326z" />
    <glyph glyph-name="trademark" unicode="&#x2122;" horiz-adv-x="913" 
d="M120 315l1 6l55 3l58 368h-85l-59 -101h-6l17 109h332l-17 -109h-6l-28 101h-84l-58 -368l52 -3l-1 -6h-171zM392 315l1 6l48 3l58 367l-47 4l1 5h117l92 -326l183 326h114l-1 -5l-48 -4l-58 -367l47 -3l-1 -6h-154l1 6l42 3l56 356l-206 -368h-32l-98 372l-57 -360
l44 -3l-1 -6h-101z" />
    <glyph glyph-name="uni2126" unicode="&#x2126;" horiz-adv-x="605" 
d="M9 0l27 170h5l21 -110h146l14 88q-66 26 -106.5 87t-40.5 140q0 65 24.5 127.5t77 113t132.5 76.5l70 23q61 0 111.5 -29.5t80 -82t29.5 -118.5q0 -69 -24 -135.5t-75 -120t-129 -81.5l-14 -88h142l55 110h5l-27 -170h-200l24 149q75 37 121.5 126t46.5 190
q0 108 -47.5 166t-125.5 66q-59 -11 -105 -53t-71.5 -106.5t-25.5 -142.5q0 -92 23.5 -158t63.5 -87l-24 -150h-204z" />
    <glyph glyph-name="estimated" unicode="&#x212e;" horiz-adv-x="821" 
d="M200.5 20.5q-63.5 35.5 -97 99.5t-33.5 148q0 125 34.5 212.5t127 148t261.5 86.5q77 0 134 -35.5t87.5 -99.5t30.5 -146q0 -25 -3 -54l-8 -48h-609l-10 -87q13 -107 76 -171t164 -64q98 0 174 56.5t118 153.5h66q-50 -100 -135.5 -154t-227.5 -81q-86 0 -149.5 35.5z
M133 380h542l12 64q-4 72 -33.5 127t-78 84.5t-108.5 29.5q-199 0 -313 -185z" />
    <glyph glyph-name="uni2153" unicode="&#x2153;" horiz-adv-x="784" 
d="M69 315l1 6l99 4l60 345l-105 -34l-1 6l158 61h8l-65 -378l91 -4l-1 -6h-245zM171 -50h-26l520 760h24zM482 -3l9 52h133q26 18 37.5 37t11.5 43q0 30 -24.5 51.5t-75.5 22.5l-2 6l37 19q41 21 61 44t20 52q0 21 -13.5 36.5t-35.5 17.5l-36 -9l-37 -78h-29l3 65l124 38
q38 0 59.5 -17t21.5 -42q0 -35 -32.5 -61.5t-85.5 -40.5q50 -4 77 -25t27 -56q0 -31 -19 -53t-44.5 -36t-67.5 -32l-79 -34h-40z" />
    <glyph glyph-name="uni2154" unicode="&#x2154;" horiz-adv-x="808" 
d="M56 315l-2 6l125 103q64 53 92.5 96.5t28.5 90.5q0 35 -16 56.5t-46 26.5l-36 -9l-39 -82h-30l3 68l125 38q48 0 73.5 -24.5t25.5 -60.5q0 -50 -36 -91.5t-109 -94.5l-103 -74h229v-8l-19 -41h-266zM195 -50h-26l520 760h24zM506 -3l9 52h133q26 18 37.5 37t11.5 43
q0 30 -24.5 51.5t-75.5 22.5l-2 6l37 19q41 21 61 44t20 52q0 21 -13.5 36.5t-35.5 17.5l-36 -9l-37 -78h-29l3 65l124 38q38 0 59.5 -17t21.5 -42q0 -35 -32.5 -61.5t-85.5 -40.5q50 -4 77 -25t27 -56q0 -31 -19 -53t-44.5 -36t-67.5 -32l-79 -34h-40z" />
    <glyph glyph-name="oneeighth" unicode="&#x215b;" horiz-adv-x="816" 
d="M69 315l1 6l99 4l60 345l-105 -34l-1 6l158 61h8l-65 -378l91 -4l-1 -6h-245zM171 -50h-26l520 760h24zM742 164.5q20 -22.5 20 -51.5q0 -37 -29 -63t-85 -46l-36 -13q-45 0 -77.5 23.5t-32.5 63.5q0 41 32 67t85 47q-35 27 -52.5 48t-17.5 48q0 34 25.5 57.5t68.5 36.5
l40 12q44 0 72.5 -18.5t28.5 -50.5q0 -38 -28 -61.5t-76 -44.5q42 -32 62 -54.5zM620.5 353q-12.5 -18 -12.5 -40q0 -24 17 -44t49 -45q28 16 41 39t13 48q0 30 -17 49.5t-51 21.5q-27 -11 -39.5 -29zM682 41q16 22 16 49t-18 47.5t-55 49.5q-64 -39 -64 -88q0 -37 23 -64.5
t53 -29.5q29 14 45 36z" />
    <glyph glyph-name="threeeighths" unicode="&#x215c;" horiz-adv-x="788" 
d="M64 312l9 52h133q26 18 37.5 37t11.5 43q0 30 -24.5 51.5t-75.5 22.5l-2 6l37 19q41 21 61 44t20 52q0 21 -13.5 36.5t-35.5 17.5l-36 -9l-37 -78h-29l3 65l124 38q38 0 59.5 -17t21.5 -42q0 -35 -32.5 -61.5t-85.5 -40.5q50 -4 77 -25t27 -56q0 -31 -19 -53t-44.5 -36
t-67.5 -32l-79 -34h-40zM143 -50h-26l520 760h24zM714 164.5q20 -22.5 20 -51.5q0 -37 -29 -63t-85 -46l-36 -13q-45 0 -77.5 23.5t-32.5 63.5q0 41 32 67t85 47q-35 27 -52.5 48t-17.5 48q0 34 25.5 57.5t68.5 36.5l40 12q44 0 72.5 -18.5t28.5 -50.5q0 -38 -28 -61.5
t-76 -44.5q42 -32 62 -54.5zM592.5 353q-12.5 -18 -12.5 -40q0 -24 17 -44t49 -45q28 16 41 39t13 48q0 30 -17 49.5t-51 21.5q-27 -11 -39.5 -29zM654 41q16 22 16 49t-18 47.5t-55 49.5q-64 -39 -64 -88q0 -37 23 -64.5t53 -29.5q29 14 45 36z" />
    <glyph glyph-name="fiveeighths" unicode="&#x215d;" horiz-adv-x="786" 
d="M76 312l11 52h127q59 41 59 96q0 33 -16.5 54.5t-48.5 21.5q-17 0 -31.5 -4.5t-33.5 -14.5l-22 -12l-6 3l60 192h197l-15 -49h-186l-45 -136l100 58q60 0 83.5 -25t23.5 -60q0 -82 -141 -143l-76 -33h-40zM141 -50h-26l520 760h24zM712 164.5q20 -22.5 20 -51.5
q0 -37 -29 -63t-85 -46l-36 -13q-45 0 -77.5 23.5t-32.5 63.5q0 41 32 67t85 47q-35 27 -52.5 48t-17.5 48q0 34 25.5 57.5t68.5 36.5l40 12q44 0 72.5 -18.5t28.5 -50.5q0 -38 -28 -61.5t-76 -44.5q42 -32 62 -54.5zM590.5 353q-12.5 -18 -12.5 -40q0 -24 17 -44t49 -45
q28 16 41 39t13 48q0 30 -17 49.5t-51 21.5q-27 -11 -39.5 -29zM652 41q16 22 16 49t-18 47.5t-55 49.5q-64 -39 -64 -88q0 -37 23 -64.5t53 -29.5q29 14 45 36z" />
    <glyph glyph-name="seveneighths" unicode="&#x215e;" horiz-adv-x="751" 
d="M136 315h-45l1 5l245 330h-234l7 50h255l4 -5zM106 -50h-26l520 760h24zM677 164.5q20 -22.5 20 -51.5q0 -37 -29 -63t-85 -46l-36 -13q-45 0 -77.5 23.5t-32.5 63.5q0 41 32 67t85 47q-35 27 -52.5 48t-17.5 48q0 34 25.5 57.5t68.5 36.5l40 12q44 0 72.5 -18.5
t28.5 -50.5q0 -38 -28 -61.5t-76 -44.5q42 -32 62 -54.5zM555.5 353q-12.5 -18 -12.5 -40q0 -24 17 -44t49 -45q28 16 41 39t13 48q0 30 -17 49.5t-51 21.5q-27 -11 -39.5 -29zM617 41q16 22 16 49t-18 47.5t-55 49.5q-64 -39 -64 -88q0 -37 23 -64.5t53 -29.5q29 14 45 36z
" />
    <glyph glyph-name="arrowleft" unicode="&#x2190;" horiz-adv-x="610" 
d="M320 77v-27l-270 245l270 245v-27l-229 -208h469v-20h-469z" />
    <glyph glyph-name="arrowup" unicode="&#x2191;" horiz-adv-x="590" 
d="M305 40h-20v469l-208 -229h-27l245 270l245 -270h-27l-208 229v-469z" />
    <glyph glyph-name="arrowright" unicode="&#x2192;" horiz-adv-x="610" 
d="M560 295l-270 -245v27l229 208h-469v20h469l-229 208v27z" />
    <glyph glyph-name="arrowdown" unicode="&#x2193;" horiz-adv-x="590" 
d="M540 310l-245 -270l-245 270h27l208 -229v469h20v-469l208 229h27z" />
    <glyph glyph-name="uni2196" unicode="&#x2196;" horiz-adv-x="467" 
d="M70 130l-20 -19v364h364l-19 -20h-309l331 -333l-14 -14l-333 331v-309z" />
    <glyph glyph-name="uni2197" unicode="&#x2197;" horiz-adv-x="467" 
d="M397 439l-333 -331l-14 14l331 333h-309l-19 20h364v-364l-20 19v309z" />
    <glyph glyph-name="uni2198" unicode="&#x2198;" horiz-adv-x="467" 
d="M417 93h-364l19 20h309l-331 333l14 14l333 -331v309l20 19v-364z" />
    <glyph glyph-name="uni2199" unicode="&#x2199;" horiz-adv-x="467" 
d="M414 93h-364v364l20 -19v-309l333 331l14 -14l-331 -333h309z" />
    <glyph glyph-name="partialdiff" unicode="&#x2202;" 
d="M272 720q83 -23 142.5 -79t91 -133.5t31.5 -162.5q0 -91 -34.5 -174t-95 -134.5t-135.5 -51.5q-92 23 -134 81.5t-42 134.5q0 65 28 128.5t80 104.5t120 41l158 -102q1 9 1 28q0 115 -54.5 199t-159.5 115zM358 64q52 52 84.5 133.5t39.5 167.5l-41 24q-35 21 -59.5 30.5
t-51.5 9.5q-55 0 -96 -39t-62.5 -102.5t-21.5 -135.5q0 -73 23 -106.5t70 -33.5q63 0 115 52z" />
    <glyph glyph-name="emptyset" unicode="&#x2205;" horiz-adv-x="600" 
d="M544 558l-69 -68q49 -55 49 -135q0 -56 -25 -101t-70 -71t-103 -26q-81 0 -135 49l-69 -68l-12 12l68 68q-24 26 -37 61.5t-13 75.5q0 56 25 101t70 71t103 26q82 0 138 -51l68 68zM193 232l257 256q-50 47 -124 47q-53 0 -93.5 -24t-62.5 -65.5t-22 -90.5q0 -72 45 -123
zM493 421q-11 31 -32 55l-257 -256q50 -45 122 -45q53 0 93.5 24t62.5 65.5t22 90.5q0 35 -11 66z" />
    <glyph glyph-name="uni2206" unicode="&#x2206;" horiz-adv-x="510" 
d="M472 0h-506l398 693l51 13zM355 645l-360 -629h409z" />
    <glyph glyph-name="product" unicode="&#x220f;" horiz-adv-x="720" 
d="M-42 -160l1 5l93 5l133 840l-92 5l1 5h680l-1 -5l-92 -5l-133 -840l91 -5l-1 -5h-254l1 5l93 5l133 840h-356l-133 -840l91 -5l-1 -5h-254z" />
    <glyph glyph-name="summation" unicode="&#x2211;" 
d="M487 -160h-479l1 5l372 401l-228 449l1 5h469l-23 -145h-5l-43 135h-305l196 -392l-1 -5l-365 -393h353l81 125h5z" />
    <glyph glyph-name="minus" unicode="&#x2212;" 
d="M572 265h-525v20h525v-20z" />
    <glyph glyph-name="radical" unicode="&#x221a;" 
d="M230 18l-49 -33l-178 465l-61 5v5h128l156 -423l295 832h157l-7 -20h-147z" />
    <glyph glyph-name="infinity" unicode="&#x221e;" horiz-adv-x="765" 
d="M692.5 427.5q32.5 -42.5 32.5 -106.5q0 -45 -14.5 -75.5t-46.5 -57t-91 -59.5q-53 0 -99.5 36t-107.5 105q-45 -51 -70.5 -77t-56 -45t-60.5 -19q-63 0 -101 44t-38 112q0 55 34.5 97.5t117.5 87.5q54 0 101.5 -36.5t109.5 -105.5q44 48 73 76t62 47t66 19
q56 0 88.5 -42.5zM681.5 221q33.5 29 33.5 90q0 52 -31.5 81t-95.5 29q-46 0 -88.5 -26.5t-88.5 -74.5q58 -63 99.5 -95.5t87.5 -32.5q50 0 83.5 29zM270.5 205.5q40.5 26.5 86.5 74.5q-56 63 -96.5 95t-84.5 32q-59 0 -92.5 -29t-33.5 -83q0 -49 37 -82.5t101 -33.5
q42 0 82.5 26.5z" />
    <glyph glyph-name="integral" unicode="&#x222b;" 
d="M47 -235l11 60h116q12 19 18.5 41.5t13.5 63.5l102 575q8 46 27.5 84.5t51.5 60.5l97 65h55l-10 -60h-124q-13 -21 -21 -46t-14 -63l-102 -581q-16 -98 -80 -138l-96 -62h-45z" />
    <glyph glyph-name="approxequal" unicode="&#x2248;" 
d="M31 271h-5l39 80l93 12l387 -53l44 74h5l-39 -75l-93 -17l-386 57zM31 89h-5l39 80l93 12l387 -53l44 74h5l-39 -75l-93 -17l-386 57z" />
    <glyph glyph-name="notequal" unicode="&#x2260;" 
d="M133 0h-27l116 140h-170v20h187l142 170h-329v20h345l109 130h26l-108 -130h143v-20h-160l-141 -170h301v-20h-318z" />
    <glyph glyph-name="lessequal" unicode="&#x2264;" 
d="M570 138v-21l-520 236v10l520 237v-21l-493 -221zM570 0h-520v20h520v-20z" />
    <glyph glyph-name="greaterequal" unicode="&#x2265;" 
d="M570 353l-520 -236v21l493 220l-493 221v21l520 -237v-10zM570 0h-520v20h520v-20z" />
    <glyph glyph-name="uni2460" unicode="&#x2460;" horiz-adv-x="812" 
d="M223.5 30.5q-83.5 44.5 -133.5 128.5t-50 197q0 153 97.5 243.5t267.5 115.5q100 -1 183.5 -45.5t133.5 -128.5t50 -197q0 -153 -97.5 -243.5t-267.5 -115.5q-100 1 -183.5 45.5zM564.5 41.5q73.5 41.5 117.5 119.5t44 183q0 114 -50.5 194.5t-124.5 121t-144 40.5
q-86 0 -159.5 -41.5t-117.5 -120t-44 -182.5q0 -114 50.5 -194.5t124.5 -121t144 -40.5q86 0 159.5 41.5zM299 167v6l84 4v348l-85 -27l-2 6l139 53h6v-380l84 -4v-6h-226z" />
    <glyph glyph-name="uni2461" unicode="&#x2461;" horiz-adv-x="812" 
d="M588.5 669.5q83.5 -44.5 133.5 -128.5t50 -197q0 -153 -97.5 -243.5t-267.5 -115.5q-100 1 -183.5 45.5t-133.5 128.5t-50 197q0 153 97.5 243.5t267.5 115.5q100 -1 183.5 -45.5zM564.5 41.5q73.5 41.5 117.5 119.5t44 183q0 114 -50.5 194.5t-124.5 121t-144 40.5
q-86 0 -159.5 -41.5t-117.5 -120t-44 -182.5q0 -114 50.5 -194.5t124.5 -121t144 -40.5q86 0 159.5 41.5zM317 221h238v-7l-18 -46h-269l-5 6l60 60q80 78 113.5 129.5t33.5 99.5q0 37 -19.5 58.5t-46.5 21.5q-20 0 -51 -9l-22 -85h-53v63l137 50q62 0 92.5 -26.5
t30.5 -66.5q0 -55 -38.5 -101t-126.5 -108z" />
    <glyph glyph-name="uni2462" unicode="&#x2462;" horiz-adv-x="812" 
d="M223.5 30.5q-83.5 44.5 -133.5 128.5t-50 197q0 153 97.5 243.5t267.5 115.5q100 -1 183.5 -45.5t133.5 -128.5t50 -197q0 -153 -97.5 -243.5t-267.5 -115.5q-100 1 -183.5 45.5zM564.5 41.5q73.5 41.5 117.5 119.5t44 183q0 114 -50.5 194.5t-124.5 121t-144 40.5
q-86 0 -159.5 -41.5t-117.5 -120t-44 -182.5q0 -114 50.5 -194.5t124.5 -121t144 -40.5q86 0 159.5 41.5zM302 159v53h139q20 16 29.5 32t9.5 37q0 34 -30.5 57t-84.5 22l-1 8l32 16q43 22 57 41.5t14 48.5q0 27 -16 43.5t-40 16.5q-12 0 -39 -8l-22 -72h-49v55l141 46
q44 0 65.5 -20.5t21.5 -46.5q0 -60 -109 -95q54 -1 88 -26t34 -59t-24.5 -58.5t-75.5 -49.5l-87 -41h-53z" />
    <glyph glyph-name="uni2463" unicode="&#x2463;" horiz-adv-x="812" 
d="M223.5 30.5q-83.5 44.5 -133.5 128.5t-50 197q0 153 97.5 243.5t267.5 115.5q100 -1 183.5 -45.5t133.5 -128.5t50 -197q0 -153 -97.5 -243.5t-267.5 -115.5q-100 1 -183.5 45.5zM564.5 41.5q73.5 41.5 117.5 119.5t44 183q0 114 -50.5 194.5t-124.5 121t-144 40.5
q-86 0 -159.5 -41.5t-117.5 -120t-44 -182.5q0 -114 50.5 -194.5t124.5 -121t144 -40.5q86 0 159.5 41.5zM455 164h-58v124h-166l-5 7l181 254h74v-6l-244 -246h160v92l58 33v-126h81v-8h-81v-124z" />
    <glyph glyph-name="uni2464" unicode="&#x2464;" horiz-adv-x="812" 
d="M223.5 30.5q-83.5 44.5 -133.5 128.5t-50 197q0 153 97.5 243.5t267.5 115.5q100 -1 183.5 -45.5t133.5 -128.5t50 -197q0 -153 -97.5 -243.5t-267.5 -115.5q-100 1 -183.5 45.5zM564.5 41.5q73.5 41.5 117.5 119.5t44 183q0 114 -50.5 194.5t-124.5 121t-144 40.5
q-86 0 -159.5 -41.5t-117.5 -120t-44 -182.5q0 -114 50.5 -194.5t124.5 -121t144 -40.5q86 0 159.5 41.5zM290 158v53h112q32 20 47.5 43t15.5 55q0 27 -16 46t-48 19q-18 0 -32 -4t-40 -16l-25 -12l-3 3l23 199h204l-8 -51h-193l-16 -142l120 61q47 0 71.5 -23t24.5 -57
q0 -45 -29.5 -73.5t-86.5 -56.5l-88 -44h-33z" />
    <glyph glyph-name="uni2465" unicode="&#x2465;" horiz-adv-x="812" 
d="M588.5 669.5q83.5 -44.5 133.5 -128.5t50 -197q0 -153 -97.5 -243.5t-267.5 -115.5q-100 1 -183.5 45.5t-133.5 128.5t-50 197q0 153 97.5 243.5t267.5 115.5q100 -1 183.5 -45.5zM564.5 41.5q73.5 41.5 117.5 119.5t44 183q0 114 -50.5 194.5t-124.5 121t-144 40.5
q-86 0 -159.5 -41.5t-117.5 -120t-44 -182.5q0 -114 50.5 -194.5t124.5 -121t144 -40.5q86 0 159.5 41.5zM432 411q50 0 75.5 -31.5t25.5 -73.5q0 -55 -35 -94t-109 -56q-62 0 -96 44t-34 109q0 84 54 152.5t167 98.5l2 -5q-64 -23 -99 -55t-47.5 -71.5t-12.5 -92.5z
M470 281q0 45 -16 69.5t-41 24.5q-12 0 -29 -9t-61 -37q1 -77 23 -118.5t56 -41.5q68 0 68 112z" />
    <glyph glyph-name="uni2466" unicode="&#x2466;" horiz-adv-x="812" 
d="M223.5 30.5q-83.5 44.5 -133.5 128.5t-50 197q0 153 97.5 243.5t267.5 115.5q100 -1 183.5 -45.5t133.5 -128.5t50 -197q0 -153 -97.5 -243.5t-267.5 -115.5q-100 1 -183.5 45.5zM564.5 41.5q73.5 41.5 117.5 119.5t44 183q0 114 -50.5 194.5t-124.5 121t-144 40.5
q-86 0 -159.5 -41.5t-117.5 -120t-44 -182.5q0 -114 50.5 -194.5t124.5 -121t144 -40.5q86 0 159.5 41.5zM381 150h-46v5l191 327h-233v53h256l4 -5z" />
    <glyph glyph-name="uni2467" unicode="&#x2467;" horiz-adv-x="812" 
d="M588.5 669.5q83.5 -44.5 133.5 -128.5t50 -197q0 -153 -97.5 -243.5t-267.5 -115.5q-100 1 -183.5 45.5t-133.5 128.5t-50 197q0 153 97.5 243.5t267.5 115.5q100 -1 183.5 -45.5zM564.5 41.5q73.5 41.5 117.5 119.5t44 183q0 114 -50.5 194.5t-124.5 121t-144 40.5
q-86 0 -159.5 -41.5t-117.5 -120t-44 -182.5q0 -114 50.5 -194.5t124.5 -121t144 -40.5q86 0 159.5 41.5zM482 340q26 -19 40.5 -40t14.5 -47q0 -41 -34 -65.5t-106 -38.5q-54 2 -89.5 26t-35.5 71q0 33 26.5 56t70.5 41l-32 24q-27 20 -42 40.5t-15 45.5q0 37 31 60t96 38
q60 -2 91 -22.5t31 -59.5q0 -29 -23.5 -52t-70.5 -42zM356.5 526q-16.5 -13 -16.5 -37q0 -25 17.5 -47t55.5 -50l15 -11q24 19 33 39.5t9 44.5q0 34 -19.5 54t-51.5 20q-26 0 -42.5 -13zM456.5 175.5q19.5 14.5 19.5 47.5q0 24 -13.5 41.5t-47.5 43.5l-40 30
q-45 -37 -45 -81q0 -46 24.5 -71t55.5 -25q27 0 46.5 14.5z" />
    <glyph glyph-name="uni2468" unicode="&#x2468;" horiz-adv-x="812" 
d="M588.5 669.5q83.5 -44.5 133.5 -128.5t50 -197q0 -153 -97.5 -243.5t-267.5 -115.5q-100 1 -183.5 45.5t-133.5 128.5t-50 197q0 153 97.5 243.5t267.5 115.5q100 -1 183.5 -45.5zM564.5 41.5q73.5 41.5 117.5 119.5t44 183q0 114 -50.5 194.5t-124.5 121t-144 40.5
q-86 0 -159.5 -41.5t-117.5 -120t-44 -182.5q0 -114 50.5 -194.5t124.5 -121t144 -40.5q86 0 159.5 41.5zM515 503q34 -44 34 -109q0 -83 -55 -151t-166 -98l-2 5q84 32 121 85t37 126v5l-105 -74q-51 0 -77.5 32.5t-26.5 74.5q0 54 35.5 92t108.5 56q62 0 96 -44z
M423 334.5q11 5.5 31.5 19t29.5 19.5q-1 76 -23 118t-55 42t-50.5 -26.5t-17.5 -79.5q0 -48 17 -73t44 -25q13 0 24 5.5z" />
    <glyph glyph-name="lozenge" unicode="&#x25ca;" 
d="M295 4l-57 -24l-175 350l305 365l51 21l176 -350zM285 16l260 311l-172 353l-258 -315z" />
    <glyph glyph-name="uniF8FF" unicode="&#xf8ff;" horiz-adv-x="685" 
d="M495 -14l-3 -15l-30 1l-24 18h-14l-8 8l7 76l-4 47l-61 1l-3 -52l-2 -56v-20l-15 -6l-8 6l-30 -10h-32l-1 11l11 11l50 21l-6 96l-98 -6l-147 140l-4 115l-13 10l-10 36v26l15 8l-3 78l92 -62l9 47l10 36l22 35l28 35l39 29l78 29h22l-68 22l4 17h7l79 -20l-4 51l16 12
h32l19 -5l29 -25l32 -8l32 -10l15 -13v-20l-20 -31l30 -28l28 -32l18 -34l15 -41l9 -54l-3 -41l-8 -35l-12 -31l-3 -156l-21 -7l-50 70l-27 -7l-19 -140l-32 4l-7 -4l-4 -94l30 -19zM221 543l17 -3h5l36 24h32l18 -12l8 3l4 14l7 5l10 -4v-18h8l10 22l11 8l-5 6l-3 8l1 21
l-30 -10l-10 -8l-8 5l4 21l14 10l11 11l38 -2l12 13l-4 8h-49l-45 -13l-53 -26l-29 -23l-25 -34l29 12l13 -15l-17 -20zM406 614l12 -6l3 17l-7 17l-8 -9v-19zM460 588l6 -24h13l6 6l-9 18l17 28l-15 9v5l-25 7v-20l-13 -5v-9l-9 -6l-3 -12l5 -6l19 11zM537 412l8 -6l18 12
h23l6 11l-18 6l-5 9l9 42h7l14 -20l17 -1l-8 37l-19 50l-20 36l-23 28l-34 21h-11l17 -19l25 -10l11 -11l3 -33l-25 13l-15 -29l12 -8v-19l15 3l-12 26l15 -5l10 -20l-5 -12l-8 -7h-23l-3 11l-12 2l1 -22h-14l14 -18l-7 -10l-21 5l-3 -27l41 6l8 17l22 -2l6 -28l-16 -13v-15
zM483 517l8 -3l2 7l-2 9l-8 -4v-9zM269 522l-55 -24l59 12zM347 508l49 -17l3 4l-48 25zM91 266l11 -12v180l57 -32l7 10l-68 38v18l59 -34l43 -28l28 -14l3 10l-103 64l-13 7l-41 33l2 -78l19 -17v-5h-21l19 -14l1 -11l-20 7l18 -18l-4 -7zM245 438l12 -6l11 5l16 12l6 12
l2 13l-22 -4l6 -10l-12 -13l-14 -1l-6 8l1 4l14 2l-13 6l2 7l-20 -1l3 -19zM346 431l13 -1l18 10l6 9l5 20l-30 2l7 -5l1 -11l-7 -11h-12l-5 7l11 8l-15 2v6l-23 4l3 -17l8 -14zM231 221v-91l18 4l2 40l41 -3l3 9l-44 6v16l48 -6l1 9l-47 7l1 22l43 -3l3 6l-45 9l3 94h74
l11 10h-79l2 9h74l8 7h-82l2 22l117 4l140 -4v11l-4 7h-205l-66 -3l-7 -9l-6 -44l-48 20l-11 -4l57 -27l1 -45zM559 396v-10h5l5 7v7zM383 371l-3 -35h53l4 30zM139 275l64 -44l-1 60l4 40l-66 39v-7l-2 -13l1 -27v-48zM548 302l20 15l13 13l11 18l-7 5h-14l-10 3l-14 7
l-17 -3l-6 -48q1 1 16 -12zM467 359v-13l44 4l4 9h-48zM452 143l27 -1l12 79l4 36l-15 3l-1 8l20 1l5 3l-28 16l2 5l30 -6l-30 15l5 5l21 -5l4 10l3 19l-54 1l-1 -24v-6l-2 -31l19 -3l-8 -61l-48 3l-8 -6l51 -5l-2 -9h-49l-4 -5l53 -7zM321 312v-10h73v10h-73zM550 282
l39 -48v78l-6 -3zM316 275l78 -4v10l-72 7zM316 260v-10h68v6zM152 230l50 -41l4 14l-74 50zM316 167l64 -6v53l-64 4v-51z" />
    <glyph glyph-name="fi" unicode="&#xfb01;" horiz-adv-x="468" 
d="M-125 -235l11 60h116q12 19 18.5 41.5t13.5 63.5l92 525h-64l1 5h64l9 45q21 106 79 145l97 65h156l-12 -60h-223q-13 -21 -20.5 -45t-14.5 -64l-15 -86h181l51 15l4 -3l-81 -460l99 76l3 -3l-117 -100l-42 25l79 445h-178l-86 -490q-18 -97 -80 -138l-96 -62h-45z" />
    <glyph glyph-name="fl" unicode="&#xfb02;" horiz-adv-x="473" 
d="M-125 -235l11 60h116q12 19 18.5 41.5t13.5 63.5l92 525h-64l1 5h64l9 45q21 106 79 145l97 65h156l-124 -701l99 74l3 -3l-117 -100l-42 25l78 445h-183l-86 -490q-16 -98 -80 -138l-96 -62h-45zM183 460h183l34 195h-167q-13 -21 -21 -46t-14 -63z" />
    <glyph glyph-name="uniFEFF" unicode="&#xfeff;" horiz-adv-x="0" 
 />
    <glyph glyph-name="uni004A0301" horiz-adv-x="276" 
d="M-70 -175l11 70h109q25 59 37 141l98 654l-84 5l1 5h235l-1 -5l-85 -5l-93 -624q-6 -41 -23 -73.5t-33 -51.5t-51 -54l-63 -62h-58zM250 741h-5l85 109h68z" />
    <glyph glyph-name="uni006A0301" horiz-adv-x="239" 
d="M-110 -235l12 60h118q10 20 16 42.5t13 62.5l89 509l-95 -36l-2 5l155 67l4 -3l-89 -507q-18 -96 -79 -136l-97 -64h-45zM158 542h-5l111 168h72z" />
    <glyph glyph-name="uni0237" horiz-adv-x="239" 
d="M-110 -235l12 60h118q10 20 16 42.5t13 62.5l89 509l-95 -36l-2 5l155 67l4 -3l-89 -507q-18 -96 -79 -136l-97 -64h-45z" />
    <glyph glyph-name="zero.zero" horiz-adv-x="508" 
d="M227 -15q-55 0 -97.5 26t-66 71.5t-23.5 102.5q0 88 44 154.5t143 108.5l64 27q55 0 97.5 -26t66 -71.5t23.5 -102.5q0 -186 -187 -263zM383 386q-35 54 -116 74q-75 -38 -118.5 -103.5t-43.5 -156.5q0 -55 16 -94zM413 260q0 74 -27 121l-263 -281q32 -75 128 -100
q162 91 162 260z" />
    <glyph glyph-name="zero.tf" 
d="M278 -15q-55 0 -97.5 26t-66 71.5t-23.5 102.5q0 88 44 154.5t143 108.5l64 27q55 0 97.5 -26t66 -71.5t23.5 -102.5q0 -186 -187 -263zM464 260q0 81 -33.5 131t-112.5 69q-75 -38 -118.5 -103.5t-43.5 -156.5q0 -79 35 -129t111 -71q162 91 162 260z" />
    <glyph glyph-name="one.tf" 
d="M103 0l1 5l153 5l74 425l-189 -70l-1 5l246 100h5l-80 -460l147 -5l-1 -5h-355z" />
    <glyph glyph-name="two.tf" 
d="M42 0v6l215 148q95 65 127.5 113t32.5 98q0 38 -23.5 61.5t-67.5 27.5l-72 -22l-61 -137h-27l11 119l191 61q56 0 85 -28t29 -67q0 -53 -50.5 -105.5t-146.5 -115.5l-151 -99h358v-10l-19 -50h-431z" />
    <glyph glyph-name="three.tf" 
d="M58 -230l12 65h213q54 35 77.5 76.5t23.5 93.5q0 50 -42 87t-136 37l-1 6l48 22q79 37 119 80t40 107q0 43 -26 74.5t-68 35.5l-79 -23l-57 -126h-27l7 109l191 61q55 0 89 -31.5t34 -78.5q0 -66 -53 -117t-145 -84q78 -5 124 -40t46 -96q0 -60 -33 -103t-81 -70
t-115 -52l-86 -33h-75z" />
    <glyph glyph-name="four.tf" 
d="M365 14h142v-10h-144l-41 -234h-57l41 234h-283l-4 9l382 457h73l-1 -5l-440 -451h275l35 199l58 33h5z" />
    <glyph glyph-name="five.tf" 
d="M40 -230l16 65h204q61 42 92.5 91.5t31.5 113.5q0 67 -28 107.5t-82 40.5q-31 0 -56 -9t-61 -30l-36 -24l-10 4l105 341h315l-20 -60h-302l-86 -275l150 100q100 0 138 -48t38 -115q0 -90 -72 -161t-176 -108l-86 -33h-75z" />
    <glyph glyph-name="six.tf" 
d="M372 447q36 0 69.5 -26t54 -69t20.5 -92q0 -92 -40 -157t-123 -93l-72 -25q-80 0 -127.5 56.5t-47.5 158.5q0 121 59.5 230t163.5 186t234 105l1 -7q-83 -17 -159 -73t-132 -136t-82 -167zM417 96q34 63 34 134q0 59 -15 97.5t-38.5 56t-49.5 17.5q-22 0 -41 -7.5
t-60 -29.5l-58 -34q-18 -60 -18 -120q0 -84 39 -141t108 -64q65 28 99 91z" />
    <glyph glyph-name="seven.tf" 
d="M163 -230h-56l1 5l419 625h-385l10 60h408l4 -5z" />
    <glyph glyph-name="eight.tf" 
d="M440 329.5q26 -23.5 44.5 -55t18.5 -68.5q0 -141 -195 -207l-42 -14q-44 0 -84 19t-64.5 54.5t-24.5 83.5q0 139 204 218q-54 43 -83 80.5t-29 88.5q0 58 39 103.5t107 65.5l53 17q70 0 114 -33.5t44 -91.5q0 -51 -25.5 -88.5t-61 -61.5t-87.5 -50q46 -37 72 -60.5z
M250 554q0 -45 28.5 -81t83.5 -79q114 66 114 174q0 56 -30.5 92t-93.5 40q-102 -44 -102 -146zM428 185q0 35 -17 64.5t-41 51.5t-67 55q-140 -82 -140 -192q0 -48 19.5 -85.5t51 -58t66.5 -20.5q128 67 128 185z" />
    <glyph glyph-name="nine.tf" 
d="M339 475q80 0 127.5 -56.5t47.5 -158.5q0 -118 -59.5 -222.5t-163.5 -178t-234 -100.5l-1 7q82 16 156.5 68t130.5 127t84 158l-179 -106q-36 0 -69.5 26t-54 69t-20.5 92q0 92 40 157t123 93zM430 129q19 63 19 121q0 84 -39 141t-108 64q-65 -28 -99 -91t-34 -134
q0 -59 15 -97.5t38.5 -56t49.5 -17.5q22 0 41 7.5t60 29.5z" />
    <glyph glyph-name="zero.tf.zero" 
d="M278 -15q-55 0 -97.5 26t-66 71.5t-23.5 102.5q0 88 44 154.5t143 108.5l64 27q55 0 97.5 -26t66 -71.5t23.5 -102.5q0 -186 -187 -263zM434 386q-35 54 -116 74q-75 -38 -118.5 -103.5t-43.5 -156.5q0 -55 16 -94zM464 260q0 74 -27 121l-263 -281q32 -75 128 -100
q162 91 162 260z" />
    <glyph glyph-name="dollar.tf" 
d="M392 713q49 -1 82 -11.5t62 -30.5l-24 -151h-5l-13 107q-37 41 -107 55l-51 -287l91 -74q35 -28 52 -58.5t17 -78.5q0 -56 -39 -107.5t-106 -71.5l-79 -25h-8l-11 -60h-10l11 60q-53 3 -97.5 19t-74.5 39l32 145l6 -1v-88q19 -23 57.5 -45.5t82.5 -34.5l55 314l-71 56
q-80 63 -80 140q0 52 31.5 94t95.5 65l83 30h8l12 68h10zM328 402l49 282q-33 4 -47 5q-62 -18 -87.5 -48.5t-25.5 -75.5q0 -35 11.5 -59.5t32 -45t63.5 -55.5zM323 321l-54 -309q27 -7 53 -9q59 18 87 57t28 92q0 48 -21 80.5t-77 76.5z" />
    <glyph glyph-name="cent.tf" 
d="M383.5 66.5q45.5 26.5 67.5 41.5l4 -5q-31 -23 -103 -73q-6 -5 -11 -8t-9 -6l-35 -24l-13 -72h-10l11 65q-33 1 -67.5 23.5t-57.5 65.5t-23 100q0 91 50.5 159t153.5 116l30 14l13 77h10l-12 -72l14 7q17 -2 41.5 -13t45.5 -24l-34 -51q-40 28 -112 55
q-75 -39 -107.5 -98t-32.5 -126q0 -83 33.5 -129.5t83.5 -60.5q24 12 69.5 38.5z" />
    <glyph glyph-name="sterling.tf" 
d="M436 10l82 145h5l-27 -155h-457l1 5l94 10l61 348h-92l1 5h92l20 112q11 64 33.5 105.5t65 70.5t116.5 51l26 8q46 -13 82 -42l-37 -49q-36 27 -58 39.5t-57 24.5q-39 -16 -64 -47.5t-37 -100.5l-30 -172h186l-1 -5h-186l-39 -220q-8 -46 -15 -69.5t-16 -36.5t-27 -27
h278z" />
    <glyph glyph-name="florin.tf" 
d="M55 -235l11 60h116q12 19 18.5 41.5t13.5 63.5l92 525h-64l1 5h64l9 45q21 106 79 145l97 65h55l-10 -60h-124q-13 -21 -21 -46t-14 -63l-15 -86h100l-1 -5h-100l-86 -490q-16 -98 -80 -138l-96 -62h-45z" />
    <glyph glyph-name="yen.tf" 
d="M526 700h170v-5l-60 -5l-236 -392l-4 -25h110l-1 -5h-110l-13 -89h107l-1 -5h-107l-25 -164l89 -5v-5h-245v5l90 5l25 164h-108l1 5h107l14 89h-105l1 5h105l2 16l-141 401l-69 5v5h234v-5l-90 -5l127 -378l224 378l-91 5v5z" />
    <glyph glyph-name="Euro.tf" 
d="M186 410h341l-3 -5h-340q-8 -40 -8 -78q0 -18 1 -27h266l-3 -5h-263q5 -116 56 -181.5t156 -95.5q61 27 171 90l2 -3q-90 -51 -219 -123q-53 3 -108 37t-91.5 97.5t-36.5 149.5q0 19 1 29h-59l2 5h57q4 51 22 105h-62l2 5h62q65 171 289 269l89 39q77 -21 129 -56
l-37 -56q-33 20 -78.5 41t-85.5 36q-213 -106 -252 -273z" />
    <glyph glyph-name="percent.tf" 
d="M62 -5h-25l557 710h23zM197 350q-39 0 -64 34.5t-25 89.5q0 69 31.5 130.5t95.5 83.5l34 12q39 0 63.5 -34.5t24.5 -89.5q0 -68 -32 -129.5t-95 -84.5zM279 441.5q25 56.5 25 126.5q0 52 -14 82t-38 38q-41 -23 -66 -80t-25 -126q0 -52 14 -82t38 -38q41 23 66 79.5z
M403 0q-39 0 -64 34.5t-25 89.5q0 69 31.5 130t95.5 84l33 12q39 0 64 -34.5t25 -89.5q0 -68 -32 -129.5t-95 -84.5zM485 91.5q25 56.5 25 126.5q0 52 -14 82t-38 38q-41 -23 -66 -79.5t-25 -126.5q0 -52 14 -82t38 -38q41 23 66 79.5z" />
    <glyph glyph-name="perthousand.tf" 
d="M179 401q-39 0 -65 30.5t-26 79.5q0 58 29.5 107.5t89.5 70.5l32 11q39 0 65 -31t26 -79q0 -59 -29 -110t-89 -69zM161 624q-24 -46 -24 -104q0 -47 15.5 -74.5t41.5 -34.5q40 20 63.5 65.5t23.5 103.5q0 47 -15.5 75t-40.5 34q-40 -19 -64 -65zM65 272l470 235l-5 -21
l-468 -235zM491 299q39 0 65 -30.5t26 -79.5q0 -58 -29.5 -107.5t-89.5 -70.5l-32 -11q-29 0 -51.5 17.5t-32.5 47.5q-32 -39 -78 -54l-33 -11q-39 0 -65 31t-26 79q0 60 29 110.5t89 68.5l33 10q29 0 51 -17t33 -46q29 39 78 53zM314.5 76q23.5 46 23.5 104
q0 47 -15.5 74.5t-41.5 34.5q-40 -20 -63.5 -65.5t-23.5 -103.5q0 -48 15.5 -75.5t41.5 -33.5q40 19 63.5 65zM509 76q24 46 24 104q0 47 -15.5 74.5t-41.5 34.5q-40 -20 -63.5 -65.5t-23.5 -103.5q0 -48 15.5 -75.5t41.5 -33.5q39 19 63 65z" />
    <glyph glyph-name="uni0312" horiz-adv-x="0" 
d="M-101 542h-70l13 70l96 101l5 -2l-65 -102l29 -22z" />
    <glyph glyph-name="Aogonek.ss01" horiz-adv-x="671" 
d="M544 10l89 -5l-1 -5h-153l-71 -85l-5 -16q-2 -5 -2 -16q0 -26 28.5 -40t74.5 -14l-1 -5q-73 0 -106 16.5t-33 49.5q0 6 2 18l6 23l105 78l-18 244h-247l-135 -243l89 -5l-1 -5h-199l1 5l90 5l382 683l51 13zM430 645l-212 -382h240z" />
    <glyph glyph-name="Ccedilla.ss01" horiz-adv-x="577" 
d="M388 715q64 0 115.5 -17.5t83.5 -41.5l-5 -154h-6l-39 121q-72 56 -183 68q-108 -38 -168.5 -139t-60.5 -232q0 -150 57 -228t157 -92q32 13 78 36t60 34l77 131h6l-34 -151l-208 -68l-23 -22q32 -1 49 -15t17 -36q0 -25 -28 -41.5t-63 -24.5l-67 -18h-23l30 27h84
q28 14 28 39q0 21 -17 30t-47 11l50 50q-73 2 -132 41t-92.5 106t-33.5 151q0 83 28.5 162t88.5 143.5t149 100.5z" />
    <glyph glyph-name="Eogonek.ss01" horiz-adv-x="548" 
d="M578 700l-28 -176h-5l-35 166h-262l-48 -319h142l58 114h5l-19 -118l-19 -119h-5l-22 113h-141l-53 -351h266l88 170h5l-29 -180h-53l-71 -85l-5 -16q-2 -5 -2 -16q0 -26 28.5 -40t74.5 -14l-1 -5q-73 0 -106 16.5t-33 49.5q0 6 2 18l6 23l93 69h-420l1 5l90 5l102 680
l-84 5l1 5h479z" />
    <glyph glyph-name="uni0122.ss01" horiz-adv-x="624" 
d="M317 -18q-77 0 -137.5 39t-95 108t-34.5 156q0 144 74.5 252.5t203.5 152.5l73 25q58 0 113.5 -20.5t95.5 -56.5l-16 -137h-5l-28 98q-37 40 -90.5 63.5t-118.5 28.5q-106 -44 -166.5 -141t-60.5 -225q0 -145 57 -229.5t162 -95.5q28 9 69.5 29t64.5 35l35 236l-83 5l1 5
h209l-1 -5l-60 -5l-38 -250zM320 -112l-92 -71l-4 2l59 71l-28 20l5 33h71z" />
    <glyph glyph-name="Iogonek.ss01" horiz-adv-x="283" 
d="M334 700l-1 -5l-85 -5l-102 -680l89 -5l-1 -5h-118l-71 -85l-5 -16q-2 -5 -2 -16q0 -26 28.5 -40t74.5 -14l-1 -5q-73 0 -106 16.5t-33 49.5q0 6 2 18l6 23l93 69h-113l1 5l90 5l102 680l-84 5l1 5h235z" />
    <glyph glyph-name="uni0136.ss01" horiz-adv-x="650" 
d="M-11 0l1 5l90 5l102 680l-84 5l1 5h235l-1 -5l-85 -5l-47 -314l361 314l-89 5l1 5h192l-1 -5l-81 -5l-360 -311l51 -6l264 -363l69 -5l-1 -5h-149l-258 369l-54 -359l89 -5l-1 -5h-245zM327 -112l-92 -71l-4 2l59 71l-28 20l5 33h71z" />
    <glyph glyph-name="uni013B.ss01" horiz-adv-x="515" 
d="M-11 0l1 5l90 5l102 680l-84 5l1 5h235l-1 -5l-85 -5l-102 -680h246l98 170h5l-39 -180h-467zM266 -112l-92 -71l-4 2l59 71l-28 20l5 33h71z" />
    <glyph glyph-name="uni0145.ss01" horiz-adv-x="667" 
d="M532 700h196l-1 -5l-90 -5l-111 -690h-31l-292 677l-106 -667l89 -5l-1 -5h-196l1 5l90 5l109 680l-84 5l1 5h161l259 -601l94 591l-89 5zM284 -110l-28 20l5 33h71l-11 -55l-92 -71l-4 2z" />
    <glyph glyph-name="Eng.ss01" horiz-adv-x="667" 
d="M421 -171l-99 1l12 65h89l98 105h-26l-291 681l-107 -671l89 -5l-1 -5h-196l1 5l90 5l109 680l-84 5l1 5h162l258 -601l94 591l-89 5l1 5h196l-1 -5l-90 -5l-111 -690z" />
    <glyph glyph-name="uni01EA.ss01" horiz-adv-x="640" 
d="M305 -85l-5 -16q-2 -5 -2 -16q0 -26 28.5 -40t74.5 -14l-1 -5q-73 0 -106 16.5t-33 49.5q0 6 2 18l6 23l101 75l-68 -24q-69 0 -126.5 37.5t-91.5 104.5t-34 151q0 86 27.5 170t86.5 150.5t150 96.5l70 23q69 0 126.5 -37t91 -103t33.5 -150q0 -83 -26 -164.5t-82 -147.5
t-141 -100zM181.5 85q56.5 -74 147.5 -84q67 17 119.5 78t82 147.5t29.5 178.5q0 136 -56 209t-147 83q-67 -15 -120 -75.5t-82.5 -147.5t-29.5 -179q0 -136 56.5 -210z" />
    <glyph glyph-name="uni0156.ss01" horiz-adv-x="614" 
d="M-10 5l90 5l102 680l-84 5l1 5h288q84 0 130.5 -40t46.5 -103q0 -74 -48.5 -120.5t-135.5 -71.5l-76 -22h-108l-50 -333l103 -5l-1 -5h-259zM336 358q47 21 77.5 41t53 55.5t22.5 87.5q0 70 -36 109t-111 39h-94l-50 -332h138zM464 0l-160 343l88 -37l145 -296l42 -4
l-1 -6h-114zM315 -112l-92 -71l-4 2l59 71l-28 20l5 33h71z" />
    <glyph glyph-name="Scedilla.ss01" horiz-adv-x="449" 
d="M307 715q57 0 94 -10.5t68 -31.5l-24 -151h-5l-13 107q-29 32 -70 45t-94 17q-62 -18 -87.5 -48.5t-25.5 -75.5q0 -35 11.5 -59.5t32 -45t63.5 -55.5l103 -84q35 -28 52 -58.5t17 -78.5q0 -56 -39 -107.5t-106 -71.5l-75 -24l-24 -23q32 -1 49 -15t17 -36
q0 -25 -28 -41.5t-63 -24.5l-67 -18h-23l30 27h84q28 14 28 39q0 21 -17 30t-47 11l50 50q-57 1 -104 17.5t-79 40.5l32 145l6 -1v-88q27 -32 86 -59.5t116 -31.5q59 18 87 57t28 92q0 48 -21 80.5t-77 76.5l-95 75q-80 63 -80 140q0 52 31.5 94t95.5 65z" />
    <glyph glyph-name="uni0218.ss01" horiz-adv-x="449" 
d="M205 -18q-59 0 -108 16.5t-82 41.5l32 145l6 -1v-88q27 -32 86 -59.5t116 -31.5q59 18 87 57t28 92q0 48 -21 80.5t-77 76.5l-95 75q-80 63 -80 140q0 52 31.5 94t95.5 65l83 30q57 0 94 -10.5t68 -31.5l-24 -151h-5l-13 107q-29 32 -70 45t-94 17q-62 -18 -87.5 -48.5
t-25.5 -75.5q0 -35 11.5 -59.5t32 -45t63.5 -55.5l103 -84q35 -28 52 -58.5t17 -78.5q0 -56 -39 -107.5t-106 -71.5zM223 -112l-92 -71l-4 2l59 71l-28 20l5 33h71z" />
    <glyph glyph-name="uni0162.ss01" horiz-adv-x="528" 
d="M593 700l-26 -170h-5l-26 160h-162l-101 -680l103 -5l-1 -5h-120l-41 -40q32 -1 49 -15t17 -36q0 -25 -28 -41.5t-63 -24.5l-67 -18h-23l30 27h84q28 14 28 39q0 21 -17 30t-47 11l68 68h-129l1 5l90 5l101 680h-164l-69 -160h-5l27 170h496z" />
    <glyph glyph-name="uni021A.ss01" horiz-adv-x="528" 
d="M116 0l1 5l90 5l101 680h-164l-69 -160h-5l27 170h496l-26 -170h-5l-26 160h-162l-101 -680l103 -5l-1 -5h-259zM252 -112l-92 -71l-4 2l59 71l-28 20l5 33h71z" />
    <glyph glyph-name="Uogonek.ss01" horiz-adv-x="605" 
d="M677 700l-1 -5l-90 -5l-73 -453q-16 -93 -52 -147t-118 -83l-77 -92l-5 -16q-2 -5 -2 -16q0 -26 28.5 -40t74.5 -14l-1 -5q-73 0 -106 16.5t-33 49.5q0 6 2 18l6 23l94 70l-51 -17q-189 0 -189 169q0 29 4 56l72 481l-84 5l1 5h235l-1 -5l-85 -5l-70 -465q-4 -23 -4 -49
q0 -77 43.5 -119.5t133.5 -42.5q48 19 79.5 44t53.5 67.5t33 110.5l74 454l-89 5l1 5h196z" />
    <glyph glyph-name="i.loclTRK" horiz-adv-x="243" 
d="M215 85l-117 -100l-42 25l76 429l-95 -36l-2 5l155 67l4 -3l-81 -460l99 76zM230 586l-24 -4l-54 4l3 43l16 37l26 4l48 -4v-43z" />
    <glyph glyph-name="aogonek.ss01" horiz-adv-x="439" 
d="M249 -101q-2 -5 -2 -16q0 -26 28.5 -40t74.5 -14l-1 -5q-73 0 -106 16.5t-33 49.5q0 6 2 18l6 23l82 61l-30 18l23 126l-158 -151q-100 49 -100 170q0 91 52.5 170t142.5 121l62 29q20 0 56 -12t54 -24l-75 -425l99 74l3 -3l-115 -99l-60 -71zM294 143l46 261
q-26 15 -57 25.5t-55 10.5q-68 -38 -103 -101t-35 -142q0 -109 79 -163z" />
    <glyph glyph-name="ccedilla.ss01" horiz-adv-x="391" 
d="M286.5 66.5q45.5 26.5 67.5 41.5l4 -5q-31 -23 -103 -73q-6 -5 -11 -8t-9 -6l-39 -27l-30 -29q32 -1 49 -15t17 -36q0 -25 -28 -41.5t-63 -24.5l-67 -18h-23l30 27h84q28 14 28 39q0 21 -17 30t-47 11l53 53q-33 3 -66 26t-54.5 65t-21.5 98q0 91 50.5 159t153.5 116
l55 26q17 -2 41.5 -13t45.5 -24l-34 -51q-40 28 -112 55q-75 -39 -107.5 -98t-32.5 -126q0 -83 33.5 -129.5t83.5 -60.5q24 12 69.5 38.5z" />
    <glyph glyph-name="eogonek.ss01" horiz-adv-x="402" 
d="M362 301l-264 -82q2 -151 123 -192q99 58 125 77l5 -6q-46 -34 -118 -83l-21 -14l-72 -86l-5 -16q-2 -5 -2 -16q0 -26 28.5 -40t74.5 -14l-1 -5q-73 0 -106 16.5t-33 49.5q0 6 2 18l6 23l75 55q-61 12 -100 65t-39 123q0 93 54.5 166.5t151.5 110.5l58 23q40 -9 59 -33.5
t19 -65.5q0 -37 -20 -74zM300 296q16 31 16 67q0 70 -64 86q-75 -37 -114 -93.5t-40 -129.5z" />
    <glyph glyph-name="f.ss01" horiz-adv-x="252" 
d="M-114 -172l11 60h116q12 19 18.5 41.5t13.5 63.5l81 462h-64l1 5h64l9 45q21 106 79 145l97 65h55l-10 -60h-124q-13 -21 -21 -46t-14 -63l-15 -86h100l-1 -5h-100l-75 -427q-16 -98 -80 -138l-96 -62h-45z" />
    <glyph glyph-name="g.ss01" horiz-adv-x="433" 
d="M10 -170l10 55h172q29 20 57 64.5t36 86.5l18 99l-154 -130q-109 64 -109 174q0 86 54 159t147 108l71 29q21 -2 52 -12.5t49 -20.5l-76 -428q-4 -27 -39 -60t-87 -62l-87 -62h-114zM304 143l46 259q-25 15 -57.5 26t-54.5 12q-69 -34 -103.5 -88t-34.5 -125
q0 -51 23 -97t66 -76z" />
    <glyph glyph-name="gbreve.ss01" horiz-adv-x="433" 
d="M10 -170l10 55h172q29 20 57 64.5t36 86.5l18 99l-154 -130q-109 64 -109 174q0 86 54 159t147 108l71 29q21 -2 52 -12.5t49 -20.5l-76 -428q-4 -27 -39 -60t-87 -62l-87 -62h-114zM304 143l46 259q-25 15 -57.5 26t-54.5 12q-69 -34 -103.5 -88t-34.5 -125
q0 -51 23 -97t66 -76zM246 598.5q-28 38.5 -45 96.5l5 3q15 -34 45 -62.5t72 -28.5t78 30t54 65l4 -3q-38 -87 -134 -139q-51 0 -79 38.5z" />
    <glyph glyph-name="gcircumflex.ss01" horiz-adv-x="433" 
d="M10 -170l10 55h172q29 20 57 64.5t36 86.5l18 99l-154 -130q-109 64 -109 174q0 86 54 159t147 108l71 29q21 -2 52 -12.5t49 -20.5l-76 -428q-4 -27 -39 -60t-87 -62l-87 -62h-114zM304 143l46 259q-25 15 -57.5 26t-54.5 12q-69 -34 -103.5 -88t-34.5 -125
q0 -51 23 -97t66 -76zM194 542h-5l153 168h4l85 -168h-5l-93 98h-2z" />
    <glyph glyph-name="uni0123.ss01" horiz-adv-x="433" 
d="M10 -170l10 55h172q29 20 57 64.5t36 86.5l18 99l-154 -130q-109 64 -109 174q0 86 54 159t147 108l71 29q21 -2 52 -12.5t49 -20.5l-76 -428q-4 -27 -39 -60t-87 -62l-87 -62h-114zM304 143l46 259q-25 15 -57.5 26t-54.5 12q-69 -34 -103.5 -88t-34.5 -125
q0 -51 23 -97t66 -76zM346 542h-70l13 70l96 101l5 -2l-65 -102l29 -22z" />
    <glyph glyph-name="gdotaccent.ss01" horiz-adv-x="433" 
d="M10 -170l10 55h172q29 20 57 64.5t36 86.5l18 99l-154 -130q-109 64 -109 174q0 86 54 159t147 108l71 29q21 -2 52 -12.5t49 -20.5l-76 -428q-4 -27 -39 -60t-87 -62l-87 -62h-114zM304 143l46 259q-25 15 -57.5 26t-54.5 12q-69 -34 -103.5 -88t-34.5 -125
q0 -51 23 -97t66 -76zM366 586l-24 -4l-54 4l3 43l16 37l26 4l48 -4v-43z" />
    <glyph glyph-name="ij.ss01" horiz-adv-x="482" 
d="M215 85l-117 -100l-42 25l76 429l-95 -36l-2 5l155 67l4 -3l-81 -460l99 76zM230 586l-24 -4l-54 4l3 43l16 37l26 4l48 -4v-43zM133 -170l12 60h128q11 20 17 42t13 63l78 444l-95 -36l-2 5l155 67l4 -3l-78 -442q-18 -96 -79 -136l-108 -64h-45zM472 586l-24 -4l-54 4
l3 43l16 37l26 4l48 -4v-43z" />
    <glyph glyph-name="iogonek.ss01" horiz-adv-x="243" 
d="M171 666l26 4l48 -4v-43l-15 -37l-24 -4l-54 4l3 43zM40 -85l-5 -16q-2 -5 -2 -16q0 -26 28.5 -40t74.5 -14l-1 -5q-73 0 -106 16.5t-33 49.5q0 6 2 18l6 23l82 61l-30 18l76 429l-95 -36l-2 5l155 67l4 -3l-81 -460l2 2l97 74l3 -3l-115 -99z" />
    <glyph glyph-name="j.ss01" horiz-adv-x="239" 
d="M-110 -170l12 60h128q11 20 17 42t13 63l78 444l-95 -36l-2 5l155 67l4 -3l-78 -442q-18 -96 -79 -136l-108 -64h-45zM229 586l-24 -4l-54 4l3 43l16 37l26 4l48 -4v-43z" />
    <glyph glyph-name="uni0237.ss01" horiz-adv-x="239" 
d="M-110 -170l12 60h128q11 20 17 42t13 63l78 444l-95 -36l-2 5l155 67l4 -3l-78 -442q-18 -96 -79 -136l-108 -64h-45z" />
    <glyph glyph-name="jcircumflex.ss01" horiz-adv-x="239" 
d="M-110 -170l12 60h128q11 20 17 42t13 63l78 444l-95 -36l-2 5l155 67l4 -3l-78 -442q-18 -96 -79 -136l-108 -64h-45zM57 542h-5l153 168h4l85 -168h-5l-93 98h-2z" />
    <glyph glyph-name="uni0137.ss01" horiz-adv-x="421" 
d="M410 82l-113 -97l-37 15l-115 274l-49 -274h-56l121 686l-96 -28l-1 5l151 54l7 -5l-77 -434l213 187h58l-12 -70h-87h-20l-142 -120l62 -19l104 -238l86 68zM179 -112l-92 -71l-4 2l59 71l-28 20l5 33h71z" />
    <glyph glyph-name="uni013C.ss01" horiz-adv-x="235" 
d="M209 85l-117 -100l-42 25l119 676l-96 -28l-1 5l151 54l7 -5l-123 -698l99 74zM86 -112l-92 -71l-4 2l59 71l-28 20l5 33h71z" />
    <glyph glyph-name="uni0146.ss01" horiz-adv-x="479" 
d="M347 -15l-42 25l62 344q2 16 2 23q0 51 -50 51q-20 0 -42.5 -11t-62.5 -38l-41 -28l-62 -351h-56l77 439l-95 -36l-2 5l155 67l4 -3l-20 -114l166 117q45 0 67 -19.5t22 -54.5q0 -6 -2 -22l-65 -365l99 74l3 -3zM221 -112l-92 -71l-4 2l59 71l-28 20l5 33h71z" />
    <glyph glyph-name="eng.ss01" horiz-adv-x="479" 
d="M133 -170l12 60h128q11 20 17 42t13 63l64 359q2 16 2 23q0 51 -50 51q-20 0 -42.5 -11t-62.5 -38l-41 -28l-62 -351h-56l77 439l-95 -36l-2 5l155 67l4 -3l-20 -114l166 117q45 0 67 -19.5t22 -54.5q0 -6 -2 -22l-62 -349q-18 -100 -79 -136l-108 -64h-45z" />
    <glyph glyph-name="uni01EB.ss01" horiz-adv-x="432" 
d="M163 -85l-5 -16q-2 -5 -2 -16q0 -26 28.5 -40t74.5 -14l-1 -5q-73 0 -106 16.5t-33 49.5q0 6 2 18l6 23l104 78l-53 -24q-36 0 -68 22t-51 65t-19 102q0 92 45.5 165t127.5 109l61 27q37 0 68.5 -20.5t50.5 -62t19 -100.5q0 -91 -43.5 -165t-121.5 -111zM132.5 62
q32.5 -44 84.5 -52q71 24 103 101.5t32 161.5q0 90 -31 129t-88 47q-70 -23 -101.5 -97.5t-31.5 -158.5q0 -87 32.5 -131z" />
    <glyph glyph-name="p.ss01" horiz-adv-x="451" 
d="M25 -170l107 609l-95 -36l-2 5l155 67l4 -3l-20 -115l135 118q54 -6 88 -50t34 -121q0 -86 -43 -161.5t-121 -114.5l-87 -43q-17 2 -32 8.5t-35 17.5l-32 -181h-56zM341 117.5q30 64.5 30 149.5q0 69 -27.5 110t-73.5 51l-98 -81l-49 -282q22 -22 52.5 -34t54.5 -13
q81 35 111 99.5z" />
    <glyph glyph-name="thorn.ss01" horiz-adv-x="451" 
d="M25 -170l151 856l-96 -28l-1 5l151 54l7 -5l-63 -355l135 118q54 -6 88 -50t34 -121q0 -86 -43 -161.5t-121 -114.5l-87 -43q-31 6 -67 26l-32 -181h-56zM341 117.5q30 64.5 30 149.5q0 69 -27.5 110t-73.5 51l-98 -81l-49 -282q22 -22 52.5 -34t54.5 -13q81 35 111 99.5
z" />
    <glyph glyph-name="q.ss01" horiz-adv-x="429" 
d="M249 -170l53 303l-152 -148q-110 52 -110 170q0 93 54 173.5t146 117.5l72 29q21 -2 52.5 -12t48.5 -20l-108 -613h-56zM304 143l46 260q-28 14 -59.5 25t-52.5 12q-68 -38 -103 -101t-35 -142q0 -48 22.5 -90t65.5 -67z" />
    <glyph glyph-name="uni0157.ss01" horiz-adv-x="347" 
d="M111 0h-57l78 439l-95 -36l-2 5l155 67l4 -3l-37 -211l139 204h61l-15 -75h-83l-56 -79l-49 -68zM90 -112l-92 -71l-4 2l59 71l-28 20l5 33h71z" />
    <glyph glyph-name="scedilla.ss01" horiz-adv-x="331" 
d="M140 418q-14 -21 -14 -44q0 -24 9.5 -42.5t26.5 -36.5l70 -70q32 -32 44 -55.5t12 -54.5q0 -71 -95 -100l-96 -29l-27 -26q32 -1 49 -15t17 -36q0 -25 -28 -41.5t-63 -24.5l-67 -18h-23l30 27h84q28 14 28 39q0 21 -17 30t-47 11l55 55q-18 9 -42 25t-41 29l46 44
q26 -21 51 -37.5t63 -35.5q33 10 50.5 32t17.5 47q0 30 -11 50.5t-41 50.5l-68 68q-19 19 -28 39t-9 46q0 33 27.5 62.5t82.5 47.5l63 20q37 -5 77 -31l-37 -49q-48 33 -110 53q-25 -9 -39 -30z" />
    <glyph glyph-name="uni0219.ss01" horiz-adv-x="331" 
d="M93 -15q-18 9 -45.5 26.5t-42.5 29.5l46 44q26 -21 51 -37.5t63 -35.5q33 10 50.5 32t17.5 47q0 30 -11 50.5t-41 50.5l-68 68q-19 19 -28 39t-9 46q0 33 27.5 62.5t82.5 47.5l63 20q37 -5 77 -31l-37 -49q-48 33 -110 53q-25 -9 -39 -30t-14 -44q0 -24 9.5 -42.5
t26.5 -36.5l70 -70q32 -32 44 -55.5t12 -54.5q0 -71 -95 -100zM108 -112l-92 -71l-4 2l59 71l-28 20l5 33h71z" />
    <glyph glyph-name="germandbls.ss01" horiz-adv-x="459" 
d="M-114 -170l12 60h118q10 21 16.5 44t12.5 61l79 460h-63l1 5h63q17 85 36.5 127.5t53.5 63.5l102 64q58 -2 92.5 -23.5t34.5 -83.5q0 -83 -108 -152l-54 -35q-10 -22 -10 -49q0 -25 14.5 -46.5t60.5 -67.5q55 -55 72 -83t17 -60q0 -71 -95 -100l-100 -30
q-18 9 -45.5 26.5t-42.5 29.5l46 44q26 -21 51 -37.5t63 -35.5q33 10 50.5 32t17.5 47q0 31 -13.5 54t-59.5 69q-52 51 -68.5 77t-16.5 54q0 21 8 37l76 64q77 64 77 145q0 53 -27.5 76t-59.5 23q-52 -26 -71.5 -59t-28.5 -85l-90 -518q-16 -93 -79 -134l-97 -64h-45z" />
    <glyph glyph-name="uni0163.ss01" horiz-adv-x="265" 
d="M279 455h-100l-77 -441l119 75l3 -4l-135 -98l-27 -27q32 -1 49 -15t17 -36q0 -25 -28 -41.5t-63 -24.5l-67 -18h-23l30 27h84q28 14 28 39q0 21 -17 30t-47 11l56 56l-36 22l78 445h-64l1 5h64l12 62l60 64h6l-22 -126h100z" />
    <glyph glyph-name="uni021B.ss01" horiz-adv-x="265" 
d="M224 85l-137 -100l-42 25l78 445h-64l1 5h64l12 62l60 64h6l-22 -126h100l-1 -5h-100l-77 -441l119 75zM100 -112l-92 -71l-4 2l59 71l-28 20l5 33h71z" />
    <glyph glyph-name="uogonek.ss01" horiz-adv-x="474" 
d="M273 -101q-2 -5 -2 -16q0 -26 28.5 -40t74.5 -14l-1 -5q-73 0 -106 16.5t-33 49.5q0 6 2 18l6 23l80 59l-27 20l16 94l-163 -119q-44 0 -66 18.5t-22 51.5q0 7 2 23l65 366l-95 -32l-2 5l154 58l4 -3l-67 -377q-2 -16 -2 -21q0 -42 40 -42q23 0 45.5 10.5t67.5 41.5
l40 28l61 348h57l-78 -446l104 69l3 -3l-111 -81l-70 -84z" />
    <glyph glyph-name="y.ss01" horiz-adv-x="412" 
d="M115 -172h-100l16 66h100l82 139l-54 -13l-64 421l-98 -38l-2 5l155 69l4 -3l63 -433l172 325l-68 78l55 31l31 -34l-3 -80l-175 -329z" />
    <glyph glyph-name="yacute.ss01" horiz-adv-x="412" 
d="M115 -172h-100l16 66h100l82 139l-54 -13l-64 421l-98 -38l-2 5l155 69l4 -3l63 -433l172 325l-68 78l55 31l31 -34l-3 -80l-175 -329zM254 542h-5l111 168h72z" />
    <glyph glyph-name="ycircumflex.ss01" horiz-adv-x="412" 
d="M115 -172h-100l16 66h100l82 139l-54 -13l-64 421l-98 -38l-2 5l155 69l4 -3l63 -433l172 325l-68 78l55 31l31 -34l-3 -80l-175 -329zM153 542h-5l153 168h4l85 -168h-5l-93 98h-2z" />
    <glyph glyph-name="ydieresis.ss01" horiz-adv-x="412" 
d="M115 -172h-100l16 66h100l82 139l-54 -13l-64 421l-98 -38l-2 5l155 69l4 -3l63 -433l172 325l-68 78l55 31l31 -34l-3 -80l-175 -329zM236 595l-19 -4l-45 4v39l15 32l20 4l43 -4v-38zM396 595l-18 -4l-46 4v39l16 32l20 4l42 -4v-38z" />
    <glyph glyph-name="ygrave.ss01" horiz-adv-x="412" 
d="M115 -172h-100l16 66h100l82 139l-54 -13l-64 421l-98 -38l-2 5l155 69l4 -3l63 -433l172 325l-68 78l55 31l31 -34l-3 -80l-175 -329zM285 542h-5l-107 168h72z" />
    <glyph glyph-name="uni0233.ss01" horiz-adv-x="412" 
d="M115 -172h-100l16 66h100l82 139l-54 -13l-64 421l-98 -38l-2 5l155 69l4 -3l63 -433l172 325l-68 78l55 31l31 -34l-3 -80l-175 -329zM431 606h-280l4 24h280z" />
    <glyph glyph-name="uni1EF9.ss01" horiz-adv-x="412" 
d="M115 -172h-100l16 66h100l82 139l-54 -13l-64 421l-98 -38l-2 5l155 69l4 -3l63 -433l172 325l-68 78l55 31l31 -34l-3 -80l-175 -329zM394 595l-63 -17l-132 88l-48 -91h-5l45 95l63 17l132 -87l50 90h5z" />
    <glyph glyph-name="w_w_w" horiz-adv-x="1478" 
d="M313 251l-162 -259l-50 14l-9 433l-95 -36l-2 5l153 67l4 -3l2 -456l158 256l-3 167l60 26l2 -449l158 257l-3 166l60 26l2 -449l158 257l-3 166l60 26l2 -449l158 257l-3 171l60 26l2 -454l158 257l-3 166l60 26l2 -449l214 347l-66 81l55 31l31 -34l-14 -91l-223 -358
l-50 14l-5 246l-162 -260l-50 14l-5 246l-162 -260l-50 14l-5 246l-162 -260l-50 14l-5 246l-162 -260l-50 14z" />
    <glyph glyph-name="f_f.ss01" horiz-adv-x="484" 
d="M-114 -172l11 60h116q12 19 18.5 41.5t13.5 63.5l81 462h-64l1 5h64l9 45q21 106 79 145l97 65h125l-90 -60h-114q-13 -21 -21 -46t-14 -63l-15 -86h176l9 45q21 106 79 145l97 65h55l-10 -60h-124q-13 -21 -21 -46t-14 -63l-15 -86h100l-1 -5h-100l-75 -427
q-16 -98 -80 -138l-96 -62h-35l11 60h106q12 19 18.5 41.5t13.5 63.5l81 462h-176l-75 -427q-16 -98 -80 -138l-96 -62h-45z" />
    <glyph glyph-name="f_f_i.ss01" horiz-adv-x="695" 
d="M-114 -172l11 60h116q12 19 18.5 41.5t13.5 63.5l81 462h-64l1 5h64l9 45q21 106 79 145l97 65h125l-90 -60h-114q-13 -21 -21 -46t-14 -63l-15 -86h176l9 45q21 106 79 145l97 65h151l-12 -60h-218q-13 -21 -21 -46t-14 -63l-15 -86h176l51 15l4 -3l-81 -460l99 76l3 -3
l-117 -100l-42 25l79 445h-173l-75 -427q-16 -98 -80 -138l-96 -62h-35l11 60h106q12 19 18.5 41.5t13.5 63.5l81 462h-176l-75 -427q-16 -98 -80 -138l-96 -62h-45z" />
    <glyph glyph-name="f_f_l.ss01" horiz-adv-x="705" 
d="M-114 -172l11 60h116q12 19 18.5 41.5t13.5 63.5l81 462h-64l1 5h64l9 45q21 106 79 145l97 65h125l-90 -60h-114q-13 -21 -21 -46t-14 -63l-15 -86h176l9 45q21 106 79 145l97 65h156l-124 -701l99 74l3 -3l-117 -100l-42 25l79 445h-184l-75 -427q-16 -98 -80 -138
l-96 -62h-35l11 60h106q12 19 18.5 41.5t13.5 63.5l81 462h-176l-75 -427q-16 -98 -80 -138l-96 -62h-45zM415 460h184l34 195h-168q-13 -21 -21 -46t-14 -63z" />
    <glyph glyph-name="f_i.ss01" horiz-adv-x="468" 
d="M-114 -172l11 60h116q12 19 18.5 41.5t13.5 63.5l81 462h-64l1 5h64l9 45q21 106 79 145l97 65h156l-12 -60h-223q-13 -21 -21 -46t-14 -63l-15 -86h181l51 15l4 -3l-81 -460l99 76l3 -3l-117 -100l-42 25l79 445h-178l-75 -427q-16 -98 -80 -138l-96 -62h-45z" />
    <glyph glyph-name="f_l.ss01" horiz-adv-x="473" 
d="M-114 -172l11 60h116q12 19 18.5 41.5t13.5 63.5l81 462h-64l1 5h64l9 45q21 106 79 145l97 65h156l-124 -701l99 74l3 -3l-117 -100l-42 25l79 445h-184l-75 -427q-16 -98 -80 -138l-96 -62h-45zM183 460h184l34 195h-168q-13 -21 -21 -46t-14 -63z" />
    <glyph glyph-name="f_b.liga.ss01" horiz-adv-x="677" 
d="M-114 -172l11 60h116q12 19 18.5 41.5t13.5 63.5l81 462h-64l1 5h64l9 45q21 106 79 145l97 65h151l-64 -359l141 119q52 -11 84.5 -53t32.5 -118q0 -86 -45 -164t-125 -116l-83 -39q-34 4 -59.5 14t-58.5 32l109 624h-162q-13 -21 -21 -46t-14 -63l-15 -86h100l-1 -5
h-100l-75 -427q-16 -98 -80 -138l-96 -62h-45zM564.5 116.5q32.5 67.5 32.5 150.5q0 69 -23.5 107.5t-69.5 54.5l-106 -82l-50 -281q22 -23 53.5 -35.5t54.5 -12.5q76 31 108.5 98.5z" />
    <glyph glyph-name="f_f_b.liga.ss01" horiz-adv-x="909" 
d="M-114 -172l11 60h116q12 19 18.5 41.5t13.5 63.5l81 462h-64l1 5h64l9 45q21 106 79 145l97 65h45l-10 -60h-114q-13 -21 -21 -46t-14 -63l-15 -86h176l9 45q21 106 79 145l97 65h151l-64 -359l141 119q52 -11 84.5 -53t32.5 -118q0 -86 -45 -164t-125 -116l-83 -39
q-34 4 -59.5 14t-58.5 32l110 624h-163q-13 -21 -21 -46t-14 -63l-15 -86h100l-1 -5h-100l-75 -427q-16 -98 -80 -138l-96 -62h-35l11 60h106q12 19 18.5 41.5t13.5 63.5l81 462h-176l-75 -427q-16 -98 -80 -138l-96 -62h-45zM796.5 116.5q32.5 67.5 32.5 150.5
q0 69 -23.5 107.5t-69.5 54.5l-106 -82l-50 -281q22 -23 53.5 -35.5t54.5 -12.5q76 31 108.5 98.5z" />
    <glyph glyph-name="f_f_h.liga.ss01" horiz-adv-x="943" 
d="M-114 -172l11 60h116q12 19 18.5 41.5t13.5 63.5l81 462h-64l1 5h64l9 45q21 106 79 145l97 65h45l-10 -60h-114q-13 -21 -21 -46t-14 -63l-15 -86h176l9 45q21 106 79 145l97 65h158l-64 -357l166 117q45 0 67 -19.5t22 -54.5q0 -6 -2 -22l-65 -365l99 74l3 -3
l-117 -100l-42 25l62 344q2 16 2 23q0 51 -50 51q-20 0 -42.5 -11t-62.5 -38l-41 -28l-62 -351h-56l115 655h-169q-13 -21 -21 -46t-14 -63l-15 -86h100l-1 -5h-100l-75 -427q-16 -98 -80 -138l-96 -62h-35l11 60h106q12 19 18.5 41.5t13.5 63.5l81 462h-176l-75 -427
q-16 -98 -80 -138l-96 -62h-45z" />
    <glyph glyph-name="f_f_j.liga.ss01" horiz-adv-x="695" 
d="M-114 -172l11 60h116q12 19 18.5 41.5t13.5 63.5l81 462h-64l1 5h64l9 45q21 106 79 145l97 65h45l-10 -60h-114q-13 -21 -21 -46t-14 -63l-15 -86h176l9 45q21 106 79 145l97 65h171l-12 -60h-238q-13 -21 -21 -46t-14 -63l-15 -86h186l51 15l4 -3l-78 -442
q-18 -96 -79 -136l-108 -64h-35l12 60h118q11 20 17 42t13 63l81 460h-183l-75 -427q-16 -98 -80 -138l-96 -62h-35l11 60h106q12 19 18.5 41.5t13.5 63.5l81 462h-176l-75 -427q-16 -98 -80 -138l-96 -62h-45z" />
    <glyph glyph-name="f_f_k.liga.ss01" horiz-adv-x="896" 
d="M-114 -172l11 60h116q12 19 18.5 41.5t13.5 63.5l81 462h-64l1 5h64l9 45q21 106 79 145l97 65h45l-10 -60h-114q-13 -21 -21 -46t-14 -63l-15 -86h176l9 45q21 106 79 145l97 65h154l-78 -437l213 187h58l-12 -70h-107l-47 -40l-95 -80l62 -19l104 -238l86 68l3 -4
l-113 -97l-37 15l-115 274l-49 -274h-56l116 655h-166q-13 -21 -21 -46t-14 -63l-15 -86h100l-1 -5h-100l-75 -427q-16 -98 -80 -138l-96 -62h-35l11 60h106q12 19 18.5 41.5t13.5 63.5l81 462h-176l-75 -427q-16 -98 -80 -138l-96 -62h-45z" />
    <glyph glyph-name="f_h.liga.ss01" horiz-adv-x="711" 
d="M-114 -172l11 60h116q12 19 18.5 41.5t13.5 63.5l81 462h-64l1 5h64l9 45q21 106 79 145l97 65h158l-64 -357l166 117q45 0 67 -19.5t22 -54.5q0 -6 -2 -22l-65 -365l99 74l3 -3l-117 -100l-42 25l62 344q2 16 2 23q0 51 -50 51q-20 0 -42.5 -11t-62.5 -38l-41 -28
l-62 -351h-56l115 655h-169q-13 -21 -21 -46t-14 -63l-15 -86h100l-1 -5h-100l-75 -427q-16 -98 -80 -138l-96 -62h-45z" />
    <glyph glyph-name="f_j.liga.ss01" horiz-adv-x="459" 
d="M-114 -172l11 60h116q12 19 18.5 41.5t13.5 63.5l81 462h-64l1 5h64l9 45q21 106 79 145l97 65h157l-12 -60h-224q-13 -21 -21 -46t-14 -63l-15 -86h182l51 15l4 -3l-78 -442q-18 -96 -79 -136l-108 -64h-35l12 60h118q11 20 17 42t13 63l81 460h-179l-75 -427
q-16 -98 -80 -138l-96 -62h-45z" />
    <glyph glyph-name="f_k.liga.ss01" horiz-adv-x="664" 
d="M-114 -172l11 60h116q12 19 18.5 41.5t13.5 63.5l81 462h-64l1 5h64l9 45q21 106 79 145l97 65h154l-78 -437l213 187h58l-12 -70h-107l-57 -49l-85 -71l62 -19l104 -238l86 68l3 -4l-113 -97l-37 15l-115 274l-49 -274h-56l115 655h-165q-13 -21 -21 -46t-14 -63
l-15 -86h100l-1 -5h-100l-75 -427q-16 -98 -80 -138l-96 -62h-45z" />
    <glyph glyph-name="f_t.liga.ss01" horiz-adv-x="510" 
d="M-114 -172l11 60h116q12 19 18.5 41.5t13.5 63.5l81 462h-64l1 5h64l9 45q21 106 79 145l97 65h55l-10 -60h-124q-13 -21 -21 -46t-14 -63l-15 -86h186l12 62l60 64h6l-22 -126h100l-1 -5h-100l-77 -441l119 75l3 -4l-137 -100l-42 25l78 445h-186l-75 -427
q-16 -98 -80 -138l-96 -62h-45z" />
    <glyph glyph-name="f_u.liga.ss01" horiz-adv-x="712" 
d="M-114 -172l11 60h116q12 19 18.5 41.5t13.5 63.5l81 462h-64l1 5h64l9 45q21 106 79 145l97 65h55l-10 -60h-124q-13 -21 -21 -46t-14 -63l-15 -86h188l51 15l4 -3l-67 -377q-2 -16 -2 -21q0 -42 40 -42q23 0 45.5 10.5t67.5 41.5l40 28l61 348h57l-78 -446l104 69l3 -3
l-130 -95l-34 25l16 94l-163 -119q-44 0 -66 18.5t-22 51.5q0 7 2 23l67 377h-185l-75 -427q-16 -98 -80 -138l-96 -62h-45z" />
    <glyph glyph-name="f_y.liga.ss01" horiz-adv-x="647" 
d="M-114 -172l11 60h116q12 19 18.5 41.5t13.5 63.5l81 462h-64l1 5h64l9 45q21 106 79 145l97 65h55l-10 -60h-124q-13 -21 -21 -46t-14 -63l-15 -86h152l50 17l4 -3l63 -433l172 325l-68 78l55 31l31 -34l-3 -80l-177 -328l-112 -204h-100l16 65h100l82 139l-54 -13
l-66 435h-146l-75 -427q-16 -98 -80 -138l-96 -62h-45z" />
    <glyph glyph-name="k_y.liga.ss01" horiz-adv-x="782" 
d="M485 -171h-100l16 65h100l82 139l-54 -13l-64 421h-11l-71 -46h-86l-58 -49l-84 -71l62 -19l104 -238l86 68l3 -4l-113 -97l-37 15l-115 274l-49 -274h-56l121 686l-96 -28l-1 5l151 54l7 -5l-77 -434l213 187h167l62 -424l172 325l-68 78l55 31l31 -34l-3 -80l-174 -326
z" />
    <glyph glyph-name="t_y.liga.ss01" horiz-adv-x="644" 
d="M348 -171h-100l16 65h100l82 139l-54 -13l-66 435h-146l-77 -441l119 75l3 -4l-137 -100l-42 25l78 445h-64l1 5h64l12 62l60 64h6l-22 -126h151l51 17l4 -3l63 -433l172 325l-68 78l55 31l31 -34l-3 -80l-175 -323z" />
    <glyph glyph-name="a.sc" horiz-adv-x="558" 
d="M399 510l57 -500l68 -5l-1 -5h-201l1 5l71 5l-19 170h-196l-102 -170l70 -5l-1 -5h-157l1 5l69 5l293 486zM345 458l-161 -269h190z" />
    <glyph glyph-name="aacute.sc" horiz-adv-x="558" 
d="M477 710h72l-164 -148h-5zM352 496l47 14l57 -500l68 -5l-1 -5h-201l1 5l71 5l-19 170h-196l-102 -170l70 -5l-1 -5h-157l1 5l69 5zM345 458l-161 -269h190z" />
    <glyph glyph-name="abreve.sc" horiz-adv-x="558" 
d="M319.5 604q-25.5 35 -31.5 82l4 3q9 -27 35 -50t68 -23q41 0 73 21.5t60 52.5l3 -3q-17 -29 -50.5 -61t-84.5 -57q-51 0 -76.5 35zM352 496l47 14l57 -500l68 -5l-1 -5h-201l1 5l71 5l-19 170h-196l-102 -170l70 -5l-1 -5h-157l1 5l69 5zM345 458l-161 -269h190z" />
    <glyph glyph-name="acircumflex.sc" horiz-adv-x="558" 
d="M507 558l-107 82l-141 -82h-5l159 152h4l95 -152h-5zM399 510l57 -500l68 -5l-1 -5h-201l1 5l71 5l-19 170h-196l-102 -170l70 -5l-1 -5h-157l1 5l69 5l293 486zM345 458l-161 -269h190z" />
    <glyph glyph-name="adieresis.sc" horiz-adv-x="558" 
d="M357 635l-14 -33l-49 -4l-17 4l4 39l14 30l47 4l19 -4zM517 635l-14 -33l-49 -4l-17 4l4 39l14 30l47 4l19 -4zM399 510l57 -500l68 -5l-1 -5h-201l1 5l71 5l-19 170h-196l-102 -170l70 -5l-1 -5h-157l1 5l69 5l293 486zM345 458l-161 -269h190z" />
    <glyph glyph-name="uni1EA1.sc" horiz-adv-x="558" 
d="M399 510l57 -500l68 -5l-1 -5h-201l1 5l71 5l-19 170h-196l-102 -170l70 -5l-1 -5h-157l1 5l69 5l293 486zM345 458l-161 -269h190zM246 -196l-51 -4l-21 4l4 47l11 28l50 4l22 -4l-1 -34z" />
    <glyph glyph-name="agrave.sc" horiz-adv-x="558" 
d="M352 710l33 -148h-5l-100 148h72zM399 510l57 -500l68 -5l-1 -5h-201l1 5l71 5l-19 170h-196l-102 -170l70 -5l-1 -5h-157l1 5l69 5l293 486zM345 458l-161 -269h190z" />
    <glyph glyph-name="amacron.sc" horiz-adv-x="558" 
d="M260 640l4 20h280l-4 -20h-280zM352 496l47 14l57 -500l68 -5l-1 -5h-201l1 5l71 5l-19 170h-196l-102 -170l70 -5l-1 -5h-157l1 5l69 5zM345 458l-161 -269h190z" />
    <glyph glyph-name="aogonek.sc" horiz-adv-x="557" 
d="M455 10l68 -5v-5h-129l-85 -131l-8 -43q-1 -4 -1 -10q0 -54 110 -54l-1 -5q-76 0 -110 19.5t-34 59.5q0 6 2 22l6 34l117 115l-17 173h-195l-102 -170l70 -5v-5h-157v5l69 5l293 486l47 14zM344 458l-161 -269h189z" />
    <glyph glyph-name="aring.sc" horiz-adv-x="558" 
d="M319.5 547q-23.5 18 -23.5 54q0 37 15.5 57.5t36 30t69.5 26.5q35 0 58.5 -18t23.5 -54t-15.5 -57t-35.5 -30t-70 -27q-35 0 -58.5 18zM348.5 672.5q-26.5 -26.5 -26.5 -67.5q0 -28 15.5 -44t43.5 -16q39 0 66 26.5t27 67.5q0 27 -16 43.5t-44 16.5q-39 0 -65.5 -26.5z
M399 510l57 -500l68 -5l-1 -5h-201l1 5l71 5l-19 170h-196l-102 -170l70 -5l-1 -5h-157l1 5l69 5l293 486zM345 458l-161 -269h190z" />
    <glyph glyph-name="atilde.sc" horiz-adv-x="558" 
d="M455 570l-177 88l-46 -91h-5l44 95l67 22l178 -87l46 90h5l-44 -95zM352 496l47 14l57 -500l68 -5l-1 -5h-201l1 5l71 5l-19 170h-196l-102 -170l70 -5l-1 -5h-157l1 5l69 5zM345 458l-161 -269h190z" />
    <glyph glyph-name="ae.sc" horiz-adv-x="698" 
d="M-21 0l1 5l69 5l335 494h326l-20 -129h-5l-32 120h-204l-35 -247h109l46 84h5l-26 -176h-5l-21 83h-110l-32 -230h207l69 123h5l-20 -132h-391v5l69 5l32 229h-131l-153 -229l70 -5l-1 -5h-157zM388 491l-163 -243h128z" />
    <glyph glyph-name="aeacute.sc" horiz-adv-x="698" 
d="M533 562h-5l97 148h72zM-21 0l1 5l69 5l335 494h326l-20 -129h-5l-32 120h-204l-35 -247h109l46 84h5l-26 -176h-5l-21 83h-110l-32 -230h207l69 123h5l-20 -132h-391v5l69 5l32 229h-131l-153 -229l70 -5l-1 -5h-157zM388 491l-163 -243h128z" />
    <glyph glyph-name="b.sc" horiz-adv-x="458" 
d="M3 5l69 5l70 484l-65 5l1 5h196q73 0 113 -27t40 -73q0 -47 -36.5 -80t-101.5 -47l-34 -7q87 -1 134 -33.5t47 -81.5q0 -92 -136 -137l-55 -18h-243zM219 271q26 0 59.5 15.5t57.5 44.5t24 68q0 48 -27 72t-86 24h-44l-32 -224h48zM264 14q53 23 78 57.5t25 76.5
q0 49 -34.5 81.5t-96.5 32.5h-67l-35 -248h130z" />
    <glyph glyph-name="c.sc" horiz-adv-x="488" 
d="M266 -13q-62 0 -112.5 28.5t-79.5 79t-29 113.5q0 93 54 171.5t158 114.5l62 21q51 -1 90.5 -12.5t65.5 -27.5l-3 -119h-6l-34 93q-58 39 -145 46q-82 -26 -128 -96t-46 -160q0 -105 46.5 -163.5t126.5 -71.5q25 8 60 23t46 23l62 99h6l-25 -114z" />
    <glyph glyph-name="cacute.sc" horiz-adv-x="488" 
d="M358 562h-5l97 148h72zM266 -13q-62 0 -112.5 28.5t-79.5 79t-29 113.5q0 93 54 171.5t158 114.5l62 21q51 -1 90.5 -12.5t65.5 -27.5l-3 -119h-6l-34 93q-58 39 -145 46q-82 -26 -128 -96t-46 -160q0 -105 46.5 -163.5t126.5 -71.5q25 8 60 23t46 23l62 99h6l-25 -114z
" />
    <glyph glyph-name="ccaron.sc" horiz-adv-x="488" 
d="M354 560l-95 150h5l107 -80l141 80h5l-159 -150h-4zM266 -13q-62 0 -112.5 28.5t-79.5 79t-29 113.5q0 93 54 171.5t158 114.5l62 21q51 -1 90.5 -12.5t65.5 -27.5l-3 -119h-6l-34 93q-58 39 -145 46q-82 -26 -128 -96t-46 -160q0 -105 46.5 -163.5t126.5 -71.5
q25 8 60 23t46 23l62 99h6l-25 -114z" />
    <glyph glyph-name="ccedilla.sc" horiz-adv-x="488" 
d="M319 515q51 -1 90.5 -12.5t65.5 -27.5l-3 -119h-6l-34 93q-58 39 -145 46q-82 -26 -128 -96t-46 -160q0 -105 46.5 -163.5t126.5 -71.5q25 8 60 23t46 23l62 99h6l-25 -114l-163 -46l-32 -39q32 -3 50.5 -20t18.5 -46q0 -38 -27.5 -62t-63.5 -36l-73 -26h-23l26 30h74
q23 12 35.5 28t12.5 41q0 56 -60 61l54 67q-62 1 -112 29.5t-78.5 78.5t-28.5 113q0 93 54 171.5t158 114.5z" />
    <glyph glyph-name="ccircumflex.sc" horiz-adv-x="488" 
d="M232 558h-5l159 152h4l95 -152h-5l-107 82zM266 -13q-62 0 -112.5 28.5t-79.5 79t-29 113.5q0 93 54 171.5t158 114.5l62 21q51 -1 90.5 -12.5t65.5 -27.5l-3 -119h-6l-34 93q-58 39 -145 46q-82 -26 -128 -96t-46 -160q0 -105 46.5 -163.5t126.5 -71.5q25 8 60 23t46 23
l62 99h6l-25 -114z" />
    <glyph glyph-name="cdotaccent.sc" horiz-adv-x="488" 
d="M405 589l-55 -4l-19 4l5 43l14 34l54 4l20 -4l-5 -40zM266 -13q-62 0 -112.5 28.5t-79.5 79t-29 113.5q0 93 54 171.5t158 114.5l62 21q51 -1 90.5 -12.5t65.5 -27.5l-3 -119h-6l-34 93q-58 39 -145 46q-82 -26 -128 -96t-46 -160q0 -105 46.5 -163.5t126.5 -71.5
q25 8 60 23t46 23l62 99h6l-25 -114z" />
    <glyph glyph-name="d.sc" horiz-adv-x="528" 
d="M3 5l69 5l70 484l-66 5l1 5h203q63 0 115 -27t82 -75t30 -107q0 -92 -51 -167.5t-155 -107.5l-65 -20h-234zM263 14q81 37 128 112.5t47 168.5q0 94 -46 147t-120 53h-69l-69 -481h129z" />
    <glyph glyph-name="eth.sc" horiz-adv-x="521" 
d="M395 477q52 -27 82 -75t30 -107q0 -92 -51 -167.5t-155 -107.5l-65 -20h-234l1 5l69 5l37 254h-78l1 5h77l33 225l-66 5l1 5h203q63 0 115 -27zM263 14q81 37 128 112.5t47 168.5q0 94 -46 147t-120 53h-69l-32 -226h105l-1 -5h-105l-36 -250h129z" />
    <glyph glyph-name="dcaron.sc" horiz-adv-x="528" 
d="M301 560l-95 150h5l107 -80l141 80h5l-159 -150h-4zM3 5l69 5l70 484l-66 5l1 5h203q63 0 115 -27t82 -75t30 -107q0 -92 -51 -167.5t-155 -107.5l-65 -20h-234zM263 14q81 37 128 112.5t47 168.5q0 94 -46 147t-120 53h-69l-69 -481h129z" />
    <glyph glyph-name="dcroat.sc" horiz-adv-x="521" 
d="M395 477q52 -27 82 -75t30 -107q0 -92 -51 -167.5t-155 -107.5l-65 -20h-234l1 5l69 5l37 254h-78l1 5h77l33 225l-66 5l1 5h203q63 0 115 -27zM263 14q81 37 128 112.5t47 168.5q0 94 -46 147t-120 53h-69l-32 -226h105l-1 -5h-105l-36 -250h129z" />
    <glyph glyph-name="e.sc" horiz-adv-x="462" 
d="M2 0l1 5l69 5l70 484l-66 5l1 5h387l-20 -129h-5l-32 120h-204l-33 -227h110l46 84h4l-26 -176h-5l-21 83h-109l-36 -250h209l68 123h6l-21 -132h-393z" />
    <glyph glyph-name="eacute.sc" horiz-adv-x="462" 
d="M314 562h-5l97 148h72zM2 0l1 5l69 5l70 484l-66 5l1 5h387l-20 -129h-5l-32 120h-204l-33 -227h110l46 84h4l-26 -176h-5l-21 83h-109l-36 -250h209l68 123h6l-21 -132h-393z" />
    <glyph glyph-name="ebreve.sc" horiz-adv-x="462" 
d="M248.5 604q-25.5 35 -31.5 82l4 3q9 -27 35 -50t68 -23q41 0 73 21.5t60 52.5l3 -3q-17 -29 -50.5 -61t-84.5 -57q-51 0 -76.5 35zM2 0l1 5l69 5l70 484l-66 5l1 5h387l-20 -129h-5l-32 120h-204l-33 -227h110l46 84h4l-26 -176h-5l-21 83h-109l-36 -250h209l68 123h6
l-21 -132h-393z" />
    <glyph glyph-name="ecaron.sc" horiz-adv-x="462" 
d="M310 560l-95 150h5l107 -80l141 80h5l-159 -150h-4zM2 0l1 5l69 5l70 484l-66 5l1 5h387l-20 -129h-5l-32 120h-204l-33 -227h110l46 84h4l-26 -176h-5l-21 83h-109l-36 -250h209l68 123h6l-21 -132h-393z" />
    <glyph glyph-name="ecircumflex.sc" horiz-adv-x="462" 
d="M188 558h-5l159 152h4l95 -152h-5l-107 82zM2 0l1 5l69 5l70 484l-66 5l1 5h387l-20 -129h-5l-32 120h-204l-33 -227h110l46 84h4l-26 -176h-5l-21 83h-109l-36 -250h209l68 123h6l-21 -132h-393z" />
    <glyph glyph-name="edieresis.sc" horiz-adv-x="462" 
d="M272 602l-49 -4l-17 4l4 39l14 30l47 4l19 -4l-4 -36zM432 602l-49 -4l-17 4l4 39l14 30l47 4l19 -4l-4 -36zM2 0l1 5l69 5l70 484l-66 5l1 5h387l-20 -129h-5l-32 120h-204l-33 -227h110l46 84h4l-26 -176h-5l-21 83h-109l-36 -250h209l68 123h6l-21 -132h-393z" />
    <glyph glyph-name="edotaccent.sc" horiz-adv-x="462" 
d="M361 589l-55 -4l-19 4l5 43l14 34l54 4l20 -4l-5 -40zM2 0l1 5l69 5l70 484l-66 5l1 5h387l-20 -129h-5l-32 120h-204l-33 -227h110l46 84h4l-26 -176h-5l-21 83h-109l-36 -250h209l68 123h6l-21 -132h-393z" />
    <glyph glyph-name="uni1EB9.sc" horiz-adv-x="462" 
d="M2 0l1 5l69 5l70 484l-66 5l1 5h387l-20 -129h-5l-32 120h-204l-33 -227h110l46 84h4l-26 -176h-5l-21 83h-109l-36 -250h209l68 123h6l-21 -132h-393zM198 -196l-51 -4l-21 4l4 47l11 28l50 4l22 -4l-1 -34z" />
    <glyph glyph-name="egrave.sc" horiz-adv-x="462" 
d="M314 562h-5l-100 148h72zM2 0l1 5l69 5l70 484l-66 5l1 5h387l-20 -129h-5l-32 120h-204l-33 -227h110l46 84h4l-26 -176h-5l-21 83h-109l-36 -250h209l68 123h6l-21 -132h-393z" />
    <glyph glyph-name="emacron.sc" horiz-adv-x="462" 
d="M469 640h-280l4 20h280zM2 0l1 5l69 5l70 484l-66 5l1 5h387l-20 -129h-5l-32 120h-204l-33 -227h110l46 84h4l-26 -176h-5l-21 83h-109l-36 -250h209l68 123h6l-21 -132h-393z" />
    <glyph glyph-name="eogonek.sc" horiz-adv-x="462" 
d="M464 504l-20 -129h-5l-32 120h-204l-33 -227h110l46 84h4l-26 -176h-5l-21 83h-109l-36 -250h209l68 123h6l-21 -132h-43l-85 -131l-8 -43q-1 -4 -1 -10q0 -54 110 -54l-1 -5q-76 0 -110 19.5t-34 59.5q0 6 2 22l6 34l111 108h-340l1 5l69 5l70 484l-66 5l1 5h387z" />
    <glyph glyph-name="uni1EBD.sc" horiz-adv-x="462" 
d="M452 592l-68 -22l-177 88l-46 -91h-5l44 95l67 22l178 -87l46 90h5zM2 0l1 5l69 5l70 484l-66 5l1 5h387l-20 -129h-5l-32 120h-204l-33 -227h110l46 84h4l-26 -176h-5l-21 83h-109l-36 -250h209l68 123h6l-21 -132h-393z" />
    <glyph glyph-name="uni0259.sc" horiz-adv-x="443" 
d="M240 515q51 -6 93 -36t66.5 -76.5t24.5 -102.5q0 -99 -68.5 -178t-187.5 -118l-58 -19q-52 10 -77.5 37t-25.5 74q0 37 25 75l340 94q-6 164 -159 210q-61 -30 -108 -53.5t-58 -32.5l-6 6q18 12 45.5 28t108.5 65zM318.5 110q53.5 61 53.5 142v4l-282 -79
q-20 -32 -20 -69q0 -41 23 -65.5t72 -33.5q100 40 153.5 101z" />
    <glyph glyph-name="f.sc" horiz-adv-x="446" 
d="M2 0l1 5l69 5l70 484l-66 5l1 5h387l-20 -129h-5l-32 120h-204l-34 -234h110l46 84h5l-14 -89l-13 -87h-5l-21 83h-108l-36 -242l95 -5l-1 -5h-225z" />
    <glyph glyph-name="g.sc" horiz-adv-x="523" 
d="M263 -13q-61 0 -111 28.5t-78.5 79.5t-28.5 116q0 101 58.5 177.5t160.5 107.5l63 19q46 0 89 -13.5t75 -36.5l-11 -109h-6l-25 79q-30 26 -72.5 41.5t-92.5 18.5q-80 -31 -125.5 -97t-45.5 -154q0 -102 46 -165t130 -76q21 6 51 18t48 22l24 173l-64 4l1 5h171l-1 -5
l-46 -4l-26 -179z" />
    <glyph glyph-name="gbreve.sc" horiz-adv-x="523" 
d="M287.5 604q-25.5 35 -31.5 82l4 3q9 -27 35 -50t68 -23q41 0 73 21.5t60 52.5l3 -3q-17 -29 -50.5 -61t-84.5 -57q-51 0 -76.5 35zM263 -13q-61 0 -111 28.5t-78.5 79.5t-28.5 116q0 101 58.5 177.5t160.5 107.5l63 19q46 0 89 -13.5t75 -36.5l-11 -109h-6l-25 79
q-30 26 -72.5 41.5t-92.5 18.5q-80 -31 -125.5 -97t-45.5 -154q0 -102 46 -165t130 -76q21 6 51 18t48 22l24 173l-64 4l1 5h171l-1 -5l-46 -4l-26 -179z" />
    <glyph glyph-name="gcaron.sc" horiz-adv-x="523" 
d="M349 560l-95 150h5l107 -80l141 80h5l-159 -150h-4zM263 -13q-61 0 -111 28.5t-78.5 79.5t-28.5 116q0 101 58.5 177.5t160.5 107.5l63 19q46 0 89 -13.5t75 -36.5l-11 -109h-6l-25 79q-30 26 -72.5 41.5t-92.5 18.5q-80 -31 -125.5 -97t-45.5 -154q0 -102 46 -165
t130 -76q21 6 51 18t48 22l24 173l-64 4l1 5h171l-1 -5l-46 -4l-26 -179z" />
    <glyph glyph-name="gcircumflex.sc" horiz-adv-x="523" 
d="M227 558h-5l159 152h4l95 -152h-5l-107 82zM263 -13q-61 0 -111 28.5t-78.5 79.5t-28.5 116q0 101 58.5 177.5t160.5 107.5l63 19q46 0 89 -13.5t75 -36.5l-11 -109h-6l-25 79q-30 26 -72.5 41.5t-92.5 18.5q-80 -31 -125.5 -97t-45.5 -154q0 -102 46 -165t130 -76
q21 6 51 18t48 22l24 173l-64 4l1 5h171l-1 -5l-46 -4l-26 -179z" />
    <glyph glyph-name="uni0123.sc" horiz-adv-x="523" 
d="M263 -13q-61 0 -111 28.5t-78.5 79.5t-28.5 116q0 101 58.5 177.5t160.5 107.5l63 19q46 0 89 -13.5t75 -36.5l-11 -109h-6l-25 79q-30 26 -72.5 41.5t-92.5 18.5q-80 -31 -125.5 -97t-45.5 -154q0 -102 46 -165t130 -76q21 6 51 18t48 22l24 173l-64 4l1 5h171l-1 -5
l-46 -4l-26 -179zM272 -127l-97 -106l-4 2l65 107l-29 22l7 45h70z" />
    </font>
</defs>
</svg>
