<svg id="Group_10442" data-name="Group 10442" xmlns="http://www.w3.org/2000/svg" xmlns:xlink="http://www.w3.org/1999/xlink" width="61.215" height="61.236" viewBox="0 0 61.215 61.236">
  <defs>
    <clipPath id="clip-path">
      <rect id="Rectangle_4348" data-name="Rectangle 4348" width="61.215" height="61.236" fill="#ef7b13"/>
    </clipPath>
  </defs>
  <g id="Group_10441" data-name="Group 10441" clip-path="url(#clip-path)">
    <path id="Path_44436" data-name="Path 44436" d="M11.181,4.093c.246-2.9,1.147-4.073,3.071-4.082C16.229,0,17.128,1.151,17.381,4.05H27.548c0-.336,0-.669,0-1a3.058,3.058,0,0,1,6.116.018c0,.315,0,.631,0,.987h10.22A3.546,3.546,0,0,1,44.981.7,2.627,2.627,0,0,1,47.1.034a3.8,3.8,0,0,1,1.678.644,3.638,3.638,0,0,1,1.054,1.53,7.956,7.956,0,0,1,.222,1.885c1.885,0,3.79-.008,5.695.005a7.392,7.392,0,0,1,1.453.121,5.021,5.021,0,0,1,4,4.932q.008,23.5,0,47A5.049,5.049,0,0,1,56.1,61.233q-25.5.007-51,0A5.052,5.052,0,0,1,0,56.129Q0,32.663,0,9.2A5.056,5.056,0,0,1,5.1,4.1c2.015-.008,4.031,0,6.084,0M2.036,18.4v.55q0,18.463,0,36.925a3.116,3.116,0,0,0,3.43,3.32q25.122,0,50.245,0a3.135,3.135,0,0,0,3.464-3.48q0-18.3,0-36.607V18.4Zm57.125-2.087c0-2.5.071-4.939-.025-7.375a2.968,2.968,0,0,0-3.071-2.806c-1.381-.022-2.762-.005-4.143-.005H49.99c0,1.032,0,1.984,0,2.937a3.06,3.06,0,1,1-6.116.026c0-.97,0-1.941,0-2.921H33.665c0,.293,0,.545,0,.8,0,.892.058,1.792-.031,2.676a3.058,3.058,0,0,1-6.083-.366c-.013-1.034,0-2.067,0-3.1H17.341c0,.3,0,.548,0,.8,0,.892.059,1.792-.032,2.676a3.058,3.058,0,0,1-6.082-.378c-.013-1.033,0-2.066,0-3.142-2.011,0-3.941,0-5.871,0a3.1,3.1,0,0,0-3.315,3.3c-.007,2.1,0,4.208,0,6.312,0,.184.022.367.036.57ZM13.26,6.135c0,.954-.008,1.907,0,2.861.008.734.426,1.215,1.023,1.212S15.3,9.723,15.3,8.988q.013-2.861,0-5.721c0-.735-.426-1.215-1.024-1.212s-1.008.484-1.016,1.219c-.01.954,0,1.907,0,2.861m18.369,0c0-.953.008-1.907,0-2.861-.008-.736-.42-1.217-1.016-1.22s-1.02.476-1.024,1.211q-.013,2.861,0,5.721c0,.735.419,1.217,1.014,1.221S31.618,9.73,31.626,9c.011-.953,0-1.907,0-2.861M47.954,6.1c0-.932.006-1.865,0-2.8-.007-.774-.433-1.272-1.048-1.252-.6.019-.99.5-.993,1.242q-.01,2.829,0,5.658c0,.774.431,1.272,1.047,1.253.594-.019.987-.5.994-1.243.009-.953,0-1.907,0-2.861" transform="translate(0.001 0)" fill="#ef7b13"/>
    <path id="Path_44437" data-name="Path 44437" d="M180.049,145.3a3.923,3.923,0,0,1-.472.714c-1.038,1.095-2.117,2.152-3.142,3.259a1.224,1.224,0,0,0-.289.881c.221,1.6.533,3.18.739,4.778a1.269,1.269,0,0,1-.377,1.036,1.351,1.351,0,0,1-1.156.069c-1.348-.67-2.658-1.418-3.962-2.173a.911.911,0,0,0-1.046.006c-1.249.721-2.525,1.4-3.783,2.1a1.13,1.13,0,0,1-1.31.066,1.118,1.118,0,0,1-.4-1.242c.279-1.544.535-3.094.746-4.648a1.227,1.227,0,0,0-.294-.879c-1.025-1.107-2.088-2.179-3.151-3.25a1.159,1.159,0,0,1-.406-1.253,1.128,1.128,0,0,1,1.04-.708c1.49-.218,2.978-.449,4.46-.713a.926.926,0,0,0,.577-.444c.694-1.407,1.358-2.83,2.016-4.254a1.071,1.071,0,0,1,2.07,0c.659,1.424,1.323,2.847,2.018,4.254a.918.918,0,0,0,.581.434c1.4.245,2.806.448,4.211.658.919.138,1.324.463,1.337,1.3m-15.152.512c.176.2.3.358.431.5.634.658,1.249,1.336,1.915,1.959a1.614,1.614,0,0,1,.492,1.662c-.214,1.062-.35,2.139-.537,3.327.995-.548,1.887-.991,2.727-1.518a1.6,1.6,0,0,1,1.885,0c.852.528,1.753.977,2.738,1.518-.2-1.242-.374-2.348-.575-3.448a1.454,1.454,0,0,1,.434-1.441c.57-.54,1.1-1.119,1.648-1.686.253-.263.494-.537.8-.866-1.111-.164-2.093-.335-3.081-.445a1.678,1.678,0,0,1-1.532-1.123c-.386-.953-.867-1.866-1.368-2.925-.5,1.054-.98,1.967-1.366,2.918a1.679,1.679,0,0,1-1.527,1.13c-.989.11-1.97.282-3.077.446" transform="translate(-134.138 -114.368)" fill="#ef7b13"/>
    <path id="Path_44438" data-name="Path 44438" d="M113.908,152.907c0,.638.009,1.276,0,1.913a.994.994,0,0,1-1.109,1.1q-1.945.015-3.89,0a.989.989,0,0,1-1.112-1.094q-.017-1.977,0-3.954a.972.972,0,0,1,1.075-1.063q1.977-.018,3.954,0a.992.992,0,0,1,1.082,1.123c.009.659,0,1.318,0,1.977m-4.045.936h1.962v-1.974h-1.962Z" transform="translate(-89.425 -124.28)" fill="#ef7b13"/>
    <path id="Path_44439" data-name="Path 44439" d="M293.6,152.872c0,.659.011,1.318,0,1.977a.98.98,0,0,1-1.07,1.071q-1.977.019-3.953,0a.99.99,0,0,1-1.087-1.118q-.014-1.945,0-3.89a.986.986,0,0,1,1.1-1.1q1.945-.016,3.89,0c.756.005,1.112.378,1.121,1.15.008.638,0,1.276,0,1.913m-2.077-.983h-1.952v1.986h1.952Z" transform="translate(-238.503 -124.283)" fill="#ef7b13"/>
    <path id="Path_44440" data-name="Path 44440" d="M47.9,212.7c0-.638-.01-1.276,0-1.913a.977.977,0,0,1,1.061-1.078q2.008-.02,4.017,0a.962.962,0,0,1,1.03,1.043q.022,2.009,0,4.018a.963.963,0,0,1-1.029,1.046q-2.04.024-4.081,0a.954.954,0,0,1-1-1.011c-.019-.7,0-1.4,0-2.1m4.058-.908H49.97v1.955h1.988Z" transform="translate(-39.737 -173.977)" fill="#ef7b13"/>
    <path id="Path_44441" data-name="Path 44441" d="M110.895,209.714c.659,0,1.318-.013,1.977,0a.967.967,0,0,1,1.032,1.043q.022,2.009,0,4.018a.964.964,0,0,1-1.027,1.048c-1.339.016-2.678.014-4.017,0a.975.975,0,0,1-1.064-1.076q-.018-1.977,0-3.954a.99.99,0,0,1,1.123-1.082c.659-.009,1.318,0,1.977,0m.966,2.076h-1.988v1.955h1.988Z" transform="translate(-89.425 -173.985)" fill="#ef7b13"/>
    <path id="Path_44442" data-name="Path 44442" d="M293.591,212.817c0,.638.01,1.276,0,1.913a.994.994,0,0,1-1.113,1.094q-1.945.015-3.89,0a.988.988,0,0,1-1.108-1.1q-.016-1.977,0-3.954a.973.973,0,0,1,1.079-1.06q1.976-.018,3.953,0a.979.979,0,0,1,1.077,1.063c.015.68,0,1.361,0,2.041m-2.063-1.026h-1.966v1.964h1.966Z" transform="translate(-238.499 -173.981)" fill="#ef7b13"/>
    <path id="Path_44443" data-name="Path 44443" d="M54.011,272.668c0,.659.011,1.318,0,1.977a.98.98,0,0,1-1.064,1.077q-2.008.02-4.017,0a.962.962,0,0,1-1.028-1.046q-.021-2.009,0-4.018a.96.96,0,0,1,1.03-1.043q2.04-.023,4.081,0a.955.955,0,0,1,1,1.012c.019.68,0,1.36,0,2.041m-2.058-.972H49.965v1.955h1.988Z" transform="translate(-39.731 -223.676)" fill="#ef7b13"/>
    <path id="Path_44444" data-name="Path 44444" d="M110.875,275.74c-.659,0-1.318.009-1.977,0a.992.992,0,0,1-1.1-1.106q-.015-1.945,0-3.89c.006-.755.378-1.113,1.152-1.117q1.913-.011,3.826,0a1,1,0,0,1,1.133,1.137q.013,1.913,0,3.827c-.005.791-.375,1.143-1.186,1.151-.616.006-1.233,0-1.849,0m-1.016-2.082h1.966v-1.964h-1.966Z" transform="translate(-89.429 -223.689)" fill="#ef7b13"/>
    <path id="Path_44445" data-name="Path 44445" d="M170.739,275.729c-.659,0-1.318.011-1.977,0a.978.978,0,0,1-1.076-1.065q-.019-2.009,0-4.018a.96.96,0,0,1,1.045-1.028q2.008-.021,4.017,0a.962.962,0,0,1,1.044,1.03q.023,2.041,0,4.082a.956.956,0,0,1-1.013,1c-.68.019-1.36,0-2.04,0m1-4.03h-1.988v1.955h1.988Z" transform="translate(-139.113 -223.679)" fill="#ef7b13"/>
    <path id="Path_44446" data-name="Path 44446" d="M230.571,275.729c-.638,0-1.276.01-1.913,0a.979.979,0,0,1-1.078-1.063q-.02-2.009,0-4.018a.96.96,0,0,1,1.043-1.03q2.008-.021,4.017,0a.962.962,0,0,1,1.046,1.028q.023,2.041,0,4.082a.956.956,0,0,1-1.011,1c-.7.019-1.4,0-2.1,0m-.923-2.077h1.962v-1.973h-1.962Z" transform="translate(-188.804 -223.679)" fill="#ef7b13"/>
    <path id="Path_44447" data-name="Path 44447" d="M293.6,272.681c0,.659.011,1.318,0,1.977a.98.98,0,0,1-1.068,1.073q-1.976.02-3.953,0a.989.989,0,0,1-1.089-1.116q-.014-1.945,0-3.89a.986.986,0,0,1,1.1-1.1q1.945-.016,3.89,0c.757.005,1.114.376,1.123,1.147.008.638,0,1.276,0,1.913m-2.066-.991h-1.973v1.963h1.973Z" transform="translate(-238.503 -223.685)" fill="#ef7b13"/>
  </g>
</svg>
