<svg xmlns="http://www.w3.org/2000/svg" width="33.257" height="33.226" viewBox="0 0 33.257 33.226">
  <path id="edit_FILL0_wght300_GRAD0_opsz24_1_" data-name="edit_FILL0_wght300_GRAD0_opsz24 (1)" d="M149.1-787.023h2.426l18.17-18.169-2.426-2.426-18.17,18.17Zm26.89-20.3-6.622-6.562,2.558-2.558a2.861,2.861,0,0,1,2.1-.864,2.861,2.861,0,0,1,2.1.864l2.389,2.389a2.936,2.936,0,0,1,.894,2.072,2.723,2.723,0,0,1-.834,2.072Zm-2.128,2.158-21.083,21.083h-6.622V-790.7l21.083-21.083Zm-5.388-1.253-1.2-1.2,2.426,2.426Z" transform="translate(-146.156 817.305)" fill="#ef7b13"/>
</svg>
