<svg xmlns="http://www.w3.org/2000/svg" width="18.734" height="18.716" viewBox="0 0 18.734 18.716">
  <path id="edit_FILL0_wght300_GRAD0_opsz24" d="M147.814-800.247h1.367l10.235-10.235-1.367-1.367-10.235,10.235Zm15.147-11.434-3.73-3.7,1.441-1.441a1.611,1.611,0,0,1,1.184-.487,1.611,1.611,0,0,1,1.184.487l1.346,1.346a1.654,1.654,0,0,1,.5,1.167,1.534,1.534,0,0,1-.47,1.167Zm-1.2,1.216-11.876,11.876h-3.73v-3.73L158.032-814.2Zm-3.035-.706-.678-.678,1.367,1.367Z" transform="translate(-146.156 817.305)"/>
</svg>
