<svg xmlns="http://www.w3.org/2000/svg" width="20.795" height="27.569" viewBox="0 0 20.795 27.569">
  <path id="Path_44156" data-name="Path 44156" d="M18.661,27.069h-.74a3.267,3.267,0,0,1-1.475-1.009q-2.643-2.662-5.3-5.306a1.269,1.269,0,0,0-1.987,0Q6.511,23.4,3.87,26.043a3.332,3.332,0,0,1-1.494,1.027h-.74c-.012-.012-.021-.032-.035-.036A1.972,1.972,0,0,1,0,24.863Q0,13.793,0,2.723c0-.1,0-.194,0-.291A2.446,2.446,0,0,1,1.425.25,6.294,6.294,0,0,1,2.112,0H18.185c.013.011.025.028.04.032a2.5,2.5,0,0,1,2.069,2.691q0,7.754,0,15.508,0,3.421,0,6.842a1.945,1.945,0,0,1-1.42,1.912c-.073.023-.142.055-.213.084M1.6,13.759q0,5.537,0,11.074a2.429,2.429,0,0,0,.006.29.369.369,0,0,0,.559.308,1.158,1.158,0,0,0,.285-.23q2.8-2.791,5.592-5.584a2.851,2.851,0,0,1,4.225,0q2.787,2.783,5.57,5.568a1.6,1.6,0,0,0,.234.213.388.388,0,0,0,.625-.291,2.1,2.1,0,0,0,.006-.264q0-11.06,0-22.121c0-.817-.322-1.142-1.13-1.142H2.742c-.827,0-1.145.32-1.145,1.153q0,5.511,0,11.021" transform="translate(0.249 0.25)" fill="#111" stroke="#111" stroke-width="0.5"/>
</svg>
