<svg id="Group_11150" data-name="Group 11150" xmlns="http://www.w3.org/2000/svg" xmlns:xlink="http://www.w3.org/1999/xlink" width="57.572" height="59.498" viewBox="0 0 57.572 59.498">
  <defs>
    <clipPath id="clip-path">
      <rect id="Rectangle_4536" data-name="Rectangle 4536" width="57.572" height="59.498" fill="#ef7b13"/>
    </clipPath>
  </defs>
  <g id="Group_11149" data-name="Group 11149" clip-path="url(#clip-path)">
    <path id="Path_44597" data-name="Path 44597" d="M22.288,29.731a14.5,14.5,0,0,1-3.027-2.216,12.44,12.44,0,0,1-3.45-6.054.879.879,0,0,0-.805-.775,2.7,2.7,0,0,1-.707-5.081.77.77,0,0,0,.5-.723A13.561,13.561,0,0,1,16.071,9.63,13.22,13.22,0,0,1,22.789,3.1a1.374,1.374,0,0,0,.8-.8C24.152.911,25.415.482,26.72.174A6.954,6.954,0,0,1,30.834.5a3.229,3.229,0,0,1,2.1,1.987.925.925,0,0,0,.581.549,13.253,13.253,0,0,1,7.963,10.218,4.1,4.1,0,0,1,.048.476,2.361,2.361,0,0,0,1.148,2.294,2.243,2.243,0,0,1,.865,2.712,2.545,2.545,0,0,1-2.061,1.94.938.938,0,0,0-.855.809,12.636,12.636,0,0,1-6.043,7.986c-.151.089-.3.183-.51.315.594.185,1.121.344,1.644.512a23.815,23.815,0,0,1,8.48,4.8c.553.483.555.481.772-.233a6.412,6.412,0,0,1,7.812-4.31c1.177.337,1.4,1.154.532,2.038-.935.955-1.892,1.889-2.832,2.841a1.426,1.426,0,0,0,.551,2.088,1.474,1.474,0,0,0,1.873-.483c.777-.882,1.645-1.683,2.486-2.508.791-.776,1.629-.548,1.933.514a6.393,6.393,0,0,1-6.156,8.158c-.863,0-.87.006-.538.786a24.758,24.758,0,0,1,1.747,6.628,1.1,1.1,0,0,1-1.219,1.32c-2.874.008-5.748,0-8.622,0-1.248,0-1.248,0-1.257,1.261A6.412,6.412,0,0,1,34.958,59.5a6.315,6.315,0,0,1-1.892-.221c-1.034-.315-1.269-1.129-.521-1.9.962-.986,1.947-1.948,2.916-2.926a1.453,1.453,0,0,0-.566-2.127,1.433,1.433,0,0,0-1.813.472c-.772.885-1.643,1.686-2.485,2.509s-1.669.563-2-.561a6.636,6.636,0,0,1-.2-2.312c.023-.351-.041-.5-.436-.5-1.177.021-2.355.013-3.532,0-.3,0-.488.031-.471.416a1.13,1.13,0,0,1-.427.828c-.682.673-1.362,1.348-2.032,2.032a1.135,1.135,0,0,1-1.514.263,2.426,2.426,0,0,0-2.448-.061,2.437,2.437,0,0,0-1.659,1.731,1.15,1.15,0,0,1-1.293.911c-.937-.028-1.876-.021-2.814,0a1.113,1.113,0,0,1-1.266-.859,2.111,2.111,0,0,0-1.76-1.763.764.764,0,0,1-.272-.123,1.487,1.487,0,0,0-1.66-.037c-1.223.605-1.358.547-2.336-.432-.55-.55-1.1-1.106-1.65-1.653a1.136,1.136,0,0,1-.247-1.516A2,2,0,0,0,2.6,49.251a.935.935,0,0,1-.154-.387c-.109-.658-.547-.934-1.14-1.14-1.249-.434-1.3-.551-1.3-1.86,0-.818.015-1.637,0-2.455a1.055,1.055,0,0,1,.8-1.182,2.612,2.612,0,0,0,1.905-1.88,2.313,2.313,0,0,0-.045-2.119c-.443-.844-.35-1.133.313-1.8.633-.637,1.277-1.264,1.9-1.907a1.1,1.1,0,0,1,1.458-.261,2.5,2.5,0,0,0,2.556.046,2.416,2.416,0,0,0,1.58-1.65c.219-.793.585-.991,1.423-1,.858-.008,1.716,0,2.574,0a1.3,1.3,0,0,1,1.249.553c.126.21.268.2.447.1a25.117,25.117,0,0,1,6.018-2.465c.03-.008.05-.052.1-.11m-5.066,4.35c.881.512,1.66.949,2.556.279a1.481,1.481,0,0,1,.216-.1,1.186,1.186,0,0,1,1.519.267q1.008,1.024,2.032,2.032a1.131,1.131,0,0,1,.244,1.516,2.423,2.423,0,0,0-.046,2.459,2.332,2.332,0,0,0,1.678,1.629,1.24,1.24,0,0,1,.986,1.379q-.007,1.347,0,2.694a1.224,1.224,0,0,1-.954,1.344,1.966,1.966,0,0,0-1.675,1.677.162.162,0,0,1-.022.055c-.248.419-.1.55.353.545q2.3-.023,4.61,0a.881.881,0,0,0,.787-.422,6.347,6.347,0,0,1,6.642-2.672.784.784,0,0,0,.8-.229Q40.7,42.759,44.482,39c.307-.3.269-.49-.012-.775a25.113,25.113,0,0,0-2.283-2.113,22.053,22.053,0,0,0-17.452-4.659,21.3,21.3,0,0,0-7.514,2.626m-11.1,2.337c-.576-.007-1.475,1.334-1.2,1.808a1.992,1.992,0,0,1-.052,2.339,4.131,4.131,0,0,0-.594,1.428,1.985,1.985,0,0,1-1.6,1.714c-.186.041-.438.1-.5.3a3.79,3.79,0,0,0-.04,1.658c.051.346.454.367.723.444A1.789,1.789,0,0,1,4.216,47.6a4.2,4.2,0,0,0,.6,1.49,2.091,2.091,0,0,1,.072,2.5c-.1.161-.274.386-.134.551A6.65,6.65,0,0,0,5.89,53.277c.3.218.649-.1.929-.25a1.646,1.646,0,0,1,1.85.062,4.632,4.632,0,0,0,1.7.725,1.946,1.946,0,0,1,1.658,1.576c.053.2.093.483.335.53a4.017,4.017,0,0,0,1.6,0c.383-.082.4-.523.5-.829A1.67,1.67,0,0,1,15.8,53.883a4.771,4.771,0,0,0,1.549-.614,2.176,2.176,0,0,1,2.607-.06c.133.085.311.2.445.107a4.564,4.564,0,0,0,1.179-1.175c.195-.291-.1-.61-.238-.876a1.737,1.737,0,0,1,.086-1.914,4.855,4.855,0,0,0,.713-1.7,1.877,1.877,0,0,1,1.5-1.583c.224-.059.535-.1.6-.34a3.964,3.964,0,0,0,.033-1.6c-.051-.38-.478-.4-.762-.481a1.741,1.741,0,0,1-1.344-1.432,5.82,5.82,0,0,0-.806-1.924,1.58,1.58,0,0,1-.066-1.7,1.889,1.889,0,0,1,.1-.217c.354-.5.217-.872-.226-1.275-.784-.713-.766-.755-1.753-.316a1.615,1.615,0,0,1-1.644-.089,5.1,5.1,0,0,0-1.752-.755,1.932,1.932,0,0,1-1.672-1.557c-.056-.221-.1-.537-.355-.588a3.845,3.845,0,0,0-1.6,0c-.366.085-.38.535-.479.843a1.678,1.678,0,0,1-1.33,1.226,6.063,6.063,0,0,0-1.874.774,1.735,1.735,0,0,1-1.916.077,6.155,6.155,0,0,0-.687-.294M28.183,15.274q2.245,0,4.489,0c.9,0,.9,0,.907-.892.007-1.656-.011-3.312.035-4.967.021-.756.447-1.147,1.047-1.13.634.017.986.449.989,1.237.005,1.7.015,3.392-.006,5.087-.006.483.138.689.644.673.857-.028,1.716-.03,2.573,0,.525.019.745-.174.673-.7-.019-.138,0-.28-.018-.418a11.3,11.3,0,0,0-5.948-8.818c-.65-.365-.7-.327-.786.4-.167,1.363-.334,2.727-.51,4.089-.122.949-.547,1.431-1.183,1.366-.685-.07-1.006-.615-.886-1.615.232-1.917.486-3.832.744-5.746.1-.757-.031-1.068-.73-1.359A5.1,5.1,0,0,0,26.424,2.4c-.88.317-1.06.6-.942,1.532.248,1.955.512,3.908.778,5.861a1.14,1.14,0,0,1-.88,1.4A1.108,1.108,0,0,1,24.2,10.1q-.289-2.191-.583-4.381c-.092-.68-.147-.712-.757-.372A11.32,11.32,0,0,0,16.857,14.7c-.04.416.121.582.536.576.918-.013,1.836-.016,2.753,0,.437.008.6-.163.6-.6-.018-1.157-.007-2.314,0-3.471,0-.619-.021-1.238.016-1.855a1.039,1.039,0,1,1,2.075.037c.008.159,0,.319,0,.479,0,1.576.018,3.152-.009,4.728-.009.529.177.7.693.688,1.556-.024,3.112-.009,4.668-.008m.066,5.518H18.611c-.883,0-.888.01-.613.872A10.679,10.679,0,0,0,29.412,29.01a10.46,10.46,0,0,0,9.051-7.477c.251-.723.224-.74-.518-.741h-9.7M50.469,32.58a4.216,4.216,0,0,0-3.506,5.57,1.514,1.514,0,0,1-.452,1.755q-4.3,4.255-8.55,8.553a1.582,1.582,0,0,1-1.817.452,4.341,4.341,0,0,0-5.571,3.127c-.024.1-.145.218.094.33.656-.672,1.329-1.351,1.99-2.042a1.246,1.246,0,0,1,1.358-.36c.765.223,1.538.423,2.31.62a1.267,1.267,0,0,1,1,1c.19.774.383,1.549.615,2.311a1.265,1.265,0,0,1-.355,1.362c-.477.482-.963.956-1.434,1.445a1.746,1.746,0,0,0-.529.635,4.308,4.308,0,0,0,3.351-5.661,1.384,1.384,0,0,1,.383-1.607q4.4-4.366,8.763-8.764a1.359,1.359,0,0,1,1.554-.383,4.376,4.376,0,0,0,3.643-.346A3.97,3.97,0,0,0,55.35,37.55,27.676,27.676,0,0,0,53.338,39.5a1.331,1.331,0,0,1-1.468.382c-.743-.228-1.5-.428-2.251-.611a1.26,1.26,0,0,1-.994-1c-.194-.753-.378-1.509-.609-2.251a1.3,1.3,0,0,1,.394-1.457c.694-.655,1.373-1.326,2.058-1.989M28.249,18.7q6.194,0,12.389,0c.607,0,.949-.262.91-.7-.049-.54-.435-.661-.9-.661h-.239q-12.18,0-24.36,0a2.552,2.552,0,0,0-.652.05.607.607,0,0,0-.493.66.62.62,0,0,0,.594.635,4.862,4.862,0,0,0,.6.014h12.15M42.494,49.815c.3.019.454.037.608.037q3.257,0,6.513,0c.234,0,.564.093.486-.367a20.785,20.785,0,0,0-1.57-5.122c-.125-.274-.26-.318-.483-.095-1.814,1.817-3.631,3.63-5.553,5.55" transform="translate(0 0)" fill="#ef7b13"/>
    <path id="Path_44598" data-name="Path 44598" d="M53.648,244.922a6.77,6.77,0,1,1-6.734-6.761,6.754,6.754,0,0,1,6.734,6.761m-6.776-4.667a4.715,4.715,0,0,0-4.715,4.653,4.79,4.79,0,0,0,4.72,4.743,4.712,4.712,0,0,0,4.677-4.69,4.615,4.615,0,0,0-4.683-4.707" transform="translate(-33.691 -200.058)" fill="#ef7b13"/>
  </g>
</svg>
