<svg version="1.2" xmlns="http://www.w3.org/2000/svg" viewBox="0 0 90 91" width="90" height="91">
	<title>delete-icon-circle-svg</title>
	<style>
		.s0 { fill: none } 
		.s1 { fill: none;stroke: #707070;stroke-width: .5 } 
		.s2 { fill: #111111 } 
	</style>
	<g id="Group_10541">
		<g>
			<g id="Rectangle_3629-2">
				<path class="s0" d="m45.5 1c24.6 0 44.5 19.9 44.5 44.5 0 24.6-19.9 44.5-44.5 44.5-24.6 0-44.5-19.9-44.5-44.5 0-24.6 19.9-44.5 44.5-44.5z"/>
				<path class="s1" d="m45.5 1.3v-0.1c24.4 0 44.3 19.9 44.3 44.3 0 24.4-19.9 44.3-44.3 44.3-24.4 0-44.3-19.9-44.3-44.3 0-24.4 19.9-44.3 44.3-44.3z"/>
			</g>
		</g>
		<path id="delete_FILL0_wght300_GRAD0_opsz24" fill-rule="evenodd" class="s2" d="m33.2 67.4q-0.4 0-0.9-0.1-0.4 0-0.9-0.2-0.4-0.2-0.8-0.4-0.3-0.3-0.7-0.6-0.3-0.4-0.6-0.7-0.2-0.4-0.4-0.8-0.2-0.5-0.2-0.9-0.1-0.5-0.1-0.9v-32.7h-2.6v-3.8h11.6v-2.3h15.4v2.3h11.6v3.8h-2.6v32.7q0 0.4-0.1 0.9-0.1 0.4-0.2 0.9-0.2 0.4-0.5 0.8-0.2 0.4-0.5 0.7-0.4 0.3-0.7 0.6-0.4 0.2-0.9 0.4-0.4 0.2-0.8 0.3-0.5 0-0.9 0zm24.9-37.3h-25.7v32.7q0 0.1 0 0.1 0 0.1 0 0.2 0 0.1 0.1 0.1 0 0.1 0.1 0.1 0 0.1 0.1 0.1 0.1 0.1 0.2 0.1 0 0 0.1 0.1 0.1 0 0.2 0h24.1q0.1 0 0.1 0 0.1-0.1 0.2-0.1 0.1 0 0.1-0.1 0.1 0 0.1-0.1 0.1 0 0.1-0.1 0.1-0.1 0.1-0.1 0.1-0.1 0.1-0.2 0 0 0-0.1zm-19.5 5.1h3.8v23.2h-3.8zm9.4 0h3.9v23.1h-3.8z"/>
	</g>
</svg>