<svg id="Group_11148" data-name="Group 11148" xmlns="http://www.w3.org/2000/svg" xmlns:xlink="http://www.w3.org/1999/xlink" width="59.499" height="59.498" viewBox="0 0 59.499 59.498">
  <defs>
    <clipPath id="clip-path">
      <rect id="Rectangle_4535" data-name="Rectangle 4535" width="59.499" height="59.498" fill="#ef7b13"/>
    </clipPath>
  </defs>
  <g id="Group_11147" data-name="Group 11147" clip-path="url(#clip-path)">
    <path id="Path_44594" data-name="Path 44594" d="M29.828,48.843q-12.031,0-24.063,0a5.509,5.509,0,0,1-5.583-4.56A4.9,4.9,0,0,1,.1,43.3Q.1,25.393.1,7.485A5.526,5.526,0,0,1,4.852,2.006a5.468,5.468,0,0,1,5.979,4.628,8.759,8.759,0,0,1,.1,1.909c-.025.524.187.718.686.664a2.876,2.876,0,0,1,.309,0q13.763,0,27.527.009a1.823,1.823,0,0,0,1.425-.554c2.678-2.687,5.383-5.348,8.079-8.016A2.284,2.284,0,0,1,49.623.1a1.082,1.082,0,0,1,1.52,1.126c.017,2.02.006,4.041.007,6.062,0,.474.009.949,0,1.423-.007.335.136.489.476.491,1.761.008,1.44.108,1.456-1.31.016-1.484,0-2.969.006-4.454.007-1.114.39-1.473,1.5-1.443a5.5,5.5,0,0,1,4.975,5.258c.025,2.783.008,5.567.008,8.351q0,13.7,0,27.4a5.526,5.526,0,0,1-5.808,5.834q-11.97,0-23.939,0m8.161-37.487H11.808c-.868,0-.869,0-.869.889q0,15.126,0,30.252a3.837,3.837,0,0,1-.037.8.983.983,0,0,1-.979.866.992.992,0,0,1-1.091-.8,3.141,3.141,0,0,1-.066-.612A3.359,3.359,0,0,0,4.871,39.64a3.487,3.487,0,0,0-2.659,3.689,3.311,3.311,0,0,0,3.412,3.348q24.22.006,48.439,0a3.406,3.406,0,0,0,1.038-.127,3.592,3.592,0,0,0,2.368-3.606,3.458,3.458,0,0,0-3.106-3.375c-.889-.077-1.248-.448-1.279-1.328-.007-.206,0-.412,0-.619q0-12.62,0-25.241c0-.206-.005-.412-.005-.618,0-.284-.144-.411-.423-.406-.206,0-.412,0-.619,0-.883,0-.884,0-.884.875q0,12.218,0,24.436c0,1.31-.34,1.652-1.646,1.652q-17.693,0-35.386,0a3.531,3.531,0,0,1-.678-.032,1.054,1.054,0,0,1-.614-1.789c.12-.141.258-.266.39-.4q12.1-12.007,24.189-24.016a1.827,1.827,0,0,0,.584-.728m11-7.513-.156-.065-32.5,32.228.088.149c.469,0,.939.013,1.408,0,.408-.014.864.139,1.212-.088.313-.2.122-.657.238-.985a1.025,1.025,0,0,1,1.113-.78,1,1,0,0,1,.943.969,4.563,4.563,0,0,1,.012.494c0,.249.1.382.366.389.287.007.416-.118.415-.4,0-.474-.018-.95.013-1.422a1.025,1.025,0,0,1,1.229-.983,1.039,1.039,0,0,1,.839.881,12.039,12.039,0,0,1,.073,1.542c.015.244.119.387.383.377.244-.009.308-.162.314-.372A4.056,4.056,0,0,1,25,35.214a1.059,1.059,0,0,1,1.429-.861,1.221,1.221,0,0,1,.716,1.314c0,.235.006.472.339.474s.348-.224.354-.464a12.84,12.84,0,0,1,.045-1.358,1.059,1.059,0,1,1,2.112.148c.013.35,0,.7.007,1.051.009.271-.09.615.373.63s.4-.305.41-.594c0-.1,0-.207.006-.309a1.029,1.029,0,0,1,2.05-.022c.018.184.012.371.012.556,0,.259.13.37.384.37s.393-.1.394-.361c0-.392,0-.784.006-1.175.012-.8.391-1.276,1.021-1.3s1.076.465,1.127,1.223c.024.349,0,.7.014,1.051.008.239-.046.531.33.548s.347-.26.367-.51a2.7,2.7,0,0,1,.092-.606,1.023,1.023,0,0,1,1.383-.663,1.169,1.169,0,0,1,.69,1.262c-.005.247-.027.528.352.518s.341-.289.352-.536c.017-.411,0-.827.051-1.234a1.049,1.049,0,1,1,2.092.115c.011.433.007.866.007,1.3,0,.261.137.366.388.366s.388-.1.389-.364a3.842,3.842,0,0,1,.017-.556.972.972,0,0,1,.914-.929.982.982,0,0,1,1.122.756,3.323,3.323,0,0,1,.1.67c.021.224.067.41.348.414.327.005.355-.214.355-.458,0-.371-.006-.743.005-1.113.024-.757.469-1.267,1.083-1.254s1.049.507,1.075,1.271c.012.371,0,.742.008,1.113,0,.164,0,.37.2.408a2.33,2.33,0,0,0,1.28-.019c.352-.141.184-.551.185-.839q.012-15.372.007-30.744V3.843M8.774,38.516v-.637q0-15,0-30c0-.206,0-.413-.01-.618A3.476,3.476,0,0,0,6.27,4.2,3.2,3.2,0,0,0,2.7,5.782a4.328,4.328,0,0,0-.529,2.26q-.011,15,0,30c0,.151-.072.332.1.452a5.5,5.5,0,0,1,6.511.025m48.737.087V35.8q0-13.825,0-27.649a3.984,3.984,0,0,0-1.436-3.4c-.209-.163-.453-.437-.691-.345-.288.11-.138.475-.138.724q-.011,15.773-.006,31.546c0,.165,0,.33,0,.495a.394.394,0,0,0,.279.431,7.007,7.007,0,0,1,1.987,1" transform="translate(-0.082 0)" fill="#ef7b13"/>
    <path id="Path_44595" data-name="Path 44595" d="M27.938,319q-11.907,0-23.814,0a4.087,4.087,0,0,1-3.98-2.938,4.038,4.038,0,0,1,3.354-5.05,11.69,11.69,0,0,1,1.478-.1q23.134-.007,46.267-.011a4.364,4.364,0,0,1,1.963.437c1.78.863,3.58,1.685,5.372,2.523.483.226.911.489.915,1.118,0,.66-.447.918-.952,1.154-1.812.845-3.624,1.689-5.426,2.554a3.185,3.185,0,0,1-1.426.32q-11.876-.012-23.752-.006m1.758-2.064h9.772c3.608,0,7.216-.012,10.824.012.577,0,.764-.177.735-.741-.039-.74-.009-1.484-.01-2.226,0-.922,0-.923-.9-.923H9.292c-.124,0-.248.01-.371,0-.406-.038-.546.149-.537.545.019.8,0,1.608,0,2.412,0,.921,0,.922.894.922H29.7M6.244,315.018c0-2.08,0-2.08-2.1-1.959a1.374,1.374,0,0,0-.185.013,2.055,2.055,0,0,0-1.749,1.376,1.741,1.741,0,0,0,.59,1.944,2.665,2.665,0,0,0,1.854.541c1.585.01,1.585.01,1.585-1.544v-.371m46.936-.051c0,.308,0,.615,0,.923,0,.22.04.383.316.254.687-.322,1.375-.64,2.059-.968.249-.119.238-.259-.007-.376-.407-.194-.814-.387-1.225-.574-1.143-.52-1.144-.519-1.143.742" transform="translate(0 -259.506)" fill="#ef7b13"/>
    <path id="Path_44596" data-name="Path 44596" d="M181.152,112.918c-2.1,0-4.2-.006-6.3,0-.611,0-1.172-.072-1.43-.723-.242-.61.13-1.009.523-1.4q6.521-6.457,13.034-12.922a1.2,1.2,0,0,1,1.372-.426,1.214,1.214,0,0,1,.692,1.272c.01,1.4.006,2.8.006,4.2q0,4.017,0,8.034c0,.226.006.454-.014.679-.081.928-.45,1.273-1.391,1.275-2.163.006-4.326,0-6.489,0m-3.765-2.178c-.067-.009.012.011.091.011,2.947,0,5.894-.005,8.841.01.476,0,.59-.192.588-.629-.013-2.865-.006-5.729-.01-8.594,0-.126.073-.294-.207-.4l-9.3,9.6" transform="translate(-144.688 -81.274)" fill="#ef7b13"/>
  </g>
</svg>
