<svg xmlns="http://www.w3.org/2000/svg" xmlns:xlink="http://www.w3.org/1999/xlink" width="29.217" height="28.001" viewBox="0 0 29.217 28.001">
  <defs>
    <clipPath id="clip-path">
      <rect id="Rectangle_3938" data-name="Rectangle 3938" width="29.217" height="28.001" fill="#0038bc"/>
    </clipPath>
  </defs>
  <g id="Group_9515" data-name="Group 9515" transform="translate(0 0)" opacity="0.6">
    <g id="Group_9514" data-name="Group 9514" transform="translate(0 0)" clip-path="url(#clip-path)">
      <path id="Path_44172" data-name="Path 44172" d="M29.217,14.4a4.945,4.945,0,0,1-1.8,2.251c-.191.156-.375.322-.558.488a1.535,1.535,0,0,0-.477,1.576c.148.686.3,1.372.4,2.067a3.327,3.327,0,0,1-.054,1.156A1.909,1.909,0,0,1,25.175,23.4c-.644.149-1.311.2-1.967.295-.207.029-.415.048-.623.072a1.357,1.357,0,0,0-1.152.855c-.235.529-.454,1.066-.72,1.579a5.581,5.581,0,0,1-.706,1.1,1.881,1.881,0,0,1-2.143.582,10.489,10.489,0,0,1-1.387-.649c-.422-.215-.823-.473-1.249-.68a1.375,1.375,0,0,0-1.29.02c-.511.271-1,.577-1.52.837a6.131,6.131,0,0,1-1.2.5,1.943,1.943,0,0,1-2.243-.9,12.52,12.52,0,0,1-.74-1.408c-.155-.314-.294-.638-.432-.96a1.427,1.427,0,0,0-1.278-.9c-.745-.077-1.5-.143-2.23-.288a2.166,2.166,0,0,1-1.858-2.687c.109-.683.25-1.362.393-2.038a1.539,1.539,0,0,0-.495-1.593c-.58-.52-1.15-1.053-1.683-1.619A2.188,2.188,0,0,1,0,13.93a1.99,1.99,0,0,1,.493-1.278,7.846,7.846,0,0,1,1.318-1.292,2.212,2.212,0,0,0,.911-2.753,9.27,9.27,0,0,1-.283-1.363A2.223,2.223,0,0,1,4.486,4.482c.666-.1,1.338-.163,2.008-.229a1.531,1.531,0,0,0,1.326-.935c.235-.508.44-1.031.691-1.53a5.333,5.333,0,0,1,.63-1.01A1.9,1.9,0,0,1,11.394.142a9.138,9.138,0,0,1,1.894.963,2.123,2.123,0,0,0,2.63.01A9.124,9.124,0,0,1,17.677.192a2,2,0,0,1,2.6.843,9.737,9.737,0,0,1,.786,1.574c.611,1.481.8,1.6,2.505,1.756a10.728,10.728,0,0,1,1.518.219,2.116,2.116,0,0,1,1.7,2.61c-.085.685-.252,1.361-.394,2.038a1.609,1.609,0,0,0,.536,1.669c.281.242.556.49.835.734a4.466,4.466,0,0,1,1.454,2.025ZM3.878,20.98c-.016.71.117.888.59,1.019a1.706,1.706,0,0,0,.25.055c.621.077,1.242.157,1.865.223A2.931,2.931,0,0,1,9.1,23.972c.152.316.285.641.437.958.2.418.393.844.628,1.243a.632.632,0,0,0,.883.278,3.652,3.652,0,0,0,.464-.216c.431-.241.865-.476,1.283-.738a3.2,3.2,0,0,1,3.6-.015c.407.244.816.485,1.231.716.968.538,1.328.414,1.778-.6.222-.5.432-1.011.654-1.514a2.918,2.918,0,0,1,2.593-1.8c.642-.061,1.284-.132,1.922-.231.656-.1.894-.429.781-1.075-.108-.616-.256-1.224-.393-1.835a2.971,2.971,0,0,1,1-3.132c.325-.278.654-.552.966-.845a5.3,5.3,0,0,0,.659-.705.691.691,0,0,0-.025-.942,5.5,5.5,0,0,0-.549-.576c-.46-.44-.945-.855-1.386-1.313a2.661,2.661,0,0,1-.7-2.448c.133-.727.307-1.447.422-2.177.1-.65-.092-.93-.742-1.043s-1.318-.163-1.978-.227a2.88,2.88,0,0,1-2.483-1.7c-.095-.2-.189-.393-.281-.591-.18-.387-.345-.782-.541-1.16-.469-.9-.753-.985-1.641-.495-.507.28-1,.577-1.508.863a2.939,2.939,0,0,1-3.037.032c-.566-.31-1.121-.641-1.691-.943-.81-.429-1.1-.338-1.5.486-.273.552-.514,1.12-.763,1.685A2.952,2.952,0,0,1,6.54,5.734c-.708.065-1.415.161-2.114.287a.587.587,0,0,0-.547.734c.054.517.168,1.027.256,1.541.065.373.146.745.2,1.12A2.8,2.8,0,0,1,3.3,11.972c-.465.421-.952.819-1.4,1.261-.549.546-.566.912-.045,1.476a15.683,15.683,0,0,0,1.319,1.215,3.081,3.081,0,0,1,1.071,3.27c-.156.664-.276,1.336-.368,1.787" transform="translate(0 0)" fill="#0038bc"/>
      <path id="Path_44173" data-name="Path 44173" d="M22.795,30.644a.725.725,0,0,1,1.058-.717c.4.2.775.44,1.16.666.655.384,1.314.763,1.96,1.161a.291.291,0,0,0,.449-.058q2.67-2.931,5.355-5.848c.052-.056.1-.113.155-.167a.733.733,0,0,1,1.089.979c-.438.5-.9.985-1.345,1.475l-4.435,4.835c-.1.112-.205.226-.317.329a.759.759,0,0,1-.968.135c-1.283-.741-2.557-1.5-3.831-2.253a.652.652,0,0,1-.331-.538" transform="translate(-13.89 -15.502)" fill="#0038bc"/>
    </g>
  </g>
</svg>
