<svg id="linkedin-socials-social-media-icon-svgrepo-com" xmlns="http://www.w3.org/2000/svg" width="31.129" height="31.129" viewBox="0 0 31.129 31.129">
  <path id="Path_43829" data-name="Path 43829" d="M30.035,7H15.094A8.094,8.094,0,0,0,7,15.094V30.035a8.094,8.094,0,0,0,8.094,8.094H30.035a8.094,8.094,0,0,0,8.094-8.094V15.094A8.094,8.094,0,0,0,30.035,7Zm6.848,23.035a6.848,6.848,0,0,1-6.848,6.848H15.094a6.848,6.848,0,0,1-6.848-6.848V15.094a6.848,6.848,0,0,1,6.848-6.848H30.035a6.848,6.848,0,0,1,6.848,6.848Z" transform="translate(-7 -7)" fill="#111"/>
  <path id="Path_43830" data-name="Path 43830" d="M18.981,25H14.623a.623.623,0,0,0-.623.623V39.942a.623.623,0,0,0,.623.623h4.358a.623.623,0,0,0,.623-.623V25.623A.623.623,0,0,0,18.981,25Zm-.623,14.319H15.245V26.245h3.113Z" transform="translate(-9.642 -13.794)" fill="#111"/>
  <path id="Path_43831" data-name="Path 43831" d="M35.961,24.994h0A8.828,8.828,0,0,0,31.6,26.307v-.691a.623.623,0,0,0-.623-.623H26.623a.623.623,0,0,0-.623.623V39.936a.623.623,0,0,0,.623.623h4.358a.623.623,0,0,0,.623-.623V30.479a4.769,4.769,0,0,1,1.868-.5c1.749,0,1.868,1.245,1.868,1.519v8.442a.623.623,0,0,0,.623.623h4.358a.623.623,0,0,0,.623-.623V30.08a5.167,5.167,0,0,0-1.332-3.8A4.937,4.937,0,0,0,35.961,24.994ZM39.7,39.313H36.584v-7.82a2.8,2.8,0,0,0-3.113-2.764,6.375,6.375,0,0,0-2.77.8.623.623,0,0,0-.342.554v9.227H27.245V26.239h3.113v1.283a.623.623,0,0,0,1.033.467,7.664,7.664,0,0,1,4.57-1.749h0a3.735,3.735,0,0,1,2.752.915A3.991,3.991,0,0,1,39.7,30.08Z" transform="translate(-14.171 -13.787)" fill="#111"/>
  <path id="Path_43832" data-name="Path 43832" d="M16.8,14a2.8,2.8,0,1,0,2.8,2.8A2.8,2.8,0,0,0,16.8,14Zm0,4.358A1.556,1.556,0,1,1,18.358,16.8,1.556,1.556,0,0,1,16.8,18.358Z" transform="translate(-9.642 -9.642)" fill="#111"/>
</svg>
