<svg id="Group_11154" data-name="Group 11154" xmlns="http://www.w3.org/2000/svg" xmlns:xlink="http://www.w3.org/1999/xlink" width="59.534" height="59.498" viewBox="0 0 59.534 59.498">
  <defs>
    <clipPath id="clip-path">
      <rect id="Rectangle_4538" data-name="Rectangle 4538" width="59.534" height="59.498" fill="#ef7b13"/>
    </clipPath>
  </defs>
  <g id="Group_11153" data-name="Group 11153" clip-path="url(#clip-path)">
    <path id="Path_44601" data-name="Path 44601" d="M29.715,227.025c-8.041,0-16.083-.035-24.124.023A5.488,5.488,0,0,1,.2,223.088a5.344,5.344,0,0,1,2.6-6.1.856.856,0,0,0,.43-.873q-.01-5.5,0-11c0-1.223.291-1.509,1.533-1.509H16.622c1.265,0,1.54.28,1.54,1.569,0,3.469.012,6.937-.011,10.405,0,.57.146.792.743.762.9-.045,1.812-.04,2.716,0,.558.024.715-.181.712-.723-.019-3.49-.01-6.981-.009-10.472,0-1.267.278-1.54,1.568-1.54h11.8c1.31,0,1.571.267,1.571,1.6,0,3.446.013,6.893-.012,10.339,0,.6.153.828.779.794.9-.049,1.812-.039,2.716,0,.535.022.679-.18.676-.692-.017-3.512-.01-7.025-.008-10.538,0-1.2.3-1.5,1.47-1.505q6,0,12,0c1.173,0,1.469.3,1.47,1.507,0,3.645.007,7.29-.007,10.935a1,1,0,0,0,.542,1.012,5.366,5.366,0,0,1-1.648,9.883,5.545,5.545,0,0,1-1.252.081q-12.128,0-24.257,0m.108-8.483q-11.83,0-23.66,0a6.794,6.794,0,0,0-1.251.1,3.084,3.084,0,0,0-.5,5.95,5.339,5.339,0,0,0,1.764.225q23.593-.006,47.187,0c.221,0,.443.007.663-.007a3.208,3.208,0,0,0,3.079-2.284,3.079,3.079,0,0,0-1.171-3.35,3.83,3.83,0,0,0-2.388-.63H29.823m-19.2-2.212c1.522,0,3.045-.021,4.566.011.56.012.775-.13.77-.734-.028-3.022-.022-6.045,0-9.067,0-.526-.127-.739-.7-.735-3.044.024-6.089.02-9.133,0-.5,0-.705.118-.7.665q.034,4.6,0,9.2c0,.545.2.674.7.666,1.5-.024,3-.009,4.5-.008m24.411-5.2c0-1.544-.017-3.089.009-4.633.009-.515-.152-.691-.678-.688q-4.566.03-9.133,0c-.542,0-.726.158-.722.712q.033,4.566,0,9.133c0,.515.152.691.678.688q4.6-.03,9.2,0c.485,0,.661-.148.654-.644-.024-1.522-.009-3.044-.009-4.566m19.088-.057c0-1.5-.022-3,.011-4.5.012-.564-.136-.772-.737-.767-3.022.027-6.045.023-9.067,0-.53,0-.736.135-.732.7q.036,4.566,0,9.133c0,.5.125.7.668.7q4.6-.034,9.2,0c.549,0,.67-.208.663-.7-.023-1.522-.008-3.044-.008-4.566" transform="translate(0 -167.55)" fill="#ef7b13"/>
    <path id="Path_44602" data-name="Path 44602" d="M29.973,0H57.211c1.735,0,2.5.768,2.507,2.5,0,.574,0,1.149,0,1.723a2.085,2.085,0,0,1-2.24,2.231q-6.926.009-13.851,0c-3.91,0-7.82.013-11.73-.013-.637,0-.839.177-.822.819q.063,2.351,0,4.7c-.018.634.211.776.8.772,3.579-.023,7.157-.013,10.736-.01a3.179,3.179,0,0,1,3.228,2.328,3.217,3.217,0,0,1-1.572,3.725.79.79,0,0,0-.461.785c.017,1.436.02,2.872,0,4.308a.69.69,0,0,0,.548.761,5.393,5.393,0,0,1,3.236,7.417,2.943,2.943,0,0,1-.787,1.132,1.109,1.109,0,0,1-1.553.116,1.138,1.138,0,0,1-.171-1.553,3.886,3.886,0,0,0,.672-1.564,3.088,3.088,0,0,0-1.761-3.256,3.128,3.128,0,0,0-3.533.69,3.085,3.085,0,0,0-.407,3.681c.079.133.173.257.252.389a1.176,1.176,0,0,1-.208,1.653,1.144,1.144,0,0,1-1.672-.369A5.4,5.4,0,0,1,41,24.661a.762.762,0,0,0,.61-.856c-.029-1.325-.026-2.651,0-3.976.009-.481-.14-.661-.641-.658q-5.2.025-10.4,0a1.236,1.236,0,0,0-.96.471,5.111,5.111,0,0,1-5.269,1.487,5.134,5.134,0,0,1-3.851-4.055,4.6,4.6,0,0,1-.086-1.051q-.01-4.308,0-8.615c0-.952,0-.953-.925-.953H2.766C1,6.454.246,5.693.245,3.9c0-.53,0-1.06,0-1.591A2.1,2.1,0,0,1,2.535,0Q7.373,0,12.211,0H29.973m.078,2.212H11.238q-4.008,0-8.015,0c-.234,0-.583-.108-.672.136A2.749,2.749,0,0,0,2.526,4.04c.111.383.584.195.891.2q26.563.013,53.126.007c.177,0,.353-.007.53,0,.309.007.441-.147.433-.447-.005-.221,0-.441,0-.662,0-.916,0-.918-.894-.918H30.05m-1.284,13.77a3.028,3.028,0,1,0-3.007,3.074,3.07,3.07,0,0,0,3.007-3.074M25.778,6.455c-.86,0-1.72.013-2.58-.005-.41-.009-.605.112-.6.56.019,1.345.012,2.691,0,4.036,0,.379.09.475.455.274a5.252,5.252,0,0,1,5.36-.006c.342.187.466.149.463-.258-.01-1.345-.015-2.691,0-4.036.006-.439-.171-.58-.59-.57-.838.02-1.676.006-2.514.006m9.557,10.513h3.243c.912,0,.912,0,.9-.933a2.119,2.119,0,0,1,.015-.528c.131-.516-.124-.579-.558-.576-2.162.016-4.324,0-6.485.01-1.605.009-1.326-.232-1.376,1.426-.014.471.166.615.617.607,1.213-.021,2.427-.007,3.64-.007m6.464-1a.91.91,0,1,0,.924-.986.93.93,0,0,0-.924.986" transform="translate(-0.201 0)" fill="#ef7b13"/>
    <path id="Path_44603" data-name="Path 44603" d="M94.9,300.556a1.123,1.123,0,1,1-1.085-1.1,1.106,1.106,0,0,1,1.085,1.1" transform="translate(-76.248 -246.424)" fill="#ef7b13"/>
    <path id="Path_44604" data-name="Path 44604" d="M141.078,300.55a1.064,1.064,0,0,1-1.069,1.1,1.1,1.1,0,1,1,0-2.2,1.062,1.062,0,0,1,1.068,1.1" transform="translate(-114.267 -246.422)" fill="#ef7b13"/>
    <path id="Path_44605" data-name="Path 44605" d="M232.5,299.452a1.1,1.1,0,1,1-.024,2.2,1.1,1.1,0,0,1,.024-2.2" transform="translate(-190.419 -246.425)" fill="#ef7b13"/>
    <path id="Path_44606" data-name="Path 44606" d="M278.55,299.451a1.1,1.1,0,1,1,.028,2.2,1.1,1.1,0,1,1-.028-2.2" transform="translate(-228.312 -246.423)" fill="#ef7b13"/>
    <path id="Path_44607" data-name="Path 44607" d="M185.174,300.489a1.1,1.1,0,1,1,1.012,1.154,1.075,1.075,0,0,1-1.012-1.154" transform="translate(-152.382 -246.416)" fill="#ef7b13"/>
    <path id="Path_44608" data-name="Path 44608" d="M48.874,300.514a1.092,1.092,0,0,1-1.04,1.133,1.1,1.1,0,0,1-.129-2.2,1.089,1.089,0,0,1,1.169,1.068" transform="translate(-38.414 -246.418)" fill="#ef7b13"/>
  </g>
</svg>
