<svg id="Group_11156" data-name="Group 11156" xmlns="http://www.w3.org/2000/svg" xmlns:xlink="http://www.w3.org/1999/xlink" width="63.57" height="59.498" viewBox="0 0 63.57 59.498">
  <defs>
    <clipPath id="clip-path">
      <rect id="Rectangle_4539" data-name="Rectangle 4539" width="63.57" height="59.498" fill="#ef7b13"/>
    </clipPath>
  </defs>
  <g id="Group_11155" data-name="Group 11155" clip-path="url(#clip-path)">
    <path id="Path_44609" data-name="Path 44609" d="M.006,131.907a5.9,5.9,0,0,1,3.755-5.658,53.215,53.215,0,0,0,10.145-5.244,52.913,52.913,0,0,0,5.757-4.567,1.425,1.425,0,0,0,.376-.714c.436-1.421,1.658-2.092,3.445-2.319a2.81,2.81,0,0,1,2.821,2.083q3.733,10.274,7.459,20.55a3.314,3.314,0,0,1,.224,2.058,2.621,2.621,0,0,1-1.258,1.7c-1.305.705-2.613,1.1-4.028.159a3.714,3.714,0,0,0-2.062-.262,49.809,49.809,0,0,0-11.162,1.124c-.388.085-.459.273-.431.627q.16,2.037.276,4.078a1.012,1.012,0,0,0,.4.7q1.623,1.542,3.247,3.083c.929.877.783,1.75-.4,2.192-1.716.642-3.44,1.265-5.166,1.88a1.189,1.189,0,0,1-1.743-.843c-1.1-3.023-2.21-6.043-3.286-9.076a.969.969,0,0,0-1-.735,5.879,5.879,0,0,1-5.212-3.753c-.717-1.706-1.279-3.478-1.9-5.224a4.829,4.829,0,0,1-.255-1.838m26.611,5.6c.734.148.7-.142.526-.607q-3.158-8.647-6.293-17.3c-.343-.946-.339-.948-1.105-.291a49.21,49.21,0,0,1-11.634,7.48c-.539.246-.539.489-.364.964q2.043,5.549,4.036,11.117c.177.5.395.517.848.393a49.629,49.629,0,0,1,13.985-1.754M7.859,140.53a5.166,5.166,0,0,0,1.509-.231c.448-.134.5-.349.344-.749-.475-1.254-.924-2.518-1.382-3.779Q7,132.11,5.662,128.45c-.076-.207-.045-.529-.47-.439a4.116,4.116,0,0,0-2.963,4.315,27.811,27.811,0,0,0,2.186,6.184,3.573,3.573,0,0,0,3.444,2.02m22.459-2.22c1.281-.035,1.693-.638,1.319-1.671L26.889,123.55q-1.285-3.542-2.575-7.083c-.129-.352-.218-.765-.689-.837a1.133,1.133,0,0,0-1.313,1.542c.036.1.07.2.106.3q2.477,6.813,4.955,13.626,1.191,3.271,2.388,6.54c.13.357.287.674.557.671M16.281,149.826c-.073-.079-.154-.177-.245-.264-.756-.719-1.507-1.442-2.272-2.15a1.683,1.683,0,0,1-.6-1.153c-.1-1.419-.232-2.837-.323-4.257-.025-.39-.145-.485-.508-.355-.52.188-1.047.358-1.576.516-.339.1-.427.27-.3.612q1.429,3.893,2.835,7.8c.1.28.228.428.563.3.714-.277,1.44-.522,2.159-.783.115-.042.255-.065.268-.26" transform="translate(-0.001 -94.005)" fill="#ef7b13"/>
    <path id="Path_44610" data-name="Path 44610" d="M205.177,24.656a4.4,4.4,0,0,1-.873,2.859.621.621,0,0,0,.024.848q1.5,2.075,2.943,4.186a.745.745,0,0,0,.946.351,4.163,4.163,0,1,1-2.266,6.611,4.057,4.057,0,0,1-.385-4.5.927.927,0,0,0-.074-1.185c-.981-1.343-1.928-2.71-2.87-4.08a.566.566,0,0,0-.783-.264,5.034,5.034,0,0,1-5.859-1.615c-.324-.4-.585-.352-.982-.186-3.085,1.295-6.182,2.56-9.262,3.866-.56.237-.81.166-1.032-.427-.5-1.331-.531-1.324.765-1.864,2.931-1.221,5.86-2.447,8.8-3.646a.79.79,0,0,0,.592-.9,4.52,4.52,0,0,1,1.317-3.547.548.548,0,0,0,.085-.777c-.71-1.19-1.414-2.383-2.1-3.59-.181-.322-.388-.35-.726-.319a4.083,4.083,0,0,1-4.6-3,3.957,3.957,0,0,1,1.364-4.313,3.923,3.923,0,0,1,4.32-.582,3.941,3.941,0,0,1,2.46,3.723,3.908,3.908,0,0,1-.861,2.615.587.587,0,0,0-.064.786c.7,1.168,1.387,2.35,2.068,3.532.159.276.326.553.683.371.4-.2,1.043.158,1.2-.645.7-3.551,1.445-7.093,2.2-10.633.1-.458-.209-.54-.457-.719a4.034,4.034,0,0,1-1.74-4.186A3.934,3.934,0,0,1,203,.159a4.149,4.149,0,0,1,5.058,2.705,4.051,4.051,0,0,1-2.54,5.163,1.7,1.7,0,0,0-1.338,1.545c-.62,3.241-1.3,6.471-1.981,9.7-.09.427-.042.675.369.868a3.6,3.6,0,0,1,1.238.994.554.554,0,0,0,.762.2q1.55-.684,3.13-1.3a.678.678,0,0,0,.474-.722,4.061,4.061,0,0,1,4.441-3.928,4.144,4.144,0,0,1-.281,8.277,3.9,3.9,0,0,1-3.026-1.275.775.775,0,0,0-1.052-.209c-.673.318-1.375.578-2.064.863-1.015.419-1.016.418-1.011,1.611m-5.25,2.937a2.943,2.943,0,0,0,3.083-2.9,3.026,3.026,0,0,0-2.968-3.048,3.064,3.064,0,0,0-3.029,3,2.96,2.96,0,0,0,2.914,2.946m4.181-21.468a2,2,0,0,0,1.974-2,1.972,1.972,0,0,0-3.943.062,1.992,1.992,0,0,0,1.969,1.939M192.854,10.4a2.008,2.008,0,0,0-1.978,2,2.046,2.046,0,0,0,2,1.927,2.025,2.025,0,0,0,1.942-1.982,2,2,0,0,0-1.965-1.947m19.462,11.076a1.991,1.991,0,0,0,1.952-1.956,1.971,1.971,0,0,0-3.943-.029,2,2,0,0,0,1.991,1.985m-3.137,17.4a2,2,0,0,0,2.02-1.956,1.972,1.972,0,0,0-3.943-.032,2,2,0,0,0,1.923,1.988" transform="translate(-152.865 0)" fill="#ef7b13"/>
    <path id="Path_44611" data-name="Path 44611" d="M175,117.633a4.273,4.273,0,0,1-.286.358c-.809.814-1.628,1.618-2.429,2.44-.259.266-.442.293-.735.022-1.236-1.141-1.244-1.132-.067-2.309.571-.571,1.149-1.135,1.711-1.715.237-.245.436-.3.688-.022.287.313.6.6.9.907a2.523,2.523,0,0,1,.223.319" transform="translate(-141.447 -96.355)" fill="#ef7b13"/>
    <path id="Path_44612" data-name="Path 44612" d="M204.357,218.147c-1.1.024-1.1.024-1.248-.981-.024-.169-.043-.338-.065-.507-.052-.408.074-.635.537-.66,1.04-.056,2.079-.148,3.118-.232.43-.035.643.137.625.58a4.582,4.582,0,0,0,.018.575c.089,1.008.051,1.044-.986,1.093-.7.034-1.4.091-2,.131" transform="translate(-168.327 -178.881)" fill="#ef7b13"/>
  </g>
</svg>
