<svg id="Group_11152" data-name="Group 11152" xmlns="http://www.w3.org/2000/svg" xmlns:xlink="http://www.w3.org/1999/xlink" width="66.211" height="59.498" viewBox="0 0 66.211 59.498">
  <defs>
    <clipPath id="clip-path">
      <rect id="Rectangle_4537" data-name="Rectangle 4537" width="66.211" height="59.498" fill="#ef7b13"/>
    </clipPath>
  </defs>
  <g id="Group_11151" data-name="Group 11151" clip-path="url(#clip-path)">
    <path id="Path_44599" data-name="Path 44599" d="M31.3,59.5q-12.883,0-25.766,0A4.35,4.35,0,0,1,1.1,55.787a4.411,4.411,0,0,1,3.5-5.029,8.52,8.52,0,0,1,2.121-.106c.657.046.823-.215.821-.841-.02-5.948-.012-11.9-.012-17.843,0-1.886-.013-3.773.008-5.659.006-.507-.143-.718-.676-.836A8.8,8.8,0,0,1,0,16.866a6.4,6.4,0,0,1,1.686-4.647c3.274-3.648,6.4-7.43,9.551-11.187A2.339,2.339,0,0,1,13.209.175c6.014,0,12.03.048,18.042-.049C37.62.024,43.989.06,50.357,0A2.007,2.007,0,0,1,52.1.858q5.052,6.4,10.145,12.77a2.072,2.072,0,0,1,.5,1.4,13.445,13.445,0,0,1-.544,4.991,8.769,8.769,0,0,1-5.455,5.2c-.509.178-.723.4-.675.942a15.136,15.136,0,0,1,.01,1.53c0,.3.1.4.4.289a2.358,2.358,0,0,1,2.149.3c2.121,1.251,4.258,2.475,6.4,3.7a2.143,2.143,0,0,1,1.182,2.06c-.032,2.574-.023,5.149,0,7.723A2.07,2.07,0,0,1,65.072,43.7Q61.781,45.592,58.5,47.5a2.053,2.053,0,0,1-2.023.223c-.3-.141-.4-.064-.4.254.008.732.009,1.465,0,2.2,0,.348.171.48.494.467a6.519,6.519,0,0,1,1.653.152,4.47,4.47,0,0,1,3.424,4.688,4.411,4.411,0,0,1-4.319,4.014q-13.016.014-26.032,0m.05-38.15A11.042,11.042,0,0,1,29.6,23.461a8.635,8.635,0,0,1-12.989-1.6c-.324-.458-.457-.381-.729.015a8.523,8.523,0,0,1-5.326,3.6c-.553.125-.709.342-.708.884q.022,11.751,0,23.5c0,.622.2.8.8.79,2.352-.028,4.7-.011,7.057-.011,1.052,0,1.051,0,1.175-1.021.027-.22.067-.439.088-.659a9.26,9.26,0,0,1,8.056-7.931c2.571-.215,5.144-.067,7.716-.089a7.368,7.368,0,0,1,1.516.176,9.186,9.186,0,0,1,7.551,8.9c.022.453.163.628.624.626q4.394-.019,8.788,0c.506,0,.652-.2.641-.673-.025-1.042-.027-2.086,0-3.129a.941.941,0,0,0-.568-.945c-1.26-.7-2.494-1.449-3.752-2.154a2.3,2.3,0,0,1-1.263-2.174c.008-2.508,0-5.015,0-7.523a2.194,2.194,0,0,1,1.2-2.067c1.3-.726,2.569-1.5,3.867-2.221a.884.884,0,0,0,.513-.9c-.026-.865-.021-1.731,0-2.6.009-.415-.128-.571-.565-.611a8.509,8.509,0,0,1-6.465-3.723c-.371-.531-.509-.457-.838.017a8.617,8.617,0,0,1-10.436,3.075,8.75,8.75,0,0,1-4.2-3.676m-.068,35.835H56.514c.288,0,.578.006.865-.01a2.055,2.055,0,0,0,1.927-1.639A2.109,2.109,0,0,0,58.1,53.171a3.321,3.321,0,0,0-1.435-.2H6c-.244,0-.49-.01-.732.013A2.112,2.112,0,0,0,4.6,57.028a3.1,3.1,0,0,0,1.311.151q12.684,0,25.368,0m12.5-43.69a2.664,2.664,0,0,0-.127-.313,30.608,30.608,0,0,1-4-10.016c-.136-.615-.369-.824-1.01-.816q-7.487.1-14.975.118a.765.765,0,0,0-.888.721,30.171,30.171,0,0,1-3.839,9.727c-.308.49-.167.615.34.579.11-.008.222,0,.333,0H43.779Zm-12.1,29.759c-1.446,0-2.6-.017-3.754,0a6.994,6.994,0,0,0-6.74,6.409c-.059.942-.027.977.911.98.288,0,.578-.017.865,0,.522.038.874-.058.987-.687a.976.976,0,0,1,1.043-.769.99.99,0,0,1,1.062.831c.077.534.318.631.787.628q4.494-.021,8.988,0c.42,0,.7-.043.768-.572a1.033,1.033,0,0,1,1.035-.878.923.923,0,0,1,1.05.65c.162.827.684.847,1.316.8a4.881,4.881,0,0,1,.8,0c.516.046.693-.157.694-.686a6.924,6.924,0,0,0-5.652-6.58,32.586,32.586,0,0,0-4.157-.13M59.121,13.492a3.835,3.835,0,0,0-.2-.344Q54.76,7.916,50.6,2.682a.925.925,0,0,0-.809-.353c-2.461.014-4.923.025-7.384.023-.434,0-.591.1-.477.578a27.7,27.7,0,0,0,4.253,9.891,1.433,1.433,0,0,0,1.316.686c3.148-.031,6.3-.014,9.446-.014h2.175M3.726,13.448c.317.024.447.042.578.042,3.613,0,7.226-.005,10.839.009a1.111,1.111,0,0,0,.989-.526,27.29,27.29,0,0,0,4.313-9.787c.156-.627-.056-.711-.6-.7-1.995.023-3.99.037-5.984,0a1.638,1.638,0,0,0-1.413.664C10.5,5.477,8.526,7.782,6.561,10.1c-.913,1.076-1.823,2.155-2.835,3.352M53.97,15.814c-1.906,0-3.812.018-5.717-.011-.563-.009-.739.192-.711.732a14.44,14.44,0,0,0,.132,1.585,6.431,6.431,0,0,0,7.608,5.139,6.559,6.559,0,0,0,5.156-6.744c-.031-.559-.215-.718-.75-.711-1.906.024-3.812.009-5.717.009m-45.239,0c-1.928,0-3.856.015-5.784-.01-.527-.007-.735.172-.675.691.049.417.071.837.112,1.256a6.355,6.355,0,0,0,7.663,5.5,6.465,6.465,0,0,0,5.069-6.734c0-.565-.2-.716-.735-.709-1.883.025-3.767.01-5.651.01m15.068,0q-2.862,0-5.725,0c-.325,0-.594,0-.651.454a6.406,6.406,0,1,0,12.752.267c-.023-.535-.157-.74-.719-.732-1.886.029-3.772.011-5.658.011m15.093,0c-1.662,0-3.325-.012-4.987,0-1.575.015-1.427-.261-1.4,1.407a6.383,6.383,0,1,0,12.741-.73c-.027-.515-.178-.7-.7-.689-1.884.023-3.768.009-5.651.009M50.609,38.463c0,.908,0,1.816,0,2.723a.712.712,0,0,0,.348.724q2.423,1.381,4.831,2.789c.357.207.463.091.471-.286q.057-2.854.137-5.707a.661.661,0,0,0-.4-.687Q53.54,36.767,51.1,35.486c-.4-.208-.5-.089-.5.319.014.885,0,1.771,0,2.657m7.869,6.393c1.818-1.051,3.5-2.028,5.191-3a.624.624,0,0,0,.31-.612q-.006-2.727,0-5.455c0-.383-.084-.48-.451-.27-1.445.823-2.9,1.628-4.355,2.432a.842.842,0,0,0-.471.732c-.193,2.008-.007,4.026-.226,6.173M51.838,33.282c1.9.979,3.664,1.89,5.43,2.806a.607.607,0,0,0,.626-.038q2.2-1.236,4.4-2.464c.35-.194.348-.341,0-.539q-2.364-1.35-4.717-2.719a.569.569,0,0,0-.623-.005c-1.664.963-3.329,1.925-5.122,2.96" transform="translate(0 0)" fill="#ef7b13"/>
    <path id="Path_44600" data-name="Path 44600" d="M148.634,148.947a7.6,7.6,0,1,1-8.037-7.578,7.678,7.678,0,0,1,8.037,7.578m-2.267.021a5.329,5.329,0,1,0-5.381,5.316,5.342,5.342,0,0,0,5.381-5.316" transform="translate(-109.691 -116.208)" fill="#ef7b13"/>
  </g>
</svg>
